<?xml version="1.0" standalone="no"?>
<!DOCTYPE svg PUBLIC "-//W3C//DTD SVG 1.1//EN" "http://www.w3.org/Graphics/SVG/1.1/DTD/svg11.dtd" >
<svg>
<metadata>
Created by FontForge 20110222 at Mon Nov  3 05:35:36 2014
 By deploy user
Copyright (c) 2011, Dan Sayers (i@iotic.com), with Reserved Font Name 'Averia' and 'Averia Libre'.
</metadata>
<defs>
<font id="AveriaSerifLibre-Italic" horiz-adv-x="1047" >
  <font-face 
    font-family="Averia Serif Libre"
    font-weight="500"
    font-style="italic"
    font-stretch="normal"
    units-per-em="2048"
    panose-1="2 0 6 3 0 0 0 0 0 4"
    ascent="1622"
    descent="-426"
    x-height="901"
    cap-height="1384"
    bbox="-203 -484 2058 1862"
    underline-thickness="100"
    underline-position="-147"
    slope="-7.90001"
    unicode-range="U+0020-2212"
  />
<missing-glyph horiz-adv-x="1152" 
d="M814 65q109 0 109 10q0 21 -248 382q-8 12 -54 83t-50 71l-49 -75l-5 -9l-38 -58q-4 -7 -11 -17q-247 -359 -247 -382q0 -1 18 -1l10 -1l9 -1l69 -2h487zM150 725v-368q0 -196 5 -196t110 161l61 90q22 34 35 52.5t34.5 51.5t68.5 100t47 73v10q0 8 -132 201t-139 204
l-86 127q-4 0 -4 -506zM993 635v119q0 478 -5 478t-54 -75t-175.5 -256t-126.5 -198t76.5 -126.5t175 -260.5t104 -151t5.5 470zM677 1331h-31l-10 -1h-61q-356 0 -356 -8.5t52 -84t79.5 -118t49.5 -73.5t96 -145.5t79 -114.5t63 89.5t67 103.5t23 34l123 186q80 114 80 123
t-254 9zM53 40v200l1 25v451q0 692 2 697q7 18 83 18h845q99 0 103 -16.5t4 -402.5v-424l1 -100v-475q0 -35 -31.5 -38.5t-276.5 -3.5h-449q-261 0 -271.5 6t-10.5 63z" />
    <glyph glyph-name=".notdef" horiz-adv-x="1152" 
d="M814 65q109 0 109 10q0 21 -248 382q-8 12 -54 83t-50 71l-49 -75l-5 -9l-38 -58q-4 -7 -11 -17q-247 -359 -247 -382q0 -1 18 -1l10 -1l9 -1l69 -2h487zM150 725v-368q0 -196 5 -196t110 161l61 90q22 34 35 52.5t34.5 51.5t68.5 100t47 73v10q0 8 -132 201t-139 204
l-86 127q-4 0 -4 -506zM993 635v119q0 478 -5 478t-54 -75t-175.5 -256t-126.5 -198t76.5 -126.5t175 -260.5t104 -151t5.5 470zM677 1331h-31l-10 -1h-61q-356 0 -356 -8.5t52 -84t79.5 -118t49.5 -73.5t96 -145.5t79 -114.5t63 89.5t67 103.5t23 34l123 186q80 114 80 123
t-254 9zM53 40v200l1 25v451q0 692 2 697q7 18 83 18h845q99 0 103 -16.5t4 -402.5v-424l1 -100v-475q0 -35 -31.5 -38.5t-276.5 -3.5h-449q-261 0 -271.5 6t-10.5 63z" />
    <glyph glyph-name=".notdef" horiz-adv-x="1152" 
d="M814 65q109 0 109 10q0 21 -248 382q-8 12 -54 83t-50 71l-49 -75l-5 -9l-38 -58q-4 -7 -11 -17q-247 -359 -247 -382q0 -1 18 -1l10 -1l9 -1l69 -2h487zM150 725v-368q0 -196 5 -196t110 161l61 90q22 34 35 52.5t34.5 51.5t68.5 100t47 73v10q0 8 -132 201t-139 204
l-86 127q-4 0 -4 -506zM993 635v119q0 478 -5 478t-54 -75t-175.5 -256t-126.5 -198t76.5 -126.5t175 -260.5t104 -151t5.5 470zM677 1331h-31l-10 -1h-61q-356 0 -356 -8.5t52 -84t79.5 -118t49.5 -73.5t96 -145.5t79 -114.5t63 89.5t67 103.5t23 34l123 186q80 114 80 123
t-254 9zM53 40v200l1 25v451q0 692 2 697q7 18 83 18h845q99 0 103 -16.5t4 -402.5v-424l1 -100v-475q0 -35 -31.5 -38.5t-276.5 -3.5h-449q-261 0 -271.5 6t-10.5 63z" />
    <glyph glyph-name="glyph1" horiz-adv-x="0" 
 />
    <glyph glyph-name="glyph2" horiz-adv-x="682" 
 />
    <glyph glyph-name="space" unicode=" " horiz-adv-x="519" 
 />
    <glyph glyph-name="exclam" unicode="!" horiz-adv-x="581" 
d="M571 1360v-21q0 -45 -22 -125.5t-33 -128.5t-19 -79t-11 -43l-6 -23l-5 -24l-6 -23q-5 -18 -8 -35t-12 -46l-10 -47l-6 -23q-6 -24 -24 -93l-48 -184q-23 -75 -76 -75h-10q-30 0 -30 41v22q0 14 50 412q51 397 61 443q23 102 139 102h11q65 0 65 -50zM371 136v-25
q0 -42 -38 -86.5t-88 -44.5h-25q-32 0 -69 30.5t-37 78.5v21q3 12 3 20q0 31 39 70t76 39l8 2h25q39 0 72.5 -33.5t33.5 -71.5z" />
    <glyph glyph-name="quotedbl" unicode="&#x22;" horiz-adv-x="777" 
d="M386 1429h26q48 0 48 -44v-6l-1 -6v-6q0 -121 -100 -361q-37 -88 -84 -88h-19q-23 0 -23 21v11q3 18 3 27t19.5 87t19.5 105l3 26v13l1 13v39l-1 12q0 108 8 118q30 39 100 39zM598 918h-13q-31 0 -31 22v17q0 12 22 107.5t22 141.5v54l-5 60v12q0 98 130 98h7
q56 0 56 -45v-18l-4 -39q0 -108 -111 -352q-26 -58 -73 -58z" />
    <glyph glyph-name="numbersign" unicode="#" horiz-adv-x="1205" 
d="M672 813q-126 0 -137.5 -13.5t-31.5 -86.5t-37 -116t-17 -63v-4q0 -7 24 -7h79l6 1l67 -1h46q33 0 45 31q76 190 76 247v5q0 8 -18 8h-79l-6 -1h-17zM976 523q79 0 79 -46t-42 -63q-24 -10 -91 -14t-95 -27q-51 -43 -82 -129l-21 -68q-28 -88 -34 -98q-26 -44 -69 -44
t-43 37.5t37.5 160.5t37.5 136q0 34 -113.5 34t-135.5 -32q-10 -15 -46 -132t-43 -133q-33 -71 -81.5 -71t-48.5 42q0 13 27.5 103t27.5 136t-29 68l-22 10l-30 4l-28 7q-45 16 -45 47.5t45 56.5q19 11 89 14t90.5 21.5t47 104.5t26.5 115q0 40 -95.5 46t-95.5 51
q0 40 47 59q17 7 84.5 12t105.5 38t78 160.5t45 135.5q22 37 74 37q38 0 38 -53q0 -15 -37.5 -144t-37.5 -150.5t110.5 -21.5t125.5 15t59 151.5t51 147.5q27 47 83 47q30 0 30 -58q0 -9 -22.5 -87t-22.5 -127t21 -68l21 -11l29 -4l31 -6q56 -16 56 -37v-19q0 -38 -55 -56
q-6 -2 -87.5 -8t-95.5 -22.5t-42.5 -107t-28.5 -121.5q0 -39 123 -39z" />
    <glyph glyph-name="dollar" unicode="$" horiz-adv-x="1053" 
d="M540 835h8q6 0 11 17q81 270 81 380q0 12 -8 12h-10l-6 -1q-78 0 -141 -63t-63 -148v-22q0 -44 32 -95q50 -80 96 -80zM500 111v-10q0 -12 11 -12h5q101 0 171.5 79.5t70.5 165.5v30q0 59 -35 104q-69 89 -111 89h-8q-10 0 -17 -27q-87 -319 -87 -419zM1010 1200v-27
q0 -45 -27.5 -80.5t-50 -35.5t-77.5 62t-85 62q-18 0 -40 -46q-65 -137 -65 -315q0 -46 89 -110t123 -112q60 -84 60 -214t-90 -229t-239 -148q-89 -30 -107 -43t-42.5 -75t-61.5 -62h-23q-15 0 -19.5 55t-17.5 75q-26 40 -121 73.5t-116.5 54t-21.5 83.5v27q0 70 27 108
t38 38q23 0 77 -93q71 -123 130 -123q41 0 64 76q75 243 75 358q0 57 -81.5 120.5t-122.5 125.5t-41 159q0 143 101 249q72 75 208 120q71 24 81 31t40 56.5t63 49.5t39 -32q14 -74 28 -86q28 -23 94 -43.5t76 -26.5q36 -22 36 -82z" />
    <glyph glyph-name="percent" unicode="%" horiz-adv-x="1507" 
d="M333 975v-44q0 -69 32 -110t69 -41h25q67 0 122.5 87.5t55.5 199.5l-1 7v13l-3 37q0 42 -30 80.5t-68 38.5h-25q-60 0 -108 -68q-65 -93 -65 -168q-4 -26 -4 -32zM955 269q0 -72 30.5 -118t77.5 -46h18q62 0 118 80t56 157q3 18 3 19l1 26v19q0 75 -31 119t-77 44h-18
q-61 0 -118 -81.5t-57 -167.5l-1 -6l-1 -7l-1 -25v-13zM182 931v30q0 147 104.5 259.5t234.5 112.5h31q97 0 166.5 -69.5t69.5 -180.5v-20q0 -147 -105 -260t-234 -113h-31q-101 0 -168.5 72.5t-67.5 168.5zM1321 1318h16q35 0 35 -17.5t-24 -54.5q-120 -187 -920 -1091
q-106 -120 -157 -120h-16q-35 0 -35 18.5t24 54.5q138 206 929 1101q96 109 148 109zM805 256v40q0 139 105 251t244 112h10q98 0 172 -64t74 -176v-40q0 -139 -104.5 -251t-234.5 -112h-30q-107 0 -171.5 75t-64.5 165z" />
    <glyph glyph-name="ampersand" unicode="&#x26;" horiz-adv-x="1506" 
d="M659 1037q0 -63 47 -133q17 -25 25 -25l5 1h5q65 0 140 96.5t75 154.5l2 12l1 25v6q0 58 -31.5 94t-75.5 36h-30q-58 0 -110.5 -59t-52.5 -123l-3 -29v-28q3 -18 3 -28zM582 111h25q77 0 166 41.5t89 81.5v6q0 13 -32 55l-69 97q-2 3 -11 17q-9 15 -14 21l-60 92l-4 7
q-82 128 -104 128h-6q-55 0 -139 -122q-57 -82 -57 -171v-34q0 -87 60.5 -153t155.5 -66zM1336 72.5q0 -5.5 -11 -9.5q-109 -41 -216 -41q-39 0 -102.5 26.5t-89.5 26.5t-133.5 -40t-205.5 -40h-66q-277 0 -360 176q-28 60 -28 125q0 124 57 212t144 155q143 110 143 145
t-12.5 88.5t-12.5 135.5q0 153 109 262q60 60 135.5 90t136.5 30h36q108 0 174 -63t66 -163.5t-103.5 -223t-103.5 -203.5t53 -174t101 -93q10 0 58.5 57t48.5 117q0 18 -3 35l-5 21q-8 29 -8 37q0 34 34 46q59 21 257 21q42 0 42 -29t-35.5 -72t-56 -79.5t-57 -83
t-40.5 -54.5q-86 -179 -86 -228q0 -82 37 -130q18 -24 60.5 -49t42.5 -30.5z" />
    <glyph glyph-name="quotesingle" unicode="'" horiz-adv-x="455" 
d="M459 1402v-18l-1 -6q0 -114 -86 -320q-53 -128 -97 -128h-26q-24 0 -24 23v11v1v2q0 14 21 102q22 92 22 207q0 114 10 127q30 39 105.5 39t75.5 -40z" />
    <glyph glyph-name="parenleft" unicode="(" horiz-adv-x="695" 
d="M768 1465q0 -25 -64 -91q-171 -177 -265 -426q-116 -309 -116 -623q0 -172 32.5 -297t58.5 -181.5t57.5 -112.5t31.5 -73q0 -44 -43 -44q-37 0 -80 51q-86 102 -145 241q-85 200 -85 424v65q0 309 156 630q71 145 212 311.5t206 166.5q44 0 44 -41z" />
    <glyph glyph-name="parenright" unicode=")" horiz-adv-x="695" 
d="M14 -386q-47 0 -47 40q0 13 82.5 110t143 194.5t118.5 252.5q103 275 103 590t-140 570q-40 72 -40 86q0 47 41 47h19q16 0 48 -34q94 -100 170 -279t76 -401v-64q0 -153 -44 -322q-90 -342 -305 -596q-165 -194 -225 -194z" />
    <glyph glyph-name="asterisk" unicode="*" horiz-adv-x="899" 
d="M256 913q0 31 40 71q4 4 16 26t12 31t-24 25t-51 49t-27 71q0 53 61 53q38 0 99 -40t82 -40q12 0 12 96.5t15.5 129t51.5 32.5h20q64 0 64 -70q0 -5 -21 -107q-16 -78 -16 -97q0 -6 2 -6q6 0 92.5 54.5t119.5 54.5q65 0 65 -62q0 -72 -141 -128q-55 -22 -55 -29.5
t50.5 -52t50.5 -100.5t-42 -56q-29 0 -108 28l-30 13q-18 0 -45.5 -51t-82.5 -51h-13q-23 0 -33 37q-19 70 -34 70l-102 -15q-28 0 -28 64z" />
    <glyph glyph-name="plus" unicode="+" horiz-adv-x="1084" 
d="M805.5 641q164.5 0 170.5 -1q33 -5 33 -39q0 -68 -37 -81q-14 -5 -173.5 -5t-166.5 -7t-21.5 -174t-14.5 -168q-10 -39 -58 -39h-18q-49 0 -49 77l22 277q0 32 -184 32t-184 38q0 66 35 82q16 7 175.5 7t166 5.5t20.5 167.5l15 174q10 37 61 37h18q48 0 48 -78l-23 -277
q0 -28 164.5 -28z" />
    <glyph glyph-name="comma" unicode="," horiz-adv-x="515" 
d="M241 241h23q99 0 99 -117l-1 -8q0 -127 -111.5 -275.5t-188.5 -148.5h-14q-28 0 -28 35q0 18 33 48.5t73.5 84.5t40.5 96.5t-30.5 84.5t-30.5 83t38 79t97 38z" />
    <glyph glyph-name="hyphen" unicode="-" horiz-adv-x="778" 
d="M654 595q31 0 31 -32v-6l-1 -7q0 -80 -41 -91t-254 -11h-35l-34 -2h-27l-20 -1h-67l-20 -1h-26q-29 0 -29 26v20q0 80 39 90.5t263 10.5l163 4h58z" />
    <glyph glyph-name="period" unicode="." horiz-adv-x="492" 
d="M345 140v-25q0 -43 -38.5 -89t-92.5 -46h-25q-10 2 -13 2q-26 0 -58 32t-32 62l-2 9v29q3 12 3 27t38 59.5t90 44.5h25q10 -2 13 -2q27 0 59.5 -32.5t32.5 -70.5z" />
    <glyph glyph-name="slash" unicode="/" horiz-adv-x="826" 
d="M848 1476h19q52 0 52 -26q0 -9 -34 -83q-230 -503 -731 -1426q-66 -121 -122 -121t-57 23q0 68 769 1521q59 112 104 112z" />
    <glyph glyph-name="zero" unicode="0" horiz-adv-x="1133" 
d="M898 736v66q0 148 -56.5 239.5t-158.5 91.5q-146 0 -257 -187q-57 -96 -91.5 -230t-34.5 -257v-14q0 -172 57 -264t146 -92h26q61 0 129 51q138 104 206 365q34 131 34 231zM109 439v36q1 135 47 283q95 302 327 430q98 54 205 54h37q81 0 149 -36q216 -115 216 -442
l-1 -18q0 -141 -44 -281t-124.5 -251.5t-193 -173t-216.5 -61.5h-37q-74 0 -143 33.5t-114 89.5q-108 134 -108 337z" />
    <glyph glyph-name="one" unicode="1" horiz-adv-x="841" 
d="M274 0q-145 0 -145 40q0 32 81 75t105 113.5t72 390.5t48 350q0 67 -83 67t-83 41q0 19 62 52q17 9 162 60t179 51t34 -35t-22 -101t-39.5 -132t-41.5 -224l-76 -494q0 -67 48 -111q74 -67 74 -90q0 -30 -49.5 -41t-206.5 -11l-40 -1h-79z" />
    <glyph glyph-name="two" unicode="2" horiz-adv-x="1036" 
d="M73 45q0 57 70 130.5t232.5 212.5t248.5 245q122 151 122 289q0 87 -56 133t-126 46q-118 0 -214 -152q-55 -86 -91 -86q-29 0 -29 57q0 129 121.5 222t278.5 93h31q127 0 211.5 -80.5t84.5 -212t-98 -257.5t-308 -292.5t-210 -206.5q0 -23 152.5 -23t205.5 17.5
t101.5 53.5t70.5 36q28 0 28 -26q0 -130 -68 -204q-39 -42 -155 -42h-31l-61 2q-44 1 -113.5 3.5t-104.5 2.5l-213 -5q-80 0 -80 44z" />
    <glyph glyph-name="three" unicode="3" horiz-adv-x="1015" 
d="M708 965q0 123 -137 123q-62 0 -170.5 -56.5t-110.5 -56.5q-35 0 -35 45q0 94 96.5 157t249.5 63t237 -49.5t84 -130.5v-27q0 -149 -168 -299q-74 -66 -74 -87l74 -51q47 -33 88.5 -94t41.5 -157q0 -197 -161 -327t-366 -130q-117 0 -199.5 39.5t-82.5 105.5t66 66
q29 0 97 -41t125 -41q139 0 228 84.5t89 215.5q0 183 -192 233q-94 24 -94 64q0 18 91 67t131 92q92 99 92 192z" />
    <glyph glyph-name="four" unicode="4" horiz-adv-x="1069" 
d="M372 397h195q45 0 58 56q76 323 76 483v7l-2 4q-14 0 -204 -225l-66 -78q-12 -14 -30 -33.5t-94.5 -110t-76.5 -92.5v-5q0 -6 144 -6zM809 29q0 -55 -72 -99.5t-184 -44.5q-79 0 -79 59q0 49 45.5 110.5t45.5 114t-51 80.5q-25 14 -187.5 14t-181.5 3q-92 15 -92 53
q0 69 616 745q129 141 194 141q54 0 54 -87q0 -4 -33 -221t-33 -312t8.5 -113t35 -31t29.5 -15q40 -26 40 -58v-25q0 -19 -24.5 -35t-82 -96.5t-57.5 -94.5q9 -54 9 -88z" />
    <glyph glyph-name="five" unicode="5" horiz-adv-x="1022" 
d="M375 813q0 -35 25 -45q10 -4 92 -8.5t149 -20.5t126 -64q122 -99 122 -287q0 -87 -40 -176.5t-117 -159.5t-178 -108.5t-202 -38.5h-28q-97 0 -170.5 37t-73.5 77.5t23 59.5t46 19t93.5 -34.5t129.5 -34.5q132 0 223 98t91 226.5t-71.5 200t-228.5 71.5l-27 -2l-27 -3
l-27 -4q-78 0 -78 51q0 83 62 279t79 224.5t40.5 39t175.5 10.5l93 -1q31 -1 79 -1t96 11l100 23q44 0 44 -31v-24q0 -86 -75 -126q-47 -25 -216 -25l-147 8q-86 0 -115 -38q-68 -90 -68 -203z" />
    <glyph glyph-name="six" unicode="6" horiz-adv-x="1080" 
d="M589 732h-18q-49 0 -111 -31q-160 -79 -160 -301v-39q0 -124 60.5 -201t143.5 -77h28q101 0 183.5 113t82.5 249v57q0 100 -60 165t-149 65zM991 1279q0 -26 -138 -78t-227 -124.5t-155 -176.5q-31 -49 -31 -79q0 -22 59 -22q7 0 65.5 8t103.5 8q132 0 227.5 -92.5
t95.5 -236.5v-23q-1 -91 -41 -183q-79 -179 -261 -260q-86 -38 -185 -38h-25q-89 0 -158.5 34t-112.5 84q-100 117 -100 282v48q0 152 70 310.5t181.5 280.5t275.5 206t294 84h17q45 0 45 -32z" />
    <glyph glyph-name="seven" unicode="7" horiz-adv-x="1016" 
d="M1028 1181q0 -40 -42.5 -120t-228 -404.5t-216.5 -391.5q-122 -268 -129 -280q-52 -87 -142 -87q-56 0 -56 38q0 75 297.5 574.5t297.5 506.5q0 36 -189 36t-246 -18t-101.5 -57t-71.5 -39q-22 0 -22 45q0 112 49 203q23 43 86 43l47 -4l147 -4l100 -2l99 -3l126 -2
q195 0 195 -34z" />
    <glyph glyph-name="eight" unicode="8" horiz-adv-x="1061" 
d="M439 1035v-21q0 -74 73.5 -147.5t133.5 -73.5t131.5 87.5t71.5 177.5v36q0 80 -53 127.5t-130 47.5l-7 -1q-91 0 -155.5 -72t-64.5 -161zM281 322v-25q0 -92 61.5 -153.5t152.5 -61.5h8q119 0 196.5 84.5t77.5 190.5v17q0 89 -67 162q-100 109 -181.5 109t-164.5 -107.5
t-83 -215.5zM799 730q0 -8 54.5 -68.5t83 -119t28.5 -146.5q0 -177 -142 -296.5t-331 -119.5h-46q-149 0 -247.5 88.5t-98.5 222.5v21q0 176 197 320q85 62 85 83q0 5 -42 59.5t-63 103.5t-21 119.5t32.5 141t95.5 123.5q123 104 291 104h22q149 0 238 -77t89 -185.5
t-45 -176.5t-112.5 -122.5t-67.5 -74.5z" />
    <glyph glyph-name="nine" unicode="9" horiz-adv-x="1084" 
d="M549 488h19l9 1q111 0 187.5 89t76.5 238v47q0 117 -58 196t-141 79h-28q-105 0 -188.5 -114t-83.5 -254v-28q0 -103 54 -178.5t153 -75.5zM645 1241q267 0 357 -230q34 -86 34 -188v-24q0 -163 -73 -328q-140 -317 -438 -470q-178 -91 -305 -91h-19q-52 0 -52 32
q0 21 146.5 80.5t231.5 128t130 139.5t45 103q0 26 -76 26q-1 0 -51.5 -6t-95.5 -6q-142 0 -234.5 95.5t-92.5 249.5q0 104 45 198.5t114 157.5q145 133 334 133z" />
    <glyph glyph-name="colon" unicode=":" horiz-adv-x="547" 
d="M491 757q0 -31 -39.5 -70.5t-73.5 -39.5l-25 -3h-8q-45 0 -78 33t-33 73v25q0 42 38.5 86.5t81.5 44.5l8 2h25q39 0 72 -33t33 -61l2 -8v-29q-3 -12 -3 -20zM369 102q0 -34 -41.5 -75.5t-84.5 -41.5h-25q-12 3 -31 3t-48 35t-29 72v17q0 44 39 91t98 47h13q37 0 74.5 -31
t37.5 -80v-16q-3 -15 -3 -21z" />
    <glyph glyph-name="semicolon" unicode=";" horiz-adv-x="556" 
d="M497 786v-12q0 -49 -38.5 -95t-90.5 -46h-29q-32 0 -63.5 31.5t-31.5 69.5v20q0 46 39.5 92t93.5 46h20q31 0 65.5 -29t34.5 -77zM279 247q101 0 101 -102v-15q-3 -24 -3 -39q0 -91 -110 -237.5t-180 -146.5h-20q-28 0 -28 35q1 12 39 54q103 113 103 182q0 22 -26 69.5
t-26 90.5t44.5 76t98.5 33h7z" />
    <glyph glyph-name="less" unicode="&#x3c;" horiz-adv-x="1102" 
d="M881 88q-62 0 -690 412q-51 33 -51 74t66 78q735 411 806 411q24 0 24 -45t-91.5 -106t-337.5 -184t-246 -156q0 -8 221 -146l48 -30q32 -19 64 -39l64 -39q167 -103 167 -162q0 -68 -44 -68z" />
    <glyph glyph-name="equal" unicode="=" horiz-adv-x="1140" 
d="M1019 825q54 0 54 -30q0 -87 -58 -96q-19 -3 -410 -3h-229l-30 -1h-100q-65 0 -65 31v9q0 62 23 76t154 14h260l10 -1l331 1h60zM986 479q52 0 52 -30v-9q0 -63 -25 -77t-122 -14h-702q-43 0 -43 31v9q0 63 24 76.5t184 13.5h240l11 -1l330 1h51z" />
    <glyph glyph-name="greater" unicode="&#x3e;" horiz-adv-x="1102" 
d="M1004 589q0 -52 -62 -89q-155 -92 -715 -372q-80 -40 -95 -40q-25 0 -25 50t69 95q69 46 339 185t270 166q-1 13 -223 152t-254 162q-78 56 -78 111t34 55t550 -323q190 -119 190 -152z" />
    <glyph glyph-name="question" unicode="?" horiz-adv-x="905" 
d="M933 1120q0 -182 -230 -360q-117 -90 -157 -142q-38 -50 -38 -104l2 -75q0 -60 -72 -60q-21 0 -35 20q-38 55 -38 127.5t54 150.5q23 33 119.5 133t137.5 171t41 139t-34.5 100.5t-92.5 32.5t-149.5 -69.5t-119.5 -69.5q-50 0 -50 55v16q0 89 93.5 155.5t241.5 66.5
t237.5 -79.5t89.5 -189.5v-18zM423.5 239q18.5 0 51.5 -33t33 -80v-4q0 -50 -39 -96.5t-94 -46.5h-17q-42 0 -76 34t-34 73v25q0 46 41 87t75 41l25 3h4q12 -3 30.5 -3z" />
    <glyph glyph-name="at" unicode="@" horiz-adv-x="1771" 
d="M1100 781q0 63 -86 63h-33q-108 0 -213 -134q-40 -51 -74.5 -143t-34.5 -161v-43q0 -58 27 -97.5t71 -39.5h15q34 0 96 37q130 77 196 305q34 116 34 166l2 15v32zM486 350.5q0 95.5 38 201.5t126 200q162 172 365 172l53 -4l49 -3l47 -1l43 1q79 0 79 -69t-39.5 -237
t-39.5 -246.5t29 -100.5l39 -14q67 0 136 65q38 36 71 95q68 122 68 274q0 261 -158.5 399.5t-396.5 138.5q-116 0 -246 -51q-131 -51 -241 -163q-232 -235 -232 -561q0 -270 163 -435t436 -165q85 0 181 22l168 45l47 10q43 0 43 -27q0 -48 -161.5 -105.5t-307.5 -57.5
q-327 0 -523 178q-157 143 -197 366q-13 72 -13 123q0 266 122 475q141 244 406 369q188 88 361 88h63q112 0 236 -48q253 -98 343 -332q42 -111 42 -225q-1 -366 -301 -550q-96 -60 -183.5 -60t-149.5 46l-32 31q-34 40 -46 40l-37 -17l-98 -61q-82 -44 -166 -44l-54 12
q-54 21 -93 75.5t-39 150z" />
    <glyph glyph-name="A" unicode="A" horiz-adv-x="1422" 
d="M661 593h79l8 1l140 5q8 1 15 1q22 0 22 24v7q-2 16 -2 22q0 177 -67 445q-6 25 -10 25h-3q-14 0 -49 -70.5t-54 -101.5l-43 -72l-5 -7l-12 -22l-5 -7l-24 -43q-37 -65 -73 -123.5t-36 -66.5v-5q0 -12 119 -12zM305 142q0 -17 18 -47t18 -54q0 -44 -213 -44l-61 -1
q-115 0 -115 29v19q0 29 74 61.5t109 83.5q70 104 140.5 223.5t102.5 172.5l49 78q32 53 60 98.5t131 226.5t177 286.5t142 105.5q105 0 137 -323q6 -54 7.5 -81.5t50 -395t57.5 -404.5t64 -71t55 -61q0 -38 -64 -45q-10 -1 -198.5 -1t-188.5 37q0 15 34.5 48.5t48 67
t13.5 159.5t-27.5 151t-226 25t-242 -31.5t-98 -145t-54.5 -167.5z" />
    <glyph glyph-name="B" unicode="B" horiz-adv-x="1256" 
d="M588 768h34l9 1l70 2q9 1 18 1q112 0 202 82.5t90 198.5v27q0 93 -65 147t-172 54h-54q-89 0 -106 -36t-50 -225l-2 -9l-3 -17l-2 -8l-4 -25l-3 -17l-2 -9l-2 -8l-6 -34l-15 -82v-22q0 -21 63 -21zM567 667q-62 0 -76 -36q-2 -5 -18 -81t-20.5 -105.5t-29 -145
t-24.5 -154.5q0 -46 85 -46l9 -1l10 -1l40 -1h50q150 0 243 73q120 96 120 238v30q0 105 -80.5 168.5t-220.5 63.5h-60q-20 -2 -28 -2zM378 1204q0 52 -37 76q-66 43 -66 54q0 34 60 42t288 8h183q309 0 390 -179q24 -53 24 -139.5t-53 -159.5t-119 -117l-96 -64
q0 -3 32 -21q99 -54 142.5 -123t43.5 -163q0 -200 -175 -322q-65 -46 -167.5 -74.5t-222.5 -28.5h-157l-27 1h-103q-291 0 -291 33q0 22 92 72q54 29 77 106q36 122 109 534.5t73 464.5z" />
    <glyph glyph-name="C" unicode="C" horiz-adv-x="1306" 
d="M908 1397q31 0 205.5 -28t183.5 -33q47 -26 47 -131t-38 -158q-12 -16 -33 -16q-10 0 -74.5 88.5t-132.5 124.5t-175 36q-211 0 -384 -224q-73 -95 -116.5 -232t-43.5 -267q0 -190 86 -309q100 -138 288 -138q169 0 336 140q68 58 98 58h1q30 0 29.5 -35.5t-40 -110
t-80 -100.5t-173 -54t-235.5 -28t-201 39q-210 84 -291 291q-41 104 -41 227v34q0 157 66 313q136 318 432 451q138 62 286 62z" />
    <glyph glyph-name="D" unicode="D" horiz-adv-x="1452" 
d="M798 1283h-35q-126 0 -153 -66q-18 -45 -64 -297l-77 -417l-7 -33l-6 -32q-50 -267 -50 -275v-15q0 -48 142 -48h33q265 0 437 196q90 102 139 241t49 262v34l-1 17q0 206 -120 326q-45 45 -122.5 76t-164.5 31zM38 29q0 20 92 80q55 35 82.5 128t92 451.5t64.5 503.5
q0 51 -31 71q-65 41 -65 58q0 66 476 66h53h7q136 0 257 -39q361 -116 361 -550q0 -151 -64 -303q-64 -153 -174 -263q-236 -236 -622 -236h-181l-26 1h-102l-147 3q-73 0 -73 29z" />
    <glyph glyph-name="E" unicode="E" horiz-adv-x="1247" 
d="M564 885q0 -49 37 -75.5t99.5 -26.5t132.5 38t104 38q49 0 49 -91t-30 -156t-65 -65q-27 0 -83.5 52t-125 52t-118.5 -24t-65 -52q-55 -105 -55 -316q0 -94 32 -118.5t156.5 -24.5t218.5 31t176 81.5t83 50.5q22 0 22 -35q0 -113 -87 -200q-45 -45 -178 -45h-86l-44 1
h-265q-428 0 -428 30.5t90 79.5q55 30 76.5 111.5t101.5 501.5t80 474t-41 84q-64 46 -64 57q0 36 69 43q19 2 427 2l351 3q121 0 121 -119q0 -140 -40 -140q-13 0 -66.5 42t-102.5 58q-124 40 -238 40t-167 -93q-77 -134 -77 -289z" />
    <glyph glyph-name="F" unicode="F" horiz-adv-x="1174" 
d="M386 1214q0 42 -30 66q-68 54 -68 66q0 36 124 36l35 1q35 1 71 1l577 3h71q54 0 71.5 -27t17.5 -79q0 -171 -54 -171q-9 0 -46 46q-93 116 -335 117q-61 0 -93 -15q-64 -29 -101 -95q-16 -28 -45 -131.5t-29 -148.5t25 -70q47 -47 114 -47t116 26q117 62 128 62
q45 0 45 -73q0 -107 -26.5 -173.5t-70.5 -66.5q-32 0 -77 45t-102 45q-143 0 -197 -61q-20 -23 -38.5 -123.5t-18.5 -212.5t49 -167q22 -25 22 -36q0 -31 -115 -31h-210q-141 0 -141 41q0 19 81 69q52 32 73 97q10 30 51.5 250t83.5 430.5t42 326.5z" />
    <glyph glyph-name="G" unicode="G" horiz-adv-x="1399" 
d="M899 1395h40q239 0 365 -49q54 -21 54 -139q0 -70 -32 -112.5t-59 -42.5t-79 71q-110 151 -292 151q-233 0 -395 -207q-71 -91 -115 -221t-44 -254q0 -356 236 -459q67 -29 150 -29q133 0 198 66q82 84 82 254q0 48 -37 104.5t-37 72.5q0 35 147.5 35t203 -9t55.5 -44
q0 -11 -29.5 -37.5t-43 -54.5t-52.5 -201t-70.5 -200.5t-121.5 -47.5q-277 -61 -375 -61t-209 44q-204 81 -285 293q-40 106 -40 254.5t63 309t181 278.5t260.5 176.5t280.5 58.5z" />
    <glyph glyph-name="H" unicode="H" horiz-adv-x="1557" 
d="M1249 1216q0 33 -24 67l-23 26q-27 28 -27 38q0 37 128 37l48 -1l195 1q93 0 93 -38q0 -19 -97 -69q-55 -28 -74 -96l-11 -48q-16 -75 -38 -192.5t-79.5 -412t-57.5 -348.5t22 -73l36 -19q65 -29 65 -39q0 -49 -93 -49l-98 2h-95q-149 0 -171 8t-22 37q0 12 56 56
t75.5 88t50.5 198t31 174q0 75 -42 89q-15 5 -287.5 5t-306.5 -46q-15 -20 -45.5 -164.5t-30.5 -229t36.5 -127t36.5 -58.5q0 -33 -331 -33l-97 -1q-38 0 -38 43q0 22 71.5 51.5t90 73.5t109 532t90.5 520.5t-32 56.5l-35 19q-56 30 -56 48q0 42 51 42h49l99 -2h96
q184 0 184 -30t-57.5 -69.5t-78.5 -91.5q-72 -181 -72 -328q0 -76 39 -90q16 -6 289 -6t305 43q15 19 44 151.5t29 254.5z" />
    <glyph glyph-name="I" unicode="I" horiz-adv-x="738" 
d="M408 1206q0 50 -60 84t-61 56q0 35 267 35l176 3q78 0 78 -26t-95 -73q-54 -27 -78 -100q-11 -29 -101 -472t-90 -552q0 -39 58 -72t59 -54q0 -36 -284 -36l-179 -3q-55 0 -55 29q0 28 59 55q60 28 78 46t34 66q16 50 105 484t89 530z" />
    <glyph glyph-name="J" unicode="J" horiz-adv-x="830" 
d="M686 1382q137 0 137 -62q0 -21 -27.5 -57.5t-27.5 -82.5t-56 -258t-56 -301l2 -45q0 -60 -26 -121.5t-51 -159.5q-54 -216 -127.5 -322.5t-169.5 -171t-193 -64.5h-21q-46 0 -73.5 19.5t-27.5 43.5t104 80l72 33q38 18 57 36q52 50 99.5 149.5t58.5 217.5q3 35 69 228.5
t66 320.5q0 365 -90 394q-74 24 -74 42t29 31q111 50 245 50h81z" />
    <glyph glyph-name="K" unicode="K" horiz-adv-x="1411" 
d="M1093 1342q0 35 119 35q232 0 232 -45q0 -17 -106 -80t-166 -116q-177 -156 -295 -272q-70 -69 -70 -131q0 -86 298 -501q49 -69 130 -114t81 -64q0 -31 -55 -50.5t-156.5 -19.5t-136.5 42q-18 20 -37 74q-43 121 -221 402q-77 122 -130.5 122t-95.5 -128.5t-42 -215
t13 -136.5l10 -32l19 -46q0 -39 -56.5 -51.5t-161.5 -12.5l-128 -3q-84 0 -84 38q0 22 82 56q49 20 68 82q5 16 97 491.5t92 530.5t-52 92.5t-52 53.5q0 39 179 39h138q127 0 127 -43q0 -1 -54 -65t-80 -142q-57 -173 -57 -305q0 -44 36 -44q52 0 405 331q125 117 125 175
l-6 20q-9 24 -9 33z" />
    <glyph glyph-name="L" unicode="L" horiz-adv-x="1199" 
d="M424 190q0 -53 47.5 -67.5t189.5 -14.5t234 48q50 26 128 108.5t97 82.5q28 0 28 -28t-32.5 -139.5t-53.5 -137.5q-35 -44 -142 -44h-179l-30 1h-92l-62 1h-61q-452 0 -452 32q0 19 83 68q54 32 78 110.5t67.5 309.5t84 429t40.5 264q0 41 -59 79t-59 65.5t58 27.5h60
l30 -1l237 1h29q97 0 97 -32q0 -24 -85 -68q-63 -33 -90 -121q-11 -35 -101 -478t-90 -496z" />
    <glyph glyph-name="M" unicode="M" horiz-adv-x="1840" 
d="M1585 184q0 -38 47.5 -80t47.5 -53q0 -51 -220 -51h-60q-132 0 -132 44l8 22l20 29l23 38q39 69 71 198t77.5 395t45.5 310l-4 19q-26 0 -266 -387l-129 -209q-47 -75 -64 -103l-98 -156q-80 -114 -119.5 -114t-62.5 55l-31 112l-14 58q-15 67 -28.5 120t-42.5 175
q-104 430 -131 430q-12 0 -23 -41.5t-113 -549.5q-28 -140 -28 -209l15 -167q0 -45 -33 -57t-96 -12q-142 0 -178 35l-12 24q0 24 63.5 73t82.5 104t101 434t82 513q0 46 -25.5 95.5t-25.5 50.5q0 52 115 52t166 -30.5t80.5 -97.5t125.5 -451t119 -384q16 0 255 386
t303.5 461t116.5 94.5t159 19.5t107 -40l-24 -27l-40 -28q-52 -45 -73.5 -123.5t-89.5 -493.5t-68 -483z" />
    <glyph glyph-name="N" unicode="N" horiz-adv-x="1554" 
d="M286 1347q0 35 130 35q61 0 133.5 -31.5t123 -100t265 -473.5t240.5 -405q17 0 27.5 36.5t64 314t53.5 439.5q0 39 -26 93t-26 81q0 46 134 46l44 -1h47q149 0 149 -20q0 -35 -57 -70q-88 -54 -111 -116q-7 -18 -127 -619l-112 -559q-96 0 -194 156q-40 64 -265.5 489.5
t-251.5 425.5q-15 0 -37 -84t-72 -376.5t-50 -382.5q0 -40 32 -102l16 -28q27 -42 27 -48q0 -49 -198.5 -49t-198.5 46q0 21 74.5 64t100.5 137q14 49 93.5 447.5t79.5 459.5t-28 96l-27 25l-28 22q-25 26 -25 52z" />
    <glyph glyph-name="O" unicode="O" horiz-adv-x="1468" 
d="M665 87h51q103 0 201 69t170.5 176t110.5 242.5t38 255.5v17q0 101 -28 187q-83 257 -315 257h-18q-113 0 -208 -63q-198 -132 -283 -395q-46 -143 -46 -284l1 -17q0 -187 90 -315q45 -64 109 -97t127 -33zM899 1401h23q235 0 389 -164q64 -69 104 -175t40 -225v-22
q0 -143 -58 -301t-169 -281t-257 -190.5t-295 -67.5h-23q-115 0 -211 42q-203 88 -278 286q-44 117 -44 236v23q0 144 56 297.5t165.5 278.5t258.5 194t299 69z" />
    <glyph glyph-name="P" unicode="P" horiz-adv-x="1250" 
d="M798 1289h-60q-89 0 -111 -50.5t-38.5 -156t-41.5 -230t-25 -138.5v-8q0 -24 74 -24h60q180 0 284 83q130 104 130 268v11q0 112 -72 178.5t-200 66.5zM49 28q0 3 104 98q49 45 82 165.5t86.5 453.5t53.5 479q0 23 -50.5 46t-50.5 52q0 39 64 50q156 26 396 26h54
q358 0 457 -208q31 -65 31 -163.5t-52 -192.5q-107 -196 -364 -244q-69 -13 -247 -13q-92 0 -122 -48q-58 -93 -58 -324q0 -53 59.5 -101.5t59.5 -72.5q0 -43 -120 -43h-54l-222 7q-107 0 -107 33z" />
    <glyph glyph-name="Q" unicode="Q" horiz-adv-x="1480" 
d="M1256 778v33q0 210 -125 352q-99 111 -250 111h-18q-194 0 -351 -187q-80 -95 -128 -234.5t-48 -251.5v-50q0 -191 104 -327.5t271 -136.5h17h3q100 0 197 57q193 112 281 369q47 137 47 265zM1423 -180q0 -23 -52 -52q-113 -63 -203.5 -63t-184.5 45
q-581 278 -671.5 354t-139 195.5t-48.5 250.5v29q0 148 62 304q62 155 172 271q228 240 554 241q228 0 386 -154q75 -73 119.5 -188.5t44.5 -219.5v-58q0 -84 -29 -198q-66 -259 -268 -425q-168 -137 -168 -139q0 -36 157 -110q74 -35 121 -40l23 -1q3 0 50.5 -3.5
t52.5 -5.5q22 -10 22 -33z" />
    <glyph glyph-name="R" unicode="R" horiz-adv-x="1319" 
d="M678 1283q-63 0 -82 -60q-89 -285 -89 -463v-8q0 -26 66 -26h46q261 0 357 180q34 63 34 134v37q0 95 -74 152t-194 57h-19q-27 -3 -45 -3zM1251 52q0 -60 -185 -60h-31q-98 0 -165 109q-38 63 -87.5 222.5t-81.5 211.5q-45 72 -153 72q-57 0 -83 -95q-45 -166 -45 -304
q0 -42 33 -96t33 -67q0 -46 -314 -46q-121 0 -135 7t-14 35q0 19 60.5 47.5t76.5 48t26 56.5t33 157l32 170q6 33 13 67l52 269q50 258 50 353q0 47 -45.5 77.5t-45.5 61.5q0 38 326 38l102 1h69q312 0 405 -174q35 -65 35 -168t-60.5 -193.5t-158.5 -156.5t-98 -93
q0 -32 73 -202t106 -217.5t80 -67.5q97 -41 97 -63z" />
    <glyph glyph-name="S" unicode="S" horiz-adv-x="1076" 
d="M694 1401q70 0 149 -18t138.5 -18t75 -21t15.5 -56v-30q0 -111 -36 -184q-15 -30 -35 -30q-29 0 -73 80.5t-100 121t-153.5 40.5t-164.5 -63t-67 -150.5t79 -161.5q45 -42 195.5 -127.5t213 -169.5t62.5 -219v-4q0 -80 -39 -156q-40 -79 -108 -133q-147 -118 -345 -118
h-35q-174 0 -344 61q-50 18 -50 88v32q0 84 20.5 147t58.5 63q21 0 66.5 -88t94.5 -127q80 -63 198.5 -63t199 67.5t80.5 168t-77 175.5q-38 37 -177.5 121.5t-212.5 167t-73 186.5q0 198 133.5 308t310.5 110z" />
    <glyph glyph-name="T" unicode="T" horiz-adv-x="1286" 
d="M195 1055q-22 0 -22 31v29q0 41 25.5 132.5t45.5 115t106 23.5h235l34 -1l574 -2q34 0 68 1l64 2h29q44 0 44 -37v-25q0 -168 -39 -229q-15 -24 -34 -24t-46.5 60.5t-62.5 85.5q-66 48 -195 48q-57 0 -86 -19.5t-53.5 -114.5t-93.5 -486t-69 -447.5t44 -87.5
q79 -55 79 -75q0 -36 -85 -36h-34l-34 1l-267 -1h-33q-78 0 -78 35q0 14 100 74q53 32 77 106t108 507t84 482q0 66 -88 66q-139 0 -202 -34.5t-108 -107t-87 -72.5z" />
    <glyph glyph-name="U" unicode="U" horiz-adv-x="1475" 
d="M242 1322q0 40 60 49t300 9q108 0 108 -24.5t-55.5 -68t-72.5 -109.5q-143 -572 -143 -779q0 -132 77.5 -209.5t200.5 -77.5q250 0 363 210q54 100 118 417t64 394.5t-46 134t-46 71.5q0 43 84 43h116q114 0 152 -6q51 -8 51 -46q0 -28 -65 -63.5t-87 -96.5
q-3 -9 -91 -417.5t-158 -524.5t-198 -176.5t-275 -60.5h-42h-6q-98 0 -177 33q-234 95 -235 367q0 76 32.5 291t47.5 291l32 155l4 36q0 59 -25 82l-24 17l-27 16q-37 24 -37 43z" />
    <glyph glyph-name="V" unicode="V" horiz-adv-x="1423" 
d="M1177 1321q0 39 53.5 50.5t199.5 11.5t146 -46q0 -25 -73 -64t-101 -76t-311.5 -501.5t-341.5 -547.5q-102 -146 -164 -146q-80 0 -113 181q-3 16 -12 92t-18 145l-13 105q-5 42 -9 70l-8 69q-63 483 -74 524.5t-66.5 86.5t-55.5 66q0 39 231 39q132 0 159 -4
q57 -8 57 -44q0 -3 -37 -56.5t-37 -131.5q0 -144 42.5 -476.5t49 -350t21.5 -17.5q38 0 414 673q103 184 103 257q0 20 -21 51.5t-21 39.5z" />
    <glyph glyph-name="W" unicode="W" horiz-adv-x="1991" 
d="M413 1371q204 0 204 -135q0 -8 -18 -102t-18 -306t15 -296t64 -84q42 0 91 72q103 151 176 311.5t73 287.5l-3 43l-7 40q0 67 59 111.5t129.5 44.5t108.5 -24.5t38 -108.5l-10 -41l-13 -43q-11 -42 -11 -110.5t23 -310t30.5 -259t25.5 -17.5q43 0 83 66
q102 168 181.5 340t97.5 253l8 42l2 36q16 110 129 160q51 22 119 22t68 -50v-24q0 -16 -34 -74t-77 -112.5t-87 -133.5l-137 -258q-233 -436 -281.5 -509.5t-101.5 -103t-77 -29.5q-69 0 -105 126q-26 93 -48.5 379t-45.5 286l-22 -33q-40 -63 -209.5 -361t-223.5 -368
t-112.5 -70t-79.5 75q-9 32 -34 436t-32 470.5t-39.5 160.5t-32.5 109q0 92 134 92z" />
    <glyph glyph-name="X" unicode="X" horiz-adv-x="1403" 
d="M618 1373q86 0 86 -36q0 -7 -25.5 -37t-25.5 -53q0 -91 118 -309q31 -57 41 -57q52 0 176 156t124 216l-11 23q-18 34 -18 43q0 41 41 52.5t118 11.5q249 0 249 -35.5t-85 -69t-154 -105.5q-174 -182 -321 -370q-39 -50 -39 -104q0 -17 100.5 -241.5t134 -275t99.5 -83
t66 -44.5q0 -55 -308 -55h-42q-116 0 -116 32q0 22 24.5 56t24.5 62q0 120 -128 350q-27 49 -42 49l-25 -16q-120 -102 -248 -297q-45 -69 -45 -125l11 -21q15 -29 15 -47.5t-20 -29.5t-199 -11t-179 34t87.5 75t182.5 145q346 380 346 473q0 30 -41 116
q-132 278 -169 333.5t-96.5 84t-59.5 59.5l13 15q69 36 340 36z" />
    <glyph glyph-name="Y" unicode="Y" horiz-adv-x="1321" 
d="M218 1313q0 23 150 23q57 0 106 6t66 6q55 0 55 -35q0 -12 -13 -38t-13 -38q0 -55 161 -389q27 -57 40 -57q26 0 135 145q216 286 216 333q0 10 -6 28l-7 20q0 32 48 32h23l48 -2l51 1q141 0 141 -31q0 -23 -75 -56t-114 -76q-214 -239 -391 -553q-32 -56 -62 -182.5
t-30 -219.5t37 -127q69 -63 69 -74q0 -31 -92 -31l-35 1h-233l-34 -1h-33q-85 0 -85 27.5t72.5 72.5t94.5 103q62 162 62 382q0 49 -58.5 237t-125.5 328q-34 71 -101 106.5t-67 58.5z" />
    <glyph glyph-name="Z" unicode="Z" horiz-adv-x="1258" 
d="M1289 1335q0 -18 -464.5 -608.5t-464.5 -594.5q0 -21 252 -21t330 37t118 95q70 101 94.5 101t24.5 -34q0 -78 -30 -168t-53 -115q-39 -43 -134 -43h-81q-26 0 -81 2l-42 2q-129 6 -288 6h-122l-81 -2q-153 0 -181.5 14.5t-28.5 48t39 91.5q160 239 393 494
q489 533 489 585q0 34 -133 34q-257 0 -347 -45q-53 -27 -108 -93.5t-79 -66.5q-41 0 -41 69.5t28 142.5t56.5 92t258.5 19l288 -4q40 0 123 2l165 5q100 0 100 -45z" />
    <glyph glyph-name="bracketleft" unicode="[" horiz-adv-x="706" 
d="M690 1512q79 0 79 -23v-19q0 -56 -130.5 -66.5t-151.5 -70.5q-12 -34 -104.5 -709.5t-92.5 -753t19 -96.5t113 -38.5t94 -61t-81 -41.5h-78l-25 1h-26q-140 0 -171 11t-31 59.5t109 859t112 821.5q25 97 62.5 111.5t199.5 14.5l77 1h26z" />
    <glyph glyph-name="backslash" unicode="\" horiz-adv-x="826" 
d="M683 -213h-18q-53 0 -88 115q-456 1492 -456 1551q0 32 45 32h18q53 0 78 -77q240 -741 430 -1445q37 -137 37 -143q0 -33 -46 -33z" />
    <glyph glyph-name="bracketright" unicode="]" horiz-adv-x="704" 
d="M115 -367h-77q-64 0 -64 33q0 38 49 58q18 7 100 19t101.5 28t33 60.5t105 722.5t91.5 743.5t-29 85.5q-11 8 -106 24.5t-95 55.5q0 49 72 49h53l26 -1h52q135 0 172.5 -10.5t37.5 -55.5q0 -73 -112 -890.5t-117 -833.5q-16 -56 -45 -72t-248 -16z" />
    <glyph glyph-name="asciicircum" unicode="^" horiz-adv-x="989" 
d="M618 1351h11q32 0 70 -86q218 -495 218 -496v-10q0 -27 -49 -27t-82 49q-46 69 -116 227t-88 158q-6 0 -136 -187t-142 -201q-37 -44 -81 -44t-44 21q0 55 356 545q37 51 83 51z" />
    <glyph glyph-name="underscore" unicode="_" horiz-adv-x="1036" 
d="M209 -96h186l10 -1l403 1q101 0 101 -26v-9q0 -78 -42 -85q-24 -4 -443 -4h-287l-30 -1h-42q-83 0 -83 26v10q0 65 22.5 77t204.5 12z" />
    <glyph glyph-name="grave" unicode="`" horiz-adv-x="669" 
d="M216 1386v13q0 43 91 43h16q12 -2 16 -2q41 0 77 -54t69.5 -137.5t45.5 -107.5t12 -34v-4q0 -26 -35 -26h-19q-36 0 -154.5 152.5t-118.5 156.5z" />
    <glyph glyph-name="a" unicode="a" horiz-adv-x="1048" 
d="M362 127h17q42 0 116 54t110 122q117 221 117 387l2 18l1 27q0 91 -106 91h-28q-56 0 -118.5 -41.5t-106.5 -106.5q-112 -163 -112 -347v-19q0 -85 30 -135t78 -50zM586 921h37q21 0 78.5 -11.5t111.5 -11.5l32 5q19 3 45 3q48 0 48 -64q0 -27 -56.5 -278t-56.5 -317
t58 -66l25 1l14 1q41 0 41 -29v-12q0 -44 -68.5 -84.5t-133.5 -40.5t-89.5 30t-38.5 86t-19.5 56t-75 -57t-131 -89.5t-130.5 -32.5h-18q-84 0 -140 71t-56 193q0 120 44 236q91 239 299 355q100 56 180 56z" />
    <glyph glyph-name="b" unicode="b" horiz-adv-x="1041" 
d="M312 217q0 -126 133 -126h18q51 0 113 37q128 77 188 260q32 96 32 151l2 19v39q0 90 -36 143.5t-90 53.5h-18q-43 0 -114 -47.5t-113 -118.5q-113 -192 -113 -366l-2 -18v-27zM82 155q0 16 32.5 125t115.5 515t83 458t-30 77q-65 55 -65 72.5t32 35.5q75 42 155.5 42
t100.5 -21t20 -64.5t-50 -293.5t-50 -290t17 -40q8 0 55 29.5t70 42.5q100 56 203.5 56t162 -78.5t58.5 -185.5v-25q0 -118 -51 -232q-102 -230 -298 -324q-103 -49 -203 -49h-23l-22 1l-43 1q-134 0 -202 29t-68 98v21z" />
    <glyph glyph-name="c" unicode="c" horiz-adv-x="871" 
d="M413 -18h-42q-121 0 -205 93.5t-84 229.5v43q0 102 42 208q84 212 268 314q109 59 212 59h20q105 0 173.5 -36.5t68.5 -107.5q0 -40 -27 -71t-55 -31t-81.5 66.5t-123.5 66.5q-38 0 -95 -29.5t-107 -101.5q-98 -141 -98 -331q0 -117 64 -184q46 -48 153 -48
q41 0 123.5 39t104.5 39q29 0 29 -27q0 -48 -119 -119.5t-221 -71.5z" />
    <glyph glyph-name="d" unicode="d" horiz-adv-x="1089" 
d="M387 121h17q55 0 127 57.5t112 132.5q102 193 102 396l1 18q0 45 -33.5 71.5t-83.5 26.5h-29q-45 0 -107.5 -35t-114.5 -106t-83 -163.5t-31 -161.5v-48q2 -20 2 -30q0 -64 37 -111t84 -47zM1070 1383q0 -68 -101 -554.5t-101 -555.5t15.5 -86t60.5 -31.5t45 -26.5
q0 -42 -65.5 -79.5t-136.5 -37.5h-21q-57 0 -95.5 73t-56.5 73q-12 0 -65 -38q-148 -105 -257 -105h-2q-92 0 -156 74q-64 73 -64 197q0 125 53 248q157 367 531 367h2q121 0 153 68q49 103 49 283q0 61 -35 87q-61 46 -61 56q0 20 35 39q85 46 155 46q118 0 118 -75v-22z
" />
    <glyph glyph-name="e" unicode="e" horiz-adv-x="902" 
d="M305 549v-19q0 -25 20 -25h11q74 0 250 80q111 50 111 133v5l-1 6q0 47 -26 80t-76 33h-17q-87 0 -161 -83q-111 -125 -111 -210zM418 -14h-39q-67 0 -128.5 29.5t-98.5 77.5q-73 93 -73 229v19q0 235 164 419q74 83 172 132t193 49h19q121 0 184 -63t63 -159.5
t-74 -152.5q-97 -73 -350 -126q-99 -21 -121 -34q-46 -26 -46 -105.5t57.5 -128t126.5 -48.5t158.5 40.5t113.5 40.5t24 -20q0 -57 -123 -128t-222 -71z" />
    <glyph glyph-name="f" unicode="f" horiz-adv-x="694" 
d="M786 1487h30q70 0 112 -23t42 -57v-25q0 -38 -29 -64.5t-60 -26.5t-75 31.5t-77 31.5q-83 0 -139 -100q-69 -123 -69 -250q0 -40 21.5 -61.5t90 -32.5t68.5 -51q0 -15 -70 -41q-71 -26 -109 -52t-58 -84q-21 -60 -93 -440q-72 -382 -109 -444q-80 -137 -228 -137h-2
q-118 0 -118 79q0 29 53 50.5t87 55.5t64 115.5t79 352.5t49 383q0 34 -26.5 87t-26.5 82.5t64 80.5q38 30 99.5 175t121.5 213q61 68 146 110t162 42z" />
    <glyph glyph-name="g" unicode="g" horiz-adv-x="929" 
d="M298 492q0 -43 27 -77t55 -34h19q75 0 149 102t74 207q2 14 2 21l2 35v14q0 64 -30 100.5t-72 36.5h-14q-70 0 -140 -96.5t-70 -196.5l-2 -14v-14l-2 -35v-28q2 -14 2 -21zM329 12h-37q-72 0 -137.5 -59.5t-65.5 -119.5v-30q0 -67 74 -112.5t149 -45.5l16 -2l24 -1h32
q90 0 176 46.5t86 124.5v21q0 68 -101.5 123t-215.5 55zM321 226.5q0 -43.5 175 -110.5t225 -106q82 -65 82 -165q0 -46 -32 -105t-102 -104q-119 -77 -310 -77h-55q-173 0 -277 67.5t-104 158.5v24q0 82 112 162q67 48 71.5 53t33 102t55 131t26.5 62l-30 49
q-7 13 -33.5 79t-26.5 135t40 147t112 136q130 105 309 105h25l115 -9q20 0 51 3l50 6h23q86 0 86 -55q0 -60 -52 -60l-30 4q-45 0 -57 -32q-7 -19 -10 -96q-6 -162 -93 -261q-57 -66 -108.5 -92.5t-134.5 -50.5t-97 -33q-39 -24 -39 -67.5z" />
    <glyph glyph-name="h" unicode="h" horiz-adv-x="1103" 
d="M767 577q0 192 -112 192h-2q-90 0 -167 -113q-106 -155 -144 -430q-13 -91 -35 -141q-38 -86 -138 -86q-42 0 -62.5 27.5t-20.5 47t53.5 229.5t117 538t63.5 382.5t-31 97t-31 63t25 40.5q55 45 127 45t107 -41q18 -21 18 -67.5t-52 -306.5t-52 -286t26 -26q14 0 82 52.5
t126 79.5t138 27t124.5 -61.5t44.5 -136t-36 -268.5t-36 -224q0 -76 42 -118q-166 -44 -183 -44h-1q-58 0 -58 67q0 48 33.5 240.5t33.5 220.5z" />
    <glyph glyph-name="i" unicode="i" horiz-adv-x="618" 
d="M489 1385q38 0 67 -29t29 -64v-27q-3 -12 -3 -27.5t-31.5 -53.5t-62.5 -38q-6 -2 -11 -2l-15 -2h-12l-4 1h-8q-10 3 -22 3t-39.5 27.5t-27.5 66.5v23q3 12 3 27t32 53t62 38l27 4h16zM277 697q0 54 -47 66q-83 21 -83 41q0 43 97.5 84t175.5 41h14q63 0 63 -78
q0 -43 -60.5 -311t-60.5 -313t19.5 -61.5t70.5 -16.5t51 -18q0 -37 -79 -73q-143 -66 -232 -66t-89 63v13q0 28 37.5 126t56.5 165q66 239 66 338z" />
    <glyph glyph-name="j" unicode="j" horiz-adv-x="584" 
d="M352 1249v23q0 40 34.5 81t84.5 41h12q51 0 75.5 -29.5t24.5 -48.5l3 -19v-23q-3 -12 -3 -19q0 -31 -34 -65t-60 -34q-6 -2 -11 -2l-19 -2h-4l-30 4q-20 0 -46.5 26.5t-26.5 66.5zM416 929q71 0 71 -103v-18l-1 -18q0 -71 -78 -461t-133.5 -504.5t-158 -187t-209 -72.5
t-106.5 62q0 85 129 85t194 187q23 66 86.5 383t63.5 379t-19.5 86t-69.5 30t-50 29t48 48q146 75 216 75h17z" />
    <glyph glyph-name="k" unicode="k" horiz-adv-x="1064" 
d="M236 1419q0 36 69.5 56t155.5 20t86 -54q0 -59 -62 -407.5t-62 -446.5q0 -28 17 -28t198.5 166.5t186.5 166.5q122 0 160 -32q8 -7 8 -23q0 -24 -101.5 -91.5t-169.5 -135.5t-68 -112q0 -73 173 -307q50 -67 119 -87q17 -5 17 -8q0 -10 -29 -23q-84 -37 -191 -37
q-50 0 -136 188.5t-140 188.5q-41 0 -83.5 -156t-51.5 -170q-47 -67 -161 -67q-71 0 -71 61q0 28 20 76t41 121t95 483t74 483t-9 89.5t-47 47t-38 38.5z" />
    <glyph glyph-name="l" unicode="l" horiz-adv-x="592" 
d="M470 149q17 0 17 -14q0 -32 -117.5 -87.5t-192.5 -55.5t-75 70v15q0 13 45 188.5t122.5 572.5t77.5 447.5t-39 67.5q-69 31 -69 58q0 13 32 27q91 41 233 41h18q46 0 46 -70q0 -46 -34 -196.5t-108.5 -533t-74.5 -437.5q0 -98 72 -98q30 5 47 5z" />
    <glyph glyph-name="m" unicode="m" horiz-adv-x="1644" 
d="M785 659v3q0 96 -75 96q-40 0 -100 -38q-142 -90 -221 -354q-5 -18 -28.5 -113t-32.5 -115q-36 -77 -71 -77t-65 70.5t-30 144t11 112.5q35 124 35 128l-13 120q0 94 26 154t63 60q56 0 92 -31l17 -19l15 -19l12 -19q15 -20 32.5 -20t63.5 40q166 143 272 143h1
q78 0 114.5 -28t58.5 -103t31 -75q19 0 87.5 57t128.5 85.5t136 28.5t116 -59.5t40 -137t-32 -234t-32 -203.5t30 -99t30 -53l-61 -19q-66 -30 -107.5 -30t-65 42t-23.5 94t19.5 184t19.5 206.5t-21.5 121.5t-61.5 47t-88.5 -46.5t-108.5 -173.5t-75 -292q-7 -75 -19 -112
l-14 -36q-47 -93 -157 -93q-82 0 -82 40.5t34 151.5q99 327 99 467v3z" />
    <glyph glyph-name="n" unicode="n" horiz-adv-x="1140" 
d="M806 656q0 134 -90 134q-48 0 -112.5 -53.5t-114 -136.5t-94.5 -256q-3 -13 -28 -129.5t-31 -132.5q-28 -70 -85 -70t-82 45t-25 110v24q0 67 45.5 177.5t45.5 175.5t-30 122.5t-30 102.5t44 89t100.5 44t92 -39t35.5 -106.5t3 -67.5t78 73q165 160 313 161
q173 0 173 -199q0 -61 -45.5 -259t-45.5 -240q0 -98 75 -98q38 0 38 -3q0 -10 -31 -28q-141 -80 -218.5 -80t-77.5 110q0 15 48.5 242.5t48.5 287.5z" />
    <glyph glyph-name="o" unicode="o" horiz-adv-x="989" 
d="M607 841h-29q-42 0 -96 -32t-105 -106q-102 -148 -102 -330v-50q0 -104 48 -169t109 -65h20q109 0 206 149.5t97 320.5v40q0 94 -41.5 168t-106.5 74zM82 340v29l1 15q0 96 46 208q45 112 123 190q162 162 349 162l15 1q146 0 238.5 -97.5t92.5 -257.5v-30
q0 -225 -164 -406q-65 -72 -162 -120.5t-193 -48.5h-15l-15 1q-140 0 -228 103t-88 251z" />
    <glyph glyph-name="p" unicode="p" horiz-adv-x="1087" 
d="M364 255v-36q0 -51 32 -80.5t92 -29.5h29q41 0 103.5 33t112.5 106q108 157 108 328v20q0 101 -41 162t-99 61h-26q-48 0 -106.5 -46t-96.5 -118q-108 -204 -108 -400zM340 -393q0 -77 -199 -77q-106 0 -132.5 19.5t-26.5 36t40 97t82 251.5q126 504 126 712
q0 68 -34.5 104.5t-34.5 64.5t63 63.5t121.5 35.5t74 -18.5t23.5 -38t18 -19.5t50 20q124 62 236 62h24q113 0 184 -82.5t71 -211.5v-26q0 -111 -54.5 -235.5t-139 -202.5t-168 -107.5t-225.5 -29.5q-94 0 -132 -68t-38 -196q0 -39 35.5 -91.5t35.5 -62.5z" />
    <glyph glyph-name="q" unicode="q" horiz-adv-x="1049" 
d="M765 723v17q0 100 -127 100h-9q-126 0 -238 -140q-57 -71 -88.5 -171t-31.5 -154v-58q0 -76 35.5 -129.5t87.5 -53.5h18q58 0 128 56q136 109 195 334q30 114 30 199zM1016 859q0 -40 -32 -124t-39.5 -113t-87.5 -438t-80 -452.5t29 -87t29 -62t-33 -36.5t-125 -18l-24 1
h-23q-146 0 -146 78q0 13 41 89t62 135q66 186 66 282q0 20 -10.5 20t-38 -14.5t-108.5 -51t-179 -36.5t-165.5 76.5t-67.5 202.5v25q0 105 46 215q93 223 295 328q98 51 184 51h47q28 0 79 -15t107 -15l99 19q75 0 75 -59z" />
    <glyph glyph-name="r" unicode="r" horiz-adv-x="844" 
d="M412 243.5q0 -153.5 -35 -201t-118 -47.5h-19q-60 0 -81.5 33.5t-21.5 100.5q0 9 59 202t59 279t-35 106q-60 34 -60 75t59 82.5t115 41.5h16q106 0 106 -109l-3 -38q-2 -25 -2 -46.5t12.5 -21.5t68.5 62q127 142 233 142q41 0 64.5 -24.5t23.5 -61t-36 -66t-88 -29.5
l-95 13q-25 0 -67 -39t-98.5 -169.5t-56.5 -284z" />
    <glyph glyph-name="s" unicode="s" horiz-adv-x="799" 
d="M44 116q0 58 19.5 96.5t50.5 38.5t69 -53.5t78.5 -82.5t109 -29t107.5 39t39 91.5t-38.5 91t-125 96t-132 115t-45.5 159t100.5 178.5t228.5 77h22q113 0 179 -33t66 -93t-26.5 -85.5t-54.5 -25.5q-12 0 -93 84q-47 49 -113.5 49t-100 -36t-33.5 -81t31.5 -78.5
t127 -97.5t142 -120.5t46.5 -147.5q0 -123 -107 -204.5t-251 -81.5h-23q-124 0 -210 44q-63 32 -63 90z" />
    <glyph glyph-name="t" unicode="t" horiz-adv-x="702" 
d="M680 871.5q0 -35.5 -85.5 -51t-126.5 -100t-75.5 -239t-34.5 -222.5q0 -99 70 -99q26 0 64.5 12t66.5 12q37 0 37 -35q0 -44 -106 -101t-179 -57h-18q-61 0 -96.5 51.5t-35.5 132t38.5 273t38.5 315.5q0 29 -35.5 54.5t-35.5 40t102 83.5q26 18 91 156q46 97 111 97
q56 0 56 -65l-8 -108q0 -60 63 -81q98 -33 98 -68.5z" />
    <glyph glyph-name="u" unicode="u" horiz-adv-x="1135" 
d="M366 901q81 0 81 -123q0 -68 -39.5 -258.5t-39.5 -259.5q0 -127 87 -127q29 0 75 30q209 134 266 559q12 87 24 116q22 53 83 53q37 0 62 -47t25 -95.5t-27 -190.5t-27 -187t33.5 -121.5t33.5 -94.5q0 -55 -36 -101t-107 -46t-107 57q-24 38 -24 167q-1 18 -9 18t-38 -34
q-187 -216 -355 -216t-168 196q0 54 45.5 260.5t45.5 264t-62 65.5q-56 8 -56 17.5t39 28.5q138 69 195 69z" />
    <glyph glyph-name="v" unicode="v" horiz-adv-x="1038" 
d="M931 928q107 0 107 -100q0 -57 -48 -142q-218 -384 -241 -415q-90 -120 -173.5 -189t-138.5 -69h-19q-54 0 -74 88q-6 29 -24 305q-9 135 -65 268q-28 65 -67 74q-93 21 -93 44q0 37 101 83t168 46t90 -67.5t23 -220.5l3 -116q0 -298 48 -298q7 0 52 42q233 218 233 480
l-20 105q0 23 41.5 52.5t96.5 29.5z" />
    <glyph glyph-name="w" unicode="w" horiz-adv-x="1523" 
d="M1490 813v-26q0 -37 -54 -156q-132 -291 -254 -475q-41 -62 -97.5 -102t-99 -40t-75 59t-76.5 219.5t-49 160.5t-70.5 -101t-113.5 -156q-124 -141 -176 -141q-68 0 -100 98q-4 12 -26 176t-39.5 227.5t-71 125.5t-53.5 114t69 96q34 22 105 22t107.5 -47t36.5 -230.5
t15.5 -283t58.5 -99.5q12 0 34 24q121 134 163 394q20 128 34 150q48 75 141 75q43 0 68.5 -44.5t25.5 -129.5l-3 -33q-3 -40 -3 -68q0 -242 47 -329q13 -24 23 -24q63 0 165 204q64 128 64 228t44 147.5t102 47.5t58 -83z" />
    <glyph glyph-name="x" unicode="x" horiz-adv-x="1037" 
d="M651 438q0 -77 97 -228q44 -69 88 -69l22 1q21 1 48.5 1t27.5 -17q0 -25 -50 -52q-130 -71 -186.5 -71t-85.5 45q-10 16 -63.5 142.5t-68.5 126.5q-21 0 -122 -131q-26 -34 -60 -86.5t-56.5 -75.5t-72 -23t-91 22.5t-41.5 65.5t77 62t131 70q180 171 180 266
q0 17 -38 110.5t-60 122.5q-40 53 -103.5 53t-63.5 22.5t50 49.5q125 68 181.5 68t84.5 -47q13 -23 54.5 -134t60.5 -111q31 0 122 122q20 27 52.5 86t37.5 64q26 28 83 28t92.5 -31.5t35.5 -61.5q0 -23 -105 -69q-61 -26 -140 -114q-118 -130 -118 -207z" />
    <glyph glyph-name="y" unicode="y" horiz-adv-x="1013" 
d="M911 916q58 0 81.5 -24.5t23.5 -60.5t-76 -188q-276 -553 -390.5 -721t-278.5 -322q-68 -64 -144 -64h-27q-37 0 -66 20t-29 53.5t24 51t92.5 31.5t104.5 34.5t92 84.5q90 102 90 235l-46 194q-13 55 -43.5 216t-52 224.5t-98.5 93.5q-39 16 -39 24t33 24
q128 64 181.5 64t104.5 -138q23 -64 64.5 -277t57.5 -213q55 0 141 169t86 275l-11 131q0 31 33.5 57t91.5 26z" />
    <glyph glyph-name="z" unicode="z" horiz-adv-x="948" 
d="M197 668q-32 0 -32 37q0 118 61 183q37 39 135 39h27q61 0 169 -17t146.5 -17t94 12.5t69.5 12.5q51 0 51 -45t-290 -342.5t-290 -360.5q0 -27 273 -27q75 0 111.5 18.5t63 40.5t39.5 22q29 0 29 -47q0 -103 -54 -164q-39 -44 -138 -44h-25q-54 0 -199 28.5t-194 28.5
t-91.5 -9t-63.5 -9q-30 0 -30 28q0 56 72.5 143t292.5 312.5t220 247.5t-143 22l-106 3q-65 0 -107 -33q-80 -63 -91 -63z" />
    <glyph glyph-name="braceleft" unicode="{" horiz-adv-x="718" 
d="M470 -356q-258 0 -258 245q0 75 37.5 222t37.5 230t-27.5 119.5t-81 60t-53.5 53.5q0 25 101 75q74 37 104.5 113.5t43.5 298.5t61.5 300t113.5 113.5t183 35.5h25q30 0 30 -19v-17q0 -34 -81 -63.5t-111 -74.5q-47 -71 -47 -271q0 -290 -117 -404q-22 -21 -59 -46
t-37 -34t38 -37.5t62 -74t24 -124.5t-36.5 -231t-36.5 -220.5t20 -96t76.5 -57.5t56.5 -67q0 -29 -44 -29h-25z" />
    <glyph glyph-name="bar" unicode="|" horiz-adv-x="552" 
d="M378 1505h19q51 0 51 -52q0 -29 -5.5 -85.5t-11.5 -134.5l-6 -80l-1 -20l-2 -20l-6 -80q-3 -26 -50 -667.5t-55 -694.5t-60 -53h-20q-49 0 -49 52q0 5 16 224l3 40l2 20l12 162l2 20l1 20l3 41q3 35 6 69.5t9 112.5l12 163l2 20l1 20l3 41q60 814 63 835q8 47 61 47z" />
    <glyph glyph-name="braceright" unicode="}" horiz-adv-x="728" 
d="M578 1271q0 -70 -37.5 -229.5t-37.5 -236t25 -113t80.5 -57.5t55.5 -47q0 -35 -84.5 -76.5t-118 -119t-47 -303.5t-76.5 -322q-79 -122 -277 -122h-24q-36 0 -36 32t81 65t107 72q52 79 52 277.5t43 292.5t122 151q46 33 46 39.5t-41 43.5t-60.5 83t-19.5 123.5t37 222.5
t37 213t-22 99t-78 55t-56 60.5t64 36.5q140 0 202.5 -64.5t62.5 -175.5z" />
    <glyph glyph-name="asciitilde" unicode="~" horiz-adv-x="1081" 
d="M406 821h32q60 0 185 -65.5t190 -65.5t113 57q49 57 70 57q36 0 36 -34q0 -72 -87.5 -144t-173.5 -72h-31q-60 0 -179 65t-181.5 65t-129 -58t-76.5 -58q-28 0 -28 34q0 71 89.5 145t170.5 74z" />
    <glyph glyph-name="uni00A0" unicode="&#xa0;" horiz-adv-x="519" 
 />
    <glyph glyph-name="exclamdown" unicode="&#xa1;" horiz-adv-x="552" 
d="M272 929v24q0 41 37 85.5t92 44.5h12q43 0 75.5 -32.5t32.5 -73.5v-20q-3 -12 -3 -20q0 -31 -37.5 -68.5t-68.5 -37.5l-12 -3h-33q-25 0 -60 29.5t-35 71.5zM53 -306v22q0 26 20 104l62 243q12 46 68.5 271.5t74.5 276.5q21 66 72 66h10q28 0 28 -33v-22q0 -22 -10 -82
t-13 -96l-17 -134l-2 -13l-1 -12q-53 -426 -70.5 -502t-50 -108.5t-86.5 -32.5h-23q-62 0 -62 52z" />
    <glyph glyph-name="cent" unicode="&#xa2;" horiz-adv-x="888" 
d="M389 184q21 0 31 79l28 147l2 8l6 31l10 47l6 24q2 8 15 71t24.5 94.5t16.5 51.5l20 76l7 22l6 21v6q0 6 -4 6h-6q-12 0 -70.5 -40.5t-104.5 -111.5q-82 -128 -82 -289v-8q0 -126 57 -202q25 -33 33 -33h5zM865 842v-19q0 -32 -21.5 -60t-46.5 -28t-67 42t-59 42
q-27 0 -43 -47.5t-72 -294t-56 -261.5q0 -43 58 -43q10 0 72.5 25.5t86.5 25.5t24 -16q0 -45 -123.5 -113.5t-142.5 -93.5q-103 -141 -109 -141q-24 0 -24 51l1 19l3 38q0 49 -70 97.5t-112.5 121t-42.5 158.5v46q0 277 249 476q32 26 101.5 65.5t76.5 46.5q12 14 46 87.5
t62 73.5q41 0 41 -76q0 -36 84 -110.5t84 -111.5z" />
    <glyph glyph-name="sterling" unicode="&#xa3;" horiz-adv-x="1137" 
d="M904 1379q205 0 205 -154q0 -48 -26 -79t-55 -31t-55 19l-20 19q-33 33 -39 38q-46 33 -118 33q-99 0 -174 -106q-36 -51 -63.5 -130.5t-27.5 -168t38 -123.5q5 -5 93.5 -28.5t88.5 -51t-98 -59t-137 -71.5q-21 -22 -70.5 -161.5t-49.5 -156.5q0 -52 56 -66q37 -9 164 -9
t182.5 29t90.5 76t59 47q44 0 44 -71q0 -107 -60.5 -179.5t-185.5 -72.5h-69q-34 0 -180 24t-189.5 24t-111.5 -20t-95 -20q-60 0 -60 60q0 33 93 105.5t111 105.5q56 105 56 240q0 65 -52 87q-90 39 -90 65.5t57.5 57t72.5 52.5t36 135q47 253 165 378q71 76 174.5 119.5
t203.5 43.5h36z" />
    <glyph glyph-name="currency" unicode="&#xa4;" horiz-adv-x="1066" 
d="M789 681q0 80 -55.5 141t-116.5 61l-15 2h-23q-95 0 -171.5 -84t-76.5 -182v-30q0 -73 56 -134.5t130 -61.5h30q87 0 163.5 83.5t76.5 174.5l2 15v15zM1017 977q0 -14 -58.5 -64t-58.5 -74.5t9.5 -75t9.5 -101.5t-16 -91.5t-36.5 -85.5t-20.5 -66t37.5 -63t37.5 -67
t-26 -45t-46 -20h-15q-11 0 -56 48.5t-76 48.5q-9 0 -65 -20.5t-115.5 -20.5t-128 21t-83 21t-67.5 -49t-71 -49q-70 0 -70 60q0 20 59.5 77.5t59.5 99.5q0 3 -10 47.5t-10 105t34 137.5t34 101.5t-37 69.5t-37 65t23 42t50.5 22t72 -48.5t57 -48.5t84.5 22t126.5 22
t114 -22t81.5 -22t75 49t69 49q69 0 69 -60v-15z" />
    <glyph glyph-name="yen" unicode="&#xa5;" horiz-adv-x="1284" 
d="M857 537q0 -23 44.5 -57t44.5 -56q0 -27 -72 -58q-150 -65 -150 -209q0 -21 40.5 -67.5t40.5 -47.5q0 -32 -49 -41q-11 -2 -170 -2h-128l-44 -2q-85 0 -85 30q0 20 28 44l29 20q48 32 59 45q36 42 36 117q0 52 -103 115q-40 24 -40 35q0 21 68 69.5t68 81.5t-40 56
q-39 23 -39 52.5t36 73.5t36 75q0 140 -99 338q-25 50 -85.5 98.5t-60.5 52.5q0 38 172 38t172 -37q0 -5 -12.5 -31t-12.5 -41.5t157 -358.5q29 -64 57 -64q16 0 128 144q217 278 217 326l-15 41q0 25 102 25q32 0 64 1l64 2q39 0 39 -21v-14q0 -13 -83 -71t-148 -143
q-162 -210 -162 -308l12 -89q0 -46 -44 -81q-72 -58 -72 -81z" />
    <glyph glyph-name="brokenbar" unicode="&#xa6;" horiz-adv-x="531" 
d="M285 1404q0 75 71 75h35q31 0 31 -35v-16l-1 -9l-2 -35l-3 -26q-7 -63 -7 -78l-3 -35q-4 -36 -4 -52l-3 -35q-7 -60 -7 -78l-3 -35q-2 -18 -2 -26l-3 -35q-6 -54 -6 -78l-8 -87q0 -63 -16 -77.5t-56 -14.5h-26q-39 0 -39 42v8l1 9l2 34q3 27 3 43l3 26q3 26 3 34l3 26
l3 52q4 36 4 52l4 44q3 27 3 35l3 35l3 43q7 66 10.5 108l5 60t1.5 26zM193 270.5q0 42.5 16.5 60.5t64.5 18h9q48 0 48 -35v-25l-4 -53q-7 -58 -8.5 -81.5t-4 -52.5t-4 -48t-3 -36.5t-1.5 -25.5l-5 -52q-6 -51 -6 -70l-3 -35l-2 -18l-3 -54q-6 -48 -6 -91.5t-16 -61
t-63 -17.5h-18q-41 0 -41 33v24l1 9l4 69l3 26q3 26 3 34l4 44l2 34q2 18 2 26l3 26q6 51 6 71l3 35l2 35l8 88l3 27q6 54 6 96.5z" />
    <glyph glyph-name="section" unicode="&#xa7;" horiz-adv-x="1024" 
d="M751 555q0 88 -91 199.5t-162 111.5h-11q-44 0 -84.5 -58t-40.5 -104l-2 -14v-20q0 -71 60.5 -131.5t150 -120t94.5 -59.5h10q19 0 48.5 36.5t29.5 115.5v22q-2 14 -2 22zM703 1399q203 0 203 -112q0 -61 -30 -95q-12 -14 -32 -14t-83 68q-38 41 -106 41t-102 -44.5
t-34 -107t43 -112t150.5 -127t159 -148t51.5 -175.5t-73.5 -202t-73.5 -177q0 -118 -24 -188q-51 -153 -210 -218q-77 -32 -172 -32q-218 0 -218 144q0 60 32 94q11 12 35 12t80 -62t128 -62t114.5 40t42.5 113t-67 144q-8 8 -112.5 90t-148 148.5t-43.5 164.5t77 208
t77 125l-14 72q-6 35 -6 85q0 133 100 230t256 97z" />
    <glyph glyph-name="dieresis" unicode="&#xa8;" horiz-adv-x="860" 
d="M230 1230v24q0 43 35 78t69 35h28q8 -2 19.5 -2t38.5 -27t27 -63v-21q0 -35 -32.5 -74t-75.5 -39h-21l-21 4q-14 0 -40.5 26.5t-26.5 58.5zM822 1258l-4 -25q0 -24 -32.5 -56.5t-57.5 -32.5l-21 -3h-11q-35 0 -62 27t-27 49l-3 13v18q0 51 34.5 85.5t72.5 34.5h22
q9 -3 24.5 -3t38.5 -28.5t23 -46.5l3 -21v-11z" />
    <glyph glyph-name="copyright" unicode="&#xa9;" horiz-adv-x="1580" 
d="M258 652v-38q0 -225 155 -386q73 -75 176 -116.5t210 -41.5h19q118 0 228 48q224 99 325 329q53 120 53 234v57q0 88 -42 190q-80 194 -263 284q-107 52 -216 52h-57q-102 0 -214.5 -50t-197 -141t-130.5 -206t-46 -215zM454 599v59q0 79 37 165t97 144q123 118 297 118
h20q140 0 191.5 -26.5t51.5 -125.5q0 -64 -49 -64q-7 0 -73.5 64t-166.5 64t-171.5 -100.5t-71.5 -241.5t63 -221.5t176 -80.5q71 0 142 50t92.5 50t21.5 -32q0 -70 -73 -120.5t-211 -50.5h-20q-145 0 -243 94q-55 53 -82.5 122t-27.5 133zM1524 730v-22q0 -144 -57.5 -284
t-160 -239.5t-231 -154t-260.5 -54.5h-44q-127 0 -243 54q-251 117 -334 360q-36 105 -36 213v22q0 147 58 282q115 270 379 392q130 60 272 60h22q264 0 450 -182q79 -77 132 -201t53 -246z" />
    <glyph glyph-name="ordfeminine" unicode="&#xaa;" horiz-adv-x="861" 
d="M608 1199v22q0 60 -60 60h-24q-10 -2 -17 -2q-72 0 -139 -95.5t-67 -174.5l-2 -11v-41q0 -51 21.5 -75.5t42.5 -24.5h16q75 0 152 110t77 232zM514 1365h35q6 0 24 -4l22 -5q15 -2 41.5 -2t49.5 2l30 3q37 0 37 -72q0 -32 -30 -182t-30 -167q0 -43 29 -43l16 2h17
q36 0 36 -25v-10q0 -26 -43.5 -60.5t-99.5 -34.5h-11q-49 0 -76 50.5t-31 50.5q-12 0 -85.5 -48t-159.5 -48q-51 0 -85 41t-34 97v26q0 60 37.5 146.5t105.5 166.5q99 116 205 116z" />
    <glyph glyph-name="guillemotleft" unicode="&#xab;" horiz-adv-x="962" 
d="M566 841q0 -26 -137.5 -183.5t-137.5 -167t75 -159.5t75 -170q0 -44 -43 -44q-22 0 -159.5 179.5t-137.5 183.5v9q0 28 182 176l249 202q34 0 34 -26zM874.5 854q27.5 0 27.5 -27v-7q0 -13 -127.5 -170t-127.5 -164t66 -146.5t66 -166.5q0 -41 -41 -41q-26 0 -113 123
q-24 34 -94 121.5t-70 104.5v9q0 29 173 170q31 26 122 110t118.5 84z" />
    <glyph glyph-name="logicalnot" unicode="&#xac;" horiz-adv-x="1145" 
d="M966 268h-12q-60 0 -60 63l3 38l3 26q3 38 3 62q0 85 -57 106q-19 7 -366.5 7t-347.5 34q0 73 40 80q30 5 424 5l372 1h13q63 0 63 -91v-12q0 -132 -37 -286q-8 -33 -41 -33z" />
    <glyph glyph-name="uni00AD" unicode="&#xad;" horiz-adv-x="731" 
d="M620 584q28 0 28 -34l-1 -6v-6q0 -90 -60 -90l-25 -3h-13l-19 -1h-13l-13 -1h-33l-13 -1h-13l-33 -2h-13l-13 -1h-13l-20 -1h-20l-7 -1h-13l-20 -1h-13l-13 -1h-20l-19 -1h-32l-20 -1h-37q-26 0 -26 28v12q2 14 2 20q0 77 50 77l7 1l6 1l373 12h69z" />
    <glyph glyph-name="registered" unicode="&#xae;" horiz-adv-x="1392" 
d="M669 914q0 -16 32 -16h35l4 1l23 1l25 4q30 0 64.5 34.5t34.5 72.5q2 10 2 22v22q-2 8 -2 13q0 30 -33 57.5t-60 27.5l-4 1l-5 1l-39 3h-9q-52 0 -52 -26q-2 -8 -2 -12l-4 -38v-8l-1 -4v-8l-1 -9v-8l-1 -4v-8l-1 -9v-8l-1 -8v-12l-2 -21v-9l-1 -4v-8l-2 -25v-15zM711 361
h48h4q85 0 177 43q194 90 271 279q45 109 45 200v32q0 85 -38 177t-105 156q-132 128 -322 128h-16q-99 0 -192.5 -42t-161.5 -113t-113 -168t-45 -201v-49q1 -91 41 -175q79 -164 237 -231q84 -36 170 -36zM632 536h-32l-17 1h-32l-33 -1h-17q-37 0 -37 27q0 10 32.5 30.5
t40.5 59.5q27 140 27 429q0 49 -18 65q-38 34 -38 45q0 27 164 27l50 1h68q94 0 154.5 -46t60.5 -117q0 -101 -84 -170q-41 -34 -41 -46q0 -29 51 -116t76 -106q53 -41 53 -50q0 -33 -80 -33h-17q-47 0 -70 27t-69.5 126t-57.5 113q-25 33 -62 33q-47 0 -47 -139
q0 -51 8 -64.5t24.5 -35.5t16.5 -30q0 -30 -74 -30zM1346 899q0 -111 -45.5 -230t-132.5 -206t-200 -137t-233 -50h-19q-222 0 -383 153.5t-161 385.5l1 19v20q0 112 56 235t146 206q179 165 427 165q118 0 218 -44q204 -88 286 -300q40 -106 40 -217z" />
    <glyph glyph-name="macron" unicode="&#xaf;" horiz-adv-x="834" 
d="M290 1289h222l7 -1h21q284 0 284 -24v-6q0 -82 -54 -82h-512q-35 0 -35 23v7q0 83 67 83z" />
    <glyph glyph-name="degree" unicode="&#xb0;" horiz-adv-x="692" 
d="M484 1324h-31q-48 0 -97.5 -49.5t-49.5 -117.5v-16q0 -53 38 -97t88 -44h25q46 0 97 43.5t51 98.5l3 15v31q-2 10 -2 15q0 48 -41.5 84.5t-80.5 36.5zM473 1420h16q97 0 160.5 -69t63.5 -172.5t-78.5 -189t-193.5 -85.5h-8l-9 1q-92 0 -157.5 65.5t-65.5 162.5v8l1 8
q0 101 78 186t193 85z" />
    <glyph glyph-name="plusminus" unicode="&#xb1;" horiz-adv-x="1092" 
d="M931 227q43 0 43 -28v-10q0 -77 -57 -86q-12 -2 -410 -2h-167l-39 -1h-146q-54 0 -54 30v9q0 54 17 71t127 17h284l10 -1l156 1h236zM854 783q165 0 165 -34q0 -71 -42 -87q-14 -5 -161 -5t-159 -10q-34 -29 -34 -197q0 -79 -13 -108.5t-68 -29.5h-16q-35 0 -35 84
l16 212q0 34 -13.5 40.5t-157.5 6.5t-157 4q-30 9 -30 39q0 59 37 76q17 8 169 8t165 17.5t21 150.5t13 152q9 34 59 34h17q48 0 48 -55l-20 -246q0 -46 26 -51q5 -1 170 -1z" />
    <glyph glyph-name="uni00B2" unicode="&#xb2;" horiz-adv-x="732" 
d="M477 1418h37q81 0 136.5 -47t55.5 -122v-18q0 -73 -73 -165q-31 -39 -158.5 -148.5t-127.5 -116.5q0 -17 63 -17l36 2q18 1 67 1t95 24.5t50 24.5q19 0 19 -47t-45 -96q-21 -23 -60 -23h-74q-76 4 -112 4h-94q-36 -2 -54 -2l-36 -2q-46 0 -46 30q0 51 140.5 167t201 196
t60.5 155q0 42 -27 73t-81 31t-105.5 -65t-73.5 -65t-22 34q0 75 48 119q79 73 180 73z" />
    <glyph glyph-name="uni00B3" unicode="&#xb3;" horiz-adv-x="716" 
d="M674 1298q0 -92 -114 -182q-40 -32 -40 -38q-2 -6 36 -27q96 -57 97 -167q0 -108 -97 -184t-226 -77h-18q-70 0 -116.5 30.5t-46.5 68.5q0 44 55 44q11 0 53 -27.5t99 -27.5t106 49t49 129q0 89 -121 121q-51 14 -51 35t61 53q124 64 124 145t-77 81q-41 0 -95.5 -37
t-72.5 -37q-27 0 -27 48.5t59 86.5t159 38h19q78 0 131.5 -31.5t53.5 -77.5v-16z" />
    <glyph glyph-name="acute" unicode="&#xb4;" horiz-adv-x="683" 
d="M336 1074h-15q-39 0 -39 26q0 61 187 275q53 61 102 61h16q82 0 82 -40v-14q0 -29 -157 -168.5t-176 -139.5z" />
    <glyph glyph-name="uni00B5" unicode="&#xb5;" horiz-adv-x="1153" 
d="M51 -298q0 36 90 499.5t90 479.5t-10.5 59.5t-10.5 79t40.5 63.5t92 28t76.5 -17.5t25 -69.5t-46 -250t-46 -272t31 -115t85.5 -41t119.5 45.5t109.5 117.5t91 266.5t52.5 208.5q34 74 82 74q12 0 33.5 -36.5t21.5 -87t-19 -146.5t-19 -187.5t37 -130.5q57 -60 57 -119.5
t-41.5 -103t-101 -43.5t-90 23.5t-53 77.5t-48.5 54q-18 0 -77.5 -49.5t-102 -66t-139 -16.5t-126.5 -49q-21 -34 -42 -165t-23 -136q-39 -91 -102 -91q-37 0 -37 116z" />
    <glyph glyph-name="paragraph" unicode="&#xb6;" horiz-adv-x="1142" 
d="M796 1023q-73 0 -73 -172q0 -276 -122 -707q-27 -97 -54 -128.5t-68 -31.5t-52 55t-11 215v236q0 293 -4 301l-22 21q-122 114 -122 288v34q0 75 49 149q140 211 437 211h120q281 0 281 -50q0 -7 -26.5 -37t-34.5 -41q-40 -52 -56.5 -138t-59 -422.5t-75 -565
t-32.5 -231.5l3 -29q6 -50 6 -56q0 -76 -56 -76q-43 0 -65 25.5t-22 48.5t18 129t18 354.5t4 325.5t28 163.5t24 89.5q0 39 -33 39z" />
    <glyph glyph-name="periodcentered" unicode="&#xb7;" horiz-adv-x="462" 
d="M389 624l-2 -20q0 -30 -39.5 -69.5t-83.5 -39.5h-24q-37 0 -69.5 32.5t-32.5 61.5l-3 24v4l1 4q0 46 37.5 90t87.5 44h20q48 0 78.5 -36.5t30.5 -73.5v-17z" />
    <glyph glyph-name="cedilla" unicode="&#xb8;" horiz-adv-x="2200" 
d="M369 -78q0 -11 56 -53t56 -93v-31q0 -74 -76.5 -132.5t-160.5 -58.5h-40q-76 0 -76 35v7q0 47 76 47q50 0 79.5 24t29.5 50t-32.5 63t-32.5 79t43 106q20 30 60 30h12q12 0 12 -23q-6 -39 -6 -50z" />
    <glyph glyph-name="uni00B9" unicode="&#xb9;" horiz-adv-x="626" 
d="M447 676h-185q-77 0 -77 25v8q0 11 71 54q36 22 53 76q58 182 58 389q0 51 -45 58q-62 10 -62 34q0 13 30 28q146 73 223 73h19q21 0 21 -25v-11q0 -13 -21 -78t-51 -253.5t-30 -224.5t39 -69.5t39 -49.5q0 -34 -82 -34z" />
    <glyph glyph-name="ordmasculine" unicode="&#xba;" horiz-adv-x="791" 
d="M630 1135q0 69 -34.5 118.5t-79.5 49.5h-19q-67 0 -128 -84t-61 -175l-2 -13v-40q2 -14 2 -20q0 -51 34.5 -100t84.5 -49h13q67 0 126.5 82t59.5 158q2 14 2 20l2 27v26zM504 1379h31q106 0 173.5 -72.5t67.5 -171.5v-21l-1 -10q0 -137 -104 -249q-46 -50 -112.5 -79.5
t-133.5 -29.5h-21q-110 0 -176 76t-66 169v30q0 61 29.5 131.5t84.5 125.5q101 101 228 101z" />
    <glyph glyph-name="guillemotright" unicode="&#xbb;" horiz-adv-x="967" 
d="M79 165q0 27 127.5 173t127.5 163t-66.5 150t-66.5 160q0 43 41 43q22 0 150 -171t128 -188.5t-200 -190.5t-206 -173q-35 0 -35 27v7zM689 503q0 14 -74 154.5t-74 175t40 34.5q24 0 161.5 -180t137.5 -190q0 -18 -208.5 -199t-222.5 -181q-35 0 -35 27v8
q0 32 137.5 178.5t137.5 172.5z" />
    <glyph glyph-name="onequarter" unicode="&#xbc;" horiz-adv-x="1585" 
d="M1243 372q30 150 30 187l5 29q3 14 3 18l3 18q0 4 -2 4q-10 0 -53.5 -50.5t-74.5 -81.5q-154 -154 -154 -173q0 -5 105 -5h109q29 0 29 54zM402 1180q0 42 -44 52q-67 16 -67 29q0 19 32 34q148 70 224 70q30 0 30 -39q0 -16 -8.5 -48.5t-14.5 -56.5l-7 -23
q-9 -45 -37.5 -229t-28.5 -222t25 -65q5 -6 31 -21t26 -32q0 -37 -204 -37h-25l-39 -1q-82 0 -82 23v8q0 12 53.5 41.5t69.5 77.5q66 198 66 439zM1363.5 1401q43.5 0 43.5 -26q0 -51 -952 -1306q-52 -68 -95.5 -68t-43.5 26q0 35 953 1306q51 68 94.5 68zM1205 0h-13
q-45 0 -45 42q0 27 24.5 63t24.5 50q0 46 -34 62q-13 6 -109 6q-168 0 -168 53q0 30 238.5 280.5t273.5 250.5h9q25 0 25 -53q0 -23 -21 -145t-21 -186.5t30 -80.5q49 -26 49 -55v-6q0 -8 -27 -28.5t-33 -28.5q-45 -68 -45 -76l8 -48q0 -100 -166 -100z" />
    <glyph glyph-name="onehalf" unicode="&#xbd;" horiz-adv-x="1680" 
d="M488 581h-189q-75 0 -75 28q0 11 71 56q41 26 57 75q61 192 61 410q0 52 -44 62q-62 15 -62 37q0 16 40 34q151 68 216 68q33 0 33 -36q0 -5 -20 -86t-49.5 -271.5t-29.5 -225.5t16.5 -51.5t42 -31.5t25.5 -29q0 -39 -93 -39zM1377 1386h17q37 0 37 -21q0 -48 -929 -1273
q-86 -114 -126 -114h-17q-37 0 -37 20v13q0 10 35 58q612 844 927 1246q56 71 93 71zM1421 568q0 121 -117 121q-56 0 -109.5 -69.5t-69.5 -69.5q-22 0 -22 34q0 81 70.5 141t178.5 60h19q82 0 139.5 -49t57.5 -127v-18q0 -83 -88 -185q-24 -27 -154 -139.5t-130 -126.5
q0 -9 108 -9t172 33l23 13q18 10 22 10q21 0 21 -24q0 -71 -48 -123q-21 -23 -80 -23h-77l-39 2l-38 1h-79l-96 -2l-19 -1q-58 0 -58 34q0 43 149 172q150 130 207 205t57 138v2z" />
    <glyph glyph-name="threequarters" unicode="&#xbe;" horiz-adv-x="1703" 
d="M1073 324v-2q0 -3 22 -3h196q24 0 24 48q15 75 15 94l4 26q7 27 11 55t6 41t2 18l3 14v11l-1 2q-13 0 -87 -84q-74 -86 -78 -90l-85 -93q-32 -32 -32 -37zM280 1233q0 137 229 137q93 0 158 -36q45 -25 45 -78q0 -91 -104 -176q-63 -52 -63 -60q0 -2 47.5 -33t73 -70
t25.5 -111q0 -103 -100 -182t-228 -79h-19q-62 0 -114.5 25.5t-52.5 63.5q0 45 57 45q22 0 66 -23t72 -23q80 0 128.5 53t48.5 120t-37 99.5t-89.5 46.5t-52.5 36q0 10 58 46q128 77 128 175q0 65 -69 65q-48 0 -101.5 -38.5t-84.5 -38.5q-21 0 -21 36zM1428 1400
q52 0 52 -23q0 -70 -638 -882q-387 -493 -400 -493h-17q-36 0 -36 22q0 44 652 903q359 473 387 473zM1444 83q0 -35 -43.5 -58t-123.5 -23h-12q-43 0 -43 50q0 22 23 53.5t23 50.5q0 45 -35 60q-17 7 -107 7q-168 0 -168 44v9q0 18 232.5 275t278.5 257q35 0 35 -53
q0 -6 -8 -64l-12 -76l-5 -29q-18 -131 -18 -180.5t30 -62.5q50 -22 50 -55q0 -12 -25.5 -32.5t-52.5 -58t-27 -55.5q8 -24 8 -59z" />
    <glyph glyph-name="questiondown" unicode="&#xbf;" horiz-adv-x="857" 
d="M601 1084q38 0 69.5 -31.5t31.5 -59.5l2 -8v-28q0 -32 -34 -79.5t-90 -47.5h-24q-38 0 -71 33t-33 78l1 4q0 50 36.5 93.5t75.5 43.5l8 2h28zM502 679q23 0 43 -25q41 -51 41 -121.5t-41.5 -130.5t-127.5 -153t-125 -160.5t-39 -139t35.5 -107t89 -35.5t127.5 57t102 57
q45 0 45 -69t-82 -131.5t-223 -62.5t-229 77.5t-88 173.5v17q0 81 52.5 159.5t170.5 180.5t157.5 148.5t39.5 117.5l-11 91q0 56 63 56z" />
    <glyph glyph-name="Agrave" unicode="&#xc0;" horiz-adv-x="1423" 
d="M637 614h120l8 1l109 4q8 1 15 1q31 0 31 25v21l-4 37l-5 37q-4 30 -4 38l-13 102q-3 14 -3 17l-16 122q0 129 -31 129q-6 0 -50.5 -78t-58.5 -99.5t-26 -44t-25 -43t-79.5 -137t-66.5 -117.5v-5q0 -10 99 -10zM669 1770v14q0 55 94 55h20q38 0 147.5 -125.5
t109.5 -158.5v-9q0 -29 -29 -29h-4q-50 0 -231 141q-107 83 -107 112zM282 172q0 -27 24 -63.5t24 -49.5q0 -34 -43.5 -42.5t-158.5 -8.5h-62q-122 0 -122 42q0 36 71.5 67t109.5 83t147 232.5t198 320.5t168.5 276.5t146.5 232.5q100 144 160 144q67 0 99 -156
q10 -52 67.5 -539t66 -524t63 -71.5t54.5 -57.5q0 -39 -62 -47q-8 -1 -197 -1t-189 35q0 17 37 51.5t49 63.5t12 159t-29 166q-19 24 -226.5 24t-255.5 -47q-32 -31 -92 -147t-60 -143z" />
    <glyph glyph-name="Aacute" unicode="&#xc1;" horiz-adv-x="1425" 
d="M627 614h112l8 1l118 4q8 1 15 1q30 0 30 25v21l-3 30l-4 29q-4 30 -4 38q0 217 -54 365q-7 20 -12 20t-111 -185l-26 -43q-14 -25 -28.5 -48t-77 -132.5t-62.5 -110.5q0 -15 99 -15zM751 1420v26q0 26 273 276q79 72 134 72h7q9 0 35 -33.5t26 -59.5v-14q0 -70 -72 -151
q-6 -7 -81 -35t-83 -28h-2q-51 0 -129 -45t-84 -45l-7 1q-17 0 -17 36zM389 305.5q0 -25.5 21 -59.5t21 -39q0 -47 -95 -47h-50l-26 1h-27q-135 0 -135 37q0 32 64.5 65t85 61.5t298 505t288.5 492.5q88 136 142 136q45 0 85 -159q12 -47 68.5 -334t83 -450.5t37 -191
t55 -54.5t44.5 -47q0 -38 -54 -48q-16 -3 -137 -3h-80q-25 1 -48 1q-82 0 -82 23.5t34 63.5t34 104q0 173 -45 221q-19 20 -212 20t-227 -32q-21 -20 -82 -130.5t-61 -136z" />
    <glyph glyph-name="Acircumflex" unicode="&#xc2;" horiz-adv-x="1423" 
d="M896 616q23 0 23 31v7l-7 66l-5 38q-4 30 -4 46.5t-16.5 110t-16.5 131.5q0 97 -28 97q-6 0 -78.5 -127t-149.5 -252.5t-77 -139.5v-5q0 -10 130 -10h73l8 1l110 3q24 3 38 3zM1010 1844h7q41 0 93 -81q128 -199 128 -209q0 -33 -35 -33t-123 80.5t-102 80.5
q-1 0 -124.5 -79.5t-153.5 -79.5t-30 18v7q0 13 154.5 154.5t185.5 141.5zM281 155q0 -14 23.5 -50t23.5 -51q0 -32 -40.5 -41t-191.5 -9l-31 -1q-122 0 -122 42q0 36 71.5 67.5t106 77.5t145.5 230.5t182.5 296.5t181.5 294t181.5 286.5t131.5 104.5q32 0 58 -37t49 -150
q2 -10 59 -499t66.5 -530t63.5 -76.5t54 -55.5q0 -40 -61 -48h-152q-234 0 -234 35q0 17 36 51t49 64t13 159.5t-29 164.5q-20 24 -227 24t-255 -47q-28 -27 -90 -142.5t-62 -159.5z" />
    <glyph glyph-name="Atilde" unicode="&#xc3;" horiz-adv-x="1423" 
d="M637 610h112l8 1l117 4q8 1 15 1q31 0 31 25v21q-5 40 -5 44l-4 30q-4 30 -4 38l-13 102l-3 17l-3 25q-7 44 -10 62.5t-3 34.5q0 129 -31 129q-7 0 -55.5 -85t-58 -99.5t-21.5 -37t-25 -43t-79.5 -137t-66.5 -117.5v-5q0 -10 99 -10zM846 1776h32q47 0 121.5 -46.5
t120.5 -46.5t100.5 42t66.5 42q22 0 22 -25q0 -63 -76.5 -128t-136.5 -65h-24q-54 0 -129.5 47t-121.5 47t-72.5 -18.5t-49.5 -41.5t-39 -23q-29 0 -29 25v8q0 46 74.5 114.5t140.5 68.5zM282 168.5q0 -26.5 23.5 -63.5t23.5 -50q0 -33 -40.5 -42t-160.5 -9h-62
q-122 0 -122 42q0 36 72.5 67.5t103.5 75.5q50 71 155.5 245.5t188 304.5t126.5 205t178 289q107 170 177 170h1q66 0 98 -155q10 -52 67.5 -540t66 -524.5t63 -72.5t54.5 -57q0 -39 -62 -47q-8 -1 -197 -1t-189 36q0 16 37 50.5t49 63.5t12 159t-29 166q-19 24 -226.5 24
t-255.5 -47q-32 -31 -92 -147t-60 -142.5z" />
    <glyph glyph-name="Adieresis" unicode="&#xc4;" horiz-adv-x="1423" 
d="M906 641v21q-3 21 -3 29l-8 67q0 218 -54 366q-7 20 -12 20t-43 -67t-150 -249t-112 -203q0 -15 84 -15h143l8 1l86 3l31 2q30 0 30 25zM773 1779h21q33 0 59 -26t26 -44l5 -32v-3l-5 -32q0 -21 -33 -54t-68 -33h-24q-34 0 -62 28t-28 66v11l5 31q0 22 33 55t71 33z
M1160 1528h-12l-3 1h-6l-4 1h-8q-133 0 -133 93v8q0 48 60 91t110 43h20q58 0 58 -72q4 -16 4 -21v-25l-4 -26l1 -11q0 -23 -35.5 -52.5t-47.5 -29.5zM346 96q0 -33 -36 -41.5t-187 -8.5l-29 -1q-117 0 -117 42q0 33 70 66t100 75q4 6 313 514l324 533q93 140 155 140
q29 0 52.5 -34.5t48.5 -153.5q0 -2 66 -486t75.5 -521t46.5 -62q65 -43 65 -62q0 -40 -58 -48q-8 -1 -191.5 -1t-183.5 33q0 8 56 72q35 40 35 112q0 203 -34 243q-20 23 -213.5 23t-231 -24t-105 -146.5t-67.5 -153t23 -65t23 -45.5z" />
    <glyph glyph-name="Aring" unicode="&#xc5;" horiz-adv-x="1431" 
d="M961.5 1781q-15.5 0 -44.5 -36t-29 -68v-24l1 -4v-7q2 -6 2 -20.5t26.5 -36t40.5 -21.5l20 -3h7q9 3 23.5 3t46.5 32t32 80v20q-3 12 -3 24.5t-25.5 38t-52.5 25.5h-20q-9 -3 -24.5 -3zM624 613h176l8 1l70 3q8 1 15 1q48 0 48 32v14l-4 37l-4 29q-3 23 -3 30
q0 210 -55 361q-9 24 -14 24h-3q-4 0 -37 -58t-150.5 -249t-117.5 -212q0 -13 71 -13zM798 1687q0 53 61 114t135 61h25q58 0 109.5 -46t51.5 -114v-13q0 -80 -62.5 -142.5t-137.5 -62.5h-31q-64 0 -108.5 50t-44.5 104v31q2 12 2 18zM293 161q0 -11 24 -49.5t24 -55.5
q0 -34 -49 -43t-209 -9h-61q-60 0 -60 41q0 36 68 62.5t108 81.5q3 5 245.5 390.5t301.5 483.5t120 189q98 145 160 145t101 -190q5 -23 60.5 -509.5t60.5 -504.5q13 -50 64 -82.5t51 -60.5q0 -42 -217 -42t-217 40q0 20 50 55t50 111q0 244 -37 280q-21 20 -223 20
t-257 -52q-38 -36 -98 -146t-60 -155z" />
    <glyph glyph-name="AE" unicode="&#xc6;" horiz-adv-x="1880" 
d="M719 650h169q66 0 81 38q25 65 48 248l35 189q10 53 10 61v7q0 8 -4 8q-24 0 -158 -194q-39 -57 -145 -194.5t-106 -149.5v-5q0 -8 70 -8zM1228 940q0 -61 40.5 -103.5t85 -42.5t78.5 12l35 17q63 31 73 31q38 0 58 -26.5t20 -71.5q0 -129 -46 -178l-32 -18
q-11 0 -79.5 45t-136.5 45q-114 0 -159 -65q-17 -25 -42.5 -132.5t-25.5 -204t44 -120.5q31 -17 143 -17t212 31q40 12 134 77.5t111 65.5t17 -26q0 -65 -52 -166q-25 -49 -67 -70t-242 -21h-167l-56 1q-281 0 -343.5 13.5t-62.5 61.5q0 5 38.5 60.5t70 139t31.5 170.5
q0 60 -67 80q-37 11 -145.5 11t-170.5 -59.5t-138.5 -180.5t-76.5 -152t18.5 -61.5t18.5 -51.5q0 -31 -184.5 -31t-184.5 37q0 44 87.5 97t143.5 122q315 389 627 829q40 56 72.5 157.5t41.5 110.5q48 44 220 44h51l51 -1l332 1q150 0 193 -22q69 -35 69 -122t-41 -87
q-2 0 -33.5 21t-152 55t-175.5 34q-88 0 -147 -77q-89 -116 -89 -262z" />
    <glyph glyph-name="Ccedilla" unicode="&#xc7;" horiz-adv-x="1360" 
d="M72 518v70q0 142 68 304q140 332 471 458q142 54 299 54q236 0 386 -75q33 -16 60.5 -69.5t27.5 -104.5q0 -105 -51 -105q-13 0 -81 73t-128 100q-104 46 -237.5 46t-238.5 -56q-218 -117 -304 -393q-38 -124 -38 -242q0 -227 111 -356q111 -128 290 -128q132 0 263 52
q57 23 136.5 94t99.5 71t20 -27t-47.5 -119.5t-72 -112t-146.5 -55.5t-253 -36h-35q-246 0 -408 140q-91 79 -141.5 192.5t-50.5 224.5zM735 -205v-20q0 -67 -69 -129t-163 -62h-33q-53 0 -53 32q0 52 59 52q38 0 71.5 29.5t33.5 61.5t-29.5 57.5t-29.5 45t39 73.5
q18 25 43 25h6l6 -1q28 0 28 -29q0 -11 45.5 -51.5t45.5 -83.5z" />
    <glyph glyph-name="Egrave" unicode="&#xc8;" horiz-adv-x="1237" 
d="M677 1837q38 0 147.5 -125.5t109.5 -153.5v-19q0 -24 -28 -24h-5q-69 0 -203.5 117.5t-134.5 135.5v14q0 53 78 53l10 2h26zM548 922q0 -129 134 -129q53 0 80 10.5t75 38t65 27.5q70 0 70 -92.5t-29.5 -156t-68.5 -63.5q-19 0 -74.5 53.5t-132 53.5t-121 -25t-62.5 -58
q-63 -115 -63 -318q0 -92 32.5 -118.5t156.5 -26.5q210 0 365 97q110 69 114 69q21 0 21 -37q0 -122 -84 -199q-48 -44 -137 -44h-171l-44 1l-89 -1h-44l-45 1q-466 0 -466 33q0 38 68.5 66.5t92.5 100.5q6 18 103 497.5t97 523t-42 71.5q-70 47 -70 60q0 35 67 42
q19 2 255 2l215 2l45 1l219 1l43 1q72 0 95.5 -31.5t23.5 -110t-31 -112.5l-14 -9q-17 0 -55 40q-103 107 -353 107q-97 0 -152 -73q-22 -29 -55.5 -146.5t-33.5 -148.5z" />
    <glyph glyph-name="Eacute" unicode="&#xc9;" horiz-adv-x="1237" 
d="M776 1514h-15q-25 0 -25 26v5q0 52 207 233q66 58 107 58h16q86 0 86 -48v-10q0 -33 -107 -108q-223 -156 -269 -156zM548 922q0 -129 134 -129q54 0 80.5 11t75 38t63.5 27q71 0 71 -93t-30 -156t-69 -63q-17 0 -74.5 53.5t-132.5 53.5t-120.5 -25.5t-62.5 -57.5
q-62 -113 -62 -318q0 -93 31.5 -119t155.5 -26q208 0 366 97q110 68 115 68q21 0 21 -36q0 -122 -85 -199q-50 -45 -178 -45l-43 1l-352 1q-422 0 -422 32q0 40 68 68t92 100q5 16 103 494t98 524t-42 74q-70 47 -70 60q0 34 66 42q17 2 256 2l436 3l86 1q73 0 96 -31.5
t23 -109.5t-32 -112l-14 -9q-16 0 -54 40q-103 107 -354 107q-96 0 -152 -74q-21 -27 -54.5 -145t-33.5 -149z" />
    <glyph glyph-name="Ecircumflex" unicode="&#xca;" horiz-adv-x="1237" 
d="M892 1843h7q37 0 97 -87q124 -179 124 -207t-35 -28h-7q-28 0 -115.5 80t-99.5 80q-11 0 -69 -40q-171 -119 -207 -119t-36 25q0 12 155 154t186 142zM548 919q0 -129 134 -129q53 0 80 10.5t75 38t65 27.5q70 0 70 -92.5t-29.5 -156t-68.5 -63.5q-19 0 -74.5 53.5
t-132 53.5t-121 -25t-62.5 -58q-63 -115 -63 -318q0 -92 32.5 -118.5t156.5 -26.5q210 0 365 97q110 69 114 69q21 0 21 -37q0 -122 -84 -199q-48 -44 -137 -44h-171l-44 1l-89 -1h-44l-45 1q-466 0 -466 33q0 38 68.5 66.5t92.5 100.5q6 18 103 497.5t97 523t-42 71.5
q-70 47 -70 60q0 35 67 42q19 2 255 2l436 4l86 1q72 0 95.5 -31.5t23.5 -110t-31 -112.5l-14 -9q-15 0 -55 40q-104 106 -353 107q-97 0 -152 -73q-22 -29 -55.5 -146.5t-33.5 -148.5z" />
    <glyph glyph-name="Edieresis" unicode="&#xcb;" horiz-adv-x="1237" 
d="M554 1667q0 41 35.5 76.5t72.5 35.5h22q32 0 60.5 -28.5t28.5 -62.5v-21q-3 -12 -3 -28t-34 -50t-72 -34h-21q-33 0 -59.5 26.5t-26.5 46.5l-3 17v22zM1149 1668q0 -42 -35.5 -77.5t-73.5 -35.5h-21q-9 3 -22.5 3t-40.5 27t-27 61v21q3 12 3 28.5t32.5 49t59.5 32.5l21 3
h14q12 -3 24 -3t38 -26t26 -51l2 -7v-25zM548 921q0 -130 134 -130q55 0 81.5 11t75.5 38.5t63 27.5q70 0 70 -93t-29.5 -156.5t-68.5 -63.5q-19 0 -74.5 53.5t-125.5 53.5q-120 0 -172 -54q-26 -27 -53 -136.5t-27 -206t31 -123t161 -26.5q214 0 391 116q76 50 84 50
q21 0 21 -37q0 -122 -84 -199q-48 -44 -137 -44h-171l-44 1l-88 -1h-45l-45 1q-466 0 -466 33q0 38 68.5 66.5t92.5 100.5q6 18 103.5 500t97.5 522.5t-43 69.5q-70 47 -70 60q0 35 67 43q17 2 255 2l436 3l86 1q71 0 95 -31t24 -110.5t-31 -112.5l-14 -9q-14 0 -54 40
q-108 108 -354 108q-95 0 -152 -74q-22 -29 -55.5 -146.5t-33.5 -147.5z" />
    <glyph glyph-name="Igrave" unicode="&#xcc;" horiz-adv-x="710" 
d="M276 1773v9q0 55 89 55h25q43 0 89 -53q169 -193 169 -235l-1 -5q0 -29 -28 -29h-5q-50 0 -231 141q-107 83 -107 117zM72 1q-53 0 -53 29t75.5 59.5t94.5 78.5q10 25 111 519.5t101 542.5t-47 73q-77 41 -77 61q0 36 283 36l154 3q72 0 72 -29t-76 -60t-96 -92
q-6 -17 -106.5 -509.5t-100.5 -540.5t43 -71q77 -41 77 -58q0 -39 -214 -39h-85l-111 -3h-45z" />
    <glyph glyph-name="Iacute" unicode="&#xcd;" horiz-adv-x="711" 
d="M455 1535v14q0 10 30 44q143 161 195.5 202t92.5 41h11q87 0 87 -48v-5q0 -41 -112 -116q-230 -153 -265 -153h-15q-24 0 -24 21zM401 1248q0 29 -48 55q-77 41 -77 61q0 36 283 36l154 3q72 0 72 -27q0 -33 -76 -63t-96 -91q-38 -117 -122.5 -581.5t-84.5 -471.5
q0 -45 43 -68q77 -41 77 -58q0 -31 -39 -37q-13 -2 -239 -2l-155 -3h-22q-53 0 -53 30t78.5 60t98.5 96q37 122 121.5 577t84.5 484z" />
    <glyph glyph-name="Icircumflex" unicode="&#xce;" horiz-adv-x="711" 
d="M814 1522h-14q-23 0 -110.5 80t-98.5 80t-71 -42q-169 -117 -214 -117h-1q-24 0 -24 19v6l150 150q146 146 190 146h7q46 0 88 -74q29 -50 42.5 -69.5t20.5 -32.5t38 -57t31 -57q0 -32 -34 -32zM405 1226.5q0 49.5 -48 73.5q-77 39 -77 61q0 37 261 37l176 3q72 0 72 -30
t-76 -60t-96 -91q-6 -18 -106.5 -509.5t-100.5 -540t43 -71.5q77 -41 77 -58q0 -31 -39 -37q-13 -2 -239 -2l-21 -1h-44l-90 -2h-22q-53 0 -53 29t78.5 61t98.5 96q9 28 69 323l31 156l5 22q9 44 14.5 73.5t46 223.5t40.5 243.5z" />
    <glyph glyph-name="Idieresis" unicode="&#xcf;" horiz-adv-x="708" 
d="M408 1778q37 0 65.5 -28.5t28.5 -66.5v-14q0 -42 -33.5 -75.5t-58.5 -33.5l-16 -3h-21l-21 4q-15 0 -39.5 24.5t-24.5 51.5l-2 14v14q0 35 31.5 72.5t62.5 37.5q8 2 11 2l13 1h4zM873 1674q0 -46 -35.5 -81.5t-72.5 -35.5h-18q-34 0 -62.5 28.5t-28.5 65.5v14
q0 43 33.5 76.5t57.5 33.5l17 3h21q32 0 58.5 -26.5t26.5 -50.5l3 -20v-7zM404 1236.5q0 39.5 -49 63.5q-79 38 -79 61q0 36 282 36l154 3h22q48 0 48 -30.5t-74 -57t-94 -74.5q-8 -19 -111.5 -525.5t-103.5 -550t44 -64.5q79 -37 79 -58q0 -31 -39 -37q-13 -2 -238 -2
l-155 -3h-22q-51 0 -51 30t76.5 58t95.5 79q9 23 112 527.5t103 544z" />
    <glyph glyph-name="Eth" unicode="&#xd0;" horiz-adv-x="1453" 
d="M408 162q0 -45 30 -53t143 -8t230.5 49t210 152t141.5 242.5t49 266.5v41q0 198 -112 324q-50 56 -130.5 90.5t-170.5 34.5h-21q-125 0 -148 -40t-59.5 -219t-36.5 -236q0 -39 147 -39t147 -48q0 -41 -29 -54t-156.5 -13t-147.5 -37q-8 -15 -47.5 -211.5t-39.5 -241.5z
M48 35q0 32 66.5 68.5t88.5 94t34 182t24.5 180.5t12.5 59q0 34 -60 40.5t-60 48.5q0 53 75.5 69t96.5 56q50 95 50 370q0 50 -37 72q-63 38 -63 65q0 64 440 64h85q127 0 248 -36q246 -72 333 -280q50 -119 50 -238v-28q0 -181 -74 -341q-153 -332 -502 -439
q-143 -44 -353 -44h-28l-27 1h-57l-257 4q-86 0 -86 32z" />
    <glyph glyph-name="Ntilde" unicode="&#xd1;" horiz-adv-x="1554" 
d="M870 1775h32q47 0 121.5 -46.5t122.5 -46.5t82 29q66 56 76 56q28 0 28 -26v-8q0 -56 -76 -120.5t-135 -64.5h-24q-46 0 -129.5 47t-128 47t-98.5 -41.5t-57 -41.5q-29 0 -29 25v8q0 52 77 117.5t138 65.5zM277 1365q0 32 137 32q64 0 134 -36t121 -108.5t264.5 -480
t238.5 -407.5l16 16q12 26 73 357.5t61 396t-27.5 120.5t-27.5 76q0 66 99 66h42l44 -1q190 0 190 -25q0 -34 -75 -70t-97.5 -108t-133.5 -634t-116 -562q-87 0 -212 198q-32 51 -251 469t-247 418q-11 0 -26.5 -55.5t-79.5 -392.5t-64 -394.5t42.5 -121t42.5 -73.5
q0 -47 -163.5 -47t-197.5 12t-34 43q0 12 87 63q49 29 76.5 104.5t109 492.5t81.5 468t-30 85q-77 86 -77 99z" />
    <glyph glyph-name="Ograve" unicode="&#xd2;" horiz-adv-x="1470" 
d="M1250 833v52q0 191 -96 311.5t-252 120.5h-17q-101 0 -199.5 -58t-180 -167.5t-124 -250t-42.5 -277.5l1 -17q0 -191 91 -320q45 -64 110 -97.5t130 -33.5h35q209 0 376 225q72 97 120 237t48 275zM669 1770v15q0 55 99 55h10q77 0 205 -192q57 -86 57 -92v-10
q0 -28 -24 -28h-14q-15 0 -227 141q-106 71 -106 111zM907 1425h45h4q92 0 188 -41q203 -86 284 -308q36 -98 36 -218v-44q0 -146 -68 -310q-129 -311 -414 -448q-144 -70 -297 -70h-23q-100 0 -200 36q-193 71 -284 274q-51 113 -51 235v67q0 148 67 309.5t182 280
t254.5 178t276.5 59.5z" />
    <glyph glyph-name="Oacute" unicode="&#xd3;" horiz-adv-x="1470" 
d="M914 1317h-35h-3q-92 0 -188 -53q-206 -114 -308 -412q-46 -134 -46 -270v-17l1 -18v-7q0 -105 29 -188q88 -256 320 -256h17q207 0 371 218q76 102 124.5 243t48.5 277v51q0 175 -90 303q-40 57 -103 93t-138 36zM844 1537v15q0 3 126 144.5t187 141.5h22q81 0 81 -48
v-5l-1 -5q0 -25 -111 -111q-197 -153 -265 -153h-10q-29 0 -29 21zM901 1425h46q93 0 193 -41q200 -82 283 -308q36 -98 36 -217v-22q0 -157 -62 -315.5t-173 -281.5t-257 -188.5t-288 -65.5h-22q-237 0 -391 166q-67 71 -106 178t-39 224l1 22v23q0 152 68.5 312.5t177 273
t247.5 176.5t286 64z" />
    <glyph glyph-name="Ocircumflex" unicode="&#xd4;" horiz-adv-x="1470" 
d="M1250 829v52q0 191 -96 311.5t-252 120.5q-230 0 -394 -223q-82 -112 -125.5 -253t-43.5 -277l1 -17q0 -208 98.5 -330t250.5 -122h17q97 0 193.5 55t177 163.5t127 248t46.5 271.5zM1001 1845q44 0 70 -35q158 -211 158 -255v-7q0 -26 -34 -26h-7q-36 0 -116 80t-103 80
q-1 0 -125 -79.5t-153.5 -79.5t-29.5 19v6q0 12 155.5 154.5t184.5 142.5zM907 1421h22q227 0 377 -150q75 -75 116.5 -185.5t41.5 -231.5v-44q0 -146 -66 -306q-124 -300 -397 -443q-150 -79 -294 -79h-68q-103 0 -203 46q-194 90 -266 284q-43 115 -43 215v67
q0 147 68.5 312.5t180.5 277.5q237 237 531 237z" />
    <glyph glyph-name="Otilde" unicode="&#xd5;" horiz-adv-x="1470" 
d="M919 1313h-35q-100 0 -198 -58q-201 -118 -301 -407q-46 -134 -46 -270v-35q0 -193 94 -322t238 -129h35q100 0 195.5 56t173.5 160t126.5 245t48.5 277v51q0 180 -90 303q-46 63 -110 96t-131 33zM1077 1556h-16q-54 0 -129.5 47t-123 47t-101.5 -41.5t-58 -41.5
q-29 0 -29 25v8q0 58 100 137q60 47 130 47l8 -1q49 0 131.5 -46.5t127 -46.5t91 42.5t60.5 42.5q29 0 29 -26v-8q0 -56 -76 -120.5t-144 -64.5zM906 1421h46h4q102 0 198 -45q201 -93 274 -304q36 -105 36 -217v-23q0 -145 -60 -310t-171.5 -284t-253 -187.5t-295.5 -68.5
h-22q-103 0 -203.5 37.5t-174.5 114.5q-158 163 -158 416v22q0 147 58.5 307t165.5 278t249 191t307 73z" />
    <glyph glyph-name="Odieresis" unicode="&#xd6;" horiz-adv-x="1470" 
d="M704 94q212 0 377 225q71 96 119.5 237t48.5 292v18v7q0 96 -27 181q-82 261 -322 261h-17q-107 0 -209 -64q-195 -122 -290 -401q-46 -134 -46 -271v-34q0 -196 94.5 -323.5t237.5 -127.5h34zM767 1779h22q33 0 61.5 -28.5t28.5 -72.5l-1 -4v-7l-3 -21
q0 -24 -33.5 -57.5t-71.5 -33.5h-21q-34 0 -60 26t-26 47q-2 6 -2 10l-2 18l1 3v7l4 25q0 22 33 55t70 33zM1255 1687v-18q0 -43 -35.5 -78.5t-71.5 -35.5h-21q-34 0 -62.5 28.5t-28.5 54.5l-1 14v14q0 43 35.5 78.5t74.5 35.5h18q35 0 63.5 -28.5t28.5 -64.5zM905 1423h45
h4q92 0 192 -43q199 -85 273 -286q44 -117 44 -238v-22q0 -145 -58 -303.5t-166 -281.5t-257 -194t-299 -71h-23q-102 0 -203 38q-210 79 -296 312q-36 98 -36 218v22q0 159 60 313q122 314 403 458q152 78 317 78z" />
    <glyph glyph-name="multiply" unicode="&#xd7;" horiz-adv-x="1061" 
d="M878 916q16 0 41 -26t25 -48t-143 -149.5t-143 -150t117.5 -149t117.5 -146.5t-26 -44t-43 -24q-29 0 -147.5 132t-136.5 132q-4 0 -148.5 -134t-161 -134t-42 24.5t-25.5 46t142.5 149t142.5 149t-115.5 150t-115.5 148t25 43.5t48.5 24t141.5 -132t138 -132l150 139
q142 132 158 132z" />
    <glyph glyph-name="Oslash" unicode="&#xd8;" horiz-adv-x="1473" 
d="M339 582v-43q0 -146 49 -228q15 -25 30 -25q46 0 304 349q373 505 373 543v11q0 45 -52.5 82t-120.5 37h-42q-93 0 -190 -52q-206 -112 -306 -410q-45 -135 -45 -264zM1238 889v54q0 95 -20 132.5t-35 37.5q-9 0 -196 -253.5t-339 -450t-152 -212.5q0 -39 35.5 -70
t90.5 -31h39q212 0 392 243q80 108 132.5 266t52.5 284zM1378 1247.5q0 -32.5 36.5 -167.5t36.5 -215v-53q0 -147 -72 -319.5t-202.5 -296t-265 -168.5t-302.5 -45q-44 0 -91 9t-107.5 9t-97 -16.5t-58.5 -16.5q-56 0 -56 55q0 24 13 66.5t13 72.5t-16 76l-18 44
q-52 130 -52 250v52q0 157 69 319.5t186 282.5q228 234 556 234q57 0 146 -13.5t117.5 -13.5t62.5 15t47 15h13q55 0 55 -69q-13 -74 -13 -106.5z" />
    <glyph glyph-name="Ugrave" unicode="&#xd9;" horiz-adv-x="1480" 
d="M1026 1553v-9q0 -29 -29 -29h-5q-71 0 -244 151q-94 82 -94 111q0 60 94 60h21q47 0 128 -104q129 -166 129 -180zM232 390q0 80 35 310t59.5 351.5t24.5 161t-54.5 76t-54.5 73t391 36.5q75 0 75 -22.5t-59.5 -69.5t-78 -113t-80 -390.5t-61.5 -401.5q0 -134 79 -210
t212 -76q258 0 374 249q36 76 104 393.5t68 431.5q0 42 -46.5 101.5t-46.5 67.5q0 44 120 44q171 0 227.5 -9.5t56.5 -45.5q0 -28 -65.5 -59.5t-78.5 -60.5t-103.5 -450t-154.5 -527q-80 -133 -208 -193t-274 -60h-42q-101 0 -194 38q-225 92 -225 355z" />
    <glyph glyph-name="Uacute" unicode="&#xda;" horiz-adv-x="1480" 
d="M907 1513h-10q-30 0 -30 26v5q0 17 15.5 32.5t23.5 24.5t11 12l48 49q8 8 12 13t20 21t42.5 46.5t42.5 42.5q66 51 109 51q92 0 92 -44v-15q0 -24 -116 -114q-193 -150 -260 -150zM232 392q0 82 35.5 313t59.5 349.5t24 158t-54.5 76t-54.5 73t391 36.5q75 0 75 -23
t-59.5 -68.5t-76.5 -107.5t-80 -391t-63 -407q0 -133 78 -209.5t213 -76.5q241 0 356 213q57 106 123.5 438.5t66.5 422.5q0 43 -46.5 101.5t-46.5 67.5q0 43 120 43h39q138 0 191.5 -9t53.5 -45q0 -28 -65.5 -59.5t-78.5 -61.5t-83.5 -356.5t-90.5 -401.5
q-43 -163 -111.5 -260.5t-188.5 -154t-266 -56.5h-42q-101 0 -194 38q-225 92 -225 357z" />
    <glyph glyph-name="Ucircumflex" unicode="&#xdb;" horiz-adv-x="1480" 
d="M1023 1844h7q41 0 89 -74q132 -205 132 -216v-6q0 -27 -35 -27h-6q-29 0 -117 80.5t-102 80.5q-1 0 -124.5 -79.5t-153.5 -79.5t-30 18v7l150 150q146 146 190 146zM232 388q0 80 35 310t59.5 351.5t24.5 161t-54.5 76t-54.5 73t355 36.5q111 0 111 -23t-59.5 -68.5
t-76.5 -107.5t-80 -391t-63 -407q0 -134 78 -210.5t212 -76.5q262 0 375 249q36 78 104 395t68 431q0 43 -46.5 101.5t-46.5 67.5q0 43 120 43h39q133 0 189 -8.5t56 -45.5q0 -29 -66 -60.5t-78.5 -60t-103 -449t-161.5 -540t-200 -180t-275 -60.5h-42q-203 0 -320 121
q-99 101 -99 272z" />
    <glyph glyph-name="Udieresis" unicode="&#xdc;" horiz-adv-x="1480" 
d="M809 1780q36 0 63 -27t27 -51l3 -20v-11l-1 -4v-7q-2 -6 -2 -10q0 -27 -32.5 -59.5t-59.5 -32.5l-21 -3h-7q-40 0 -68.5 28.5t-28.5 69.5v3q0 52 34 86t58 34q6 2 10 2l14 2h11zM1157 1555q-39 0 -68 29t-29 63v21q0 42 35 77t70 35h29q30 0 58 -28t28 -59v-28
q0 -38 -34 -72t-58 -34q-6 -2 -10 -2l-17 -2h-4zM349 1210q0 39 -54.5 75.5t-54.5 72t238 35.5l39 2q26 1 107.5 1t81.5 -25q0 -19 -60 -67t-78 -115t-80 -389.5t-62 -400.5q0 -131 78 -209t202 -78q252 0 368 214q56 104 123 435t67 426q0 40 -46.5 100.5t-46.5 68.5
q0 43 119 43h39q133 0 189.5 -9t56.5 -46q0 -27 -65.5 -58.5t-79 -61.5t-104 -451t-160.5 -538t-198.5 -178.5t-277.5 -61.5h-42q-176 0 -297 100t-121 264v41q0 92 48 384l33 199q38 188 38 227z" />
    <glyph glyph-name="Yacute" unicode="&#xdd;" horiz-adv-x="1317" 
d="M818 1512h-10q-30 0 -30 26v5q0 17 22 39t29 30t17 18l30 31q4 4 12 13t26 27t42 45.5t37 37.5q66 51 110 51q92 0 92 -49v-5q0 -28 -113 -116q-197 -153 -264 -153zM1175 1368q232 0 232 -38q0 -18 -76.5 -50.5t-131.5 -99.5q-219 -266 -370 -530q-36 -64 -69.5 -212.5
t-33.5 -260.5q0 -42 58 -78t58 -66t-89 -30h-34l-35 1l-267 -1q-82 0 -82 33q0 24 70 64.5t95 106.5q63 167 63 387q0 52 -57.5 246t-118.5 320q-36 74 -103 110.5t-67 58.5t107 22t151 5t53 5q51 0 51 -35q0 -6 -11.5 -27.5t-11.5 -51.5t152 -351q39 -83 53 -83
q31 0 154 164q202 269 202 309l-14 52q0 30 72 30z" />
    <glyph glyph-name="Thorn" unicode="&#xde;" horiz-adv-x="1173" 
d="M458 458v-17q0 -34 84 -34h27q167 0 278 111q45 45 77.5 118t32.5 157v31q0 87 -66.5 153.5t-162.5 66.5h-28q-111 0 -137 -59q-1 -2 -53 -249.5t-52 -277.5zM82 7q-50 0 -50 25q0 36 77.5 67.5t100.5 90t122 545t99 507.5q0 47 -62 71.5t-62 65.5q0 29 222 29l103 2
l26 1q107 0 107 -40q0 -20 -62 -66t-62 -101q0 -33 37 -49q13 -5 161 -27.5t213 -70.5q128 -95 128 -266q0 -211 -177 -350q-151 -119 -410 -119l-26 1q-28 1 -64.5 1t-54.5 -22q-42 -53 -42 -137q0 -32 57.5 -59.5t57.5 -54.5q0 -43 -126 -43l-52 2h-52l-158 -3h-51z" />
    <glyph glyph-name="germandbls" unicode="&#xdf;" horiz-adv-x="1149" 
d="M784.5 1446q140.5 0 217 -75.5t76.5 -174.5t-116 -222.5t-116 -195t106 -213.5t106 -247q0 -143 -106.5 -237t-237 -94t-189.5 37.5t-59 91.5q0 74 81 74q6 0 63 -37t113 -37t102 48t46 137.5t-100.5 222t-100.5 225t103.5 221.5t103.5 223q0 39 -37 71t-96.5 32
t-122.5 -70.5t-110 -193.5t-124.5 -549.5t-143 -554.5t-133.5 -176.5t-146.5 -48.5t-78.5 70q0 30 64.5 50t84.5 40q43 44 73 141q72 231 103.5 570t100.5 468q108 202 199 284q134 120 274.5 120z" />
    <glyph glyph-name="agrave" unicode="&#xe0;" 
d="M366 137h17q42 0 114 52.5t109 119t78.5 190.5t41.5 201l2 18l1 27q0 91 -106 91h-28q-56 0 -118.5 -41.5t-106.5 -106.5q-112 -163 -112 -348v-19q0 -84 30 -134t78 -50zM704 1081h-10q-40 0 -157 150.5t-117 163.5l1 5q0 52 87 52h16q56 0 84 -51q132 -238 132 -287
l-1 -4v-5q0 -24 -35 -24zM590 931h37q21 0 78.5 -11.5t111.5 -11.5l32 5q19 3 45 3q48 0 48 -64q0 -31 -56 -274q-56 -244 -57 -317q0 -71 58 -71q36 3 39 3q41 0 41 -29v-12q0 -44 -68.5 -84.5t-133.5 -40.5t-89.5 30t-38.5 86t-19.5 56t-75 -57t-131 -89.5t-130.5 -32.5
h-18q-94 0 -145 76.5t-51 188.5t42 231q83 236 301 359q100 56 180 56z" />
    <glyph glyph-name="aacute" unicode="&#xe1;" 
d="M723 740v17q0 40 -32.5 61.5t-82.5 21.5h-9l-9 -1q-57 0 -119.5 -41.5t-106.5 -106.5q-112 -163 -112 -357v-9q0 -88 31.5 -136.5t83.5 -48.5t124 53q136 100 199 343q33 125 33 204zM968 1398v-10q0 -29 -156.5 -168t-185.5 -139l-5 1h-5q-35 0 -35 24q0 61 183 270
q58 66 99 66h22q83 0 83 -44zM585 934h36q9 0 73.5 -11t116.5 -11l32 4q32 4 45 4q48 0 48 -79q0 -20 -56.5 -264.5t-56.5 -314t47 -69.5q44 4 50 4q41 0 41 -30v-11q0 -48 -71.5 -87t-132.5 -39t-85.5 28.5t-39.5 86t-21 57.5t-79 -59.5t-133 -89.5t-124 -30
q-99 0 -156 69.5t-57 183.5v41q0 94 45.5 214t123.5 207.5t175 141.5t179 54z" />
    <glyph glyph-name="acircumflex" unicode="&#xe2;" 
d="M730 728v26q0 39 -31 61t-83 22h-10q-53 0 -117.5 -36.5t-111.5 -104.5q-117 -170 -117 -346v-38q0 -76 30 -125.5t85.5 -49.5t127.5 56.5t117.5 137.5t77.5 202.5t32 194.5zM729 1460h7q33 0 57 -35q10 -13 47 -98t64.5 -139.5t27.5 -63.5q0 -35 -39.5 -35t-110 98.5
t-84 98.5t-63 -45.5t-62.5 -55.5q-117 -92 -145.5 -92t-28.5 18.5t67.5 92.5t103.5 119q108 137 159 137zM592 931h37q11 0 73 -11t117 -11l31 4q31 4 46 4q47 0 47 -79q0 -24 -56.5 -269t-56.5 -298q0 -81 48 -81q44 4 50 4q41 0 41 -30v-11q0 -47 -70.5 -86.5t-134 -39.5
t-86.5 28.5t-38 86t-20 57.5t-83.5 -61.5t-133 -89.5t-121.5 -28q-99 0 -156 69.5t-57 183.5v20q0 111 44 227q90 236 282 346q113 65 197 65z" />
    <glyph glyph-name="atilde" unicode="&#xe3;" 
d="M730 731v26q0 40 -32.5 61.5t-82.5 21.5h-9l-9 -1q-53 0 -118.5 -41t-112.5 -114q-104 -161 -104 -302l-2 -19v-47q0 -77 29.5 -126t77.5 -49h17q44 1 116 53q134 98 198 342q32 122 32 195zM561 1351h31q44 0 113.5 -46t117 -46t92 41t66.5 41t22 -22v-15
q0 -50 -75 -113.5t-128 -63.5h-31q-46 0 -123.5 46.5t-120.5 46.5t-92 -41t-56 -41q-30 0 -30 23v7q0 48 73.5 115.5t140.5 67.5zM943 842q0 -24 -56.5 -269t-56.5 -298q0 -82 48 -82q44 4 49 4q42 0 42 -29v-12q0 -47 -70.5 -86.5t-134.5 -39.5t-88.5 31.5t-36 86t-18 54.5
t-82.5 -59.5t-102 -73.5q-87 -46 -170 -46t-140.5 70t-57.5 183v41q0 103 51.5 227t129.5 207.5t172.5 133.5t187.5 50q30 0 95 -11.5t114 -11.5l77 8q47 0 47 -78z" />
    <glyph glyph-name="adieresis" unicode="&#xe4;" 
d="M258 320q0 -75 30 -125t86 -50l8 1q46 0 116 52q134 99 198 343q33 125 33 190t-21 83q-37 31 -94 31q-127 0 -233 -133q-53 -66 -86.5 -167t-33.5 -149l-1 -10l-1 -9l-1 -28v-29zM393 1255l2 18q0 28 33.5 61.5t70.5 33.5h21q12 -3 23.5 -3t38 -26.5t26.5 -58.5v-29
q0 -38 -33.5 -71.5t-56.5 -33.5l-17 -3h-25q-6 2 -18 2t-39 27t-27 62v18zM872 1143h-21q-12 3 -23.5 3t-38.5 27t-27 65v15l1 3v7q2 8 2 11q0 28 32 60t58 32l21 3h11q42 0 67.5 -32t25.5 -71l-1 -3v-7l-4 -25q0 -22 -33 -55t-70 -33zM941 846q0 -18 -24 -125l-36 -159
q-53 -265 -53 -283q0 -81 48 -81l23 2l27 1q41 0 41 -29v-12q0 -44 -68.5 -84.5t-134 -40.5t-88.5 28.5t-38 86t-22 57.5t-78 -58.5t-129.5 -89.5t-143 -31t-141.5 69.5t-57 183.5v20q0 111 44 227q89 233 282 346q111 65 197 65h37q11 0 73 -11t117 -11l77 8q47 0 47 -79z
" />
    <glyph glyph-name="aring" unicode="&#xe5;" 
d="M701 1392q-30 0 -67.5 -30t-37.5 -73v-32q0 -35 26 -61t54 -26h20q32 0 63.5 31.5t31.5 61.5l3 13v7l1 11q0 44 -25.5 69.5t-45.5 25.5l-20 3h-3zM258 359v-38q0 -75 30 -125t86 -50h8q42 0 114 52q135 99 200 344q33 125 33 190t-28 89t-78 24h-28q-45 -1 -107 -35
q-130 -73 -197 -275q-33 -99 -33 -176zM499 1251v19q0 79 63 142t133 63h38q65 0 112 -53t47 -118v-6l-1 -7q0 -71 -59.5 -138t-142.5 -67h-26q-66 0 -115 49t-49 116zM941 847q0 -17 -56.5 -268.5t-56.5 -298.5t12.5 -63.5t58.5 -16.5l27 2q41 0 41 -29v-12
q0 -44 -68.5 -84.5t-134 -40.5t-88.5 28.5t-38 86t-22 57.5t-78 -58.5t-129.5 -89.5t-143 -31t-141.5 69.5t-57 183.5v20q0 112 44 228q89 233 282 345q111 65 197 65h37q11 0 73 -11t117 -11l77 8q47 0 47 -79z" />
    <glyph glyph-name="ae" unicode="&#xe6;" horiz-adv-x="1338" 
d="M346 151h24q33 0 94.5 43.5t96 108.5t86 240.5t51.5 195.5v7q0 19 -27.5 40t-69.5 21h-17q-39 0 -100 -35t-112 -111q-114 -171 -114 -323l-2 -18v-35q2 -18 2 -26q0 -39 29 -73.5t59 -34.5zM1028 841q-62 0 -141 -101.5t-79 -193.5v-3l1 -4q0 -37 28 -37h24q20 5 37 5
q87 0 170 107q60 77 60 142l2 12v16q0 59 -45 59h-40q-12 -2 -17 -2zM591 194q-17 0 -84.5 -60.5t-127 -94.5t-136 -34t-128.5 67t-52 165v26q1 101 47 217q101 250 331 366q94 47 207 47l44 -4q40 0 82 10t56 10t39.5 -8t35.5 -14t24 -6l40 12q105 27 174 27t122 -42
t53 -144q0 -191 -374 -277q-99 -23 -117 -33q-46 -26 -46 -73q0 -107 42.5 -163t107 -56t155.5 36t106 36t15 -9q0 -56 -152 -138q-93 -50 -183 -50q-158 0 -226 130q-31 57 -55 57z" />
    <glyph glyph-name="ccedilla" unicode="&#xe7;" horiz-adv-x="877" 
d="M377 -30q-151 0 -241.5 90.5t-90.5 258.5v21q0 224 162 410q83 96 187.5 141t201.5 45t180.5 -44t83.5 -93.5t-24.5 -81t-50.5 -31.5t-100 71q-48 46 -116 46q-133 0 -224.5 -127t-91.5 -310q0 -112 49.5 -177t129 -65t121.5 14.5t89 37.5t50 23q44 0 44 -36
q0 -53 -126.5 -123t-232.5 -70zM464 -202v-19q0 -83 -76.5 -136.5t-165.5 -53.5h-19q-53 0 -53 24v5q0 56 55 56q43 0 75.5 29t32.5 60t-28.5 55.5t-28.5 43.5t28.5 58.5t50.5 39.5h12l6 -1q24 0 24 -36l51 -51q36 -36 36 -74z" />
    <glyph glyph-name="egrave" unicode="&#xe8;" horiz-adv-x="867" 
d="M289 551v-20q0 -19 19 -19h5l6 1q117 0 232.5 81t115.5 132v27q-2 12 -2 17q0 32 -26.5 58.5t-61.5 26.5h-22q-91 0 -164 -94q-102 -131 -102 -210zM353 1389v10q0 52 88 52h16q50 0 77.5 -41t52 -103t55 -116.5t30.5 -72.5v-9q0 -29 -40 -29h-5q-26 0 -150 139.5
t-124 169.5zM579 952h37q100 0 161.5 -57t61.5 -135v-19q0 -97 -78.5 -156.5t-164.5 -86.5t-168.5 -45.5t-100.5 -27.5q-60 -30 -60 -116t71 -141q40 -31 101 -31t156.5 40.5t97.5 40.5q32 0 32 -23q0 -51 -121.5 -123t-216.5 -72h-38q-127 0 -203.5 94t-76.5 224
q0 242 149 433q73 91 173 146t188 55z" />
    <glyph glyph-name="eacute" unicode="&#xe9;" horiz-adv-x="867" 
d="M568 858h-11q-86 0 -178.5 -106t-92.5 -203l-1 -11q0 -23 15 -23h16q110 0 257 98q91 61 91 116v27q0 42 -26.5 72t-69.5 30zM917 1399v-10q0 -29 -156.5 -168t-185.5 -139h-5q-40 0 -40 25v5q0 28 201 286q35 45 86 45h17q83 0 83 -44zM836 762v-18q0 -95 -89 -166
t-301 -119q-109 -24 -122 -31q-60 -31 -60 -112t52.5 -129t121 -48t152.5 40.5t108 40.5t24 -22q0 -60 -146 -138q-109 -58 -225.5 -58t-200.5 87.5t-84 231.5v19q0 120 48 239q94 235 301 335q85 41 185.5 41t168 -53t67.5 -140z" />
    <glyph glyph-name="ecircumflex" unicode="&#xea;" horiz-adv-x="867" 
d="M584 854h-22q-91 0 -164 -94q-102 -131 -102 -215l-1 -10q0 -24 20 -24h5q122 0 238 81.5t116 132.5v27q0 47 -27.5 74.5t-62.5 27.5zM336 1120q0 2 143.5 171.5t185 169.5t65.5 -35q7 -10 36.5 -78t35.5 -79t36.5 -76t30.5 -68q0 -35 -37 -35h-8q-29 0 -105 98.5
t-83 98.5t-121 -96.5t-146.5 -96.5t-32.5 20v6zM846 759v-19q0 -97 -78.5 -156.5t-164.5 -86.5t-169 -45.5t-100 -27.5q-60 -31 -60 -111.5t52.5 -128.5t117.5 -48t157.5 40.5t98.5 40.5q32 0 32 -21t-40.5 -65t-131.5 -88t-185 -44h-19q-127 0 -203.5 94t-76.5 225v19
q0 134 52 253q107 242 314 328q83 34 181.5 34t160.5 -57.5t62 -135.5z" />
    <glyph glyph-name="edieresis" unicode="&#xeb;" horiz-adv-x="867" 
d="M295 553v-15q0 -19 19 -19h6q121 0 237.5 81.5t116.5 138.5v16q0 47 -26 77t-64 30h-28q-86 0 -162 -98q-99 -127 -99 -211zM427 1369h25q12 -3 23 -3t37.5 -26.5t26.5 -63.5v-21q-3 -12 -3 -28t-33.5 -49.5t-68.5 -33.5h-25q-9 3 -21.5 3t-38.5 26t-26 60v25
q0 34 30.5 70.5t56.5 36.5q14 4 17 4zM910 1278v-21q0 -35 -32.5 -74t-74.5 -39h-22q-31 0 -59.5 28.5t-28.5 63.5v21q0 43 35 78t72 35h22q9 -3 22 -3t39.5 -26.5t26.5 -62.5zM76 326v38q0 94 43 210t121 202q164 184 364 184q106 0 173.5 -53t67.5 -140v-19
q-1 -88 -69 -149q-95 -84 -320 -135q-107 -24 -123 -32q-60 -31 -60 -111.5t52.5 -128.5t117.5 -48t157.5 40.5t98.5 40.5q33 0 33 -23q0 -57 -146 -137q-106 -58 -225 -58t-202 86.5t-83 232.5z" />
    <glyph glyph-name="igrave" unicode="&#xec;" horiz-adv-x="583" 
d="M244 1444h16q56 0 84 -51q132 -238 132 -287l-1 -4v-4q0 -25 -40 -25h-5q-25 0 -149.5 140t-124.5 174l1 5q0 52 87 52zM486 150v-8q0 -36 -109 -90.5t-191 -54.5t-82 73q0 18 30 122.5t71.5 283t41.5 227.5q0 64 -83 64q-47 0 -47 34t92 82t173 48h13q42 0 53.5 -21.5
t11.5 -68t-63.5 -318.5t-63.5 -309q0 -56 55 -56l62 8q36 0 36 -16z" />
    <glyph glyph-name="iacute" unicode="&#xed;" horiz-adv-x="583" 
d="M709 1389v-10q0 -29 -156.5 -168t-185.5 -139l-5 1h-5q-35 0 -35 25v4q0 31 179 261q54 70 103 70h22q83 0 83 -44zM204 -1h-28q-68 0 -68 60v13q0 40 17 87t19 56l7 29l12 42q88 352 88 417t-84 65q-46 0 -46 33q0 39 96 85t169 46h26q52 0 52 -89q0 -38 -63.5 -319
t-63.5 -309q0 -57 46 -57l70 9q37 0 37 -23q0 -39 -110.5 -92t-175.5 -53z" />
    <glyph glyph-name="icircumflex" unicode="&#xee;" horiz-adv-x="583" 
d="M455.5 1453q45.5 0 69.5 -35l32 -68l24 -53l4 -8l3 -7l25 -54l3 -8l4 -7q43 -86 43 -96q0 -35 -39 -35t-109.5 98.5t-83.5 98.5q-7 0 -121 -96.5t-146 -96.5t-32 20v6q0 5 43.5 56.5t52 60.5t25.5 28l44 52q113 144 158.5 144zM492 143q0 -34 -107 -89.5t-191 -55.5
t-84 61v12l58 229l8 28l10 44q67 287 67 332q0 64 -84 64q-46 0 -46 33q0 42 100.5 86.5t163.5 44.5h14q65 0 65 -75q0 -56 -63.5 -328.5t-63.5 -313.5q0 -56 55 -56l61 8q37 0 37 -24z" />
    <glyph glyph-name="idieresis" unicode="&#xef;" horiz-adv-x="583" 
d="M219 1136q-35 0 -63 28t-28 68v11q0 48 35.5 83.5t79.5 35.5h4l4 -1h7l14 -2q19 0 46 -27t27 -63v-18l-4 -25q0 -23 -31.5 -54.5t-52.5 -31.5l-17 -4h-21zM596 1136h-15q-35 0 -63.5 28.5t-28.5 63.5v22q0 35 32 73.5t75 38.5h22q32 0 58.5 -26.5t27.5 -41t1 -17.5l2 -17
v-4l-4 -28q0 -24 -34 -58t-73 -34zM202 6h-28q-68 0 -68 60v13q0 40 17 87t19 56l30 113l10 44q67 287 67 333q0 63 -84 63q-46 0 -46 33q0 39 96 85t168 46h27q52 0 52 -75q0 -47 -63.5 -328.5t-63.5 -313.5q0 -57 46 -57l70 9q37 0 37 -23q0 -39 -110.5 -92t-175.5 -53z
" />
    <glyph glyph-name="eth" unicode="&#xf0;" horiz-adv-x="994" 
d="M413 85h29q106 0 199 136q47 68 79.5 171.5t32.5 186.5v30q0 106 -45 158.5t-114 52.5h-30q-43 0 -101.5 -34.5t-101.5 -100.5q-100 -155 -100 -319v-50q0 -80 42.5 -155.5t109.5 -75.5zM912 1431q22 0 22 -37.5t-62.5 -82.5t-62.5 -97q0 -13 42 -99q98 -201 98 -408v-55
v-6q0 -129 -45 -254q-95 -268 -319 -367q-89 -40 -186 -40q-211 0 -297 187q-32 70 -32 160v28q0 116 53 222q106 211 291 286q74 30 167.5 30t112.5 10t19 69.5t-32.5 103.5t-88.5 44q-21 0 -74 -16.5t-78 -16.5q-51 0 -51 38q0 24 62 67t62 85q0 16 -54.5 70.5t-54.5 71.5
q0 44 58.5 44t140 -46.5t108 -46.5t94 28t107.5 28z" />
    <glyph glyph-name="ntilde" unicode="&#xf1;" horiz-adv-x="1117" 
d="M815 1114h-23q-44 0 -121.5 46.5t-122 46.5t-93 -40.5t-62.5 -40.5q-24 0 -24 29q0 61 95 134q65 50 135 50l7 -1q52 0 121.5 -46t117 -46t92 41t67 41t22.5 -29q0 -52 -72.5 -118.5t-138.5 -66.5zM988 756q0 -73 -47 -277.5t-47 -244.5q0 -88 55 -88l45 4q15 0 15 -4
q0 -17 -46 -45q-125 -77 -208 -77q-21 0 -43 31t-22 77.5t46.5 265t46.5 285.5t-25.5 92.5t-54.5 25.5t-72 -26q-202 -122 -285 -564q-21 -110 -29 -128q-27 -62 -73.5 -62t-76 28.5t-29.5 76.5v47q0 91 46 203t46 188.5t-35 124t-35 89.5t46.5 89.5t105.5 47.5
q121 0 121 -155l-1 -27l-2 -25q0 -25 6 -25q4 0 36 35q191 212 353.5 212t162.5 -174z" />
    <glyph glyph-name="ograve" unicode="&#xf2;" horiz-adv-x="955" 
d="M734 590v20q0 102 -34 162q-45 80 -117 80h-9q-48 0 -103 -34.5t-97 -98.5q-105 -162 -105 -356v-30q2 -20 2 -30q0 -82 53 -154q36 -50 94 -50q122 0 209 135q107 165 107 356zM384 1390v10l1 4q0 48 87 48h15q48 0 70 -29.5t49.5 -91.5t62 -131t34.5 -81v-9
q0 -29 -41 -29h-5q-26 0 -149.5 141t-123.5 168zM581 953h44q129 0 211.5 -102t82.5 -246v-29q0 -110 -45 -220q-87 -213 -264 -305q-102 -53 -188 -53h-30q-143 0 -226 102.5t-83 244.5v44q1 101 45 205q91 214 264 305q104 54 189 54z" />
    <glyph glyph-name="oacute" unicode="&#xf3;" horiz-adv-x="955" 
d="M586 855h-28q-36 0 -94.5 -34t-105.5 -115q-95 -162 -95 -330v-49q0 -100 45.5 -162t104.5 -62h19q96 0 194 143q39 56 70 154.5t31 173.5v49q-2 20 -2 31q0 82 -43.5 141.5t-95.5 59.5zM591 1082h-10q-40 0 -40 25v4q0 30 190 274q44 57 92 57h27q78 0 78 -44v-10
q0 -31 -157.5 -168.5t-179.5 -137.5zM619 956q56 0 115 -28.5t94 -71.5q85 -105 85 -262l-1 -14q0 -116 -46 -225q-91 -215 -275 -307q-94 -47 -190 -47h-15q-66 0 -126 26.5t-98 73.5q-86 106 -86 262v15q0 112 45 218.5t113.5 186.5t166.5 127t188 47l15 -1h15z" />
    <glyph glyph-name="ocircumflex" unicode="&#xf4;" horiz-adv-x="955" 
d="M735 590v20q0 102 -34 162q-45 80 -117 80h-9q-48 0 -103 -34.5t-97 -98.5q-105 -162 -105 -356v-30q2 -18 2 -30q0 -97 49.5 -150.5t100.5 -53.5q118 0 206 135q107 165 107 356zM679.5 1460q46.5 0 73.5 -42l52 -114q22 -47 25 -54l14 -30l4 -8l3 -8q37 -65 37 -80
q0 -35 -38 -35h-7q-29 0 -105 98.5t-84.5 98.5t-45 -31t-52.5 -47t-85 -65.5t-92.5 -49.5t-23.5 20v6q0 12 65 82.5t100 114.5q113 144 159.5 144zM582 953h44q129 0 211.5 -102t82.5 -246v-29q0 -104 -42.5 -214t-114 -189.5t-163 -127t-177.5 -47.5h-30q-143 0 -226 102.5
t-83 244.5v44q0 101 44 205q91 214 265 305q104 54 189 54z" />
    <glyph glyph-name="otilde" unicode="&#xf5;" horiz-adv-x="955" 
d="M731 613q0 102 -34 162q-45 80 -117 80h-9q-53 0 -111 -40t-104 -118q-90 -153 -90 -331v-20q0 -113 43.5 -178.5t107.5 -65.5h9q105 0 198 135q43 62 74 160.5t31 165.5l2 20v30zM516 1350h23q39 0 121 -46t124 -46t86.5 41t66 41t21.5 -23v-7q0 -57 -75.5 -121
t-135.5 -64h-15l-8 1q-53 0 -122.5 46t-115 46t-98.5 -40.5t-62 -40.5q-24 0 -24 22v8q0 54 76.5 118.5t137.5 64.5zM80 348v43q0 99 46 209q89 211 276 308q92 48 191 48h14q143 0 226 -102t83 -246v-29q0 -110 -43 -216q-87 -216 -266 -309q-102 -53 -188 -53h-44
q-51 0 -111.5 26.5t-106.5 83.5q-77 95 -77 237z" />
    <glyph glyph-name="odieresis" unicode="&#xf6;" horiz-adv-x="955" 
d="M593 860h-29q-38 0 -93 -34.5t-102 -106.5q-97 -150 -97 -309l-1 -10l-1 -9l-1 -30v-9l1 -10q0 -100 42 -167t99 -67h28q42 0 93 33t95 101q105 162 105 326l2 20v30q0 102 -39.5 172t-101.5 70zM491 1365q12 0 39 -27t27 -63v-21q-3 -12 -3 -17q0 -27 -32 -59t-56 -32
l-17 -3h-22l-20 4q-15 0 -40.5 25.5t-25.5 59.5v25q0 42 33 75t57 33l17 3h22q9 -3 21 -3zM928 1277v-21q0 -35 -32.5 -74t-74.5 -39h-22q-31 0 -59.5 28.5t-28.5 63.5v21q0 43 35 78t72 35h21q12 -3 24 -3t38.5 -26.5t26.5 -62.5zM581 961h44q129 0 211.5 -102t82.5 -246
v-29q0 -114 -45 -220q-89 -211 -264 -305q-98 -53 -188 -53h-30q-143 0 -226 102.5t-83 244.5v44q0 99 45 205q91 214 265 305q104 54 188 54z" />
    <glyph glyph-name="divide" unicode="&#xf7;" horiz-adv-x="1051" 
d="M599 797h-18q-36 0 -63.5 27.5t-28.5 43t-1 18.5l-1 14l1 4v7l2 15q0 21 31 58.5t77 37.5h18q36 0 63.5 -27.5t27.5 -50.5l3 -22v-7l-4 -29q0 -22 -33.5 -55.5t-73.5 -33.5zM930 652q74 0 74 -37q0 -58 -23 -74t-100 -16h-39l-10 1h-76l-19 1h-197l-19 -1h-59l-38 -1
h-181q-105 0 -105 29v18q0 44 16.5 62t66.5 18h321l9 -1l59 1h320zM433 270l3 31q0 13 33.5 46.5t80.5 33.5h4l4 -1h7l14 -2q21 0 47 -26t26 -50l3 -22v-7q0 -41 -31.5 -79t-76.5 -38h-25q-32 0 -60 28t-28 54l-2 7v22z" />
    <glyph glyph-name="oslash" unicode="&#xf8;" horiz-adv-x="956" 
d="M267 388v-55q0 -78 21 -78q11 0 194 237.5t183 274.5v7q0 27 -23 50t-54 23h-22q-36 0 -89.5 -28.5t-105.5 -104.5q-104 -150 -104 -326zM730 680q0 14 -7.5 14t-32 -40t-100 -149t-163 -214t-87.5 -124v-7q0 -61 55 -61h26q33 0 86 35.5t109.5 123t85 195t28.5 141.5
l2 14l1 30v7q-3 21 -3 35zM884 994q39 0 39 -42q0 -16 -23 -62t-23 -69t16 -98.5t16 -160.5q0 -84 -44 -196q-91 -232 -293 -328q-90 -42 -202 -42l-108 10q-30 0 -79.5 -29.5t-66.5 -29.5q-40 0 -40 51q0 4 27 58t27 70.5t-18.5 84.5t-18.5 162.5t45 205.5q92 226 288 322
q95 46 218 46l92 -9q28 0 80 28t68 28z" />
    <glyph glyph-name="ugrave" unicode="&#xf9;" horiz-adv-x="1113" 
d="M416 1382v10l1 5q0 47 81 47h21q52 0 76 -38q140 -224 140 -295v-9q0 -29 -41 -29h-5q-26 0 -149.5 141t-123.5 168zM340 908q95 0 95 -125q0 -63 -41.5 -254.5t-41.5 -259.5q0 -127 75 -127q31 0 74 28q81 52 147 163q93 157 130 395q17 109 23 122q25 55 69 55
t69.5 -40t25.5 -104t-30.5 -200t-30.5 -184.5t38.5 -122t38.5 -87.5q0 -66 -46 -109t-113.5 -43t-101.5 61q-16 28 -16 125l1 28l3 28q0 19 -7.5 19t-45 -44t-68 -77t-88.5 -73q-105 -72 -184 -72q-170 0 -170 187q0 46 47.5 258t47.5 257.5t-16.5 61t-58 15.5t-41.5 11.5
t30 28.5q137 79 186 79z" />
    <glyph glyph-name="uacute" unicode="&#xfa;" horiz-adv-x="1113" 
d="M622 1072h-9q-40 0 -40 25v4q0 31 186 270q48 62 101 62h11l6 -1q83 0 83 -43v-5l-1 -5q0 -30 -156 -168.5t-181 -138.5zM350 270q0 -126 75 -126q53 0 117 60q145 135 209 393q9 37 28 142.5t21 111.5q24 55 70 55q94 0 94 -158q0 -38 -30.5 -185t-30.5 -191.5t38 -117
t38 -86.5q0 -66 -45.5 -108.5t-103.5 -42.5t-93 37.5t-35 120.5l2 55l3 28q0 20 -7 20t-35 -32l-18 -21q-183 -213 -334 -213h-27q-67 0 -104.5 49.5t-37.5 123.5t47.5 271t47.5 250t-17 69t-86 16q-14 0 -14 10.5t31 29.5q130 78 191 78h20q25 0 47.5 -31.5t22.5 -98.5
t-42 -247t-42 -262z" />
    <glyph glyph-name="ucircumflex" unicode="&#xfb;" horiz-adv-x="1113" 
d="M726 1455h7q35 0 57 -35q139 -226 139 -301v-6q0 -29 -44 -29q-28 0 -105.5 99t-83 99t-120.5 -97t-147 -97t-32 20v7q0 2 143 171t186 169zM352 269q0 -126 75 -126q31 0 74 28q81 52 158 181t119 377q20 114 23 121q25 56 76.5 56t77.5 -67q10 -26 10 -78t-30.5 -199
t-30.5 -193t38.5 -113t38.5 -88q0 -67 -46.5 -109.5t-113.5 -42.5t-101 61q-16 29 -16 125l1 27l3 28q0 20 -7.5 20t-43.5 -42.5t-66.5 -76t-113.5 -90.5t-163 -57h-26q-67 0 -105 50t-38 122t47.5 272t47.5 252.5t-17 67.5t-58 15t-41 11t30 29q132 79 184 79t74.5 -31.5
t22.5 -94t-41.5 -254t-41.5 -260.5z" />
    <glyph glyph-name="udieresis" unicode="&#xfc;" horiz-adv-x="1113" 
d="M393 1277.5q0 16.5 33.5 50t71.5 33.5h21q31 0 57 -26t26 -46l4 -17v-25q0 -41 -34 -75t-60 -34q-8 -2 -11 -2l-14 -1l-3 1h-4q-35 0 -61 26t-26 49l-3 21v17q3 12 3 28.5zM977 1273v-28q0 -39 -35 -74t-69 -35h-24q-12 3 -23.5 3t-38.5 27t-27 62v18l1 3v7q2 8 2 11
q0 28 32 60t58 32l21 3h11q35 0 63.5 -28.5t28.5 -60.5zM352 277q0 -126 75 -126q31 0 75 28q75 47 154 173t123 385q20 115 23 122q23 55 69 55q95 0 95 -158q0 -39 -30.5 -186t-30.5 -195t38 -111.5t38 -87.5v-18q0 -48 -46 -91t-103 -43t-92.5 38t-35.5 121l2 55l3 27
q0 20 -7 20t-49 -48t-71 -78.5t-83 -67.5q-105 -72 -184 -72h-27q-66 0 -104 50t-38 124t47.5 271t47.5 250t-16.5 68.5t-58.5 15.5t-42 11t31 29q137 79 186 79t72 -31t23 -99.5t-42 -245.5t-42 -264z" />
    <glyph glyph-name="yacute" unicode="&#xfd;" horiz-adv-x="996" 
d="M603 1076h-10q-39 0 -39 25v4q0 30 193 278q41 53 89 53h27q77 0 77 -39v-20q0 -25 -155.5 -163t-181.5 -138zM114 802q0 6 79.5 50.5t121.5 44.5q43 0 63 -27t55.5 -123.5t72.5 -286t44 -189.5q52 0 136 174.5t84 287.5l-2 24l-2 46q-2 29 -2 50t31.5 47.5t79 26.5
t76 -19.5t28.5 -56.5q0 -59 -141 -347q-279 -570 -608 -909q-58 -60 -122 -60h-27q-60 0 -83.5 24.5t-23.5 54.5q0 53 102.5 73.5t179.5 100.5q126 132 126 272q0 38 -53 307t-74 323.5t-65 78.5q-18 10 -47 18.5t-29 14.5z" />
    <glyph glyph-name="thorn" unicode="&#xfe;" horiz-adv-x="1025" 
d="M318 233v-35q0 -46 34.5 -73t89.5 -27h28q117 0 217.5 146t100.5 320v29q0 84 -38.5 148t-107.5 64h-9q-44 0 -102 -38.5t-86 -92.5q-72 -136 -99.5 -273.5t-27.5 -167.5zM449 1482q33 0 52.5 -24.5t19.5 -102.5t-42.5 -272t-42.5 -235.5t15 -41.5t99.5 46.5t180 46.5
t167.5 -72t72 -205q0 -134 -46 -246q-133 -328 -458 -363q-130 -14 -158 -37q-82 -67 -82 -206q0 -24 21 -76t21 -82q0 -59 -61 -81q-42 -15 -174 -15h-30q-81 0 -81 53q0 22 34.5 63.5t47.5 69t31 101t89 427.5t79 423t59 293.5t51 286.5t-18 85q-37 48 -37 73.5t38 49.5
q66 41 131 41h22z" />
    <glyph glyph-name="ydieresis" unicode="&#xff;" horiz-adv-x="995" 
d="M451 1366h25q9 -3 23.5 -3t39 -30.5t24.5 -62.5v-11q0 -48 -33.5 -81.5t-58.5 -33.5l-17 -3h-21q-9 3 -24 3t-39 30t-24 66v8q0 48 33 81t55 33q12 4 17 4zM824 1367h21q12 -3 23.5 -3t37 -25.5t25.5 -49.5l3 -21v-11q0 -45 -35.5 -80.5t-68.5 -35.5h-25q-31 0 -58 27
t-27 48l-3 14v24l5 28q0 20 32.5 52.5t69.5 32.5zM111 810.5q0 6.5 79.5 51t122 44.5t63 -28t55.5 -124.5t72 -285t44 -188.5q52 0 135.5 173.5t83.5 288.5q0 2 -2 48l-1 22q-2 29 -2 50.5t32.5 47.5t79 26t75 -19.5t28.5 -57.5q0 -76 -155.5 -376.5t-281.5 -487.5
t-297 -376q-68 -75 -137 -75h-27q-59 0 -83 24t-24 55q0 56 101.5 73.5t180.5 100.5q126 132 126 272q0 37 -53 307t-74 323.5t-66 78.5q-15 8 -45 17t-30 15.5z" />
    <glyph glyph-name="dotlessi" unicode="&#x131;" horiz-adv-x="583" 
d="M387 935h27q56 0 56 -86q0 -35 -66 -327.5t-66 -307.5q0 -63 48 -63q4 0 34 6.5t52.5 6.5t22.5 -18v-10q0 -36 -108.5 -92.5t-183.5 -56.5h-14q-76 0 -76 69q0 26 69.5 314t69.5 329t-20.5 54.5t-66 13.5t-45.5 40q0 20 41 47q124 81 226 81z" />
    <glyph glyph-name="Lslash" unicode="&#x141;" horiz-adv-x="1186" 
d="M41 21v18q0 11 60.5 45t83.5 90q59 143 59 267q0 40 -40 51q-56 16 -56 35q0 43 65 103t76 93q108 329 108 488q0 37 -50.5 73t-50.5 57q0 41 254 41l34 1q172 0 172 -40q0 -23 -61 -73t-84 -108q-64 -165 -64 -298q0 -55 37 -55q7 0 115.5 40.5t130 40.5t21.5 -17
q0 -47 -151 -134.5t-198 -167.5q-31 -53 -59 -179.5t-28 -186.5t48.5 -83.5t187.5 -23.5t210.5 37t146 110t83.5 73q34 0 34 -34t-25 -122t-49 -117q-39 -49 -137 -49h-175l-72 2l-389 3q-36 0 -71 -1l-70 -2q-96 0 -96 23z" />
    <glyph glyph-name="lslash" unicode="&#x142;" horiz-adv-x="628" 
d="M501 150q0 -36 -114 -95.5t-175 -59.5h-23q-78 0 -78 91q0 32 48.5 184.5t48.5 232.5q0 47 -31 55q-71 19 -71 42q0 31 61 81.5t92 130.5q106 268 106 459q0 42 -32 59q-6 3 -43.5 15.5t-37.5 22.5q0 33 53 52q102 37 171 37t88 -19t19 -74q0 -3 -40.5 -198.5
t-40.5 -244.5t16 -49q5 0 45 12.5t64.5 12.5t24.5 -21q0 -41 -21.5 -62.5t-88 -55t-86.5 -69t-53 -203t-33 -234.5q0 -95 71 -95l42 4q18 0 18 -11z" />
    <glyph glyph-name="Nacute" unicode="&#x143;" horiz-adv-x="1534" 
d="M881 1520v9q0 24 148 155.5t185 131.5h11q37 0 63 -20.5t26 -35.5v-15q0 -25 -99 -94q-230 -161 -304 -161h-5q-25 0 -25 30zM324 1q-243 0 -273 31l-7 21q0 11 64.5 67.5t90.5 135.5q11 35 146 610q52 222 52 315q0 55 -50 108t-50 58q0 36 122 36q48 0 126.5 -26.5
t111 -61t254 -482.5t249.5 -448l16 22l83 372q72 327 72 382t-32.5 115t-32.5 77q0 52 103 52q263 0 263 -33q0 -17 -42 -39l-74 -39q-36 -30 -58 -99t-76 -316t-99.5 -443.5t-45.5 -328.5q0 -76 -28 -76q-86 0 -235 218q-17 25 -226 438t-225.5 413t-28.5 -42.5t-90 -414
t-78 -412.5t10 -63t55.5 -53.5t45.5 -43.5q0 -50 -113 -50z" />
    <glyph glyph-name="nacute" unicode="&#x144;" horiz-adv-x="1110" 
d="M910 1423h11q93 0 93 -47v-10q0 -32 -175.5 -172t-191.5 -140l-5 1h-5q-34 0 -34 28v4q0 17 193 265q55 71 114 71zM786 673q0 125 -82 125q-36 0 -97 -46q-136 -104 -215 -398q-8 -28 -14 -57t-28 -116.5t-23 -91.5q-30 -73 -101 -73q-36 0 -59 40.5t-23 122t46.5 205
t46.5 188t-40.5 102.5t-40.5 81.5t57 95t113 51.5q113 0 113 -178q0 -28 8 -28q13 0 89 71q167 156 301 156q161 0 161 -166q0 -58 -48.5 -276t-48.5 -273q0 -73 70 -73q41 8 41 4t-47 -35q-117 -76 -190 -76q-41 0 -66 30t-25 61t51 257t51 297z" />
    <glyph glyph-name="OE" unicode="&#x152;" horiz-adv-x="1903" 
d="M330 570v-67q0 -175 95.5 -296t241.5 -121h31q67 0 119.5 26t69 76t98 485t81.5 484v15q0 49 -32 68q-59 36 -141 36l-16 -1h-16q-224 0 -368 -195q-80 -108 -121.5 -251t-41.5 -259zM123 522v46q0 137 60.5 294t167 272.5t245 178.5t288.5 63q58 0 196.5 -14t154.5 -14
t102.5 6t271 6t222.5 -21q63 -35 63 -139q0 -75 -47 -75q-20 0 -129 61t-232 61q-93 0 -146 -84q-27 -42 -54 -140.5t-27 -146t33.5 -78.5t93 -31t95.5 17l61 39q48 30 64 30q50 0 50 -58q0 -119 -32.5 -183.5t-53.5 -64.5q-28 0 -76.5 45.5t-88.5 45.5q-147 0 -194 -73.5
t-47 -315.5q0 -88 47 -115q28 -16 132 -16q177 0 335 103q64 42 70 42q25 0 25 -26q0 -64 -39 -124.5t-87.5 -86t-329.5 -25.5q-95 0 -137 2l-79 6q-51 4 -84.5 4t-168.5 -15.5t-182 -15.5h-44q-210 0 -354.5 144.5t-144.5 395.5z" />
    <glyph glyph-name="oe" unicode="&#x153;" horiz-adv-x="1473" 
d="M265 372v-51q0 -97 37 -162.5t94 -65.5h18q44 0 94 34q108 74 159 280q32 128 32 194l2 21v51q0 85 -36 139.5t-91 54.5h-18q-61 0 -113.5 -45.5t-89.5 -115.5q-88 -166 -88 -334zM913 521h10q115 0 254 93q74 49 74 139v22q0 43 -24.5 67.5t-60.5 24.5h-11
q-67 0 -133.5 -66.5t-96 -147.5t-29.5 -91v-15q0 -26 17 -26zM68 344v27q0 119 48 233q103 240 309 326q77 32 167 32q126 0 213 -87q48 -47 57.5 -47t61 37t115.5 67.5t149 30.5h26q106 0 163.5 -55.5t57.5 -136.5q0 -122 -91 -194t-309 -116q-104 -20 -122 -31
q-39 -24 -39 -111t51.5 -138.5t120 -51.5t162.5 46t103 46q23 0 23 -31q0 -7 -20 -34q-46 -62 -142.5 -111t-190.5 -49t-139 24.5t-84.5 62t-51.5 37.5q-14 0 -62 -32q-147 -96 -254 -96h-2h-27q-121 0 -207 94t-86 258z" />
    <glyph glyph-name="Scaron" unicode="&#x160;" horiz-adv-x="1044" 
d="M721 1514h-15q-30 0 -71 71q-11 19 -66.5 109.5t-55.5 102.5q0 36 40 36q23 0 109 -78.5t100.5 -78.5t127.5 78t144.5 78t31.5 -17v-13q0 -10 -152 -149t-193 -139zM1045 1232.5q0 -87.5 -37 -161.5q-16 -31 -38 -31q-31 0 -70.5 88t-95 131.5t-143.5 43.5t-156 -54
t-68 -150.5t82 -176.5q38 -37 172 -128t197.5 -175t63.5 -185q0 -188 -122 -308q-67 -65 -166.5 -102t-193.5 -37h-34q-53 0 -134 18.5t-130 23.5t-72 16q-41 19 -41 125v30q0 92 32 152q16 30 53 30q12 0 58 -95.5t95 -133.5q78 -60 190.5 -60t186 72t73.5 168.5t-83 179.5
q-8 8 -155.5 119.5t-205.5 190t-58 180.5q0 196 134.5 301t309.5 105q62 0 131.5 -19t91.5 -19l27 1l28 3q55 0 66.5 -27.5t11.5 -115z" />
    <glyph glyph-name="scaron" unicode="&#x161;" horiz-adv-x="744" 
d="M503 1081h-15q-27 0 -59 64q-122 244 -122 258q0 32 40 32q26 0 103 -91t89 -91q5 0 122.5 90.5t145.5 90.5t28 -21q0 -11 -147 -171.5t-185 -160.5zM11 123v20q0 61 26 87t54 26t63 -56.5t72.5 -82.5t92.5 -26t95.5 36.5t40.5 90.5t-30.5 92t-115.5 114.5t-119 131.5
t-34 134q0 109 100.5 187.5t235.5 78.5h21q78 0 141.5 -37.5t63.5 -79.5t-25.5 -75t-56.5 -33t-79.5 63t-110.5 63t-91.5 -36t-29.5 -93t112 -150t152.5 -153.5t40.5 -160t-102.5 -185.5t-247.5 -86h-21q-105 0 -176.5 41t-71.5 89z" />
    <glyph glyph-name="Ydieresis" unicode="&#x178;" horiz-adv-x="1283" 
d="M630 1519q-14 0 -38 24t-24 60v21q0 48 36 84t84 36h3l4 -1q40 0 66.5 -26.5t26.5 -67.5v-11q0 -43 -33 -82.5t-73 -39.5h-29q-9 3 -23 3zM1157 1614q0 -28 -35 -63t-68 -35h-29q-26 0 -54 22.5t-28 47.5q-2 8 -2 11l-2 17v8l1 3v7q2 8 2 11q0 33 34.5 67.5t82.5 34.5
l32 -4q19 0 42.5 -23.5t23.5 -46.5l3 -18v-21q-3 -12 -3 -18zM1142 1318h23q204 0 204 -44q0 -14 -72 -43.5t-111 -72.5q-137 -151 -365 -516q-45 -73 -66 -178q-43 -218 -43 -277t40 -91q80 -64 80 -84q0 -25 -228 -25l-128 -1l-68 -2h-33q-59 0 -59 31q0 25 65.5 61
t89.5 84.5t54.5 180.5t30.5 243q0 32 -59 235.5t-120 317.5q-27 51 -93 89t-66 47q0 20 80 20t141.5 10.5t68.5 10.5q49 0 49 -27q0 -5 -11 -23t-11 -38t160 -340q42 -83 70 -83q15 0 176 210.5t161 220.5l-12 57q0 27 52 27z" />
    <glyph glyph-name="Zcaron" unicode="&#x17d;" horiz-adv-x="1242" 
d="M800 1482q-24 0 -61.5 65t-80.5 127.5t-43 78.5v6q0 37 40 37q24 0 107.5 -76.5t98.5 -76.5t66 35.5t121.5 75.5t87.5 40q27 0 27 -23q0 -45 -249 -249q-50 -41 -99 -41l-7 1h-8zM1195 1353q82 0 82 -30v-26q0 -25 -201 -265l-56 -64q-55 -63 -110.5 -126.5t-105 -131.5
t-115.5 -136t-206 -243t-140 -198q0 -34 188 -34q40 0 81 -1l83 -2q160 0 227 28.5t110 91.5q76 112 104 112q22 0 22 -60.5t-30 -150t-61.5 -118.5t-136.5 -29h-40q-56 0 -194 8.5t-253 8.5l-41 1q-41 1 -81 1l-39 -1l-81 -4q-110 0 -132 16.5t-22 53.5q0 61 433 581
q14 16 56 58l56 56q54 57 213 240t159 194q0 36 -28.5 43.5t-110.5 7.5l-83 2q-195 0 -256.5 -32t-116 -116.5t-86.5 -84.5q-16 0 -16 79.5t24.5 151.5t40.5 88q30 29 294 29l40 -1q40 -1 81 -1l82 -2l124 1l164 5h78z" />
    <glyph glyph-name="zcaron" unicode="&#x17e;" horiz-adv-x="943" 
d="M598 1070h-22q-23 0 -53 60q-122 244 -122 252q0 32 39 32h6q18 0 98.5 -87.5t88 -87.5t121 87.5t133.5 87.5h7q30 0 30 -21v-6q0 -20 -148.5 -168.5t-177.5 -148.5zM350 935h26q64 0 174.5 -21t147 -21t103 16t80.5 16q42 0 42 -31q0 -41 -230 -277t-292 -311t-62 -123
q0 -13 19 -18q121 -31 288 -31q60 0 96 28l15 15l26 31q22 24 43 24t21 -38q0 -101 -45.5 -166t-158.5 -65h-26q-53 0 -199 34.5t-185.5 34.5t-70.5 -6l-23 -6q-29 -7 -53 -7t-24 23q0 58 95 177q33 42 258 272.5t225 248.5q0 42 -267 42q-66 0 -100 -45q-56 -74 -80.5 -74
t-24.5 47q0 103 45.5 167t136.5 64z" />
    <glyph glyph-name="florin" unicode="&#x192;" horiz-adv-x="830" 
d="M999 1367q0 -93 -98 -93q-27 0 -66 37t-77 37q-64 0 -122.5 -117t-58.5 -246q0 -44 83.5 -68.5t83.5 -42.5q0 -59 -94.5 -66.5t-131.5 -87.5q-16 -35 -93.5 -423t-148 -502t-160 -171t-169.5 -57t-109.5 24.5t-29.5 46.5t25 50t55 28t52 -5l40 -10q109 0 161 152
q38 110 105.5 453.5t67.5 394.5t-30 89q-7 9 -33 33t-26 35q0 5 53.5 47t75.5 71q23 30 75 162q51 130 113 192q130 130 275 131q71 0 117 -19q65 -27 65 -75z" />
    <glyph glyph-name="circumflex" unicode="&#x2c6;" horiz-adv-x="815" 
d="M815 1145v-7q0 -32 -45 -32h-7q-33 0 -106 94.5t-92 94.5q-4 0 -122 -92.5t-151.5 -92.5t-33.5 21v7q0 11 61.5 78t118 133.5t69.5 77.5q56 47 100 47l8 -1q38 0 54 -23.5t81 -162.5t65 -142z" />
    <glyph glyph-name="caron" unicode="&#x2c7;" horiz-adv-x="796" 
d="M308 1413q0 33 47 33h7q25 0 101 -90q75 -89 86 -89q23 1 127 89q106 89 146 89t40 -22q0 -49 -269 -296q-32 -29 -87 -29l-8 1q-33 0 -64 59q-126 236 -126 255z" />
    <glyph glyph-name="breve" unicode="&#x2d8;" horiz-adv-x="823" 
d="M563 1107h-41q-91 0 -154 75.5t-63 173.5q0 39 43 39h6q9 0 41 -52t71 -76t116 -24q103 0 198 107q41 45 54 45h7q30 0 30 -23q0 -77 -103 -171t-205 -94z" />
    <glyph glyph-name="dotaccent" unicode="&#x2d9;" horiz-adv-x="659" 
d="M379 1228v22q0 49 34 90t88 41h16q40 0 68 -28t28 -68v-20q0 -44 -34.5 -85.5t-87.5 -41.5h-8l-31 4q-21 0 -47 26t-26 60z" />
    <glyph glyph-name="ring" unicode="&#x2da;" horiz-adv-x="767" 
d="M412 1298v-31q0 -36 27 -63t59 -27h13q9 3 26 3t45 34q27 33 27 59v2l2 14v24q-2 8 -2 17.5t-24 39.5t-64 30h-3q-40 0 -71 -31t-31 -55q-4 -12 -4 -16zM313 1261v19q0 87 66.5 146t139.5 59h19q63 0 117.5 -48.5t54.5 -114.5v-26q0 -78 -62 -140t-125 -62l-13 -2h-32
q-14 2 -20 2q-52 0 -98.5 52.5t-46.5 114.5z" />
    <glyph glyph-name="ogonek" unicode="&#x2db;" horiz-adv-x="755" 
d="M514 -337q0 -25 -57 -65.5t-131 -40.5l-18 -2h-17l-8 1q-69 0 -110.5 41.5t-41.5 116t91 173.5q57 61 130 105t98 44h8q26 0 26 -12.5t-62 -69.5q-122 -114 -122 -202q0 -32 24 -56t73 -24l95 16q22 0 22 -25z" />
    <glyph glyph-name="tilde" unicode="&#x2dc;" horiz-adv-x="857" 
d="M460 1386h16l8 -1q40 0 118 -44t118.5 -44t94 41t62.5 41q30 0 30 -28q0 -65 -79 -132t-145 -67h-16q-53 0 -128 45t-119 45t-96 -40t-60 -40q-31 0 -31 27q0 55 77 126t150 71z" />
    <glyph glyph-name="hungarumlaut" unicode="&#x2dd;" horiz-adv-x="940" 
d="M605 1461h16q79 0 79 -44v-9q0 -38 -155.5 -176t-174.5 -138h-9q-35 0 -35 23v5q0 39 195 290q38 49 84 49zM622 1117v9q0 52 210 288q41 46 87 46h5q86 0 86 -49q0 -36 -158 -176.5t-191 -140.5h-9q-30 0 -30 23z" />
    <glyph glyph-name="endash" unicode="&#x2013;" horiz-adv-x="1086" 
d="M159 449q-49 0 -49 36q0 82 50 90q18 3 429 3l359 2h10q69 0 69 -36q0 -82 -50 -90q-18 -3 -430 -3h-284l-61 -2h-43z" />
    <glyph glyph-name="emdash" unicode="&#x2014;" horiz-adv-x="1777" 
d="M1670 578q45 0 45 -25v-16q0 -78 -68 -84q-21 -2 -770 -2h-425l-34 -1h-86l-17 1h-34l-104 -2h-17q-46 0 -46 25v15q0 76 51 84q30 5 374 5h35l17 -1l600 1h34l17 -1l377 1h51z" />
    <glyph glyph-name="quoteleft" unicode="&#x2018;" horiz-adv-x="506" 
d="M339 955h-15l-7 1q-48 0 -76 31.5t-28 81.5v30q2 14 2 22q0 85 95.5 212.5t167.5 127.5h6q36 0 36 -29v-11q0 -11 -32 -43q-98 -98 -98 -173q0 -26 36.5 -62.5t36.5 -75t-37 -75.5t-87 -37z" />
    <glyph glyph-name="quoteright" unicode="&#x2019;" horiz-adv-x="508" 
d="M418 1441h22q44 0 70 -29.5t26 -72.5v-37q-2 -14 -2 -22q0 -82 -99 -214t-174 -132h-12q-29 0 -29 38q0 7 67 81.5t67 131.5q0 20 -31.5 65t-31.5 85.5t39.5 73t87.5 32.5z" />
    <glyph glyph-name="quotesinglbase" unicode="&#x201a;" horiz-adv-x="511" 
d="M43 -229v10q1 11 35 43q103 93 103 163q0 26 -36.5 67t-36.5 80.5t39.5 75t99.5 35.5h7q44 0 72 -28t28 -79v-37q0 -110 -85 -214q-120 -147 -192 -147h-6q-28 0 -28 31z" />
    <glyph glyph-name="quotedblleft" unicode="&#x201c;" horiz-adv-x="853" 
d="M521 1421v-10q-1 -15 -33 -47q-95 -95 -95 -168q0 -26 35.5 -65.5t35.5 -80t-41 -74t-89 -33.5l-8 1q-54 0 -83 32t-29 89v14q0 112 78 216q116 154 186 154h12q31 0 31 -28zM710 944h-29q-45 0 -73 31t-28 85v22q0 109 75 209q119 158 197 158q35 0 35 -38
q0 -14 -31 -45q-96 -96 -97 -169q0 -27 35 -66.5t35 -77t-36 -73.5t-83 -36z" />
    <glyph glyph-name="quotedblright" unicode="&#x201d;" horiz-adv-x="854" 
d="M523 1318v-37q0 -99 -77 -202q-124 -165 -198 -165h-6q-34 0 -34 38l1 5v5q0 9 30 36q102 92 102 167q0 25 -31 64t-31 81.5t37 75.5t81 33l15 2h7l8 -1q43 0 69.5 -29.5t26.5 -72.5zM889 1303v-7l-1 -8q0 -118 -90 -228q-120 -147 -192 -147q-34 0 -34 38v5q0 12 34 44
q100 91 100 170q0 21 -31 60t-31 78.5t35.5 75t83.5 35.5l15 2h7l7 -1q47 0 72 -31.5t25 -85.5z" />
    <glyph glyph-name="quotedblbase" unicode="&#x201e;" horiz-adv-x="866" 
d="M230 247h14l8 -1q43 0 67.5 -30.5t24.5 -75.5v-29q0 -103 -80 -210q-121 -161 -193 -161h-12q-30 0 -30 35v5q0 6 81 96q52 58 52 119q0 22 -31.5 61t-31.5 80.5t38 76t93 34.5zM593 246h22q42 0 68.5 -29.5t26.5 -74.5v-37q0 -109 -105.5 -237.5t-171.5 -128.5h-6
q-34 0 -34 38v5q-1 8 37 46q96 96 97 169q0 25 -31 60t-31 77.5t38.5 77t89.5 34.5z" />
    <glyph glyph-name="dagger" unicode="&#x2020;" horiz-adv-x="960" 
d="M954 978v-19q0 -42 -44.5 -63t-109.5 -21l-99 3q-100 0 -100 -122l2 -51q0 -138 -38 -351.5t-56 -383t-23 -188.5q-16 -64 -60 -64q-54 0 -54 85l3 28l4 29q7 67 23.5 282t16.5 315t24 228l6 24l5 24q9 47 9 83q0 62 -110 62l-128 -10q-67 0 -67 74q0 45 38.5 72.5
t81.5 27.5q6 0 80 -14.5t111 -14.5t37 138l-11 165q0 63 28.5 96t114.5 33q55 0 55 -55q0 -16 -32 -146.5t-32 -188.5q0 -37 42 -37l192 22q91 0 91 -62z" />
    <glyph glyph-name="daggerdbl" unicode="&#x2021;" horiz-adv-x="985" 
d="M528 1109.5q0 46.5 -3 116.5l-2 35l-7 69q0 117 161 117q38 0 38 -42t-35.5 -171t-35.5 -170.5t33 -41.5q16 0 95 14t113 14t60.5 -19t26.5 -66q0 -77 -157 -77l-31 1l-33 3q-83 0 -106.5 -29.5t-23.5 -139.5l1 -35q2 -46 2 -64.5t-15.5 -93t-15.5 -147.5q0 -56 93 -56
l31 2q82 6 137 6q34 0 34 -45t-32 -85.5t-97 -40.5l-63 6q-74 6 -94 6q-48 0 -58 -42q-5 -20 -5 -133l6 -140q0 -52 -37.5 -87t-118.5 -35q-38 0 -38 31l67 341q0 54 -57 54l-152 -8q-99 0 -99 67v29q0 38 44.5 57.5t107.5 19.5l27 -2q57 -7 59 -7q61 0 76.5 47t15.5 147.5
t21 172t21 141.5q0 58 -112 58l-30 -2l-32 -1q-32 -1 -92 -1q-38 0 -38 57.5t40 84t90 26.5l160 -25q35 0 47.5 18.5t12.5 65z" />
    <glyph glyph-name="bullet" unicode="&#x2022;" horiz-adv-x="803" 
d="M689 657v-33q0 -117 -87 -190.5t-182 -73.5h-16q-98 0 -162 69.5t-64 158.5v17q0 104 77 188t183 84h33q90 0 154 -69.5t64 -150.5z" />
    <glyph glyph-name="ellipsis" unicode="&#x2026;" horiz-adv-x="1526" 
d="M332 148v-30q0 -33 -36.5 -84.5t-99.5 -51.5h-22q-46 0 -77.5 38t-31.5 79v9l1 4q0 39 36 89t88 50l8 2h25q40 0 74.5 -34.5t34.5 -70.5zM848 100q0 -32 -43 -75t-91 -43h-17q-44 0 -78.5 34.5t-34.5 74.5v26q0 47 43.5 90.5t81.5 43.5l8 2h25q40 0 74.5 -34.5
t34.5 -75.5v-21q-3 -15 -3 -22zM1105 113l2 21q0 33 43.5 76.5t99.5 43.5q16 -4 38.5 -4t53 -35.5t30.5 -79.5v-4q0 -46 -35.5 -95.5t-80.5 -49.5q-8 -2 -13 -2l-16 -2h-5q-42 0 -80 31.5t-38 86.5v8z" />
    <glyph glyph-name="perthousand" unicode="&#x2030;" horiz-adv-x="2082" 
d="M261 971v-47q3 -18 3 -32q0 -51 34 -89.5t72 -38.5h19q66 0 122.5 89t56.5 195v41q0 77 -31.5 122t-83.5 45l-6 -1q-72 0 -127 -86.5t-55 -164.5q-4 -26 -4 -33zM1042 582h-19q-57 0 -116 -81t-59 -170q-4 -26 -4 -33v-54q2 -12 2 -19q0 -51 32.5 -93t86.5 -42l6 1
q67 0 122 86.5t55 170.5l1 6l1 7l1 27v21q0 84 -31 128.5t-78 44.5zM1715 583h-19q-64 0 -108 -69q-68 -107 -68 -189q-2 -12 -2 -19l-2 -34v-7q0 -83 32 -128.5t84 -45.5h6l6 1q67 0 123.5 89t56.5 208v14q0 90 -31.5 135t-77.5 45zM113 933v20l1 10q0 138 107 261
q46 53 112 82.5t124 29.5h21q94 0 166 -67t72 -171v-41q0 -139 -107 -262q-45 -52 -111.5 -81.5t-114.5 -29.5h-41q-93 0 -161 73t-68 176zM1247.5 1317q43.5 0 43.5 -31q0 -45 -1014 -1191q-50 -57 -93 -57t-43 32q0 45 1011 1188q52 59 95.5 59zM696 257v30
q0 148 106.5 262t245.5 114q107 0 179 -66.5t72 -179.5v-40q0 -139 -105.5 -252.5t-225.5 -113.5h-40q-92 0 -162 70t-70 176zM1702 663h40q92 0 161 -69t69 -177v-30q0 -141 -101.5 -258.5t-240.5 -117.5h-20l-11 1q-95 0 -162.5 72.5t-67.5 174.5v30q0 139 100 254
q51 58 116.5 89t116.5 31z" />
    <glyph glyph-name="guilsinglleft" unicode="&#x2039;" horiz-adv-x="649" 
d="M603 846v-8q-1 -30 -137 -176t-136 -170q0 -10 74 -152t75 -173q0 -42 -44 -42q-24 0 -128 136q-42 54 -108 130t-66 96v8q0 18 207 199t227 181q36 -1 36 -29z" />
    <glyph glyph-name="guilsinglright" unicode="&#x203a;" horiz-adv-x="651" 
d="M102 158q0 24 136.5 180t136.5 169t-73.5 152.5t-73.5 177t41 37.5q20 0 162 -175t142 -195q0 -28 -184 -177l-250 -203q-37 0 -37 27v7z" />
    <glyph glyph-name="fraction" unicode="&#x2044;" horiz-adv-x="732" 
d="M906 1353q57 0 57 -20v-15q0 -31 -988 -1277q-77 -97 -127 -97t-51 32q0 32 978 1265q89 112 131 112z" />
    <glyph glyph-name="Euro" unicode="&#x20ac;" horiz-adv-x="1241" 
d="M664 599q146 0 187 -41q0 -46 -127 -59t-168 -33q-88 -42 -88 -98q0 -100 80 -165.5t194 -65.5q71 0 168.5 53.5t119.5 53.5q48 0 48 -28q0 -22 -34 -74.5t-96 -89.5q-111 -66 -286 -66t-296 107q-92 82 -158 273q-23 68 -37 86t-49 43.5t-35 40.5q0 32 54 63.5t54 64
t-17 47.5l-25 11q-34 16 -34 34q0 40 57 66.5t136 157.5q140 233 371 312q94 32 229 32t237 -57q62 -35 62 -119.5t-59 -84.5q-34 0 -120 61.5t-185.5 61.5t-184.5 -66q-112 -87 -112 -206q0 -47 65 -67q38 -12 176 -21t138 -32q0 -38 -75 -60q-45 -13 -200 -13t-190 -16.5
t-35 -47.5q0 -41 57 -52q32 -6 178 -6z" />
    <glyph glyph-name="trademark" unicode="&#x2122;" horiz-adv-x="1867" 
d="M631 823q0 -40 9.5 -52.5t49.5 -24.5t40 -29q0 -34 -56 -34h-17l-18 1h-107l-108 -1q-42 0 -42 28q0 20 44 34t58 38.5t14 202.5l6 108q4 72 4 124t-12 72t-56 20q-74 0 -133 -80q-23 -31 -41 -31q-24 0 -24 34v17q0 143 50 143l16 -2l16 -3l36 -2q36 -2 71 -2h304
q72 0 106 4l34 4q40 0 40 -82v-17l-1 -18q0 -75 -25 -75q-16 0 -43.5 34t-29.5 36q-38 36 -109 36q-40 0 -55 -51q-7 -25 -7 -106l-4 -107l-5 -89q-5 -90 -5 -130zM1414 915q18 0 107.5 195.5t129.5 241t132.5 45.5t92.5 -25q0 -11 -33 -36.5t-40.5 -61t-7.5 -247t8 -229.5
t34.5 -42.5t26.5 -34.5q0 -34 -132 -34l-62 -2q-76 0 -76 31q0 7 25 28t35 52t10 293l1 64l1 29q0 23 -12.5 23t-157.5 -312l-26 -57q-36 -79 -39 -84q-22 -37 -62 -37q-22 0 -118.5 243.5t-108.5 243.5q-20 0 -20 -285l-1 -31q-1 -31 -1 -52t22.5 -68.5t22.5 -59.5
q0 -21 -49 -21l-31 2h-31q-103 0 -103 36q0 7 35 32t43 63q33 147 33 405q0 56 -9 77.5t-32.5 40t-23.5 27.5q0 25 102.5 25t142.5 -62q10 -16 89.5 -216t82.5 -200z" />
    <glyph glyph-name="minus" unicode="&#x2212;" horiz-adv-x="1070" 
d="M196 642h786q24 0 24 -28v-9q0 -82 -42 -94q-17 -5 -380 -5h-443q-24 0 -24 28v10q0 54 14.5 76t64.5 22z" />
    </font>
</defs>
</svg>
