<svg xmlns="http://www.w3.org/2000/svg">
<defs>
<font id="AveriaSerifLibre-Regular" horiz-adv-x="1275" >
  <font-face 
    font-family="Averia Serif Libre"
    font-weight="500"
    font-stretch="normal"
    units-per-em="2048"
    panose-1="2 0 6 3 0 0 0 0 0 4"
    ascent="1622"
    descent="-426"
    x-height="953.998"
    cap-height="1390"
    bbox="-100 -465 2110 1828"
    underline-thickness="100"
    underline-position="-147"
    unicode-range="U+0020-U+2212"
  />
<missing-glyph horiz-adv-x="1152" 
d="M814 65c72.667 0 109.002 3.33301 109.002 10c0 14 -82.667 141.333 -248 382l-54 83c-30.667 47.333 -47.334 71 -50.001 71l-49 -75l-5 -9l-38 -58c-2.66699 -4.66699 -6.33398 -10.334 -11.001 -17.001c-164.667 -239.333 -247 -366.666 -247 -381.999
c0 -0.666992 6 -1 18 -1l10 -1l9 -1l69 -2h487zM150.002 725v-368c0 -130.667 1.66699 -196 5 -196s40 53.667 110 161l61 90c14.667 22.667 26.334 40.167 35.001 52.5l34.5 51.5c14.333 22 37.166 55.333 68.499 100s47 69 47 73v10c0 5.33301 -44 72.333 -132 201
s-134.333 196.667 -139 204l-86 127c-2.66699 0 -4 -168.667 -4 -506zM993.002 635l-0.000976562 119c0 318.667 -1.66699 478 -5 478s-21.333 -25 -54 -75l-175.5 -256c-84.333 -120.667 -126.5 -186.667 -126.5 -198s25.5 -53.5 76.5 -126.5l175 -260.5
c65.667 -100.667 100.334 -151 104.001 -151s5.5 156.667 5.5 470zM677.001 1331l-30.999 0.000976562l-10 -1h-61c-237.333 0 -356 -2.83301 -356 -8.5s17.333 -33.667 52 -84l79.5 -118c18.333 -28.333 34.833 -52.833 49.5 -73.5s46.667 -69.167 96 -145.5
s75.666 -114.5 78.999 -114.5s24.333 29.833 63 89.5l67 103.5c6 9.33301 13.667 20.666 23 33.999l123 186c53.333 76 80 117 80 123s-84.667 9 -254 9zM53.002 40.001l-0.000976562 200l1 25v451c0 461.333 0.666992 693.666 2 696.999c4.66699 12 32.334 18 83.001 18
h845c66 0 100.333 -5.5 103 -16.5s4 -145.167 4 -402.5v-424l1 -100v-475c0 -23.333 -10.5 -36.166 -31.5 -38.499s-113.167 -3.5 -276.5 -3.5h-449c-174 0 -264.5 2 -271.5 6s-10.5 25 -10.5 63z" />
    <glyph glyph-name=".notdef" horiz-adv-x="1152" 
d="M814 65c72.667 0 109.002 3.33301 109.002 10c0 14 -82.667 141.333 -248 382l-54 83c-30.667 47.333 -47.334 71 -50.001 71l-49 -75l-5 -9l-38 -58c-2.66699 -4.66699 -6.33398 -10.334 -11.001 -17.001c-164.667 -239.333 -247 -366.666 -247 -381.999
c0 -0.666992 6 -1 18 -1l10 -1l9 -1l69 -2h487zM150.002 725v-368c0 -130.667 1.66699 -196 5 -196s40 53.667 110 161l61 90c14.667 22.667 26.334 40.167 35.001 52.5l34.5 51.5c14.333 22 37.166 55.333 68.499 100s47 69 47 73v10c0 5.33301 -44 72.333 -132 201
s-134.333 196.667 -139 204l-86 127c-2.66699 0 -4 -168.667 -4 -506zM993.002 635l-0.000976562 119c0 318.667 -1.66699 478 -5 478s-21.333 -25 -54 -75l-175.5 -256c-84.333 -120.667 -126.5 -186.667 -126.5 -198s25.5 -53.5 76.5 -126.5l175 -260.5
c65.667 -100.667 100.334 -151 104.001 -151s5.5 156.667 5.5 470zM677.001 1331l-30.999 0.000976562l-10 -1h-61c-237.333 0 -356 -2.83301 -356 -8.5s17.333 -33.667 52 -84l79.5 -118c18.333 -28.333 34.833 -52.833 49.5 -73.5s46.667 -69.167 96 -145.5
s75.666 -114.5 78.999 -114.5s24.333 29.833 63 89.5l67 103.5c6 9.33301 13.667 20.666 23 33.999l123 186c53.333 76 80 117 80 123s-84.667 9 -254 9zM53.002 40.001l-0.000976562 200l1 25v451c0 461.333 0.666992 693.666 2 696.999c4.66699 12 32.334 18 83.001 18
h845c66 0 100.333 -5.5 103 -16.5s4 -145.167 4 -402.5v-424l1 -100v-475c0 -23.333 -10.5 -36.166 -31.5 -38.499s-113.167 -3.5 -276.5 -3.5h-449c-174 0 -264.5 2 -271.5 6s-10.5 25 -10.5 63z" />
    <glyph glyph-name=".notdef" horiz-adv-x="1152" 
d="M814 65c72.667 0 109.002 3.33301 109.002 10c0 14 -82.667 141.333 -248 382l-54 83c-30.667 47.333 -47.334 71 -50.001 71l-49 -75l-5 -9l-38 -58c-2.66699 -4.66699 -6.33398 -10.334 -11.001 -17.001c-164.667 -239.333 -247 -366.666 -247 -381.999
c0 -0.666992 6 -1 18 -1l10 -1l9 -1l69 -2h487zM150.002 725v-368c0 -130.667 1.66699 -196 5 -196s40 53.667 110 161l61 90c14.667 22.667 26.334 40.167 35.001 52.5l34.5 51.5c14.333 22 37.166 55.333 68.499 100s47 69 47 73v10c0 5.33301 -44 72.333 -132 201
s-134.333 196.667 -139 204l-86 127c-2.66699 0 -4 -168.667 -4 -506zM993.002 635l-0.000976562 119c0 318.667 -1.66699 478 -5 478s-21.333 -25 -54 -75l-175.5 -256c-84.333 -120.667 -126.5 -186.667 -126.5 -198s25.5 -53.5 76.5 -126.5l175 -260.5
c65.667 -100.667 100.334 -151 104.001 -151s5.5 156.667 5.5 470zM677.001 1331l-30.999 0.000976562l-10 -1h-61c-237.333 0 -356 -2.83301 -356 -8.5s17.333 -33.667 52 -84l79.5 -118c18.333 -28.333 34.833 -52.833 49.5 -73.5s46.667 -69.167 96 -145.5
s75.666 -114.5 78.999 -114.5s24.333 29.833 63 89.5l67 103.5c6 9.33301 13.667 20.666 23 33.999l123 186c53.333 76 80 117 80 123s-84.667 9 -254 9zM53.002 40.001l-0.000976562 200l1 25v451c0 461.333 0.666992 693.666 2 696.999c4.66699 12 32.334 18 83.001 18
h845c66 0 100.333 -5.5 103 -16.5s4 -145.167 4 -402.5v-424l1 -100v-475c0 -23.333 -10.5 -36.166 -31.5 -38.499s-113.167 -3.5 -276.5 -3.5h-449c-174 0 -264.5 2 -271.5 6s-10.5 25 -10.5 63z" />
    <glyph glyph-name="space" unicode=" " horiz-adv-x="519" 
 />
    <glyph glyph-name="exclam" unicode="!" horiz-adv-x="601" 
d="M435 1304l-0.00195312 -56l-1 -11l-1 -24c-0.666992 -8 -1 -15.667 -1 -23l-2 -23c-0.666992 -8 -1 -15.667 -1 -23c0 -122 -21.667 -349 -65 -681c-5.33301 -43.333 -22.666 -65 -51.999 -65h-23c-23.333 0 -38.666 28.333 -45.999 85
c-27.333 209.333 -41 374.333 -41 495l-4 48c-4 44 -6.5 76.5 -7.5 97.5s-1.83301 37.333 -2.5 49s-1 21.5 -1 29.5l-2 23l-1 44v32c0 43.333 9.83301 75.5 29.5 96.5s54.167 31.5 103.5 31.5h24c62.667 0 94 -41.667 94 -125zM295.998 -24
c-34 0 -64.668 11.832 -92.001 35.499s-41 52.167 -41 85.5v17c0 39.333 15.333 70 46 92s59 33 85 33h23c30 0 58.833 -11.667 86.5 -35s41.5 -51.666 41.5 -84.999v-13c0 -24.667 -10.667 -52 -32 -82s-49.666 -45 -84.999 -45l-23 -3h-9z" />
    <glyph glyph-name="quotedbl" unicode="&#x22;" horiz-adv-x="782" 
d="M228 1450l6.99902 0.000976562c28 0 49.667 -6 65 -18s23 -33 23 -63v-40l-1 -6l-3 -46c-2.66699 -18.667 -4 -32.334 -4 -41.001c0 -84 -17.333 -178 -52 -282c-9.33301 -27.333 -28.666 -41 -57.999 -41h-20c-24 0 -36 38.333 -36 115l-1 7v27l-1 13v14l-4 41l-3 34
c-2.66699 18.667 -4 30 -4 34l-21 129l-2 13v13l-1 13c0 56 38.667 84 116 84zM553.999 1449l33.999 0.000976562c49.333 0 74 -24.667 74 -74v-53l-1 -6l-3 -40l-5 -47c0 -88 -17.333 -179.667 -52 -275c-10 -27.333 -29.333 -41 -58 -41h-20c-24 0 -36 40.667 -36 122
l-1 20v14l-1 13v14l-7 74c-2.66699 18.667 -4 30 -4 34l-3 13c0 1.33301 -1 8 -3 20l-6 39c-6.66699 43.333 -10 66.666 -10 69.999v32c0 20 8.83301 36.833 26.5 50.5s42.834 20.5 75.501 20.5z" />
    <glyph glyph-name="numbersign" unicode="#" horiz-adv-x="1235" 
d="M699 826l-54 -0.00195312l-5 -1c-72 0 -114.833 -4.16699 -128.5 -12.5s-20.5 -27.666 -20.5 -57.999s-6.33301 -68.666 -19 -114.999s-19 -74.5 -19 -84.5l-3 -15v-9c0 -6.66699 16.667 -10 50 -10h65l6 1h11c61.333 0 99.5 2.5 114.5 7.5s22.5 22.5 22.5 52.5l42 198
l5 25v5c0 10.667 -22.333 16 -67 16zM677 944.998c67.333 0 106.999 12.999 118.999 38.999c4 8 13.667 50.167 29 126.5s27 123.833 35 142.5c16 37.333 40.833 56 74.5 56s50.5 -16 50.5 -48c0 -20.667 -4 -53.667 -12 -99s-12 -85.333 -12 -120s6.5 -57 19.5 -67
s41.667 -19.667 86 -29s66.5 -29.333 66.5 -60c0 -25.333 -14.333 -43.666 -43 -54.999c-7.33301 -3.33301 -35.666 -6.83301 -84.999 -10.5s-80.333 -13.834 -93 -30.501c-32.667 -43.333 -49 -117.333 -49 -222c0 -23.333 34.833 -36.5 104.5 -39.5
s104.5 -20.167 104.5 -51.5s-12 -52 -36 -62c-10.667 -4.66699 -42 -9.66699 -94 -15s-86.333 -20 -103 -44s-34.834 -76.833 -54.501 -158.5s-30.5 -124.5 -32.5 -128.5c-13.333 -26 -36.666 -39 -69.999 -39s-50 23.333 -50 70c0 16 6.66699 59.833 20 131.5
s20 117.834 20 138.501s-38.167 31 -114.5 31s-121.166 -11.333 -134.499 -34c-5.33301 -8.66699 -15.666 -51.5 -30.999 -128.5s-26 -123.5 -32 -139.5c-17.333 -46.667 -43.5 -70 -78.5 -70s-52.5 13.667 -52.5 41c0 22.667 5.16699 61.5 15.5 116.5s15.5 96 15.5 123
s-5.83301 46.833 -17.5 59.5s-41 22.5 -88 29.5s-70.5 24.5 -70.5 52.5s12 48.333 36 61c12 6.66699 41.5 11 88.5 13s77.167 10.333 90.5 25c35.333 38 53 111.333 53 220c0 26 -34.333 41.667 -103 47s-103 21 -103 47c0 31.333 12.333 53 37 65
c7.33301 3.33301 37.166 8.83301 89.499 16.5s88 22.667 107 45s36 70.666 51 144.999s28.333 122.5 40 144.5s32.5 33 62.5 33c35.333 0 53 -25 53 -75l-41 -239c0 -23.333 5.16699 -38.166 15.5 -44.499s49.166 -9.5 116.499 -9.5z" />
    <glyph glyph-name="dollar" unicode="$" horiz-adv-x="1111" 
d="M507 1250l-9 -0.000976562c-28.667 0 -61.667 -21.667 -99 -65s-56 -82.666 -56 -117.999v-12l4 -35c0 -45.333 15.667 -93 47 -143s65.333 -75 102 -75c7.33301 0 11 16.667 11 50l4 42c1.33301 6.66699 2 11.667 2 15l4 37v53l-5 39l-1 11l-1 6l-1 18v42l4 48l2 22
l3 39c0 17.333 -3.66699 26 -11 26zM611 595.999c-8.66699 0 -13 -27.001 -13 -81.001v-47l1 -7v-20l2 -26l10 -82l2 -40v-14l-1 -7v-13c-2 -20 -3 -31 -3 -33l-8 -58v-10l1 -10c0 -18 3 -27 9 -27c56.667 0 103 15.833 139 47.5s54 74.834 54 129.501l2 13v13l-1 7
c0 65.333 -19 126.666 -57 183.999c-7.33301 10.667 -20.833 20.834 -40.5 30.501s-38.5 20.5 -56.5 32.5s-31.333 18 -40 18zM150 214.998l-0.00488281 29.9932c0 70.667 13 106 39 106c20.667 0 55.667 -38.333 105 -115c26.667 -41.333 55.834 -70.333 87.501 -87
s56.5 -25 74.5 -25s30.5 11 37.5 33s10.5 91 10.5 207s-6.16699 184.333 -18.5 205s-51.166 50.334 -116.499 89.001s-112 76.334 -140 113.001c-44.667 58 -67 125.167 -67 201.5s23.667 141.833 71 196.5c31.333 36 90 74.667 176 116c44 21.333 83.333 63.333 118 126
c10 18.667 25 28 45 28s36.5 -18.333 49.5 -55s29.833 -62 50.5 -76s58.334 -26 113.001 -36s90.834 -25.667 108.501 -47s26.5 -57.666 26.5 -108.999c0 -82.667 -16.333 -124 -49 -124c-16 0 -46.667 27.167 -92 81.5s-81.666 81.5 -108.999 81.5
s-44.333 -15.167 -51 -45.5s-10 -103.166 -10 -218.499c0 -65.333 11.333 -110.666 34 -135.999c10.667 -12 33.667 -27.167 69 -45.5s65 -34.833 89 -49.5c123.333 -76 185 -175.333 185 -298c0 -144.667 -67.333 -251 -202 -319c-18.667 -9.33301 -46 -21.166 -82 -35.499
s-59.167 -27.166 -69.5 -38.499s-20 -37 -29 -77s-27.5 -60 -55.5 -60c-22 0 -38.5 21.5 -49.5 64.5s-28.5 71.667 -52.5 86s-67.833 29.5 -131.5 45.5s-107 34.5 -130 55.5s-34.5 64.833 -34.5 131.5z" />
    <glyph glyph-name="percent" unicode="%" horiz-adv-x="1609" 
d="M522 1086c0 52.667 -13.333 98 -40 136s-55 57 -85 57h-12l-6 -1c-40 0 -71 -24.333 -93 -73s-33 -99.667 -33 -153v-56l1 -7l2 -30c1.33301 -9.33301 2 -16.333 2 -21c0 -38.667 12.833 -78.167 38.5 -118.5s53.5 -60.5 83.5 -60.5h23c28 0 54.833 18.333 80.5 55
s38.5 81.667 38.5 135l1 7l1 8l1 23v62c-2 16 -3 28.333 -3 37zM1322 333l-0.000976562 55.999c-2 16 -3 28.667 -3 38c0 51.333 -17 101.333 -51 150c-22 31.333 -48.333 47 -79 47h-18c-30.667 0 -59.667 -19.5 -87 -58.5s-41 -85.5 -41 -139.5
c-1.33301 -9.33301 -2 -16.666 -2 -21.999l-2 -39v-16l1 -8l1 -23l2 -29c0 -46 15.667 -93.667 47 -143c20.667 -32.667 50.334 -49 89.001 -49l6 1c39.333 0 72 23.667 98 71s39 102 39 164zM726.999 1034l-0.000976562 -23c0 -102 -31.667 -186.833 -95 -254.5
s-141.333 -101.5 -234 -101.5l-11 1c-83.333 0 -150.833 29.833 -202.5 89.5s-77.5 133.5 -77.5 221.5v46c0 90.667 30.333 170.667 91 240s136.334 104 227.001 104h22l11 -1c76 0 139.833 -29.833 191.5 -89.5s77.5 -137.167 77.5 -232.5zM1205 1363h16
c32 0 48 -8.66699 48 -26c0 -10.667 -14 -39 -42 -85c-304.667 -502 -548 -887 -730 -1155c-46 -68 -87.833 -102 -125.5 -102s-56.5 8.66699 -56.5 26c0 40 257.667 453.333 773 1240c44.667 68 83.667 102 117 102zM1503 376.999l-0.000976562 -56
c0 -83.333 -28.167 -157.5 -84.5 -222.5s-126.166 -97.5 -209.499 -97.5h-33c-70 0 -132.833 30 -188.5 90s-83.5 133.667 -83.5 221v56c0 84.667 27.833 159.167 83.5 223.5s128.167 96.5 217.5 96.5l10 -1c80 0 148 -30.167 204 -90.5s84 -133.5 84 -219.5z" />
    <glyph glyph-name="ampersand" unicode="&#x26;" horiz-adv-x="1516" 
d="M487 1100c0 -61.333 26.332 -129.668 78.999 -205.001c21.333 -30.667 38 -46 50 -46h5c30.667 0 67 37.667 109 113c19.333 34.667 29 72.334 29 113.001v46c0 44 -12.833 84.333 -38.5 121s-57.5 55 -95.5 55h-5c-31.333 0 -60.666 -15.5 -87.999 -46.5
s-41 -63.167 -41 -96.5l-4 -28v-26zM304.999 406.998l-0.000976562 -34c0 -65.333 25 -125.166 75 -179.499s110.667 -81.5 182 -81.5h42c46 0 94.167 12.667 144.5 38s75.5 50.666 75.5 75.999v6c0 6 -58.167 77.667 -174.5 215s-178.166 206 -185.499 206h-7
c-28 0 -60.333 -26.5 -97 -79.5s-55 -108.5 -55 -166.5zM1253 774.998c41.333 0 62.002 -12.999 62.002 -38.999c0 -8.66699 -15.5 -32.834 -46.5 -72.501s-60.667 -93.667 -89 -162s-42.5 -133.833 -42.5 -196.5c0 -34 14.167 -67.5 42.5 -100.5s64.666 -60 108.999 -81
s66.5 -36.167 66.5 -45.5v-9c0 -4 -6 -10 -18 -18c-41.333 -28.667 -100.333 -43 -177 -43c-38.667 0 -87.5 11 -146.5 33s-99 33 -120 33s-73.5 -14 -157.5 -42c-82.667 -28 -154 -42.333 -214 -43c-124.667 0 -224.334 32 -299.001 96c-41.333 36 -72 76.833 -92 122.5
s-30 88.5 -30 128.5v32c0 103.333 54.667 202 164 296c62 53.333 93 97 93 131c0 6 -13.333 41.667 -40 107s-40 118.333 -40 159c0 94.667 32 170.667 96 228s140.833 86 230.5 86s160.667 -24.833 213 -74.5s78.5 -106.667 78.5 -171s-20.5 -130.666 -61.5 -198.999
s-61.5 -128.833 -61.5 -181.5s18 -105.334 54 -158.001s72 -79 108 -79s62.333 14.333 79 43s25 60 25 94l-7 54c0 48 73.667 72 221 72z" />
    <glyph glyph-name="quotesingle" unicode="'" horiz-adv-x="451" 
d="M337 1342l-8 -94c0 -69.333 -17 -159.333 -51 -270c-10.667 -35.333 -29 -53 -55 -53h-27c-24.667 0 -37 42.333 -37 127v20l-1 14v13l-4 55c-4.66699 32.667 -7 53 -7 61l-22 141l-1 19c0 57.333 36.667 86 110 86h21c28 0 48.833 -6.83301 62.5 -20.5
s20.5 -37.5 20.5 -71.5v-7l-1 -7v-13z" />
    <glyph glyph-name="parenleft" unicode="(" horiz-adv-x="684" 
d="M327 594c0 -180 26.666 -350.002 79.999 -510.002c28.667 -88 78 -179 148 -273c34.667 -48 52 -80 52 -96c0 -27.333 -16.333 -41 -49 -41c-32 0 -80.667 36 -146 108c-130.667 144.667 -218 318.334 -262 521.001c-19.333 90 -29 182.667 -29 278l1 22v22
c0 80.667 10 167.334 30 260.001c40.667 189.333 119.334 352.333 236.001 489c80.667 95.333 137.667 143 171 143h18c25.333 0 38 -10.667 38 -32v-16c0 -10 -15.667 -35.333 -47 -76c-160.667 -208.667 -241 -475 -241 -799z" />
    <glyph glyph-name="parenright" unicode=")" horiz-adv-x="683" 
d="M197 -82c108 180.667 162 411.001 162 691.001s-56.333 509.333 -169 688c-72.667 115.333 -109 174.666 -109 177.999c0 28 16.333 42 49 42c32 -0.666992 80.667 -35.667 146 -105c130 -139.333 217.667 -313 263 -521c19.333 -90 29 -182.667 29 -278v-22
c0 -312 -98.667 -580 -296 -804c-66 -75.333 -114 -113 -144 -113h-19c-26 0 -39 10 -39 30v16c0 12.667 16.167 40.5 48.5 83.5s58.5 81.167 78.5 114.5z" />
    <glyph glyph-name="asterisk" unicode="*" horiz-adv-x="946" 
d="M486 1433c54.667 -0.666992 82.0029 -26.998 82.0029 -78.998c0 -26.667 -4.33301 -65.834 -13 -117.501s-13 -80.5 -13 -86.5s2.33301 -9 7 -9s35.167 17.667 91.5 53s95.333 53 117 53s40 -7.83301 55 -23.5s22.5 -34.5 22.5 -56.5c0 -38 -38.333 -71.333 -115 -100
c-55.333 -20.667 -83 -32 -83 -34c0 -17.333 14.667 -37.333 44 -60c54.667 -42 82 -80.833 82 -116.5s-15.333 -53.5 -46 -53.5c-12.667 0 -32.5 4.66699 -59.5 14s-48 18.166 -63 26.499s-24.167 12.5 -27.5 12.5c-10 0 -19.667 -13.833 -29 -41.5s-18 -44.167 -26 -49.5
c-24 -16 -48.667 -24 -74 -24h-14c-18.667 0 -31.5 20 -38.5 60s-17.833 60 -32.5 60c-3.33301 0 -13.333 -1.66699 -30 -5l-29 -6c-28.667 -5.33301 -45.667 -8 -51 -8c-26 0 -39 24.333 -39 73c0 24 14.167 51.5 42.5 82.5s42.5 47.167 42.5 48.5s-11 8.66602 -33 21.999
s-45 33 -69 59s-36 47.333 -36 64s8.16699 31.834 24.5 45.501s35.166 20.5 56.499 20.5s53.166 -15 95.499 -45s71.166 -45 86.499 -45c4 0 6 6.33301 6 19l-9 142c0 34 5.5 60 16.5 78s30.5 27 58.5 27z" />
    <glyph glyph-name="plus" unicode="+" horiz-adv-x="1092" 
d="M538 1048l35.001 -0.000976562c21.333 0 34.666 -12 39.999 -36c2 -8.66699 3 -67 3 -175s3.66699 -164 11 -168c2 -1.33301 64.167 -2 186.5 -2s183.5 -13.333 183.5 -40v-17c0 -38.667 -8 -61.667 -24 -69s-76.667 -11 -182 -11s-160.833 -1.83301 -166.5 -5.5
s-8.5 -60.667 -8.5 -171s-2.66699 -172.666 -8 -186.999s-22 -21.5 -50 -21.5h-19c-34 0 -53.667 11.333 -59 34c-2.66699 11.333 -4 70.5 -4 177.5s-2.5 162.667 -7.5 167s-62 6.5 -171 6.5s-167.5 1.33301 -175.5 4c-17.333 5.33301 -26 21.333 -26 48v18
c0 34 12 54 36 60c15.333 4 75 6 179 6s157.667 3.16699 161 9.5s5 62.833 5 169.5s2.83301 167.167 8.5 181.5s23.167 21.5 52.5 21.5z" />
    <glyph glyph-name="comma" unicode="," horiz-adv-x="528" 
d="M413 91v-33.002c0 -73.333 -24.667 -145.666 -74 -216.999c-67.333 -97.333 -127 -146 -179 -146h-6c-23.333 0 -35 11 -35 33v6l73 95c28 36.667 42 75 42 115c0 11.333 -18.333 35.333 -55 72s-55 72.334 -55 107.001s11.5 64.667 34.5 90s52.833 38 89.5 38h25
c42 0 75.833 -14.167 101.5 -42.5s38.5 -67.5 38.5 -117.5z" />
    <glyph glyph-name="hyphen" unicode="-" horiz-adv-x="828" 
d="M721 600v-37c0 -42 -12.333 -65.833 -37 -71.5s-120 -8.5 -286 -8.5h-23l-23 -1h-37l-15 -1h-45l-7 -1h-30l-22 -1h-50c-23.333 0 -35 12 -35 36v38c0 42 13.667 66 41 72c17.333 4 111.333 6 282 6l194 4h51c28 0 42 -11.667 42 -35z" />
    <glyph glyph-name="period" unicode="." horiz-adv-x="518" 
d="M254 -24c-34.667 0 -66.334 12.332 -95.001 36.999s-43 57 -43 97v9c0 38.667 14.833 70.667 44.5 96s59.834 38 90.501 38h18c10 -2 17.333 -3 22 -3c23.333 0 47.666 -12.667 72.999 -38s38 -54.666 38 -87.999v-14c0 -30.667 -12.167 -60.167 -36.5 -88.5
s-52.166 -42.5 -83.499 -42.5l-23 -3h-5z" />
    <glyph glyph-name="slash" unicode="/" horiz-adv-x="847" 
d="M745 1472h17.999c36.667 0 55 -8.33301 55 -25s-14.333 -60.667 -43 -132c-316.667 -792 -504.334 -1254.33 -563.001 -1387c-31.333 -70.667 -65.666 -106 -102.999 -106h-18c-36.667 0 -55 7.33301 -55 22c0 72.667 199.667 575 599 1507
c34.667 80.667 71.334 121 110.001 121z" />
    <glyph glyph-name="zero" unicode="0" horiz-adv-x="1202" 
d="M317 691v-79c0 -146 25.333 -272 76 -378c20 -41.333 46.333 -75.833 79 -103.5s66.667 -41.5 102 -41.5h25c36 0 69.333 12.167 100 36.5s55 55.166 73 92.499c48 100.667 72 210.334 72 329.001l2 30v93c0 151.333 -26.333 282 -79 392c-18.667 39.333 -44 71 -76 95
c-32.667 24 -69 36 -109 36c-80 0 -144.167 -46.5 -192.5 -139.5s-72.5 -213.833 -72.5 -362.5zM600 -20h-39c-60.667 0 -119.667 14.667 -177 44c-118.667 61.333 -201.667 168 -249 320c-28 89.333 -42 183.333 -42 282v21c0 196.667 51.333 359.667 154 489
c88 110 203 165 345 165s258.333 -52.667 349 -158c48.667 -57.333 86.167 -128.833 112.5 -214.5s39.5 -170.167 39.5 -253.5v-61c0 -81.333 -13 -163.333 -39 -246c-50.667 -161.333 -137 -274 -259 -338c-62.667 -33.333 -127.667 -50 -195 -50z" />
    <glyph glyph-name="one" unicode="1" horiz-adv-x="877" 
d="M582 597c0 -217.333 5.5 -343.166 16.5 -377.499s38.667 -67 83 -98s66.5 -56.833 66.5 -77.5c0 -29.333 -34.333 -44 -103 -44h-316c-104 0 -156 17 -156 51c0 17.333 22.833 39.333 68.5 66s75.667 59.667 90 99s21.5 174 21.5 404s-7.5 362.5 -22.5 397.5
s-49.667 54.167 -104 57.5s-81.5 18.333 -81.5 45c0 17.333 16.333 34.666 49 51.999c15.333 8 51.833 22.167 109.5 42.5s105.167 37.833 142.5 52.5s67.5 22 90.5 22s39.333 -8.5 49 -25.5s14.5 -46.833 14.5 -89.5l-14 -241l-2 -42v-41l-2 -84v-169z" />
    <glyph glyph-name="two" unicode="2" horiz-adv-x="1107" 
d="M778 0l-32.001 0.00195312l-33 1l-163 2l-32 1l-163 1c-98.667 0 -157.667 3.66699 -177 11c-30 11.333 -45 34.333 -45 69s24.667 82 74 142c1.33301 2 62 64.167 182 186.5s197.667 210.166 233 263.499c60 90 90 172 90 246s-19 132 -57 174s-84.333 63 -139 63
c-95.333 0 -167.333 -47.667 -216 -143c-34.667 -67.333 -66.334 -101 -95.001 -101c-46 0 -69 25.833 -69 77.5s10.833 93.167 32.5 124.5s51.834 59.666 90.501 84.999c86.667 57.333 189.334 86 308.001 86s211.334 -31.667 278.001 -95s100 -148.333 100 -255
c0 -82 -28.333 -161 -85 -237s-151 -172.167 -283 -288.5s-198 -187.5 -198 -213.5c0 -20 55.333 -30 166 -30s186.834 6.66699 228.501 20s79.167 33 112.5 59s59.666 39 78.999 39s29 -23.333 29 -70c0 -92.667 -17.333 -155 -52 -187
c-22.667 -20.667 -77.334 -31 -164.001 -31z" />
    <glyph glyph-name="three" unicode="3" horiz-adv-x="1086" 
d="M431 -82c-78 0 -150.165 17.1699 -216.498 51.5029s-99.5 78 -99.5 131s23.333 79.5 70 79.5c33.333 0 78.666 -22.167 135.999 -66.5s118.5 -66.5 183.5 -66.5s119 25.667 162 77s64.5 115.666 64.5 192.999s-28.333 141 -85 191
c-28.667 25.333 -55.334 42.166 -80.001 50.499s-55.834 16.833 -93.501 25.5s-59.167 14.667 -64.5 18c-16.667 9.33301 -25 25.333 -25 48c0 12 29.333 33.333 88 64c129.333 66.667 194 153.667 194 261c0 57.333 -15.667 101.333 -47 132s-72.5 46 -123.5 46
s-99.167 -18 -144.5 -54c-80 -63.333 -121.667 -95 -125 -95c-50 0 -75 28 -75 84s36.333 104 109 144s152.334 60 239.001 60h33c72 0 133.333 -9.33301 184 -28s87 -38.334 109 -59.001c43.333 -40 65 -101.667 65 -185c0 -49.333 -10.667 -93.5 -32 -132.5
s-54.5 -81.667 -99.5 -128s-67.5 -72.833 -67.5 -79.5c0 -1.33301 12 -8 36 -20c160 -78 240 -188 240 -330c0 -122.667 -49 -222 -147 -298s-216.333 -114 -355 -114h-33z" />
    <glyph glyph-name="four" unicode="4" horiz-adv-x="1132" 
d="M615 1011c-0.666992 0 -32.5 -45.502 -95.5 -136.502s-106.833 -152.167 -131.5 -183.5s-38.667 -49.333 -42 -54l-45 -62l-6 -7l-20 -29c-13.333 -18 -28 -36.667 -44 -56s-24 -31.666 -24 -36.999v-4c0 -2 3.33301 -3 10 -3h24l8 1l148 3c128 0 194.333 4 199 12
c10 16.667 15 122.334 15 317.001l5 77v17l1 8v16l3 78v38l-2 5h-3zM512 22.998c0 3.33301 10.667 24.999 32 64.999s32 73.333 32 100c0 50 -19.167 82.833 -57.5 98.5s-101.833 23.5 -190.5 23.5c-169.333 0 -254 23.667 -254 71v17c0 78 177.667 338.667 533 782
c52 64.667 103 97 153 97c32 0 52.333 -16.667 61 -50c6 -22.667 9 -127.167 9 -313.5s7.66699 -307.166 23 -362.499c8.66699 -30.667 35.167 -57.5 79.5 -80.5s66.5 -50.833 66.5 -83.5c0 -12 -11.833 -25 -35.5 -39s-44 -37 -61 -69s-25.5 -70.667 -25.5 -116
c0 -10 6.83301 -28.167 20.5 -54.5s20.5 -51.166 20.5 -74.499c0 -26.667 -25 -49.334 -75 -68.001s-106.667 -28 -170 -28h-42c-43.333 0 -74 8.5 -92 25.5s-27 36.833 -27 59.5z" />
    <glyph glyph-name="five" unicode="5" horiz-adv-x="1085" 
d="M472 1103l-1.99902 -0.000976562c-100.667 0 -151 -63.667 -151 -191c0 -57.333 10.333 -93.666 31 -108.999c10.667 -7.33301 48 -11 112 -11c144 0 258 -34 342 -102c50 -40.667 87.5 -87.834 112.5 -141.501s37.5 -105.167 37.5 -154.5v-33
c0 -123.333 -46.667 -226.833 -140 -310.5s-211.333 -125.5 -354 -125.5h-32c-76 0 -147.167 15.333 -213.5 46s-99.5 68.667 -99.5 114v26c0 47.333 27.333 71 82 71c22.667 0 61.5 -20.5 116.5 -61.5s112.167 -61.5 171.5 -61.5c77.333 0 140.333 34.333 189 103
c34 48 51 117 51 207c0 37.333 -9.33301 76 -28 116s-43.667 72.667 -75 98c-56.667 45.333 -141 68 -253 68l-30 -2c-12.667 -0.666992 -34.834 -1 -66.501 -1s-54.5 11.833 -68.5 35.5s-21 71.834 -21 144.501s9 152.5 27 239.5s34.667 139.833 50 158.5
c25.333 31.333 121.333 47 288 47c102 0 175.333 4 220 12l29 6c24.667 5.33301 42.334 8 53.001 8c47.333 0 71 -24.667 71 -74c0 -86.667 -52.333 -130 -157 -130c-38.667 0 -72.334 0.666992 -101.001 2l-64 3c-64 2 -106.333 3 -127 3z" />
    <glyph glyph-name="six" unicode="6" horiz-adv-x="1140" 
d="M326 501l0.000976562 -58c0 -94.667 21.5 -178 64.5 -250s103.167 -108 180.5 -108h9c64 0 117.5 27.333 160.5 82s64.5 127 64.5 217v41c0 97.333 -22.833 173 -68.5 227s-99.167 81 -160.5 81h-28c-68.667 0 -122.834 -21.5 -162.501 -64.5s-59.5 -98.833 -59.5 -167.5
zM644.501 822c37.667 0 81.499 -9.33301 131.499 -28c50.667 -20 94.667 -48 132 -84c77.333 -74.667 116 -172 116 -292v-26c0 -46 -10.667 -96 -32 -150c-41.333 -106 -119.333 -183 -234 -231c-54.667 -22.667 -112 -34 -172 -34h-26c-134 0 -244.333 48.333 -331 145
c-39.333 44 -71.666 101.833 -96.999 173.5s-38 145.5 -38 221.5v54c0 94 15.167 188.667 45.5 284s75.833 178 136.5 248s135.667 125 225 165c87.333 39.333 166 59 236 59h3c122.667 0 184 -23.333 184 -70c0 -30 -13 -49.667 -39 -59s-69.333 -14 -130 -14
c-98 0 -172 -19.667 -222 -59s-87.667 -82 -113 -128s-38 -79.5 -38 -100.5s8.16699 -39.667 24.5 -56s40.833 -24.5 73.5 -24.5c72 4 126.833 6 164.5 6z" />
    <glyph glyph-name="seven" unicode="7" horiz-adv-x="1053" 
d="M300 -19c0 64 77.167 253.833 231.5 569.5s231.5 484.5 231.5 506.5s-14.667 36.167 -44 42.5s-98.333 9.5 -207 9.5s-186.667 -10 -234 -30c-22.667 -10 -48.334 -31.5 -77.001 -64.5s-51 -49.5 -67 -49.5c-28.667 0 -43 21.667 -43 65v24c0 84 9 146.333 27 187
c12.667 28.667 40.334 43 83.001 43l24 -1l50 -1l49 -2l360 -4h76c17.333 0.666992 48.333 1 93 1s74.834 -4.5 90.501 -13.5s23.5 -27.167 23.5 -54.5s-55.667 -173.333 -167 -438s-184.333 -458.667 -219 -582s-53.667 -188.333 -57 -195
c-22.667 -52 -62.334 -78 -119.001 -78h-24c-54 0 -81 21.667 -81 65z" />
    <glyph glyph-name="eight" unicode="8" horiz-adv-x="1131" 
d="M772 1062c0 58 -18.832 110.001 -56.499 156.001s-88.5 69 -152.5 69h-36c-41.333 0 -79.833 -17.833 -115.5 -53.5s-53.5 -82.5 -53.5 -140.5v-24c0 -56.667 28.167 -116.334 84.5 -179.001s115.166 -94 176.499 -94c36 0 70.167 25.5 102.5 76.5
s48.5 96.167 48.5 135.5l2 15v39zM291.001 398.001v-27.001c0 -75.333 25.667 -141 77 -197s114.333 -84 189 -84h26c56.667 0 108.167 21.333 154.5 64s69.5 95.334 69.5 158.001v27c0 71.333 -29.333 134 -88 188c-95.333 88 -174.333 132 -237 132h-8
c-43.333 0 -89.333 -38 -138 -114c-30 -46.667 -45 -95.667 -45 -147zM90.001 338c0 64.667 14.999 119.833 44.999 165.5s60.333 81.5 91 107.5c66.667 56.667 100 85.667 100 87l-74 77c-73.333 76.667 -110 162 -110 256s39.333 173.333 118 238s173.334 97 284.001 97
h23c117.333 0 210.5 -30 279.5 -90s103.5 -140.333 103.5 -241c0 -77.333 -41.667 -155.333 -125 -234c-44 -41.333 -66 -66.333 -66 -75l93 -74c101.333 -80.667 152 -176 152 -286v-22c0 -54.667 -13 -105.334 -39 -152.001s-60 -86 -102 -118
c-84.667 -64 -193.5 -96 -326.5 -96s-240.667 33.333 -323 100s-123.5 153.334 -123.5 260.001z" />
    <glyph glyph-name="nine" unicode="9" horiz-adv-x="1139" 
d="M540 1201l-10 0.000976562c-63.333 0 -116.5 -27.333 -159.5 -82s-64.5 -127.334 -64.5 -218.001v-41c0 -95.333 23.167 -170.5 69.5 -225.5s99.833 -82.5 160.5 -82.5h28c72 0 132 28.333 180 85c27.333 32 41 91 41 177l-1 10l-1 29l-2 39
c0 83.333 -27 159.333 -81 228c-42.667 54 -96 81 -160 81zM728 388.001c0 24 -10.002 43.335 -30.002 58.002c-19.333 14.667 -43.666 22 -72.999 22h-4c-31.333 -0.666992 -54.333 -1 -69 -1l-23 -2c-10.667 -0.666992 -35 -1 -73 -1s-83.167 11.5 -135.5 34.5
s-97.166 55.167 -134.499 96.5c-65.333 71.333 -98 161 -98 269c0 133.333 42.333 241 127 323s195 123 331 123c156.667 0 278 -58.667 364 -176c71.333 -96.667 107 -233.334 107 -410.001c0 -227.333 -63.667 -412.333 -191 -555c-52 -58.667 -120.833 -108 -206.5 -148
s-173.167 -60 -262.5 -60c-48 0 -87.5 6.83301 -118.5 20.5s-46.5 33.167 -46.5 58.5s17.333 42.666 52 51.999c20 5.33301 61.667 8 125 8c92.667 0 169 25.333 229 76c86.667 73.333 130 144 130 212z" />
    <glyph glyph-name="colon" unicode=":" horiz-adv-x="551" 
d="M268 679c-24 0 -51.167 10.834 -81.5 32.501s-45.5 52.167 -45.5 91.5v27c0 24.667 12.167 51.167 36.5 79.5s52.5 42.5 84.5 42.5l9 2h27c6.66699 -1.33301 11.334 -2 14.001 -2c29.333 0 55.666 -13.667 78.999 -41s35 -57.333 35 -90v-5
c0 -28.667 -11 -58.334 -33 -89.001s-51.333 -46 -88 -46l-9 -2h-28zM289 -0.999023h-22.998c-6.66699 1.33301 -11.334 2 -14.001 2c-30 0 -56.667 14 -80 42s-35 57.667 -35 89v4c0 32.667 12.667 63.834 38 93.501s57.666 44.5 96.999 44.5h23
c24.667 0 52.167 -10.833 82.5 -32.5s45.5 -51.834 45.5 -90.501v-23c0 -36 -14.5 -66.5 -43.5 -91.5s-59.167 -37.5 -90.5 -37.5z" />
    <glyph glyph-name="semicolon" unicode=";" horiz-adv-x="563" 
d="M293 654h-23.002c-5.33301 1.33301 -9.66602 2 -12.999 2c-29.333 0 -54.333 14.333 -75 43s-31 57.667 -31 87v13c0 37.333 15.167 69 45.5 95s61.833 39 94.5 39h9c26.667 0 54.834 -10.667 84.501 -32s44.5 -53 44.5 -95v-19c0 -38 -14.833 -69.667 -44.5 -95
s-60.167 -38 -91.5 -38zM429.998 105v-24c0 -71.333 -18.833 -136.333 -56.5 -195s-74.5 -100.5 -110.5 -125.5s-60.667 -37.5 -74 -37.5h-6c-22.667 0 -34 11 -34 33v5c0 9.33301 8.16699 22.166 24.5 38.499s34.5 37.833 54.5 64.5s30 59.334 30 98.001
c0 19.333 -17.833 45.166 -53.5 77.499s-53.5 67 -53.5 104s13 67.333 39 91s56 35.5 90 35.5h15c42 0 75 -14.667 99 -44s36 -69.666 36 -120.999z" />
    <glyph glyph-name="less" unicode="&#x3c;" horiz-adv-x="1086" 
d="M96 599c0 22 69.001 73.665 207.001 154.998c393.333 231.333 597.666 347 612.999 347c24.667 0 37 -17.667 37 -53s-28.333 -73.666 -85 -114.999c-38 -28 -139.833 -89.5 -305.5 -184.5s-248.5 -147.833 -248.5 -158.5c0 -4 80.667 -52.5 242 -145.5
s268 -157.667 320 -194s78 -73.666 78 -111.999s-10.333 -57.5 -31 -57.5s-226.667 115 -618 345c-139.333 82 -209 133.667 -209 155v18z" />
    <glyph glyph-name="equal" unicode="=" horiz-adv-x="1131" 
d="M941 836c46.667 0 70 -14.667 70 -44v-10l-1 -11c0 -40 -13.667 -62.333 -41 -67c-12 -2 -149.667 -3 -413 -3l-30 -1h-213l-31 -1h-100c-39.333 0 -59 11.667 -59 35v31c0 36 7.5 56.833 22.5 62.5s84.167 8.5 207.5 8.5h20l10 -1l508 1h50zM938 490
c46.667 0 70 -14.999 70 -44.999l-1 -10l-1 -21c0 -32.667 -13.667 -51.334 -41 -56.001c-16 -2.66699 -157 -4 -423 -4h-182l-40 -1h-141c-39.333 0 -59 15 -59 45v10l1 10c0 40 13.667 62.333 41 67c16 2.66699 156 4 420 4l306 1h50z" />
    <glyph glyph-name="greater" unicode="&#x3e;" horiz-adv-x="1081" 
d="M167 1101c14.667 0 44.667 -13.5039 90 -40.5039l341 -197.5c182 -104.667 292.167 -169.667 330.5 -195s57.5 -52.333 57.5 -81c0 -24 -68.667 -76.333 -206 -157c-392 -230.667 -596 -346 -612 -346h-13c-16.667 0 -25 17.833 -25 53.5s23.167 70.334 69.5 104.001
s153.5 98.834 321.5 195.501s252 148 252 154s-80.667 56.333 -242 151s-267.333 159.834 -318 195.501s-76 71.834 -76 108.501s10 55 30 55z" />
    <glyph glyph-name="question" unicode="?" horiz-adv-x="938" 
d="M840 1101l-0.000976562 -38.998c0 -67.333 -17.667 -126.833 -53 -178.5s-86.666 -106.5 -153.999 -164.5s-108.5 -96.833 -123.5 -116.5s-23.833 -39.834 -26.5 -60.501s-4.83398 -45.167 -6.50098 -73.5s-4.5 -46.5 -8.5 -54.5c-8.66699 -18 -26.167 -27 -52.5 -27
s-47.5 16.167 -63.5 48.5s-24 75.5 -24 129.5s14.667 104 44 150c6.66699 11.333 39.5 50 98.5 116s96.667 116 113 150s24.5 74.833 24.5 122.5s-16.5 85.167 -49.5 112.5s-76 41 -129 41s-98.833 -20.333 -137.5 -61c-54.667 -57.333 -94.667 -86 -120 -86
c-48.667 0 -73 28 -73 84v18c0 65.333 27.333 114.666 82 147.999c68.667 42 147.334 63 236.001 63h20c112.667 0 209 -31.667 289 -95c34 -27.333 61.5 -62.5 82.5 -105.5s31.5 -83.5 31.5 -121.5zM412.999 -29.998h-8.99902c-32 0 -62 11.667 -90 35
s-42 53.666 -42 90.999v18c0 34.667 14.333 64 43 88s56.667 36 84 36h27c35.333 0 64.666 -14 87.999 -42s35 -55.667 35 -83v-14c0 -37.333 -14.667 -68.166 -44 -92.499s-60 -36.5 -92 -36.5z" />
    <glyph glyph-name="at" unicode="@" horiz-adv-x="1761" 
d="M1036 729c0 38 -9.33301 67.333 -28 88s-45 31 -79 31h-7l-8 -1c-22 0 -53.5 -11 -94.5 -33s-74.833 -54 -101.5 -96c-48 -74.667 -72 -158 -72 -250l1 -8c0 -68.667 8.5 -121.334 25.5 -158.001s40.833 -55 71.5 -55h22c18.667 0 47 11 85 33s69.667 51 95 87
c56 80.667 84 164.334 84 251.001c2 16 3 26.667 3 32l3 48v31zM1290 -40c19.333 0 29.0049 -10.998 29.0049 -32.998c0 -30 -52.333 -62.667 -157 -98s-210.834 -53 -318.501 -53s-208.5 18.333 -302.5 55s-171.5 86 -232.5 148s-111 136.5 -150 223.5
s-58.5 176.833 -58.5 269.5v61c0 98 20 195.667 60 293c79.333 194 216 333 410 417c113.333 49.333 228 74 344 74c260 0 453.667 -88 581 -264c75.333 -104 113.333 -236.667 114 -398c0 -71.333 -15 -139.666 -45 -204.999c-56 -124 -138 -210 -246 -258
c-44 -19.333 -86.5 -29 -127.5 -29s-79.167 7.66699 -114.5 23l-75 35l-34 11c-16 0 -53.833 -10.167 -113.5 -30.5s-111.834 -30.5 -156.501 -30.5s-88.667 21 -132 63s-65 103 -65 183s14 156.167 42 228.5s64.667 130.166 110 173.499s86.5 70.833 123.5 82.5
s105.167 17.5 204.5 17.5s156.166 -10.833 170.499 -32.5s21.5 -57.834 21.5 -108.501s-1 -94.667 -3 -132l-9 -170c0 -63.333 9.5 -108.5 28.5 -135.5s41.667 -40.5 68 -40.5s52.666 10 78.999 30s49.166 47 68.499 81c40.667 71.333 61 153.666 61 246.999
c0 162 -49.667 290.333 -149 385c-105.333 100 -242 150 -410 150c-82.667 0 -162.167 -15.5 -238.5 -46.5s-143.166 -74.5 -200.499 -130.5s-105 -125.167 -143 -207.5s-57 -169.833 -57 -262.5c0 -208 60.167 -369.167 180.5 -483.5s281.166 -171.5 482.499 -171.5
c57.333 0 114.333 6.33301 171 19l52 14l50 16c43.333 13.333 72.333 20 87 20z" />
    <glyph glyph-name="A" unicode="A" horiz-adv-x="1448" 
d="M857 593l0.000976562 5.99902c0 62.667 -53.667 219.334 -161 470.001c-18.667 43.333 -28.334 65 -29.001 65l-29 -67c-110.667 -258 -166 -414.667 -166 -470c0 -9.33301 5.83301 -14.333 17.5 -15s20.5 -1 26.5 -1l78 -2h71l7 1c123.333 0 185 4.33301 185 13z
M23.001 59.999c0 16.667 18.999 35.9951 56.999 57.9951s66 50 84 84s43.333 95.5 76 184.5s77.167 201.167 133.5 336.5s101 256.833 134 364.5s55.5 175.834 67.5 204.501c27.333 65.333 66 98 116 98h28c12.667 0 28.334 -7 47.001 -21c38 -28.667 77.667 -90 119 -184
c14 -32 35 -86.833 63 -164.5l168 -455.5c84 -226 131 -349 141 -369c16.667 -34.667 45 -62.5 85 -83.5s60 -37.833 60 -50.5c0 -28 -16.667 -45.333 -50 -52c-22.667 -4.66699 -80 -7 -172 -7l-58 -1c-123.333 0 -185 16.667 -185 50c0 6 7.83301 20.333 23.5 43
s23.5 51.334 23.5 86.001s-12.5 84.334 -37.5 149.001s-46 104.667 -63 120s-89.5 23 -217.5 23s-202.667 -7 -224 -21s-44.333 -51.667 -69 -113s-37 -111.166 -37 -149.499s11.833 -72.166 35.5 -101.499s35.5 -44.666 35.5 -45.999c0 -24 -40.833 -36 -122.5 -36
s-145.667 3.16699 -192 9.5s-69.5 21.166 -69.5 44.499z" />
    <glyph glyph-name="B" unicode="B" horiz-adv-x="1321" 
d="M538 1281c-30 0 -48.333 -11.332 -55 -33.999c-4 -14 -6 -77 -6 -189v-194c0 -41.333 3.66699 -66.833 11 -76.5s30 -14.5 68 -14.5h42l9 1l60 3c6 0.666992 11.667 1 17 1c64 0 117.667 23.667 161 71s65 104.666 65 171.999v27c0 68.667 -23.5 124.5 -70.5 167.5
s-104.5 64.5 -172.5 64.5l-18 2l-26 1h-60c-10.667 -1.33301 -19 -2 -25 -2zM658 670.001h-86.001c-51.333 0 -80.166 -7 -86.499 -21s-9.5 -56.333 -9.5 -127v-287c0 -62 7.5 -99.833 22.5 -113.5s56.833 -20.5 125.5 -20.5h59c88 0 159.333 23.167 214 69.5
s82 107.5 82 183.5v52c0 82 -30 146.5 -90 193.5s-137 70.5 -231 70.5zM634.999 1390c237.333 0 389.665 -62.3311 456.998 -186.998c24 -44 36 -94.5 36 -151.5s-13.5 -107.167 -40.5 -150.5s-51 -73.5 -72 -90.5s-42.333 -32 -64 -45s-32.5 -21.5 -32.5 -25.5
s26.833 -19.5 80.5 -46.5s96.167 -58.833 127.5 -95.5c56 -66.667 84 -135.334 84 -206.001v-26c0 -117.333 -48 -210.666 -144 -279.999c-34.667 -25.333 -83.167 -47.5 -145.5 -66.5s-136.5 -28.5 -222.5 -28.5h-106l-26 1c-17.333 0.666992 -35 1 -53 1l-26 1
c-17.333 0.666992 -34.666 1 -51.999 1l-26 1c-17.333 0.666992 -34.666 1 -51.999 1h-77c-116 0 -174 11.167 -174 33.5s17.833 43.333 53.5 63s59 53.334 70 101.001s16.5 158.834 16.5 333.501v329l-2 104c-0.666992 17.333 -1 58.666 -1 123.999
s-6.16699 111.166 -18.5 137.499s-36.833 48.166 -73.5 65.499s-55 32.666 -55 45.999c0 19.333 9.33301 32.5 28 39.5s76 10.5 172 10.5l232 6h106z" />
    <glyph glyph-name="C" unicode="C" horiz-adv-x="1361" 
d="M769 1403l33.9971 0.000976562c46.667 0 100.334 -5.83301 161.001 -17.5s108.334 -18.5 143.001 -20.5s62 -8.66699 82 -20c38.667 -22 58 -79 58 -171s-17.333 -138 -52 -138c-11.333 0 -39.333 25.5 -84 76.5s-87.334 87.5 -128.001 109.5
c-72 38.667 -152.667 58 -242 58c-51.333 0 -103 -14 -155 -42c-156.667 -83.333 -235 -264.666 -235 -543.999c0.666992 -173.333 41 -313.333 121 -420s191.333 -160 334 -160c122 0 225.333 40.333 310 121c52.667 50 86.334 75 101.001 75c28 0 42 -20.333 42 -61
c0 -20.667 -13 -53 -39 -97s-55 -75 -87 -93c-90 -50 -207 -75 -351 -75h-35c-80.667 0 -162.334 14.667 -245.001 44c-167.333 59.333 -284.666 176.666 -351.999 351.999c-34.667 91.333 -52 191.166 -52 299.499s17.333 207.833 52 298.5c70 184 188.667 309 356 375
c84.667 33.333 172.334 50 263.001 50z" />
    <glyph glyph-name="D" unicode="D" horiz-adv-x="1509" 
d="M654 1287l-47.999 -0.000976562c-73.333 0 -114 -14.667 -122 -44c-4 -14 -6 -113 -6 -297v-374l-1 -49v-50l-1 -49v-50l-1 -65v-49c0 -69.333 9.66699 -112.166 29 -128.499s66.333 -24.5 141 -24.5l16 1c139.333 0 250.666 46 333.999 138c42 46 75 106.167 99 180.5
s36 149.833 36 226.5v72c0 71.333 -10.667 144.333 -32 219c-44 150.667 -131 253.667 -261 309c-52.667 22.667 -113.667 34 -183 34zM632.001 1395h52.001c334 -0.666992 553.667 -131 659 -391c34.667 -85.333 52 -175.666 52 -270.999v-28
c0 -110.667 -18.333 -210 -55 -298c-72 -172 -198.667 -293 -380 -363c-83.333 -32 -175.333 -48 -276 -48h-75l-25 1l-51 1c-16.667 0.666992 -33.667 1 -51 1l-147 3c-149.333 0 -224 11 -224 33s14.333 40.333 43 55c49.333 25.333 77.666 45.333 84.999 60
c16 30.667 24 100.667 24 210v474l-2 127l-2 101c0 89.333 -7.83301 146 -23.5 170s-40.667 43.167 -75 57.5s-51.5 32.166 -51.5 53.499c0 25.333 51 38 153 38l96 2l24 2l24 1c144 6 219.333 9 226 9z" />
    <glyph glyph-name="E" unicode="E" 
d="M947 1393c119.333 0 178.998 -66.998 178.998 -200.998c0 -35.333 -7.66699 -53 -23 -53c-8.66699 0 -29.167 9.83301 -61.5 29.5s-59.166 33.167 -80.499 40.5c-94.667 32.667 -178.667 49 -252 49s-123.666 -18 -150.999 -54c-38 -50 -57 -142 -57 -276
c0 -48 16.333 -83.667 49 -107s70.167 -35 112.5 -35s85.333 14.5 129 43.5s65.834 43.5 66.501 43.5c33.333 0 56.166 -13 68.499 -39s18.5 -68.333 18.5 -127c0 -103.333 -23.667 -155 -71 -155c-12.667 0 -39 16.167 -79 48.5s-82.333 48.5 -127 48.5
c-76.667 0 -127.667 -16.333 -153 -49c-16.667 -21.333 -25 -85.333 -25 -192s19 -184.667 57 -234c21.333 -27.333 72.333 -41 153 -41s174.667 17.333 282 52c30 9.33301 54 20.333 72 33l55 40.5c18.667 14.333 30.334 21.5 35.001 21.5c22.667 0 34 -11.333 34 -34v-32
c0 -51.333 -8.83301 -93.5 -26.5 -126.5s-33.834 -54.167 -48.501 -63.5c-27.333 -17.333 -136 -26 -326 -26h-132l-44 1c-251.333 0 -396.333 2.83301 -435 8.5s-58 20.5 -58 44.5c0 15.333 18 34.666 54 57.999s59.333 52.666 70 87.999s16 173.666 16 414.999l4 391
c0 128 -8 207.333 -24 238c-7.33301 14 -28 30 -62 48s-51 34 -51 48c0 26.667 21.667 43.334 65 50.001c18 2.66699 159.667 4 425 4l300 1h42z" />
    <glyph glyph-name="F" unicode="F" horiz-adv-x="1195" 
d="M973 1396c54 0 93.5029 -13.1699 118.503 -39.5029s37.5 -82.833 37.5 -169.5c0 -48.667 -11 -73 -33 -73c-2.66699 0 -24 15.833 -64 47.5s-74 53.167 -102 64.5c-69.333 27.333 -155.333 41 -258 41c-64.667 0 -110 -21 -136 -63s-39 -125.333 -39 -250
c0 -70 12.667 -117.667 38 -143s63.166 -38 113.499 -38s98.666 14 144.999 42s70.833 42 73.5 42c24.667 0 42.167 -11.333 52.5 -34s15.5 -59.334 15.5 -110.001c0 -112 -28 -168 -84 -168c-9.33301 0 -33.5 10.167 -72.5 30.5s-67.5 30.5 -85.5 30.5
c-64 0 -112.167 -12.5 -144.5 -37.5s-48.5 -75.5 -48.5 -151.5s6.66699 -142 20 -198s24 -91.333 32 -106s17.5 -30 28.5 -46s16.5 -27.333 16.5 -34c0 -24.667 -45 -37 -135 -37h-35l-35 1c-182 0 -273 18.333 -273 55c0 18.667 17.667 39.334 53 62.001
c36 22.667 58 46.667 66 72s12 86.666 12 183.999v200l3 107l1 108v109c0 154.667 -6 252.834 -18 294.501s-28.333 69.834 -49 84.501c-50.667 36.667 -76 58.334 -76 65.001c0 22.667 13.667 37.334 41 44.001c17.333 4 73.666 6 168.999 6l251 5l109 3h292z" />
    <glyph glyph-name="G" unicode="G" horiz-adv-x="1469" 
d="M786 1402c190.667 0 328 -15.6611 412 -46.9941c18.667 -6.66699 36.667 -22.334 54 -47.001s26 -67.334 26 -128.001s-11 -100.334 -33 -119.001l-20 -11c-18 0 -47.667 23.333 -89 70c-96 106.667 -211.333 160 -346 160c-134 0 -241.333 -52.333 -322 -157
c-80 -104.667 -120 -244 -120 -418c0 -173.333 42 -314.666 126 -423.999c84 -110 194.333 -165 331 -165c88.667 0 153 18.667 193 56s60 111.333 60 222c0 42.667 -10 80 -30 112c-5.33301 8.66699 -18.5 23.167 -39.5 43.5s-31.5 33.166 -31.5 38.499
c0 28.667 65.667 43 197 43c84 0 139.667 -4.5 167 -13.5s41 -25.833 41 -50.5c0 -4.66699 -8.66699 -19.834 -26 -45.501s-27.333 -42.834 -30 -51.501s-8.16699 -65.834 -16.5 -171.501s-20 -169.167 -35 -190.5s-52.167 -41 -111.5 -59
c-151.333 -46.667 -263 -70 -335 -70h-40c-93.333 0 -181.333 16.167 -264 48.5s-153 77.5 -211 135.5s-104.667 132.667 -140 224s-53 185 -53 281v43c0 94 18.667 187 56 279c70 172 186.667 291 350 357c90.667 36.667 184 55 280 55z" />
    <glyph glyph-name="H" unicode="H" horiz-adv-x="1610" 
d="M1506 37c0 -28 -48.001 -41.9971 -144.001 -41.9971h-48l-49 1c-89.333 0 -151 3.33301 -185 10s-51 21 -51 43c0 6 11.167 22 33.5 48s39.166 60.667 50.499 104s17 119.666 17 228.999s-11.833 174.833 -35.5 196.5s-118.667 32.5 -285 32.5s-263.166 -13 -290.499 -39
c-18 -16.667 -27 -83 -27 -199s4.16699 -192 12.5 -228s19.5 -64 33.5 -84l20 -23c20.667 -23.333 31 -37 31 -41c0 -24 -21 -38.333 -63 -43c-18.667 -2 -93.5 -3 -224.5 -3s-196.5 15 -196.5 45c0 16 25.667 41 77 75c34 22.667 54.333 53.167 61 91.5
s10 198.833 10 481.5s-5 446.334 -15 491.001s-34.833 78.5 -74.5 101.5s-59.5 44.167 -59.5 63.5c0 26 83.333 39 250 39h97c93.333 0 140 -15.667 140 -47c0 -2.66699 -11.333 -18.167 -34 -46.5s-38.5 -63 -47.5 -104s-13.5 -108.167 -13.5 -201.5s11 -150.333 33 -171
s115.5 -31 280.5 -31s259.167 11.333 282.5 34c16.667 16 25 75.167 25 177.5s-3.5 167.5 -10.5 195.5s-17.833 51.667 -32.5 71l-21 23c-20.667 22 -31 36.667 -31 44c0 25.333 18.333 40.333 55 45s118.334 7 245.001 7s190 -13.667 190 -41
c0 -20.667 -12 -39.334 -36 -56.001c-54 -36.667 -83.333 -60.334 -88 -71.001c-11.333 -26 -17 -152 -17 -378l-7 -494c0 -92.667 5 -152.334 15 -179.001s26.667 -47 50 -61c51.333 -31.333 77 -53.333 77 -66z" />
    <glyph glyph-name="I" unicode="I" horiz-adv-x="766" 
d="M651 1351c0 -12.667 -19.168 -31.333 -57.501 -56s-62 -58.167 -71 -100.5s-13.5 -210 -13.5 -503s5.5 -460.667 16.5 -503s35.333 -74 73 -95s56.5 -40.5 56.5 -58.5c0 -24.667 -30.333 -37 -91 -37l-22 1l-46 1c-15.333 0.666992 -30.666 1 -45.999 1l-44 2h-135
c-108.667 0 -163 9.66699 -163 29v14c0 12.667 21.5 31.5 64.5 56.5s69.833 60.333 80.5 106s16 208.667 16 489s-6.33301 444 -19 491s-32.667 77.833 -60 92.5c-54.667 30 -82 52.667 -82 68c0 26 103 39 309 39l110 2h65c39.333 0 59 -13 59 -39z" />
    <glyph glyph-name="J" unicode="J" horiz-adv-x="828" 
d="M369 987c0 102 -9.66602 176.332 -28.999 222.999c-10.667 25.333 -34.5 50.833 -71.5 76.5s-55.5 47.167 -55.5 64.5c0 20.667 55.333 31 166 31c10.667 0 29.5 0.833008 56.5 2.5s48.167 2.83398 63.5 3.50098l49 3c32.667 2 57.334 3 74.001 3h25
c44 0 66 -13.667 66 -41c0 -8.66699 -12.333 -24.834 -37 -48.501s-41.834 -48.667 -51.501 -75s-14.5 -91.833 -14.5 -196.5l-2 -51l-1 -76v-78c-1.33301 -34.667 -2 -62.667 -2 -84v-71l-1 -52v-166c0 -93.333 -5.66699 -179.666 -17 -258.999
c-26 -180.667 -109.333 -308.667 -250 -384c-59.333 -32 -118.333 -48 -177 -48c-107.333 0 -161 26.667 -161 80c0 31.333 11 57.333 33 78s56.333 31 103 31l59 -4c27.333 0 51.666 10.167 72.999 30.5s43.333 64.666 66 132.999s34 183.5 34 345.5l4 150v304l-1 25
c-0.666992 16.667 -1 33.334 -1 50.001z" />
    <glyph glyph-name="K" unicode="K" horiz-adv-x="1458" 
d="M574 627c-53.333 0 -80.001 -76.334 -80.001 -229.001c0 -80 6 -142.167 18 -186.5s22 -73.5 30 -87.5l18 -24c16 -22 24 -36 24 -42c0 -22.667 -16.667 -38 -50 -46s-112.333 -12 -237 -12s-187 13 -187 39c0 17.333 19.333 39.333 58 66s62.5 66.167 71.5 118.5
s13.5 209.5 13.5 471.5s-5.16699 418.5 -15.5 469.5s-28.166 89.5 -53.499 115.5l-24 22c-28 25.333 -42 40.333 -42 45c0 34.667 62.667 52 188 52l45 -1h47c130.667 0 196 -14 196 -42c0 -13.333 -10.5 -33.333 -31.5 -60s-33.833 -49 -38.5 -67
c-17.333 -63.333 -26 -180.666 -26 -351.999c0 -70.667 13.333 -106 40 -106c10.667 0 30.334 11.333 59.001 34c65.333 51.333 142.333 130.5 231 237.5s133 181.167 133 222.5l-2 27l-6 25l-5 24c0 21.333 12.333 35.333 37 42s75.334 10 152.001 10
c117.333 0 176 -16.667 176 -50c0 -8 -33.833 -36.167 -101.5 -84.5s-131.5 -104.5 -191.5 -168.5c-144.667 -154 -217 -255.333 -217 -304c0 -26.667 108.667 -181.667 326 -465c54 -70 111.667 -131.5 173 -184.5s92 -83.5 92 -91.5c0 -30.667 -62.667 -46 -188 -46h-44
c-68.667 0 -114.334 10.5 -137.001 31.5s-41.334 50.5 -56.001 88.5c-31.333 81.333 -94 186.333 -188 315s-163 193 -207 193z" />
    <glyph glyph-name="L" unicode="L" horiz-adv-x="1219" 
d="M751 -2l-30 0.000976562l-30 1h-149c-236.667 0 -364.334 1.66699 -383.001 5c-34.667 6 -52 20.667 -52 44c0 10 18.167 27.667 54.5 53s60 61.833 71 109.5s16.5 222.834 16.5 525.501s-3.83301 467.167 -11.5 493.5s-27.167 46.166 -58.5 59.499
c-49.333 21.333 -74 44 -74 68s37.333 36 112 36h60l29 -1l90 -1c161.333 0 242 -12 242 -36c0 -8 -23.667 -35 -71 -81c-26.667 -26 -45.834 -70.5 -57.501 -133.5s-17.5 -230.833 -17.5 -503.5s4.16699 -421.667 12.5 -447s27.833 -43 58.5 -53
c18.667 -6 55.334 -9 110.001 -9c118 0 206.333 15.333 265 46c33.333 17.333 69.333 53 108 107s68.834 81 90.501 81s32.5 -14 32.5 -42v-26c0 -146.667 -18 -236.334 -54 -269.001c-20 -18 -141.333 -27 -364 -27z" />
    <glyph glyph-name="M" unicode="M" horiz-adv-x="1913" 
d="M951 428c9.33301 0 74 129.503 194 388.503s194 409.833 222 452.5s60.333 71.5 97 86.5s95.167 22.5 175.5 22.5s120.5 -18.667 120.5 -56l-24 -30l-31 -33c-20 -26 -34.167 -56.167 -42.5 -90.5s-12.5 -90.833 -12.5 -169.5c0 -334.667 8.66699 -578.667 26 -732
c6.66699 -60 28.334 -107.167 65.001 -141.5s55 -57.166 55 -68.499l-25 -18c-32 -14.667 -95 -22 -189 -22s-153 12.333 -177 37l-10 22c0 19.333 7.33301 59.166 22 119.499s22 120.5 22 180.5c0 437.333 -14 656 -42 656c-14 0 -77.667 -135.333 -191 -406
s-182.833 -429.5 -208.5 -476.5s-59.5 -70.5 -101.5 -70.5c-29.333 0 -109.5 160.167 -240.5 480.5s-207.833 480.5 -230.5 480.5c-18.667 0 -28 -163.667 -28 -491c0 -145.333 2.33301 -234.666 7 -267.999s12.5 -73.333 23.5 -120s16.5 -77.667 16.5 -93
s-10.333 -28 -31 -38s-47.334 -15 -80.001 -15h-55c-110 0 -165 14 -165 42c0 14 18.833 37.167 56.5 69.5s59.667 60.333 66 84s14.833 143.667 25.5 360s16 363.166 16 440.499s-4.66699 131.166 -14 161.499s-30.833 62.166 -64.5 95.499s-50.5 58.666 -50.5 75.999
c0 21.333 61.667 32 185 32c47.333 0 88.333 -6.5 123 -19.5s68.834 -44 102.501 -93s104.167 -200.5 211.5 -454.5s167.666 -381 180.999 -381z" />
    <glyph glyph-name="N" unicode="N" horiz-adv-x="1588" 
d="M1353 246c0 -114.667 -3.66797 -181.502 -11.001 -200.502s-23.666 -28.5 -48.999 -28.5c-54.667 0 -123.667 50 -207 150l-30 37c-63.333 80.667 -124.833 165 -184.5 253l-122.5 179c-205.333 286 -317 429 -335 429c-14 0 -21 -117 -21 -351s9.66699 -399.333 29 -496
c6.66699 -34.667 21.167 -68.5 43.5 -101.5s33.5 -55.167 33.5 -66.5c0 -28.667 -67.667 -43 -203 -43h-46c-94.667 0 -142 12 -142 36s20.5 47.5 61.5 70.5s66.833 54.333 77.5 94s16 179.5 16 419.5l3 149l-1 146c0 142 -8.66699 235 -26 279c-8 20.667 -31 45.5 -69 74.5
s-57 46.167 -57 51.5c0 35.333 36.167 53 108.5 53s129.5 -8.66699 171.5 -26s79.167 -41.333 111.5 -72s102.333 -117.5 210 -260.5l223.5 -301.5l85 -116c102 -139.333 156.333 -209 163 -209c21.333 0 32 116.333 32 349s-4.5 373 -13.5 421s-28 87.833 -57 119.5
s-43.5 48.834 -43.5 51.501c0 32.667 35.667 49 107 49h95c84.667 0 140.667 -6.33301 168 -19c16 -7.33301 24 -21.666 24 -42.999c0 -2 -25.333 -28 -76 -78c-27.333 -26.667 -45.333 -60.667 -54 -102s-13 -185.333 -13 -432l-2 -195v-270z" />
    <glyph glyph-name="O" unicode="O" horiz-adv-x="1536" 
d="M343 740l-0.00292969 -53.998c0 -174 38.333 -319.333 115 -436c34.667 -52.667 77.834 -94.334 129.501 -125.001s104.834 -46 159.501 -46h16c118.667 0 213.667 55.333 285 166c28 42.667 52 99.667 72 171s30 147.333 30 228v55
c0 88.667 -11.333 172.334 -34 251.001c-113.333 193.333 -238.333 311.666 -375 354.999c-49.333 -0.666992 -98.666 -12.334 -147.999 -35.001c-102.667 -48 -174.667 -144.667 -216 -290c-22.667 -80.667 -34 -160.667 -34 -240zM1424 730.002v-47.002
c0 -90.667 -16 -181 -48 -271c-66 -185.333 -183.333 -314 -352 -386c-86 -36.667 -172.333 -55 -259 -55h-47c-86 0 -166.5 17.333 -241.5 52s-139.833 80.167 -194.5 136.5s-98.834 130.5 -132.501 222.5s-50.5 183.333 -50.5 274v47c0 92.667 16 183.834 48 273.501
s77 166.5 135 230.5s128.333 114 211 150s168.334 54 257.001 54h23c190 0 342.667 -59.667 458 -179c57.333 -59.333 103.833 -134.666 139.5 -225.999s53.5 -183.333 53.5 -276z" />
    <glyph glyph-name="P" unicode="P" horiz-adv-x="1277" 
d="M487 1144l-0.000976562 -379c0 -46.667 6.33301 -76.834 19 -90.501s43.667 -20.5 93 -20.5h47c88 0 159.167 27.167 213.5 81.5s81.5 128.833 81.5 223.5v33c0 96.667 -29 171.667 -87 225s-137.333 80 -238 80h-9c-57.333 0 -91.666 -7.66699 -102.999 -23
s-17 -58.666 -17 -129.999zM586.999 1403l107 0.000976562c236 0 388.667 -71 458 -213c26 -53.333 39 -112.333 39 -177v-28v-2c0 -126.667 -55.667 -229 -167 -307c-79.333 -55.333 -202 -89.333 -368 -102c-70.667 -5.33301 -113.334 -16.333 -128.001 -33
c-23.333 -26 -35 -88.5 -35 -187.5s10.333 -163.167 31 -192.5c10 -14 32.5 -31.5 67.5 -52.5s52.5 -37.167 52.5 -48.5c0 -35.333 -43 -53 -129 -53h-253c-96.667 0 -145 16 -145 48c0 20 17.667 40.667 53 62s58 43.833 68 67.5s15 84.834 15 183.501l1 25
c0.666992 17.333 1 34.666 1 51.999v52l1 52v130l-1 52c0 254 -5.16699 406.167 -15.5 456.5s-32.333 85.166 -66 104.499s-50.5 37.5 -50.5 54.5s9.33301 29.5 28 37.5s75.334 12 170.001 12l106 2l79 3c35.333 1.33301 62.333 2 81 2z" />
    <glyph glyph-name="Q" unicode="Q" horiz-adv-x="1569" 
d="M323 749v-72.998c0 -164.667 45.333 -307.334 136 -428.001c35.333 -46 79 -83 131 -111s108 -42 168 -42c125.333 0 229 56.667 311 170c74 101.333 111 232.666 111 393.999v55c0 84 -11.333 164 -34 240c-48 160 -127.667 266.667 -239 320
c-51.333 24.667 -107.666 37 -168.999 37s-118 -14 -170 -42c-100.667 -54 -171.334 -152.333 -212.001 -295c-22 -78 -33 -153 -33 -225zM1134 -12.998c0 -23.333 28.501 -49.498 85.501 -78.498s124.667 -52.333 203 -70s117.5 -37.834 117.5 -60.501
s-16.833 -42.167 -50.5 -58.5s-75.5 -24.5 -125.5 -24.5h-28c-71.333 0 -170 27.333 -296 82c-375.333 162.667 -606.166 277.834 -692.499 345.501s-153.5 154.5 -201.5 260.5s-72 213.667 -72 323c0 215.333 60.333 388 181 518
c59.333 63.333 130.166 112.166 212.499 146.499s168.833 51.5 259.5 51.5h30c85.333 0 170 -18.167 254 -54.5s156 -86.833 216 -151.5c114 -122.667 171 -283.667 171 -483c0 -148.667 -18.333 -280.334 -55 -395.001c-32.667 -100.667 -88.334 -194.667 -167.001 -282
c-28 -31.333 -42 -54.333 -42 -69z" />
    <glyph glyph-name="R" unicode="R" horiz-adv-x="1398" 
d="M473 1144v-335c0 -48.667 5.5 -77.834 16.5 -87.501s34.5 -14.5 70.5 -14.5h43c99.333 0 176 24.833 230 74.5s81 114.834 81 195.501v41c0 82.667 -26.5 148.167 -79.5 196.5s-122.167 72.5 -207.5 72.5h-62c-42 0 -67.833 -6.83301 -77.5 -20.5
s-14.5 -54.5 -14.5 -122.5zM653 1392c242 0 397.668 -73.999 467.001 -221.999c18.667 -40 28 -90 28 -150c0 -112 -50.333 -209.667 -151 -293c-56 -46.667 -84 -85.667 -84 -117c0 -9.33301 33 -69.833 99 -181.5s114.167 -186.5 144.5 -224.5
s68.166 -66.167 113.499 -84.5s68 -35.5 68 -51.5c0 -47.333 -51.667 -71 -155 -71c-75.333 0 -131.666 18.333 -168.999 55c-26 25.333 -78 107.666 -156 246.999s-122 215.333 -132 228c-35.333 44.667 -89 67 -161 67c-30.667 0 -51.667 -13.833 -63 -41.5
s-17 -89.5 -17 -185.5s6.5 -159.667 19.5 -191s32.833 -61.166 59.5 -89.499s40 -44.833 40 -49.5c0 -22.667 -42.333 -34 -127 -34l-34 1l-33 2c-14.667 0.666992 -37.334 1 -68.001 1c-156.667 0 -235 13.333 -235 40s11 46.667 33 60c56 34.667 86 55.667 90 63
c15.333 28 23 105 23 231l2 70l1 70v70l-2 104c0 271.333 -6.5 430 -19.5 476s-36.333 79.167 -70 99.5s-50.5 38.166 -50.5 53.499c0 26.667 53.333 40 160 40l34 1c23.333 0.666992 46.333 1 69 1l206 6h70z" />
    <glyph glyph-name="S" unicode="S" horiz-adv-x="1148" 
d="M568.5 1296c-68.333 0 -124.166 -17.834 -167.499 -53.501s-65 -85.667 -65 -150s32.333 -121.166 97 -170.499c38.667 -30 117.667 -70.667 237 -122s202.333 -98.666 249 -141.999c89.333 -82.667 134 -168.667 134 -258v-36c0 -110.667 -44 -200.667 -132 -270
c-40.667 -32 -91.334 -57.5 -152.001 -76.5s-121.334 -28.5 -182.001 -28.5h-37c-137.333 0 -257.666 20.667 -360.999 62c-46.667 18.667 -70 69.667 -70 153v35c0 98.667 17 148 51 148c23.333 0 55 -31.667 95 -95s86.167 -111 138.5 -143s115.5 -48 189.5 -48
s133.667 19.5 179 58.5s68 87.167 68 144.5c0 78.667 -36.667 145 -110 199c-31.333 22.667 -110 63.167 -236 121.5s-213.333 112.833 -262 163.5c-66.667 69.333 -100 154 -100 254s35.667 183 107 249c39.333 36.667 88.333 65.167 147 85.5s118.667 30.5 180 30.5h37
c25.333 0 61.333 -4.33301 108 -13l35 -7l67 -13l31 -2l30 -1c28 -2 47.667 -5.33301 59 -10c39.333 -16 59 -71.667 59 -167s-18.667 -143 -56 -143c-18.667 0 -46.667 26.667 -84 80s-70.333 89.666 -99 108.999c-54.667 37.333 -116.167 56 -184.5 56z" />
    <glyph glyph-name="T" unicode="T" horiz-adv-x="1315" 
d="M1270 1178l0.000976562 -30.998c0 -54.667 -16.333 -82 -49 -82c-9.33301 0 -30.833 22.833 -64.5 68.5s-67.667 78.167 -102 97.5s-78.666 29 -132.999 29s-89 -6 -104 -18s-25.667 -36.333 -32 -73s-9.5 -195.667 -9.5 -477s4.83301 -443 14.5 -485
s35.167 -77.667 76.5 -107s62 -53.5 62 -72.5s-31.333 -28.5 -94 -28.5l-34 1l-66 1c-22.667 0.666992 -44.667 1 -66 1l-97 1c-84.667 0 -138.5 2.16699 -161.5 6.5s-34.5 17.833 -34.5 40.5c0 11.333 21.5 30.666 64.5 57.999s70 63.5 81 108.5s16.5 213.5 16.5 505.5
s-4 452.333 -12 481c-10.667 37.333 -47.834 56 -111.501 56s-112.834 -10.167 -147.501 -30.5s-68 -54.5 -100 -102.5s-61.333 -72 -88 -72c-20 0 -30 18.333 -30 55v30c0 143.333 12.333 223.666 37 240.999c9.33301 6.66699 206.333 10 591 10l476 2c50 0 82 -13 96 -39
s21 -84.333 21 -175z" />
    <glyph glyph-name="U" unicode="U" horiz-adv-x="1520" 
d="M226 781.5c0 223.667 -3.66699 355.5 -11 395.5s-24.333 68 -51 84c-55.333 33.333 -83 59.333 -83 78s11.833 32 35.5 40s83.834 12 180.501 12h152c74 0 111 -15 111 -45c0 -1.33301 -12.5 -17.5 -37.5 -48.5s-41.833 -75.667 -50.5 -134s-13 -180.166 -13 -365.499
s4.66699 -312 14 -380c28 -202.667 140.667 -304.334 338 -305.001c129.333 0 223 45.333 281 136c48.667 74.667 73 204.334 73 389.001l2 82v214c0 102 -6.16699 177.833 -18.5 227.5s-30.666 93.167 -54.999 130.5s-36.5 57 -36.5 59c0 25.333 49 38 147 38
s164 -3.33301 198 -10s51 -25.334 51 -56.001c0 -15.333 -20 -34.666 -60 -57.999s-64.667 -48.833 -74 -76.5s-14 -133.834 -14 -318.501l2 -241c-0.666992 -130.667 -8.33398 -229.667 -23.001 -297c-14.667 -68 -45 -129.333 -91 -184
c-89.333 -106.667 -234.333 -160 -435 -160s-347.334 61 -440.001 183c-44 57.333 -71.667 127.333 -83 210c-6 43.333 -9 176.833 -9 400.5z" />
    <glyph glyph-name="V" unicode="V" horiz-adv-x="1438" 
d="M30 1335c0 25.333 14.333 40.5 43 45.5s106.667 7.5 234 7.5s191 -14.667 191 -44c0 -10.667 -6.66699 -26.834 -20 -48.501s-20 -46.667 -20 -75s12 -79.833 36 -154.5c99.333 -308.667 169.166 -513 209.499 -613s63.5 -150 69.5 -150c12.667 0 34 35.667 64 107
c92.667 220.667 166 428.667 220 624c22 79.333 33 132.5 33 159.5s-4.33301 49 -13 66s-18.667 34.167 -30 51.5s-17 29.666 -17 36.999c0 28.667 54.667 43 164 43h69c103.333 0 155 -13.667 155 -41c0 -23.333 -21.333 -48.666 -64 -75.999
s-70.834 -53.666 -84.501 -78.999s-79.5 -193.833 -197.5 -505.5s-194.167 -506.167 -228.5 -583.5s-74.333 -116 -120 -116s-87.167 39.667 -124.5 119c-1.33301 2 -68.666 179.5 -201.999 532.5s-207.666 542 -222.999 567s-35.333 45.167 -60 60.5c-56 34 -84 56 -84 66z
" />
    <glyph glyph-name="W" unicode="W" horiz-adv-x="2059" 
d="M233.5 1380c53.667 0 96.501 -6.00098 128.501 -18.001c60 -21.333 97 -79.666 111 -174.999c6.66699 -48.667 27.5 -147.334 62.5 -296.001s64.667 -257.834 89 -327.501s53.166 -104.5 86.499 -104.5s70.5 68 111.5 204s61.5 258 61.5 366
c0 34.667 -3.66699 67.334 -11 98.001l-12 41l-10 39c0 48.667 18.833 85.834 56.5 111.501s82.667 38.5 135 38.5s98.666 -15.5 138.999 -46.5s60.5 -66.167 60.5 -105.5l-5 -39l-7 -39c0 -101.333 53 -295.333 159 -582c20 -54.667 42.5 -82 67.5 -82
s44.167 10.833 57.5 32.5s42.166 111.5 86.499 269.5s70 284.667 77 380s11.5 146.333 13.5 153c16.667 54 69 81 157 81c44 0 75 -7.83301 93 -23.5s27 -34.667 27 -57s-20.333 -65.5 -61 -129.5s-71.667 -127.333 -93 -190l-54 -166
c-10.667 -32 -22.334 -69.333 -35.001 -112l-34 -111c-77.333 -242.667 -128 -386 -152 -430c-38.667 -70 -80.667 -105 -126 -105c-51.333 0 -96.333 44.333 -135 133c-19.333 44.667 -57.166 157.167 -113.499 337.5s-90.833 286.5 -103.5 318.5l-19 41
c-15.333 0 -57.166 -102.5 -125.499 -307.5s-115.5 -335.833 -141.5 -392.5c-40.667 -88.667 -85.667 -133 -135 -133s-92 36 -128 108c-16 32.667 -59.5 166 -130.5 400s-116.667 379 -137 435s-50 117.333 -89 184s-58.5 108 -58.5 124s6.33301 30 19 42
c24.667 23.333 63.834 35 117.501 35z" />
    <glyph glyph-name="X" unicode="X" horiz-adv-x="1440" 
d="M86 1339c0 30.667 81.998 46.0039 245.998 46.0039l86 2c28.667 0.666992 56.334 1 83.001 1c50.667 0 76 -18 76 -54l-28 -41c-10.667 -15.333 -16 -34.333 -16 -57s35 -86 105 -190s112 -156 126 -156c10.667 0 51.834 48.667 123.501 146s107.5 166 107.5 206
c0 15.333 -7.66699 36.333 -23 63s-23 44 -23 52c0 24 51 36 153 36h42c136 0 204 -14.333 204 -43c0 -20.667 -34 -48.667 -102 -84c-41.333 -22 -83.333 -59.333 -126 -112c-173.333 -216.667 -260 -359.334 -260 -428.001c0 -8 13.333 -32.667 40 -74
c147.333 -226.667 240.5 -365.334 279.5 -416.001s73.5 -85.667 103.5 -105c60.667 -39.333 91 -67 91 -83c0 -30 -111 -45 -333 -45h-83c-45.333 0 -68 10.667 -68 32c0 11.333 6 27.166 18 47.499s18 33.166 18 38.499c0 44 -53.333 148.333 -160 313
c-47.333 73.333 -79.333 110 -96 110c-10 0 -43.667 -39.333 -101 -118c-96 -132.667 -144 -223 -144 -271c0 -19.333 7.83301 -42.5 23.5 -69.5s23.5 -41.833 23.5 -44.5c0 -25.333 -64.333 -38 -193 -38h-41c-113.333 0 -170 10.667 -170 32c0 28 30 57 90 87
c41.333 20.667 83 57 125 109c200.667 248 301 403.667 301 467c0 16 -19 52.667 -57 110c-145.333 219.333 -233.5 346.833 -264.5 382.5s-68.167 65.167 -111.5 88.5s-65 43.333 -65 60z" />
    <glyph glyph-name="Y" unicode="Y" horiz-adv-x="1359" 
d="M433 36c0 15.333 17.1709 36.333 51.5039 63s57.833 57.834 70.5 93.501s19 104.667 19 207s-28.667 205.166 -86 308.499c-135.333 244 -225.333 397.333 -270 460c-24 33.333 -56.833 61.833 -98.5 85.5s-62.5 45.5 -62.5 65.5c0 26.667 22.167 44.5 66.5 53.5
s137.166 13.5 278.499 13.5c70 0 105 -16.667 105 -50c0 -2 -5.83301 -12 -17.5 -30s-17.5 -38.667 -17.5 -62c0 -52.667 61 -186.334 183 -401.001c35.333 -62.667 57.666 -94 66.999 -94c20.667 0 68.167 67.5 142.5 202.5s111.5 225.833 111.5 272.5
c0 16 -7 38.333 -21 67s-21 44 -21 46c0 38 65.333 57 196 57h67c78.667 0 118 -13.833 118 -41.5s-18.667 -53.834 -56 -78.501c-56.667 -37.333 -95.334 -70.666 -116.001 -99.999c-62.667 -90.667 -151.334 -250.667 -266.001 -480
c-47.333 -94.667 -71 -224.667 -71 -390c0 -84 6.83301 -137 20.5 -159s36 -42.167 67 -60.5s46.5 -38.666 46.5 -60.999s-30 -33.5 -90 -33.5l-252 6c-110 0 -165 13.333 -165 40z" />
    <glyph glyph-name="Z" unicode="Z" horiz-adv-x="1278" 
d="M102 82c0 37.333 122.5 232.833 367.5 586.5s367.5 543 367.5 568s-43 37.5 -129 37.5c-146 0 -256.333 -12.667 -331 -38c-40 -13.333 -75.333 -37.666 -106 -72.999c-60.667 -69.333 -94 -104 -100 -104c-34.667 0 -52 26.333 -52 79
c0 107.333 8.83301 176.666 26.5 207.999s56.834 47 117.501 47h395l40 -1c26.667 -0.666992 53 -1 79 -1l118 -1c110.667 0 174.667 -1 192 -3c44.667 -5.33301 67 -19.666 67 -42.999c0 -42.667 -26.667 -106.334 -80 -191.001l-327.5 -491.5
c-214.333 -321.667 -321.5 -491.5 -321.5 -509.5c0 -26.667 42.667 -40 128 -40c198 0 332.333 15 403 45c42.667 18 82.167 54.167 118.5 108.5s68.166 81.5 95.499 81.5c16 0 24 -24 24 -72c0 -122 -16.333 -203 -49 -243c-20 -24.667 -74 -37 -162 -37h-272l-428 5
c-81.333 -0 -131.833 4.33301 -151.5 13s-29.5 31.667 -29.5 69z" />
    <glyph glyph-name="bracketleft" unicode="[" horiz-adv-x="691" 
d="M367 1511h176.001c50.667 0 76 -15 76 -45c0 -26.667 -21.667 -45 -65 -55c-11.333 -2.66699 -32.166 -6.5 -62.499 -11.5s-53.5 -11.5 -69.5 -19.5s-29.167 -32.833 -39.5 -74.5s-15.5 -280.167 -15.5 -715.5s6.66699 -673.833 20 -715.5s47 -67.5 101 -77.5
c80.667 -15.333 121 -37.333 121 -66s-35.333 -43 -106 -43h-151c-86.667 0 -138.834 9.16699 -156.501 27.5s-26.5 84.833 -26.5 199.5v75l1 25v50l1 25v49l1 76v75l1 76v76l1 75v51l1 50c0 513.333 3.5 786 10.5 818s20.167 52.5 39.5 61.5s66.666 13.5 141.999 13.5z" />
    <glyph glyph-name="backslash" unicode="\" horiz-adv-x="845" 
d="M45 1447c0 12.667 19.998 19 59.998 19s72 -27.167 96 -81.5s76.667 -185.833 158 -394.5l127 -326l13 -36l52.5 -134l52.5 -134l35 -89l35 -89l35 -90c2.66699 -6 5.83398 -14.167 9.50098 -24.5s18.167 -47.333 43.5 -111s38 -99.834 38 -108.501v-14
c0 -13.333 -17.333 -20 -52 -20c-45.333 0 -83.666 36.333 -114.999 109c-136.667 318.667 -318 782.334 -544 1391c-29.333 78.667 -44 118.667 -44 120v13z" />
    <glyph glyph-name="bracketright" unicode="]" horiz-adv-x="695" 
d="M85 1461c0 33.333 22 50.002 66 50.002h200c82.667 0 132.167 -11.167 148.5 -33.5s24.5 -89.833 24.5 -202.5v-100l-1 -24v-50l-1 -25v-50l-1 -76v-75l-1 -76v-75l-1 -76v-75c0 -518.667 -3.5 -792.334 -10.5 -821.001s-22 -46.5 -45 -53.5s-88.5 -10.5 -196.5 -10.5
h-99c-58 0 -87 12 -87 36v18c0 20 30.5 37.167 91.5 51.5s97.333 25.666 109 33.999s22.5 33.333 32.5 75s15 278.167 15 709.5s-4.66699 664.333 -14 699s-20.333 56.167 -33 64.5s-48.667 18.833 -108 31.5s-89 30.667 -89 54z" />
    <glyph glyph-name="asciicircum" unicode="^" horiz-adv-x="1062" 
d="M529 1188c-2 0 -51 -72 -147 -216s-157.667 -216 -185 -216h-12c-38.667 0 -58 9 -58 27c0 28 109.667 210 329 546c22 34 46.667 51 74 51h14c28.667 0 55.667 -19.667 81 -59c209.333 -320.667 314 -500 314 -538c0 -18 -19.667 -27 -59 -27h-12c-36 0 -99 72 -189 216
s-140 216 -150 216z" />
    <glyph glyph-name="underscore" unicode="_" horiz-adv-x="1091" 
d="M1043 -141l0.000976562 -22l-1 -11c0 -31.333 -5.83301 -49.5 -17.5 -54.5s-46.834 -7.5 -105.501 -7.5h-100l-11 1h-278l-45 -1h-366c-48.667 0 -73 14 -73 42v11l1 12c0 32.667 7.5 51 22.5 55s81.5 6 199.5 6h33l11 -1l558 1h78c62.667 0 94 -10.333 94 -31z" />
    <glyph glyph-name="grave" unicode="`" horiz-adv-x="712" 
d="M476 1111l-10 0.000976562c-26 0 -89.5 44.833 -190.5 134.5s-151.5 147.167 -151.5 172.5v5c0 12 8.83301 24.667 26.5 38s38.5 20 62.5 20h22c33.333 0 68.833 -21.167 106.5 -63.5s76.5 -96.833 116.5 -163.5s60 -103.334 60 -110.001v-4c0 -19.333 -14 -29 -42 -29z
" />
    <glyph glyph-name="a" unicode="a" horiz-adv-x="1064" 
d="M613 463l-17.001 -0.000976562c-87.333 0 -160.166 -19.5 -218.499 -58.5s-87.5 -87.5 -87.5 -145.5v-20c0 -34 10.5 -64.5 31.5 -91.5s48.167 -40.5 81.5 -40.5l12 -2h30c69.333 0 126 28.333 170 85c19.333 24.667 29 75.334 29 152.001v18l1 24v24
c0 36.667 -10.667 55 -32 55zM126.999 785.999c0 49.333 39.1689 93.501 117.502 132.501s159.5 58.5 243.5 58.5h8c80 0 144 -9.66699 192 -29c97.333 -38.667 153 -120.667 167 -246c1.33301 -12.667 2 -96.5 2 -251.5s4.16699 -245.833 12.5 -272.5
s31 -46.334 68 -59.001s55.5 -24.667 55.5 -36c0 -24 -12 -42.333 -36 -55c-48 -25.333 -95.167 -38 -141.5 -38s-80.833 10.667 -103.5 32c-40.667 38 -62.334 57 -65.001 57s-40.334 -16.833 -113.001 -50.5s-136.334 -50.5 -191.001 -50.5c-82 0 -146.333 22.667 -193 68
s-70 100.333 -70 165v25c0 69.333 30 130.333 90 183s168 93.667 324 123c56.667 10.667 92.334 20.667 107.001 30c29.333 18.667 44 56.667 44 114s-15.333 101.333 -46 132s-71.667 46 -123 46s-100.833 -29.833 -148.5 -89.5s-91.167 -89.5 -130.5 -89.5
c-46.667 0 -70 33.667 -70 101z" />
    <glyph glyph-name="b" unicode="b" horiz-adv-x="1163" 
d="M617 852l-29 0.00195312c-35.333 0 -69.833 -9.83301 -103.5 -29.5s-59.667 -43.834 -78 -72.501s-27.5 -110.667 -27.5 -246v-159c0 -98.667 15 -166.834 45 -204.501s81.667 -56.5 155 -56.5h21c70.667 0 127.667 33.5 171 100.5s65 143.167 65 228.5l2 23v71
c0 98 -21.333 180 -64 246s-95 99 -157 99zM151 119.002c0 7.33301 3.83301 40.998 11.5 100.998s11.5 132.667 11.5 218v288l1 49v200l-1 49v49l-1 24c-0.666992 16.667 -1 44.334 -1 83.001c0 79.333 -21.167 129 -63.5 149s-63.5 39.333 -63.5 58
c0 14 9.66699 25.667 29 35c48 23.333 121.667 35 221 35c40 0 65.667 -22.667 77 -68c6.66699 -26 10 -116.333 10 -271s12.333 -232 37 -232c15.333 0 49.333 10.667 102 32s107.667 32 165 32c110 0 201.167 -42 273.5 -126s108.5 -193.667 108.5 -329v-26
c0 -65.333 -11.667 -128.666 -35 -189.999c-46 -120 -123.667 -204.333 -233 -253c-58.667 -26 -119 -39 -181 -39h-24c-26 0 -65.667 6.33301 -119 19s-106.333 19 -159 19l-82 -7c-56 0 -84 33.667 -84 101z" />
    <glyph glyph-name="c" unicode="c" horiz-adv-x="979" 
d="M820 686c-28 0 -66.8311 28.998 -116.498 86.998s-107 87 -172 87s-119.5 -32.167 -163.5 -96.5s-66 -155.5 -66 -273.5s27.167 -210.167 81.5 -276.5s125.166 -99.5 212.499 -99.5c48 0 88.167 6 120.5 18s62.333 24.833 90 38.5s47.167 20.5 58.5 20.5
c19.333 0 29 -12.667 29 -38c0 -38.667 -39 -77 -117 -115s-153.667 -57 -227 -57c-142.667 0 -257.334 44.667 -344.001 134c-35.333 36.667 -65 83.834 -89 141.501s-36 119.5 -36 185.5v49v5v4c0 58 13 118 39 180c51.333 121.333 134 205.333 248 252
c66 26.667 131.667 40 197 40h23c90 0 166.333 -15.667 229 -47c50.667 -25.333 76 -67.666 76 -126.999c0 -39.333 -7.83301 -67.833 -23.5 -85.5s-32.167 -26.5 -49.5 -26.5z" />
    <glyph glyph-name="d" unicode="d" horiz-adv-x="1187" 
d="M750 685c0 54 -17.333 97.168 -52 129.501s-80.667 48.5 -138 48.5h-19c-30 0 -62 -9 -96 -27s-62 -44 -84 -78c-44 -68 -66 -152.333 -66 -253v-59c0 -100 22.5 -182.667 67.5 -248s99.833 -98 164.5 -98h29c56.667 0 103 19.333 139 58s54 88 54 148l2 21v21l2 52v96
l1 32v31l-1 11v53l-1 10v21c-1.33301 13.333 -2 23.666 -2 30.999zM764 1100c0 73.333 -5.66895 127.167 -17.002 161.5s-31.166 62.666 -59.499 84.999s-42.5 39.166 -42.5 50.499s7.66699 21.333 23 30c41.333 24 108.666 36 201.999 36h24
c46.667 0 73.334 -25 80.001 -75c2 -15.333 3 -205.833 3 -571.5s2.66699 -566.334 8 -602.001s18 -63.5 38 -83.5c4 -4 16.833 -14.167 38.5 -30.5s32.5 -30.666 32.5 -42.999s-9.33301 -23.5 -28 -33.5c-38 -20.667 -100 -31 -186 -31c-30 0 -54 9 -72 27
c-35.333 35.333 -54.5 53 -57.5 53s-18.167 -7.66699 -45.5 -23s-60.166 -30.833 -98.499 -46.5s-85.833 -23.5 -142.5 -23.5s-109 12.333 -157 37c-88.667 45.333 -151 120.333 -187 225c-21.333 62.667 -32 131.334 -32 206.001c0 150.667 43.167 273.334 129.5 368.001
s205.5 142 357.5 142l131 -12c26.667 0 43 7.33301 49 22s9 58.667 9 132z" />
    <glyph glyph-name="e" unicode="e" horiz-adv-x="1022" 
d="M719 650l-0.000976562 31c0 49.333 -17.667 93.833 -53 133.5s-78.666 59.5 -129.999 59.5h-19c-9.33301 -1.33301 -15.666 -2 -18.999 -2c-46.667 0 -90.834 -26.667 -132.501 -80s-62.5 -110.333 -62.5 -171v-13c0 -21.333 12.667 -32 38 -32c10 -2 15.333 -3 16 -3
l23 -1h6l7 1l193 11l36 4c64.667 0 97 20.667 97 62zM302.999 385c0 -76 28.668 -139.666 86.001 -190.999s130 -77 218 -77c35.333 0 67.5 5.16699 96.5 15.5s60.667 22.833 95 37.5s55.833 22 64.5 22c26.667 0 40 -14.333 40 -43c0 -38.667 -49.333 -80 -148 -124
c-64 -28.667 -132.667 -43 -206 -43h-22c-125.333 0 -229.333 38 -312 114c-44.667 41.333 -79.334 94.166 -104.001 158.499s-37 133.5 -37 207.5l1 23v23c0 64 14.667 127 44 189c30 62 65.667 113 107 153c87.333 84 191 126.333 311 127c181.333 0 302 -70.667 362 -212
c18.667 -44.667 28 -85.667 28 -123v-20c0 -46 -19 -76.833 -57 -92.5s-127.667 -28.5 -269 -38.5s-218 -16.667 -230 -20c-45.333 -11.333 -68 -40 -68 -86z" />
    <glyph glyph-name="f" unicode="f" horiz-adv-x="749" 
d="M443 -23l-54.9971 0.00390625c-195.333 0 -293 15 -293 45c0 17.333 16.5 36.333 49.5 57s54.667 49.167 65 85.5s15.5 139.166 15.5 308.499s-4.83301 265.666 -14.5 288.999s-27.5 43.833 -53.5 61.5s-39 33.667 -39 48s14.833 40 44.5 77s50.5 81.5 62.5 133.5
c30.667 129.333 73 223.333 127 282c68.667 75.333 165 113 289 113c60 0 108 -10.5 144 -31.5s54 -48.167 54 -81.5s-8.83301 -58 -26.5 -74s-36.334 -24 -56.001 -24s-51.667 12 -96 36s-77.833 36 -100.5 36c-36.667 0 -64.834 -22.833 -84.501 -68.5
s-29.5 -95.834 -29.5 -150.501s11.333 -94.667 34 -120c8 -8.66699 37.667 -26.167 89 -52.5s77 -49.5 77 -69.5c0 -15.333 -26.333 -30.833 -79 -46.5s-85.334 -32.834 -98.001 -51.501c-21.333 -31.333 -32 -132.5 -32 -303.5s6.16699 -273.833 18.5 -308.5
s36.5 -65 72.5 -91s54 -46 54 -60c0 -26 -46.333 -39 -139 -39z" />
    <glyph glyph-name="g" unicode="g" horiz-adv-x="1097" 
d="M505 913h-26.001c-35.333 0 -69.666 -20.333 -102.999 -61s-50 -88 -50 -142l-2 -16l-1 -25v-26l1 -8c0 -69.333 15 -125.333 45 -168s74.667 -64 134 -64h7c46 0 85.333 18 118 54s49 83.667 49 143v39c-2 16 -3 29 -3 39c0 63.333 -17.5 118.333 -52.5 165
s-73.833 70 -116.5 70zM415.999 24c-46.667 0 -86.333 -16.332 -119 -48.999s-49 -73.667 -49 -123v-8c0 -56.667 22.333 -101.334 67 -134.001s105.667 -49 183 -49h26c93.333 0 168.333 21.333 225 64s85 92.667 85 150l-1 8c0 38 -15.667 68.5 -47 91.5
s-68.333 34.5 -111 34.5c-26.667 3.33301 -46 5 -58 5l-34 3h-17l-60 4l-41 3h-49zM1031 924.001c0 -38 -23.999 -62.1699 -71.999 -72.5029s-72 -30.166 -72 -59.499l3 -21l4 -24l5 -26c3.33301 -22 5 -53 5 -93s-11.333 -81.333 -34 -124
c-63.333 -118 -185.333 -182.667 -366 -194c-58 -4 -95 -9 -111 -15c-34.667 -13.333 -52 -35.666 -52 -66.999s25.667 -53.333 77 -66c7.33301 -2 73.666 -8.33301 198.999 -19c125.333 -10 209 -25.667 251 -47c88.667 -44 133 -107.667 133 -191
c0 -109.333 -48.833 -198.333 -146.5 -267s-225.5 -103 -383.5 -103c-111.333 0 -204 21.333 -278 64c-34 19.333 -61.5 44.5 -82.5 75.5s-31.5 63.167 -31.5 96.5c0 59.333 17.667 108.666 53 147.999c56.667 62.667 85 96 85 100s-12.333 21.667 -37 53s-37 64 -37 98
s16.167 70.833 48.5 110.5s48.5 61.834 48.5 66.501s-20 38.834 -60 102.501s-60 124.167 -60 181.5s12.333 108.333 37 153c70 127.333 200.333 191 391 191h29l139 -9l51 -2c17.333 -0.666992 35 -1 53 -1l106 7c70 0 105 -15.333 105 -46z" />
    <glyph glyph-name="h" unicode="h" horiz-adv-x="1231" 
d="M101 55c0 12 14.334 33.835 43.001 65.502s46.5 63.5 53.5 95.5s10.5 200.667 10.5 506s-7 490.333 -21 555c-6.66699 31.333 -20.667 54.333 -42 69c-38.667 27.333 -58 42 -58 44c0 24.667 13 42 39 52c49.333 19.333 107 29 173 29h33c30.667 0 52.5 -12.333 65.5 -37
s19.5 -79 19.5 -163l-1 -37c-0.666992 -24.667 -1 -49.334 -1 -74.001l-2 -74v-74c0 -87.333 15.333 -131 46 -131c3.33301 0.666992 20.333 7.66699 51 21c92.667 41.333 170.334 62 233.001 62c117.333 0 199.666 -47 246.999 -141c31.333 -64 47 -221.333 47 -472
c0 -96.667 3.5 -156.834 10.5 -180.501s26 -48.167 57 -73.5s46.5 -41.333 46.5 -48c0 -20.667 -13.5 -34.667 -40.5 -42s-95.833 -11 -206.5 -11h-35c-72.667 0 -109 14.667 -109 44c0 6.66699 8.66699 23.5 26 50.5s28.666 57.5 33.999 91.5s8 123 8 267
s-6.66699 234.667 -20 272c-46 60 -97 96.667 -153 110c-76.667 0 -138 -27.333 -184 -82c-34 -40 -51 -131.167 -51 -273.5s3.33301 -233 10 -272s21.167 -74.333 43.5 -106s33.5 -51.167 33.5 -58.5c0 -24 -67.667 -36 -203 -36s-203 17.333 -203 52z" />
    <glyph glyph-name="i" unicode="i" horiz-adv-x="642" 
d="M457 1284c0 -29.333 -12.502 -56.501 -37.502 -81.501s-49.833 -37.5 -74.5 -37.5c-5.33301 -1.33301 -9.66602 -2 -12.999 -2l-22 -2c-33.333 0 -63.166 11 -89.499 33s-39.5 50.333 -39.5 85v18c0 34.667 13.833 63.834 41.5 87.501s59.5 35.5 95.5 35.5h5l34 -4
c20.667 0 42.167 -11.167 64.5 -33.5s33.5 -44.833 33.5 -67.5l2 -9v-22zM86.998 884.999c0 14.667 7.00098 26.3301 21.001 34.9971c48.667 29.333 125.667 44 231 44h29c36 0 56.333 -16.667 61 -50c2.66699 -18 4 -139.167 4 -363.5s4.66699 -353 14 -386
s31.666 -58.333 66.999 -76s53 -35.5 53 -53.5c0 -25.333 -82.667 -38 -248 -38l-30 -1h-122c-48.667 0 -73 12 -73 36c0 20 14.833 39.333 44.5 58s50.167 39.334 61.5 62.001c12.667 24.667 19 82.334 19 173.001l1 32v31l1 47v31l1 31
c0 158 -5.16699 250.167 -15.5 276.5s-32.833 47.833 -67.5 64.5s-52 32.334 -52 47.001z" />
    <glyph glyph-name="j" unicode="j" horiz-adv-x="602" 
d="M199 1278v8.99805c0 26 11.167 54.667 33.5 86s53.166 47 92.499 47h21c26.667 0 53.334 -11.167 80.001 -33.5s40 -51.166 40 -86.499v-19c0 -31.333 -12.167 -59.166 -36.5 -83.499s-48.5 -36.5 -72.5 -36.5l-9 -2l-8 -2l-26 -1c-36.667 0 -65 12 -85 36
s-30 52.667 -30 86zM449 723.998l0.000976562 -332.999c0 -312 -19.667 -510 -59 -594c-29.333 -63.333 -74.833 -113.833 -136.5 -151.5s-123.834 -56.5 -186.501 -56.5h-16c-53.333 0 -80 22.333 -80 67c0 50.667 38.333 80.667 115 90
c38 4.66699 63.833 12.167 77.5 22.5s26.5 30.833 38.5 61.5c23.333 59.333 35 214.5 35 465.5s-4.5 398 -13.5 441s-24.167 74.167 -45.5 93.5c-46 41.333 -69 66.166 -69 74.499s7 16.833 21 25.5c44 27.333 123 41 237 41c40.667 0 64.5 -14 71.5 -42
s10.5 -96.333 10.5 -205z" />
    <glyph glyph-name="k" unicode="k" horiz-adv-x="1170" 
d="M492 424c-40.667 0 -60.9961 -58.665 -60.9961 -175.998c0 -41.333 9.66699 -81.666 29 -120.999l27 -46c9.33301 -16.667 14 -28.667 14 -36c0 -24 -67 -36 -201 -36s-201 11.333 -201 34c0 6 11.167 24.167 33.5 54.5s38.666 66 48.999 107s15.5 136.5 15.5 286.5l1 38
c1.33301 34 2 59.333 2 76l2 76l1 77v155c0 192.667 -3.5 306.5 -10.5 341.5s-19.5 61.5 -37.5 79.5l-22 17l-24 15c-19.333 14 -29 27.167 -29 39.5s8 23.166 24 32.499c45.333 26 115.333 39 210 39h34c38 0 61.667 -27 71 -81c3.33301 -20 5 -169.333 5 -448l-1 -115
c0 -91.333 0.333008 -140 1 -146c7.33301 -63.333 24.666 -95 51.999 -95s74.333 36.167 141 108.5s100 123.833 100 154.5l-3 36c0 22.667 8.83301 38.667 26.5 48s54.5 14 110.5 14c127.333 0 191 -13.667 191 -41c0 -0.666992 -59 -48.334 -177 -143.001
s-177 -162.334 -177 -203.001s81 -155.667 243 -345c35.333 -41.333 74.166 -77 116.499 -107s63.5 -50 63.5 -60c0 -32.667 -49.333 -49 -148 -49h-73c-64 0 -110 18.333 -138 55l-40 97c-16.667 40 -44.334 87.333 -83.001 142c-59.333 83.333 -105 125 -137 125z" />
    <glyph glyph-name="l" unicode="l" horiz-adv-x="629" 
d="M84 35c0 14 15.168 31.999 45.501 53.999s50.833 56.5 61.5 103.5s16 225.5 16 535.5s-3.5 485.667 -10.5 527s-24.167 71 -51.5 89c-44 28.667 -66 46.334 -66 53.001v12c0 11.333 9.66699 21.333 29 30c60 26 140 39 240 39h20c34 0 53.667 -23 59 -69
c0.666992 -6 1 -56.333 1 -151v-215l-1 -41v-63l-1 -41v-317c0 -197.333 3.16699 -319.5 9.5 -366.5s21.166 -81.167 44.499 -102.5c2.66699 -2 16.667 -10.667 42 -26s38 -31 38 -47c0 -23.333 -41.333 -35 -124 -35l-41 -2h-41l-164 -3h-21c-56.667 0 -85 12 -85 36z" />
    <glyph glyph-name="m" unicode="m" horiz-adv-x="1814" 
d="M815 454c0 152 -11.668 251.335 -35.001 298.002s-66.666 70 -129.999 70c-38 0 -77.333 -14.833 -118 -44.5s-67.667 -62.5 -81 -98.5s-20 -119.833 -20 -251.5s1.16699 -212.834 3.5 -243.501s7.16602 -54.667 14.499 -72l13 -25c10.667 -20.667 16 -35.667 16 -45
c0 -24.667 -51 -37 -153 -37s-168.333 10.333 -199 31l-18 19c0 18.667 6.66699 34.667 20 48c40 40.667 63.667 71.667 71 93s11 115.833 11 283.5s-14.333 277.167 -43 328.5l-21 27c-17.333 22 -26 38.833 -26 50.5s12.5 25.334 37.5 41.001s64 23.5 117 23.5
s92.833 -14.167 119.5 -42.5s45.667 -42.5 57 -42.5l30 14l76 45c62 32.667 125 49 189 49s125 -19.5 183 -58.5s94.333 -58.5 109 -58.5l34 16l37 22c31.333 18.667 65 35.334 101 50.001c34.667 14.667 80.667 22 138 22c109.333 0 186.666 -45.333 231.999 -136
c33.333 -66.667 50 -222.667 50 -468c0 -105.333 3.33301 -166.5 10 -183.5s24.667 -37.5 54 -61.5s44 -38 44 -42v-24l-19 -18c-32 -19.333 -113.333 -29 -244 -29c-62.667 0 -94 15.333 -94 46c0 3.33301 4.5 18.333 13.5 45s14.333 48.167 16 64.5
s2.5 101.166 2.5 254.499s-7.5 249.5 -22.5 288.5s-33.667 69 -56 90s-56.166 31.5 -101.499 31.5s-83.666 -12.333 -114.999 -37s-53.333 -52.167 -66 -82.5s-19 -121.833 -19 -274.5s4.66699 -240.834 14 -264.501s26.833 -46.834 52.5 -69.501s38.5 -37.667 38.5 -45
c0 -33.333 -58.333 -50 -175 -50h-140c-70 0 -105 10.167 -105 30.5s8.66699 39.833 26 58.5c37.333 39.333 58.5 71.833 63.5 97.5s7.5 114.5 7.5 266.5z" />
    <glyph glyph-name="n" unicode="n" horiz-adv-x="1246" 
d="M228 8c-94 0 -141.003 13.335 -141.003 40.002c0 22 12.333 40 37 54c44.667 25.333 70.667 48.166 78 68.499s11 116.666 11 288.999s-5.16699 273.333 -15.5 303s-29.166 54.167 -56.499 73.5s-41 35 -41 47s9 23.333 27 34c42 24.667 108.667 37 200 37
c27.333 0 48.666 -9.33301 63.999 -28c5.33301 -6.66699 12.833 -21.167 22.5 -43.5s16.167 -33.5 19.5 -33.5c12.667 0.666992 32.334 9.66699 59.001 27c92 62 175.333 93 250 93h2h32c54 0 102.667 -13.333 146 -40s76.833 -66.667 100.5 -120s35.5 -169.5 35.5 -348.5
s3.83301 -279 11.5 -300s29.334 -40.5 65.001 -58.5s53.5 -35.667 53.5 -53c0 -30 -94.667 -45 -284 -45h-30c-60 0 -90 14.333 -90 43c0 6 7.33301 20.5 22 43.5s24.667 48.5 30 76.5s8 120.167 8 276.5s-9.66699 256.833 -29 301.5c-26.667 61.333 -71 92 -133 92
c-45.333 0 -89.166 -10.5 -131.499 -31.5s-73 -50.667 -92 -89s-28.5 -130 -28.5 -275s4 -232.667 12 -263s17.667 -54.833 29 -73.5l37 -60c0 -26 -52.333 -39 -157 -39l-61 2h-62z" />
    <glyph glyph-name="o" unicode="o" horiz-adv-x="1122" 
d="M305 515v-37c0 -113.333 22 -207.333 66 -282c20.667 -35.333 47 -63.333 79 -84s64.333 -31 97 -31h20c60.667 0 113.167 29.5 157.5 88.5s66.5 142.833 66.5 251.5v71c0 107.333 -22.167 198.5 -66.5 273.5s-100.5 112.5 -168.5 112.5h-31
c-61.333 0 -113.333 -33 -156 -99s-64 -154 -64 -264zM1032 511l-0.000976562 -49.9971c0 -52.667 -10.667 -110.334 -32 -173.001c-44.667 -130.667 -133.667 -222 -267 -274c-58 -22.667 -114 -34 -168 -34h-33c-127.333 0 -233.666 42.667 -318.999 128
c-38.667 38.667 -70 89.667 -94 153s-36 130.666 -36 201.999v17c0 64.667 11.333 130 34 196c44 128.667 130.333 218 259 268c58 22.667 113.667 34 167 34h50c59.333 0 117.666 -13.333 174.999 -40c108.667 -50.667 184.334 -131.334 227.001 -242.001
c24.667 -65.333 37 -127 37 -185z" />
    <glyph glyph-name="p" unicode="p" horiz-adv-x="1195" 
d="M864 446l0.00195312 59.001c0 107.333 -22 193 -66 257s-99.333 96 -166 96h-10c-36.667 0 -72.334 -10.167 -107.001 -30.5s-61.167 -46.166 -79.5 -77.499s-27.5 -123.666 -27.5 -276.999v-85l1 -11v-42l1 -10v-21c1.33301 -14.667 2 -25.334 2 -32.001
c0 -56.667 18.167 -100.834 54.5 -132.501s85.166 -47.5 146.499 -47.5h10c73.333 0 131.833 33.667 175.5 101s65.5 151.666 65.5 252.999zM412.002 -118.499c0 -89.667 6.50098 -146.665 19.501 -170.998s34 -46.5 63 -66.5s43.5 -37 43.5 -51c0 -30 -43.333 -45 -130 -45
h-100c-152 0 -228 15.333 -228 46c0 9.33301 19.333 32.666 58 69.999c20.667 20 37 60.5 49 121.5s18 176.5 18 346.5v415l-2 107c0 65.333 -8.66699 113 -26 143c-6.66699 11.333 -24 26.833 -52 46.5s-42 36.5 -42 50.5s8 25 24 33c52 25.333 120.667 38 206 38
c22 0 44.5 -13.333 67.5 -40s35.833 -40 38.5 -40c10.667 0 32.167 9.16699 64.5 27.5s49.5 28.166 51.5 29.499c57.333 26.667 107 40 149 40h52c37.333 0 79.666 -10.333 126.999 -31c90.667 -39.333 155.667 -113 195 -221c23.333 -63.333 35 -125 35 -185v-56
c0 -62 -12.667 -125.667 -38 -191c-50 -129.333 -134.667 -217.333 -254 -264c-50.667 -20 -109.667 -30 -177 -30l-160 12c-34.667 0 -52 -44.833 -52 -134.5z" />
    <glyph glyph-name="q" unicode="q" horiz-adv-x="1171" 
d="M304 512l0.000976562 -61c0 -92.667 22.167 -173.167 66.5 -241.5s98.166 -102.5 161.499 -102.5h29c53.333 0 103.333 21.667 150 65c29.333 27.333 44 66.666 44 117.999l2 20l1 41v85l-1 10v22l-1 32c0 164.667 -9.66699 265.334 -29 302.001
c-28 53.333 -83.333 80 -166 80l-10 -1c-71.333 0 -130.333 -34 -177 -102s-70 -157 -70 -267zM1102 -414c0 -28.667 -66.333 -42.9971 -199 -42.9971h-150c-73.333 0 -110 13.667 -110 41c0 9.33301 15.167 28.666 45.5 57.999s51 62.166 62 98.499s16.5 98.333 16.5 186
s-13 131.5 -39 131.5c-8.66699 0 -39 -9.66699 -91 -29s-104.5 -29 -157.5 -29s-105.5 12 -157.5 36c-100.667 45.333 -170.334 129.333 -209.001 252c-17.333 55.333 -26 115 -26 179v27c0 57.333 10.333 116 31 176c40 117.333 113.667 203 221 257
c60 30 123.667 45 191 45h24c38.667 0 87.334 -7.16699 146.001 -21.5s96.167 -21.5 112.5 -21.5s39.333 4 69 12s51.834 12 66.501 12c47.333 0 71 -39.333 71 -118c0 -12 -5.16699 -47.667 -15.5 -107s-15.5 -109.333 -15.5 -150v-99l-1 -26v-128l-1 -51v-284l3 -154
c0 -64.667 5.16699 -108 15.5 -130s29.166 -42.833 56.499 -62.5s41 -38.834 41 -57.501z" />
    <glyph glyph-name="r" unicode="r" horiz-adv-x="893" 
d="M588 39c0 -26 -60.332 -39.001 -180.999 -39.001h-106l-42 2l-63 1c-70.667 0 -106 12.667 -106 38c0 18 15.833 37.167 47.5 57.5s53 46.666 64 78.999s16.5 127.833 16.5 286.5s-5.16699 255 -15.5 289s-26.5 58.333 -48.5 73c-39.333 26 -59 45 -59 57s7 22.667 21 32
c41.333 28 111.333 42 210 42h19c38 0 65 -19.167 81 -57.5s29 -57.5 39 -57.5s27.167 9.33301 51.5 28s53.666 37.334 87.999 56.001s72.5 28 114.5 28s74.167 -10.833 96.5 -32.5s33.5 -49.5 33.5 -83.5c-0.666992 -34.667 -9.66699 -60.667 -27 -78s-36 -26 -56 -26
s-46.333 8.16699 -79 24.5s-60 24.5 -82 24.5s-46 -9.16699 -72 -27.5s-48.167 -51 -66.5 -98s-27.5 -127.333 -27.5 -241s8 -187 24 -220s40.833 -63.167 74.5 -90.5s50.5 -49.666 50.5 -66.999z" />
    <glyph glyph-name="s" unicode="s" horiz-adv-x="900" 
d="M818 259.5c0 -76.333 -31.334 -141.665 -94.001 -195.998s-149.334 -81.5 -260.001 -81.5h-27c-126 0 -222 15.667 -288 47c-36.667 17.333 -55 56 -55 116v25c0 76.667 14.333 115 43 115c24 0 52.333 -22.5 85 -67.5s60 -75.167 82 -90.5
c42.667 -29.333 92.834 -44 150.501 -44s100.167 12.167 127.5 36.5s41 56.5 41 96.5s-23.333 77 -70 111c-24.667 18 -82.167 46.333 -172.5 85s-157.833 79.167 -202.5 121.5s-67 102.166 -67 179.499s32.333 140.166 97 188.499s144.334 72.5 239.001 72.5h27
c124 0 211 -14.667 261 -44c26 -15.333 39 -58 39 -128s-16.667 -105 -50 -105c-18.667 0 -44.167 20.833 -76.5 62.5s-61.833 71.334 -88.5 89.001s-63.5 26.5 -110.5 26.5s-84.167 -10.667 -111.5 -32s-41 -52.166 -41 -92.499s25 -76.5 75 -108.5
c12.667 -8.66699 68 -34.334 166 -77.001s165.333 -81.334 202 -116.001c52.667 -50 79 -113.167 79 -189.5z" />
    <glyph glyph-name="t" unicode="t" horiz-adv-x="756" 
d="M518 132l152 23.001c17.333 0 26 -13.5 26 -40.5s-25.667 -54.833 -77 -83.5s-105.333 -43 -162 -43h-20c-44.667 0 -85 11.667 -121 35s-62.333 52 -79 86c-28.667 59.333 -43 171.833 -43 337.5s-5.83301 269.167 -17.5 310.5s-26.834 69.666 -45.501 84.999
c-34.667 28 -52 43.333 -52 46c0 17.333 9 32 27 44c46 30.667 71.167 48.167 75.5 52.5s29.833 58.833 76.5 163.5c23.333 52 49.833 78 79.5 78s49.5 -10.667 59.5 -32c2.66699 -5.33301 8.5 -34.333 17.5 -87s21.833 -86.5 38.5 -101.5s53.667 -29.333 111 -43
s86 -33.167 86 -58.5s-31.667 -44.333 -95 -57s-101.666 -29 -114.999 -49c-23.333 -34 -35 -130 -35 -288s7.33301 -257.667 22 -299c18.667 -52.667 49 -79 91 -79z" />
    <glyph glyph-name="u" unicode="u" horiz-adv-x="1214" 
d="M1139 60.5c0 -9.66699 -5.00195 -18.833 -15.002 -27.5c-28.667 -26 -90 -39 -184 -39c-30.667 0 -54.5 5.16699 -71.5 15.5s-32 29.166 -45 56.499s-23.833 41 -32.5 41c-8.66699 -0.666992 -28 -11.667 -58 -33c-84 -60.667 -164.333 -91 -241 -91h-3h-30
c-110 0 -189.667 46.667 -239 140c-25.333 48.667 -38.166 167.834 -38.499 357.501s-3.5 294 -9.5 313s-27.167 37 -63.5 54s-54.5 30.167 -54.5 39.5c0 24.667 11.667 40.667 35 48c52 16.667 118.333 25 199 25c46.667 0 76.334 -19 89.001 -57
c16.667 -48.667 25 -164.834 25 -348.501s8 -295.167 24 -334.5c27.333 -67.333 77 -101 149 -101c37.333 0 74.5 9.66699 111.5 29s65.833 45.333 86.5 78s31 122.5 31 269.5s-4.83301 239.5 -14.5 277.5s-24.5 67.833 -44.5 89.5s-30 38.834 -30 51.501
c0 29.333 78.333 44 235 44c32.667 0 54 -7.16699 64 -21.5s15 -40.5 15 -78.5l-3 -59l-5 -266c0 -173.333 5 -281.5 15 -324.5s29.667 -76 59 -99s44 -39.333 44 -49z" />
    <glyph glyph-name="v" unicode="v" horiz-adv-x="1109" 
d="M564 -13l-23 -0.000976562c-31.333 0 -62.333 29 -93 87c-15.333 29.333 -62.333 144.333 -141 345s-126.667 316.5 -144 347.5s-44.333 58.667 -81 83s-55 42.833 -55 55.5c0 20.667 14.667 34 44 40s96.333 9 201 9s157 -15 157 -45c0 -2 -3.66699 -12.833 -11 -32.5
s-11 -41.167 -11 -64.5c0 -91.333 52 -257.333 156 -498c19.333 -44 33 -66 41 -66s21 20 39 60c107.333 237.333 161 402 161 494c0 22.667 -8.66699 46.667 -26 72s-26 38.333 -26 39c0 28.667 62 43 186 43h24c81.333 0 122 -14 122 -42c0 -24 -17.667 -47.5 -53 -70.5
s-62.333 -51.5 -81 -85.5c-8.66699 -15.333 -53 -122.166 -133 -320.499s-134 -323 -162 -374s-58.333 -76.5 -91 -76.5z" />
    <glyph glyph-name="w" unicode="w" horiz-adv-x="1622" 
d="M1451 949c64.667 0 96.9961 -18.002 96.9961 -54.002c0 -7.33301 -8.5 -24.5 -25.5 -51.5s-36.833 -64.167 -59.5 -111.5s-64.667 -159.666 -126 -336.999s-96.666 -275 -105.999 -293c-30.667 -58 -73 -87 -127 -87c-24.667 0 -49.667 24.333 -75 73
s-65.166 142.5 -119.499 281.5s-88.833 208.5 -103.5 208.5c-2 0 -32.667 -72.833 -92 -218.5s-94.666 -229.167 -105.999 -250.5c-32 -60.667 -70.833 -91 -116.5 -91s-94.5 77.333 -146.5 232l-25 78c-71.333 229.333 -137.666 386.666 -198.999 471.999
c-37.333 52 -56 83.333 -56 94s5.33301 20.667 16 30c22.667 20 62.667 30 120 30h38c80.667 0 130.667 -17.333 150 -52c7.33301 -13.333 13.166 -42.833 17.499 -88.5s10 -88.667 17 -129s26.167 -109.833 57.5 -208.5s61 -148 89 -148c22 0 48.667 43.333 80 130
s47 166.334 47 239.001c0 17.333 -3.5 40.333 -10.5 69s-10.5 48.334 -10.5 59.001c0 40 24.667 71 74 93c24 10.667 60.167 16 108.5 16s88.5 -19 120.5 -57c16.667 -20 25 -48.667 25 -86l-2 -29l-1 -32c0 -18.667 14.667 -76.5 44 -173.5s50.5 -158.667 63.5 -185
s26.5 -39.5 40.5 -39.5c28.667 0 61.834 55 99.501 165s56.5 204.333 56.5 283l-8 101c0 45.333 51.333 68 154 68z" />
    <glyph glyph-name="x" unicode="x" horiz-adv-x="1118" 
d="M675 89c0 38 -32.333 102.001 -97 192.001c-29.333 40.667 -47.333 61 -54 61c-18.667 0 -43.334 -19.667 -74.001 -59c-60 -76 -90 -131 -90 -165c0 -13.333 5 -30.5 15 -51.5s15 -32.833 15 -35.5c0 -22.667 -44.667 -34 -134 -34l-31 1h-31
c-97.333 0 -146 12.333 -146 37c0 19.333 23 42.166 69 68.499s89.667 64.166 131 113.499c118 141.333 177 224.666 177 249.999c0 34.667 -62.667 129 -188 283c-26 32 -60.833 63.667 -104.5 95s-65.5 53 -65.5 65c0 30.667 96.667 46 290 46h30
c56.667 0 85 -13.667 85 -41c-10 -30 -15 -47 -15 -51c0 -37.333 20.833 -85 62.5 -143s65.834 -87 72.501 -87c18 0 48.333 26.5 91 79.5s64 89.5 64 109.5s-4.83301 39.333 -14.5 58s-14.5 32 -14.5 40c0 21.333 54.833 32 164.5 32s164.5 -14.667 164.5 -44
c0 -19.333 -22.833 -40.666 -68.5 -63.999s-84.167 -53 -115.5 -89c-115.333 -132 -173 -215 -173 -249c0 -44.667 75.667 -154 227 -328c26 -30 57.667 -55.167 95 -75.5s56 -41.166 56 -62.499c0 -25.333 -67.667 -38 -203 -38l-63 -2h-63c-54.667 0 -82 13.333 -82 40
c12 26 18 42 18 48z" />
    <glyph glyph-name="y" unicode="y" horiz-adv-x="1116" 
d="M405 828c0 -71.333 55.3369 -240.664 166.004 -507.997c15.333 -37.333 27.666 -56 36.999 -56s26.666 27 51.999 81c92 194.667 138 341.667 138 441c0 28.667 -4.66699 52 -14 70l-11 18c-16 21.333 -24 36.333 -24 45c0 26 42.333 39 127 39h64
c80.667 0 121 -15.333 121 -46c0 -17.333 -16.5 -43.833 -49.5 -79.5s-56.833 -70.167 -71.5 -103.5s-68.167 -172.5 -160.5 -417.5s-163.833 -412.333 -214.5 -502s-97.834 -154.167 -141.501 -193.5s-88.5 -59 -134.5 -59h-26c-34.667 0 -64.167 9.83301 -88.5 29.5
s-36.5 40 -36.5 61s8.5 38 25.5 51s39.5 19.5 67.5 19.5l23 -2c10 -0.666992 25.333 -1 46 -1c46.667 0 89.667 30 129 90s59 120.667 59 182s-95 293 -285 695c-17.333 36.667 -42.833 74.667 -76.5 114s-50.5 66.666 -50.5 81.999c0 25.333 17.667 43.166 53 53.499
s92.166 15.5 170.499 15.5s117.5 -17 117.5 -51c-8 -34.667 -12 -57.334 -12 -68.001z" />
    <glyph glyph-name="z" unicode="z" horiz-adv-x="987" 
d="M91 41l-0.00292969 20.999c0 23.333 85.667 154.333 257 393s257 364.5 257 377.5s-42 19.5 -126 19.5s-142.667 -7 -176 -21s-63.666 -40.667 -90.999 -80s-54 -59 -80 -59c-18.667 0 -28 30.667 -28 92c0 116 21 174 63 174h24l53 -2
c36.667 -1.33301 64.334 -2 83.001 -2l308 -3l168 3c48.667 0 73 -18.667 73 -56c0 -27.333 -85.833 -160.666 -257.5 -399.999s-257.5 -362.333 -257.5 -369c0 -16.667 49.333 -25 148 -25s164.667 9.16699 198 27.5s64.166 47.833 92.499 88.5s54.5 61 78.5 61
c19.333 0 29 -15 29 -45v-26c0 -89.333 -6.66699 -147 -20 -173s-41.666 -39 -84.999 -39h-54l-28 1l-167 3l-83 1h-223l-56 -1c-33.333 0 -51.666 0.333008 -54.999 1c-30 5.33301 -45 18 -45 38z" />
    <glyph glyph-name="braceleft" unicode="{" horiz-adv-x="752" 
d="M596 1515c44.667 0 67.001 -11.002 67.001 -33.002s-25 -45.833 -75 -71.5s-83 -54.167 -99 -85.5s-24 -92.666 -24 -183.999l4 -100c1.33301 -33.333 2 -66.666 2 -99.999c0 -134 -29.667 -225.667 -89 -275c-16 -13.333 -34.167 -25.833 -54.5 -37.5
s-30.5 -18.5 -30.5 -20.5c-0.666992 -5.33301 7 -12.333 23 -21c53.333 -29.333 91.5 -67.333 114.5 -114s34.5 -126.667 34.5 -240l-4 -100c-1.33301 -33.333 -2 -78.833 -2 -136.5s10.167 -101 30.5 -130s52.166 -54.667 95.499 -77s65 -46.166 65 -71.499
c0 -19.333 -26.5 -29 -79.5 -29s-101.5 8.66699 -145.5 26s-78 41.666 -102 72.999c-41.333 53.333 -62 154 -62 302l6 227c0 73.333 -9.83301 124.833 -29.5 154.5s-51.5 53.667 -95.5 72s-66 42.5 -66 72.5c0 9.33301 24.167 26 72.5 50s80.333 52.667 96 86
s23.5 105 23.5 215l-4 178c0 70 6 127.667 18 173c34.667 131.333 137 197 307 197h3z" />
    <glyph glyph-name="bar" unicode="|" horiz-adv-x="566" 
d="M208 -201v177.002l1 20v377l1 40v435l1 60v358l1 20v98l1 58c0 33.333 5 53.833 15 61.5s27.667 11.5 53 11.5h20c24 0 39.833 -4.83301 47.5 -14.5s11.5 -32.834 11.5 -69.501v-316l-1 -20v-337l-1 -40v-510c0 -293.333 -1.33301 -452 -4 -476
c-4 -37.333 -26.333 -56 -67 -56h-20c-24 0 -39.833 5.16699 -47.5 15.5s-11.5 46.166 -11.5 107.499z" />
    <glyph glyph-name="braceright" unicode="}" horiz-adv-x="759" 
d="M100 1486c0 19.333 14.333 28.999 43 28.999h25c110 0 190 -27.5 240 -82.5s75 -153.167 75 -294.5l-7 -252c0 -71.333 10.333 -121.5 31 -150.5s52.834 -53.333 96.501 -73s65.5 -36.5 65.5 -50.5c0 -28.667 -21.667 -51.667 -65 -69s-75.333 -43.166 -96 -77.499
s-31 -110.5 -31 -228.5l3 -178c0 -186 -53 -299.333 -159 -340c-50 -19.333 -100.833 -29 -152.5 -29s-77.5 10 -77.5 30c0 24.667 24.667 49.667 74 75s82.166 54 98.499 86s24.5 101 24.5 207l-4 175c0 97.333 12 167.666 36 210.999s57 77.333 99 102
c24 14 36 21.333 36 22s-18.5 14.5 -55.5 41.5s-65.333 60.833 -85 101.5s-29.5 117.334 -29.5 230.001l8 201c0 82.667 -9.5 138 -28.5 166s-51.167 53.5 -96.5 76.5s-68 46.833 -68 71.5z" />
    <glyph glyph-name="asciitilde" unicode="~" horiz-adv-x="1132" 
d="M110 598v21.999c0 40.667 27.333 85.167 82 133.5s113.667 72.5 177 72.5h11c42.667 0 113.834 -21.667 213.501 -65s166.334 -65 200.001 -65s75.667 17.833 126 53.5s76.166 53.5 77.499 53.5c24.667 0 37 -20.167 37 -60.5s-26.833 -84.166 -80.5 -131.499
s-110.167 -71 -169.5 -71h-11l-11 1c-48.667 0 -118.334 21.667 -209.001 65s-155.667 65 -195 65s-83.5 -18.667 -132.5 -56s-74.833 -56 -77.5 -56c-25.333 0 -38 13 -38 39z" />
    <glyph glyph-name="uni00A0" unicode="&#xa0;" horiz-adv-x="519" 
 />
    <glyph glyph-name="exclamdown" unicode="&#xa1;" horiz-adv-x="632" 
d="M358 1130c16.667 0 37.167 -12.168 61.5 -36.501s36.5 -45.166 36.5 -62.499l3 -19v-12c0 -26 -12 -49 -36 -69s-46.333 -30 -67 -30l-9 -2h-28c-10 2 -17.667 3 -23 3c-25.333 0 -51.5 13.5 -78.5 40.5s-40.5 52.5 -40.5 76.5v19c0 22.667 11.5 43.667 34.5 63
s44.5 29 64.5 29l27 3h15c10 -2 23.333 -3 40 -3zM319 712.999c28 0 42 -34.334 42 -103.001l32 -387c2.66699 -32 4 -52 4 -60l4 -59c2.66699 -32 4 -55.333 4 -70l5 -135v-63c0 -43.333 -6.83301 -74.666 -20.5 -93.999s-38.167 -29 -73.5 -29h-18
c-25.333 0 -43.5 9.5 -54.5 28.5s-16.5 55.5 -16.5 109.5v43l1 11v22l4 114l1 11l3 71l2 24c1.33301 16 2 28 2 36l3 36c2 24 3 39.667 3 47l31 371c0 50.667 14 76 42 76z" />
    <glyph glyph-name="cent" unicode="&#xa2;" horiz-adv-x="1032" 
d="M539 921l-4.99902 0.000976562c-42.667 0 -96.334 -53.667 -161.001 -161c-31.333 -52 -47 -117.333 -47 -196v-52c0 -48 21.667 -115.167 65 -201.5s78.333 -129.5 105 -129.5h5c5.33301 0 8 11 8 33l-2 31c-2 16 -3 27 -3 33l-3 24c-2 16 -3 26.667 -3 32l-7 68v107
l1 9v19l2 28l2 38c2.66699 24 4 39 4 45l2 35c0 9.33301 6.83301 39.666 20.5 90.999s20.5 90 20.5 116l3 20c0 7.33301 -2.33301 11 -7 11zM511.001 -128.999l-9 -0.00195312c-8.66699 0 -18.167 19 -28.5 57s-22 65 -35 81s-34.833 34.333 -65.5 55l-17 12
c-150 108 -225 253.333 -225 436c0 226.667 100.667 382.334 302 467.001c32 14 53.833 26.333 65.5 37s29.5 47.334 53.5 110.001c14 36.667 33.333 55 58 55c18.667 0 35.167 -18.333 49.5 -55s31.5 -65.667 51.5 -87c102 -106 153 -168.667 153 -188
c0 -64.667 -20 -97 -60 -97c-21.333 0 -42.5 17.333 -63.5 52s-45.833 52 -74.5 52c-24 0 -41 -29.667 -51 -89c-18 -108 -27 -222.333 -27 -343s6 -190.834 18 -210.501s31.167 -29.5 57.5 -29.5s59.5 8 99.5 24s67.167 24 81.5 24s21.5 -4.33301 21.5 -13
c0 -35.333 -40.833 -77.666 -122.5 -126.999s-130.167 -84 -145.5 -104l-29.5 -60.5c-19 -39 -38.167 -58.5 -57.5 -58.5z" />
    <glyph glyph-name="sterling" unicode="&#xa3;" horiz-adv-x="1170" 
d="M206 -19c-60.667 0 -91 18.001 -91 54.001c0 23.333 21.833 57.333 65.5 102s69.834 75.667 78.501 93c21.333 43.333 32 99.833 32 169.5s-5 115 -15 136s-32.333 41.833 -67 62.5s-52 47 -52 79c0 11.333 12.167 24.333 36.5 39s41.333 33 51 55
s19.834 71.667 30.501 149s18 122.666 22 135.999c63.333 222.667 222.666 334 477.999 334c84.667 0 147.5 -13.667 188.5 -41s61.5 -80.666 61.5 -159.999c0 -54.667 -22.333 -82 -67 -82c-3.33301 0 -29.5 20.833 -78.5 62.5s-102.667 62.5 -161 62.5
s-105.5 -24 -141.5 -72s-54 -116.667 -54 -206s15 -149.333 45 -180c12 -12.667 53.333 -27 124 -43c50 -11.333 75 -31.666 75 -60.999c0 -22 -28.833 -43.5 -86.5 -64.5s-93.834 -41.667 -108.501 -62s-27.5 -52.833 -38.5 -97.5s-22.5 -84.834 -34.5 -120.501
s-18 -67 -18 -94s12.333 -48.667 37 -65s81.167 -24.5 169.5 -24.5s172.5 29.333 252.5 88c30 22.667 52.333 34 67 34c32.667 0 49 -34.333 49 -103s-22 -117.834 -66 -147.501s-108.667 -44.5 -194 -44.5h-35l-359 29c-34.667 0 -75.5 -2.83301 -122.5 -8.5
s-71.5 -8.5 -73.5 -8.5z" />
    <glyph glyph-name="currency" unicode="&#xa4;" horiz-adv-x="1144" 
d="M317 691v-43.999c0 -74 25.667 -134.5 77 -181.5s104.333 -70.5 159 -70.5h26c73.333 0 133.833 28.167 181.5 84.5s71.5 118.166 71.5 185.499v34c0 58.667 -24 114.167 -72 166.5s-103 78.5 -165 78.5h-27c-64.667 0 -122.667 -25.667 -174 -77s-77 -110 -77 -176z
M361 298.001c-23.333 0 -53.335 -17 -90.002 -51s-61.167 -51 -73.5 -51s-26.333 9.16699 -42 27.5s-23.5 33.333 -23.5 45s17.833 36 53.5 73s53.5 61.667 53.5 74s-8.33301 37.666 -25 75.999s-25 88 -25 149s8.33301 111.5 25 151.5s25 66.833 25 80.5
s-17.833 39.667 -53.5 78s-53.5 63 -53.5 74s9.5 25.667 28.5 44s35.667 27.5 50 27.5s36.333 -16 66 -48s50.667 -48 63 -48s43.833 8.66699 94.5 26s96.834 26 138.501 26s89.167 -8.16699 142.5 -24.5s85 -24.5 95 -24.5s32.5 16.167 67.5 48.5s58.833 48.5 71.5 48.5
s27.167 -9.66699 43.5 -29s24.5 -35 24.5 -47s-18.5 -36.5 -55.5 -73.5s-55.5 -61 -55.5 -72s7.16699 -38.667 21.5 -83s21.5 -88.666 21.5 -132.999s-9.33301 -91.666 -28 -141.999s-28 -82.333 -28 -96s19.667 -38.834 59 -75.501s59 -60.834 59 -72.501
s-9.16699 -26 -27.5 -43s-34 -25.5 -47 -25.5s-37.833 17 -74.5 51s-60.667 51 -72 51s-42.666 -9.33301 -93.999 -28c-50.667 -18.667 -96 -28 -136 -28c-0.666992 0 -1.66699 -0.333008 -3 -1c-39.333 0.666992 -81 8.33398 -125 23.001c-45.333 14.667 -69 22 -71 22z
" />
    <glyph glyph-name="yen" unicode="&#xa5;" horiz-adv-x="1340" 
d="M816 227c0 -38 19.167 -78.1631 57.5 -120.496s57.5 -65.833 57.5 -70.5c0 -24 -26.667 -36 -80 -36h-129l-85 2h-84c-90.667 0 -136 14.667 -136 44c0 8 19.333 29.333 58 64s58 70.667 58 108s-8.66699 63.666 -26 78.999s-51.833 30.666 -103.5 45.999
s-77.5 30.333 -77.5 45c0 22.667 27.333 42.5 82 59.5s82 39.833 82 68.5c0 21.333 -28.667 42.666 -86 63.999c-38.667 14.667 -58 36.667 -58 66c0 8 12.5 24.833 37.5 50.5s37.5 51.834 37.5 78.501c0 58 -51 161.333 -153 310c-28.667 42 -66.667 87.5 -114 136.5
s-71 75.167 -71 78.5c0 23.333 14.833 39.333 44.5 48s102.5 13 218.5 13s174 -13.333 174 -40c0 -12.667 -4.83301 -28.667 -14.5 -48s-14.5 -33.333 -14.5 -42c0 -48.667 52.667 -168.334 158 -359.001c37.333 -68 67 -102 89 -102c11.333 0 33 26.667 65 80
c100.667 168.667 151 279.667 151 333c0 17.333 -4.66699 36.666 -14 57.999l-12 26c-14 26.667 -21 41.334 -21 44.001c0 34 57.833 51 173.5 51s173.5 -12 173.5 -36v-22c0 -8 -25.333 -35 -76 -81s-97.667 -104.333 -141 -175c-72.667 -118 -109 -206.667 -109 -266
c0 -23.333 10.667 -51.333 32 -84s32 -53.667 32 -63c0 -15.333 -21.833 -35.833 -65.5 -61.5s-65.5 -43.167 -65.5 -52.5c0 -29.333 27.167 -52.5 81.5 -69.5s81.5 -36.833 81.5 -59.5c0 -10.667 -18.333 -23.334 -55 -38.001l-31 -10l-33 -8
c-27.333 -8 -49 -18.667 -65 -32s-24 -39 -24 -77z" />
    <glyph glyph-name="brokenbar" unicode="&#xa6;" horiz-adv-x="537" 
d="M289 720l-44 -0.000976562c-30.667 0 -46 39.667 -46 119v548c0 36.667 3.33301 59.667 10 69s24.667 14 54 14h27c25.333 0 40.833 -6.16699 46.5 -18.5s8.5 -43.166 8.5 -92.499v-18l-1 -8v-247c0 -208 -1.33301 -319 -4 -333c-4 -22 -21 -33 -51 -33zM198 197.999
c0 119.333 2.83301 185 8.5 197s28.167 18 67.5 18h9c27.333 0 44.333 -5.83301 51 -17.5s10 -47.5 10 -107.5v-517c0 -47.333 -2.16699 -78.5 -6.5 -93.5s-18.5 -22.5 -42.5 -22.5h-45c-24 0 -38.667 7.33301 -44 22s-8 48.667 -8 102v62l1 9v277l-1 35v36z" />
    <glyph glyph-name="section" unicode="&#xa7;" horiz-adv-x="1079" 
d="M338 721l-0.00195312 -19c0 -62.667 33 -124.334 99 -185.001c10.667 -10 42.334 -32.5 95.001 -67.5s93.5 -63.333 122.5 -85s48.833 -32.5 59.5 -32.5c28.667 0 43 34 43 102v31c0 44.667 -19.667 90.334 -59 137.001c-157.333 186 -249.333 279 -276 279h-4
c-9.33301 0 -19.666 -9.33301 -30.999 -28c-32.667 -53.333 -49 -97.333 -49 -132zM580.998 1363c166.667 0 250.002 -61.334 250.002 -184.001c0 -52 -25.667 -78 -77 -78c-20 0 -43.333 20.333 -70 61s-48.5 65.667 -65.5 75s-44 14 -81 14s-68.5 -11.667 -94.5 -35
s-39 -56 -39 -98s19.333 -80.667 58 -116s101.167 -78.5 187.5 -129.5s153.166 -103.5 200.499 -157.5s71 -114.333 71 -181v-30c0 -46.667 -14.333 -97.667 -43 -153s-43 -87.666 -43 -96.999s5.83301 -35 17.5 -77s17.5 -83.167 17.5 -123.5
s-9.83301 -81.666 -29.5 -123.999s-50.834 -78.5 -93.501 -108.5c-73.333 -51.333 -164.166 -77 -272.499 -77s-186.333 18.167 -234 54.5s-71.5 80.166 -71.5 131.499c0 74 26.667 111 80 111c20 0 45.167 -22 75.5 -66s52.5 -71 66.5 -81c30 -20.667 70.167 -31 120.5 -31
s89.5 13.667 117.5 41s42 60.666 42 99.999s-21.333 79.333 -64 120c-20 19.333 -72.333 56.166 -157 110.499s-149.5 108.5 -194.5 162.5s-67.5 125.667 -67.5 215c0 51.333 13.333 98.833 40 142.5s40 70.5 40 80.5s-6 26.333 -18 49
c-33.333 66.667 -50 124.334 -50 173.001c0 88.667 33.167 161.834 99.5 219.501s160.166 86.5 281.499 86.5z" />
    <glyph glyph-name="dieresis" unicode="&#xa8;" horiz-adv-x="887" 
d="M248 1148h-19.999c-30 0 -55.333 10.333 -76 31s-31 41.667 -31 63c-1.33301 5.33301 -2 9.33301 -2 12l-1 16l1 4c0 34.667 12.167 62.167 36.5 82.5s51.833 30.5 82.5 30.5h4c31.333 0 58.666 -9.83301 81.999 -29.5s35 -45.167 35 -76.5v-24
c0 -32.667 -12 -59 -36 -79s-49 -30 -75 -30zM612.001 1151c-18.667 0 -37.833 9.83105 -57.5 29.498s-29.5 38.834 -29.5 57.501l-3 20v20c0 28.667 11 54 33 76s49.333 33 82 33h12c33.333 0 60.666 -10.667 81.999 -32s32 -48.333 32 -81v-9
c0 -37.333 -11.667 -65.666 -35 -84.999s-43.666 -29 -60.999 -29l-24 -3h-8l-4 1h-8c-5.33301 1.33301 -9 2 -11 2z" />
    <glyph glyph-name="copyright" unicode="&#xa9;" horiz-adv-x="1605" 
d="M774 69h38.999c75.333 0 148.333 16 219 48c137.333 62 235 165.333 293 310c31.333 78.667 47 160.334 47 245.001l-1 20v20c0 72.667 -16.167 145.5 -48.5 218.5s-70.833 132.833 -115.5 179.5s-102.667 86.167 -174 118.5s-142.666 48.5 -213.999 48.5h-19
c-80 0 -157.667 -15.167 -233 -45.5s-139.666 -71.166 -192.999 -122.499c-119.333 -114.667 -179 -259.334 -179 -434.001l1 -21v-19c0 -62 14.333 -128.667 43 -200s73 -135.833 133 -193.5s125.667 -100.834 197 -129.501s139.666 -43 204.999 -43zM1048 867
c-2 0 -30.1689 22.002 -84.502 66.002s-112 66 -173 66s-110.667 -29.667 -149 -89s-57.5 -138.5 -57.5 -237.5s23.167 -177.833 69.5 -236.5s106.833 -88 181.5 -88c46 0 95.833 16.667 149.5 50s82.834 50 87.501 50c14 0 21 -8.5 21 -25.5s-9.33301 -40.167 -28 -69.5
c-46 -71.333 -129.667 -107 -251 -107c-190 0 -318 79.667 -384 239c-22 52.667 -33 104.667 -33 156v42c0 119.333 39.167 218.166 117.5 296.499s177.333 117.5 297 117.5s198.834 -13 237.501 -39c25.333 -16.667 38 -59.334 38 -128.001c0 -42 -13 -63 -39 -63z
M1500 680.002l0.000976562 -23.002c0 -80 -17 -163.667 -51 -251s-84.333 -163.333 -151 -228s-144.167 -114.167 -232.5 -148.5s-178.833 -51.5 -271.5 -51.5h-23c-88.667 0 -176.334 17 -263.001 51c-182 70.667 -309.333 196.667 -382 378c-32 80 -48 159 -48 237v46
c0 86.667 18.333 173.334 55 260.001c72.667 170.667 194.667 291.334 366 362.001c91.333 38 186.333 57 285 57h23c92 0 180 -17 264 -51s157.5 -80.5 220.5 -139.5s113.5 -133.333 151.5 -223s57 -181.5 57 -275.5z" />
    <glyph glyph-name="ordfeminine" unicode="&#xaa;" horiz-adv-x="838" 
d="M248 873c0 -44.667 25.668 -67 77.001 -67h34c8 2 14.667 3 20 3c35.333 0 60.666 15.5 75.999 46.5s23 67.167 23 108.5l1 7v8l2 23v11c0 14.667 -5 22 -15 22h-7c-16 -4 -29 -6 -39 -6c-44 0 -83.167 -14.333 -117.5 -43s-51.5 -54 -51.5 -76l-3 -21v-16zM286.001 706
l-32.999 -0.00195312c-44 0 -82.667 14.5 -116 43.5s-50 67.167 -50 114.5v17c0 90.667 65.667 153.667 197 189c10 2.66699 35.5 7.66699 76.5 15s66.833 14.333 77.5 21c21.333 12.667 32 35.334 32 68.001c0 77.333 -38 116 -114 116
c-27.333 0 -56.5 -18.167 -87.5 -54.5s-63.167 -54.5 -96.5 -54.5s-50 23.333 -50 70c0 32 19.667 58.667 59 80c62 33.333 125.333 50 190 50h35c95.333 0 161.666 -27.667 198.999 -83c27.333 -40 41 -119.833 41 -239.5s3.5 -189.167 10.5 -208.5s22.5 -34.5 46.5 -45.5
s36 -21.167 36 -30.5v-11c0 -11.333 -11 -23.166 -33 -35.499s-50.833 -18.5 -86.5 -18.5s-62.167 6 -79.5 18c-2 1.33301 -9.66699 9.5 -23 24.5s-22.5 22.5 -27.5 22.5s-31 -11.333 -78 -34s-88.833 -34 -125.5 -34z" />
    <glyph glyph-name="guillemotleft" unicode="&#xab;" horiz-adv-x="1050" 
d="M543 888c0 -14.667 -44.666 -78.6689 -133.999 -192.002s-134 -171.666 -134 -174.999s44.333 -61.166 133 -173.499s133 -178.833 133 -199.5c0 -26 -14.667 -39 -44 -39c-14.667 0 -88.834 63 -222.501 189s-200.5 200.167 -200.5 222.5s67 96.5 201 222.5
s208 189 222 189c30.667 0 46 -14.667 46 -44zM467.001 521.998c0 16 61.666 85.668 184.999 209.001s195 185 215 185c30.667 0 46 -14 46 -42c0 -18.667 -40.667 -80.334 -122 -185.001s-122 -160 -122 -166c0 -6.66699 21 -37 63 -91
c118.667 -152.667 178.334 -242 179.001 -268c0 -25.333 -15.667 -38 -47 -38c-10.667 0 -79.5 59.5 -206.5 178.5s-190.5 191.5 -190.5 217.5z" />
    <glyph glyph-name="logicalnot" unicode="&#xac;" horiz-adv-x="1165" 
d="M1046 654v-323c0 -30 -14.667 -45 -44 -45h-13c-36 0 -57.833 10 -65.5 30s-11.5 60.667 -11.5 122c0 103.333 -16.667 162 -50 176c-14 6 -141 9 -381 9h-322c-36.667 0 -55 16 -55 48v14c0 43.333 11.667 66.333 35 69c17.333 2 162.333 3 435 3l127 1h42l15 -1l57 1
h164c44.667 0 67 -34.667 67 -104z" />
    <glyph glyph-name="uni00AD" unicode="&#xad;" horiz-adv-x="816" 
d="M709 594v-36c0 -38.667 -9.66699 -61.5 -29 -68.5s-112.333 -10.5 -279 -10.5h-22l-22 -1h-22l-22 -1h-21l-22 -1h-36l-22 -1h-57c-26 0 -39 15 -39 45v21c0 45.333 11 70.833 33 76.5s113.667 8.5 275 8.5l196 5h50c26 0 39 -12.333 39 -37z" />
    <glyph glyph-name="registered" unicode="&#xae;" horiz-adv-x="1506" 
d="M731 1089h-43c-24 0 -36 -11.333 -36 -34v-23l1 -4v-85l-1 -18v-32c0 -58.667 10.667 -88 32 -88h37c10 2 19 3 27 3l18 3c14 0 34.667 9.83301 62 29.5s41 45.167 41 76.5v34l-4 28c0 28.667 -13.333 54.167 -40 76.5s-58 33.5 -94 33.5zM210 807v-35.001
c0 -67.333 14 -134.666 42 -201.999c29.333 -68 70 -126 122 -174c106 -97.333 231.333 -146 376 -146h18c68 0 136.667 14.667 206 44s127.333 70.666 174 123.999c90.667 102.667 136 221.334 136 356.001v17c0 64 -14.667 130 -44 198
c-55.333 128.667 -153 222.667 -293 282c-63.333 26.667 -137 40 -221 40l-18 -1c-64 0 -128 -13.333 -192 -40c-128 -54 -218.333 -148 -271 -282c-23.333 -60 -35 -120.333 -35 -181zM751 1160c79.333 0 141.165 -16.168 185.498 -48.501s66.5 -79.5 66.5 -141.5
s-34 -118.333 -102 -169c-21.333 -16 -32 -27 -32 -33s20.333 -43 61 -111s70.334 -110 89.001 -126c38.667 -33.333 58 -52 58 -56c0 -26 -32 -39 -96 -39c-36 0 -63.167 9.66699 -81.5 29s-44 60.666 -77 123.999s-55.333 102.5 -67 117.5s-30.5 22.5 -56.5 22.5
c-31.333 0 -47 -41 -47 -123c0 -34 3.33301 -58.333 10 -73s14.834 -29.667 24.501 -45s14.5 -25 14.5 -29c0 -17.333 -21 -26 -63 -26h-53l-18 1h-18c-85.333 0 -128 12 -128 36c0 11.333 10.333 22.333 31 33s33 22.334 37 35.001s6 94.334 6 245.001s-2 237.667 -6 261
s-13.833 41 -29.5 53s-23.5 22 -23.5 30c0 21.333 68.333 32 205 32l73 1h37zM1399 784.998l0.000976562 -20.998c-0.666992 -78 -17.667 -155.667 -51 -233c-68.667 -158 -188 -270.667 -358 -338c-74 -29.333 -154.667 -44 -242 -44l-21 1h-21
c-76.667 0 -155 19.333 -235 58c-156 75.333 -262 192.666 -318 351.999c-23.333 66.667 -35 139.667 -35 219l1 21v5c0 75.333 15 149.666 45 222.999c60.667 149.333 163.667 258.333 309 327c83.333 39.333 166.666 59 249.999 59h42c172.667 0 325.667 -64 459 -192
c50.667 -48.667 92.5 -112.667 125.5 -192s49.5 -161 49.5 -245z" />
    <glyph glyph-name="macron" unicode="&#xaf;" horiz-adv-x="851" 
d="M157 1321h559c29.333 0 44 -14.667 44 -44l-1 -8v-8c0 -45.333 -10.667 -68 -32 -68l-30 -2h-458l-23 -1h-54c-39.333 0 -59 12.333 -59 37v32c0 41.333 18 62 54 62z" />
    <glyph glyph-name="degree" unicode="&#xb0;" horiz-adv-x="769" 
d="M386 1316h-26c-34 0 -65 -16.167 -93 -48.5s-42 -68.833 -42 -109.5v-29c0 -40 14.333 -76.333 43 -109s60 -49 94 -49h25c30.667 0 61 15 91 45s45 69.667 45 119v17c0 44 -14.333 82.333 -43 115s-60 49 -94 49zM357 1403h34.999c64.667 0 122.834 -23.667 174.501 -71
s77.5 -103.333 77.5 -168v-35c0 -68.667 -27.667 -126.334 -83 -173.001s-109 -70 -161 -70l-17 -2h-27c-64 0 -122 23.833 -174 71.5s-78 103.834 -78 168.501v26c0 57.333 20.333 110 61 158c53.333 63.333 117.333 95 192 95z" />
    <glyph glyph-name="plusminus" unicode="&#xb1;" horiz-adv-x="1126" 
d="M967 196c31.333 0 47 -11.999 47 -35.999v-41c0 -30.667 -12 -48 -36 -52c-16 -2.66699 -161.333 -4 -436 -4h-184l-40 -1h-140c-38.667 0 -58 12.333 -58 37v41c0 29.333 7.33301 45.666 22 48.999s161 5 439 5l234 2h152zM1012 736.001l0.000976562 -34
c0 -30.667 -12 -49 -36 -55c-14 -3.33301 -70.833 -5 -170.5 -5s-153.334 -3.66699 -161.001 -11s-11.5 -59 -11.5 -155s-3 -150.167 -9 -162.5s-25.667 -18.5 -59 -18.5s-53 6.5 -59 19.5s-9 67.167 -9 162.5s-6 147.333 -18 156c-6 4.66699 -59.333 7 -160 7
s-157.334 1.33301 -170.001 4c-20 4 -30 17.333 -30 40v16c0 36.667 6.66699 58.167 20 64.5s72.5 9.5 177.5 9.5s161.333 4.33301 169 13s11.5 62 11.5 160s3 152.167 9 162.5s23.667 15.5 53 15.5h18c26.667 0 42.5 -6.33301 47.5 -19s7.5 -67 7.5 -163
s5.66699 -149.333 17 -160c4.66699 -4.66699 66.334 -7 185.001 -7s178 -13.333 178 -40z" />
    <glyph glyph-name="uni00B2" unicode="&#xb2;" horiz-adv-x="832" 
d="M215 634c-68 0 -101.999 15.498 -101.999 46.498s10.333 59.833 31 86.5s64.667 71.334 132 134.001s117.166 116.834 149.499 162.501s48.5 89.5 48.5 131.5s-11 73.667 -33 95s-51.167 32 -87.5 32s-71.666 -22.5 -105.999 -67.5s-63.166 -67.5 -86.499 -67.5
c-30.667 0 -46 18.333 -46 55c0 51.333 23.167 95.333 69.5 132s111.833 55 196.5 55h22c73.333 0 133.5 -19.333 180.5 -58s70.5 -88.834 70.5 -150.501s-23.333 -121.5 -70 -179.5c-30 -37.333 -84.167 -87.666 -162.5 -150.999s-117.5 -101 -117.5 -113
s31.833 -18 95.5 -18s107.667 4 132 12s49.666 21 75.999 39s40.833 27 43.5 27c22.667 0 34 -17.667 34 -53c0 -70.667 -12.667 -116 -38 -136c-15.333 -12 -65 -18 -149 -18h-20l-20 1l-61 1h-123c-26.667 1.33301 -46.334 2 -59.001 2z" />
    <glyph glyph-name="uni00B3" unicode="&#xb3;" horiz-adv-x="828" 
d="M396 1428c69.333 0 125.499 -15.835 168.499 -47.502s64.5 -74.5 64.5 -128.5s-27.333 -105.667 -82 -155c-26.667 -24.667 -40 -37.667 -40 -39c0.666992 -1.33301 19 -12.666 55 -33.999c77.333 -47.333 116 -106.333 116 -177v-20c0 -60 -28 -113.333 -84 -160
s-128 -70 -216 -70h-41c-55.333 0 -106.833 12.333 -154.5 37s-71.5 54.334 -71.5 89.001v15c0 31.333 15.333 47 46 47c24 0 53.833 -14.167 89.5 -42.5s73.834 -42.5 114.501 -42.5s73 13 97 39s36 59.667 36 101c0 81.333 -47.667 129.666 -143 144.999
c-48.667 8 -73 23.333 -73 46c0 18 19.167 34.5 57.5 49.5s67.5 33.333 87.5 55s30 48.834 30 81.501s-9.5 57.667 -28.5 75s-44.667 26 -77 26s-65.833 -15 -100.5 -45s-61.334 -45 -80.001 -45c-24 0 -36 18.333 -36 55s21.833 70 65.5 100s102.834 45 177.501 45h22z" />
    <glyph glyph-name="acute" unicode="&#xb4;" horiz-adv-x="746" 
d="M264 1120h-21c-24 0 -36 9.66699 -36 29v5c0 27.333 60 118 180 272c32.667 42 71 63 115 63h18c58.667 0 88 -18.333 88 -55v-10c0 -21.333 -51 -77.333 -153 -168s-165.667 -136 -191 -136z" />
    <glyph glyph-name="uni00B5" unicode="&#xb5;" horiz-adv-x="1273" 
d="M914.5 933c35.667 0 66.8311 -19.6699 93.498 -59.0029c26 -38 39 -103.667 39 -197v-7c0 -158 21.333 -293.667 64 -407c24 -64.667 36 -111 36 -139v-19c0 -28 -10 -50.667 -30 -68s-51.333 -26 -94 -26c-7.33301 0 -46.166 11 -116.499 33s-113.833 33 -130.5 33
s-36 -4 -58 -12l-27 -13c-74.667 -35.333 -151 -53 -229 -53c-50.667 0 -76 -49.667 -76 -149l3 -80c0 -52.667 -11.167 -94.667 -33.5 -126s-54.833 -47 -97.5 -47c-32 0 -54.833 26 -68.5 78s-20.5 138.667 -20.5 260l15 531c1.33301 46.667 2 90.667 2 132
s-7 86.833 -21 136.5s-21 82.834 -21 99.501c0 90 57.667 135 173 135c39.333 0 67.333 -14.167 84 -42.5s25 -80.5 25 -156.5c0 -15.333 -0.666992 -38.666 -2 -69.999l-6 -108c-4 -97.333 -6 -169.666 -6 -216.999c0 -164.667 52.667 -247 158 -247
c46 0 89.167 12.333 129.5 37s72.333 58 96 100s35.5 163.667 35.5 365l4 196c0 42.667 4.33301 71.167 13 85.5s30.834 21.5 66.501 21.5z" />
    <glyph glyph-name="paragraph" unicode="&#xb6;" horiz-adv-x="1205" 
d="M995 -71c0 -62 -27.6621 -93.0029 -82.9951 -93.0029c-12.667 0 -27.834 8.5 -45.501 25.5s-28.834 44.833 -33.501 83.5s-8.33398 103.667 -11.001 195s-10.5 231.166 -23.5 419.499s-19.5 329.333 -19.5 423s-5 145.334 -15 155.001s-30.333 14.5 -61 14.5
s-48.334 -16 -53.001 -48l-1 -34l1 -36v-86c0 -33.333 3.33301 -110 10 -230s10 -262.833 10 -428.5s-4.66699 -266.167 -14 -301.5c-17.333 -66 -56 -99 -116 -99c-41.333 0 -62 27 -62 81c0 17.333 4 42.833 12 76.5s12 70.5 12 110.5c0 198 -22.667 341.667 -68 431
c-17.333 33.333 -57.5 69.5 -120.5 108.5s-106.5 72.833 -130.5 101.5c-52 62.667 -78 133.334 -78 212.001c0 229.333 111.667 361 335 395c70 10.667 190.667 16 362 16l40 -1c100.667 0 162.667 -4.16699 186 -12.5s35 -23.5 35 -45.5
c0 -3.33301 -8.33301 -18.666 -25 -45.999c-46.667 -76.667 -70.334 -176.667 -71.001 -300l-2 -39l-2 -78c-0.666992 -26 -1 -62.333 -1 -109v-211l1 -80v-267c0 -84 1.33301 -135.167 4 -153.5s8 -44.166 16 -77.499s12 -57.333 12 -72z" />
    <glyph glyph-name="periodcentered" unicode="&#xb7;" horiz-adv-x="535" 
d="M283 494l-34 0.00195312c-30 0 -58.167 11.333 -84.5 34s-39.5 52.667 -39.5 90v28c0 33.333 12.667 62.666 38 87.999s55.333 38 90 38h33c34 0 63.333 -12.333 88 -37s37 -55.334 37 -92.001v-19c0 -32 -11.833 -61.667 -35.5 -89s-54.5 -41 -92.5 -41z" />
    <glyph glyph-name="cedilla" unicode="&#xb8;" horiz-adv-x="734" 
d="M337 -449l-27 -0.000976562c-74 0 -111 15.333 -111 46v7v1v5c0 24 24.333 36 73 36c89.333 0 134.333 29.667 135 89c0 24 -20.167 46.833 -60.5 68.5s-60.5 42.834 -60.5 63.501c0 36 12 75 36 117c9.33301 16.667 27 25 53 25h8c22 0 33 -18.333 33 -55
c0 -20 28.167 -45 84.5 -75s84.5 -71.667 84.5 -125v-17c0 -50 -24 -93.5 -72 -130.5s-106.667 -55.5 -176 -55.5z" />
    <glyph glyph-name="uni00B9" unicode="&#xb9;" horiz-adv-x="705" 
d="M463 629h-241c-57.333 0 -86 13 -86 39c0 12 16.833 26.833 50.5 44.5s54.167 38.167 61.5 61.5s11 101.833 11 235.5s-5 209.334 -15 227.001s-33.167 29.334 -69.5 35.001s-54.5 18.167 -54.5 37.5c0 14.667 10.667 27 32 37c116 52.667 197.333 79 244 79
c29.333 0 44 -30 44 -90l-2 -39c-0.666992 -8.66699 -1 -17.334 -1 -26.001l-2 -26l-3 -93v-121c0 -140.667 3.16699 -222.334 9.5 -245.001s26 -45.667 59 -69s49.5 -39.333 49.5 -48c0 -26 -29 -39 -87 -39z" />
    <glyph glyph-name="ordmasculine" unicode="&#xba;" horiz-adv-x="861" 
d="M418 1313l-25.998 -0.000976562c-32.667 0 -62.334 -19 -89.001 -57s-40 -81.667 -40 -131l-3 -31v-16l-1 -25l1 -8v-16l2 -31c0 -55.333 15.333 -104 46 -146s64 -63 100 -63h20c37.333 0 68.666 19.833 93.999 59.5s38 95.834 38 168.501v40l-1 8l-1 23l-3 37
c0 45.333 -14 88 -42 128s-59.667 60 -95 60zM398.002 1391h46.001c90 0 164.167 -31.333 222.5 -94s87.5 -141.334 87.5 -236.001v-11c0 -94 -26.333 -171 -79 -231c-31.333 -35.333 -69.833 -62.166 -115.5 -80.499s-89.834 -27.5 -132.501 -27.5h-23
c-96 0 -172.667 30.667 -230 92s-86 136.666 -86 225.999v35c0 90.667 29.667 167.834 89 231.501s133 95.5 221 95.5z" />
    <glyph glyph-name="guillemotright" unicode="&#xbb;" horiz-adv-x="1051" 
d="M175 916c13.333 0 81.5 -61.5 204.5 -184.5s184.5 -193.5 184.5 -211.5s-61.333 -88.333 -184 -211s-193 -184 -211 -184c-30.667 0 -46 14.333 -46 43c0 20 40.5 82.167 121.5 186.5s121.5 159.166 121.5 164.499s-41 60.833 -123 166.5s-123 168.834 -123 189.501
c0 27.333 15.667 41 47 41h8zM533 110c-28 0 -42 12.833 -42 38.5s44.333 91.667 133 198s133 164.333 133 174s-45 68.5 -135 176.5s-135 172 -135 192v9c0 23.333 12.667 35 38 35h9c13.333 0 86.833 -63 220.5 -189s200.5 -200.667 200.5 -224
c0 -14.667 -64.667 -86.667 -194 -216s-202.333 -194 -219 -194h-9z" />
    <glyph glyph-name="onequarter" unicode="&#xbc;" horiz-adv-x="1662" 
d="M1052 310l41 0.000976562l4 1h5c69.333 0 105.5 3.5 108.5 10.5s4.5 38.167 4.5 93.5v109l1 15v9l1 14v14l1 19v31c0 3.33301 -0.666992 5 -2 5c-6.66699 0 -22.167 -19.667 -46.5 -59s-43.666 -68.5 -57.999 -87.5s-25.833 -35.5 -34.5 -49.5
s-17.334 -26.667 -26.001 -38s-15.5 -21 -20.5 -29s-12 -18.333 -21 -31s-13.5 -19.334 -13.5 -20.001v-2c0 -3.33301 18.667 -5 56 -5zM304 574.001l-38.999 -0.000976562c-104 0 -156 13.333 -156 40c0 10.667 16.333 24.667 49 42s53 41.5 61 72.5s12 112.167 12 243.5
s-4.66699 207.5 -14 228.5s-31 34 -65 39s-51 17.167 -51 36.5c0 14 10.333 26.333 31 37c96.667 50.667 173.667 76 231 76c34 0 51 -31.333 51 -94l-2 -26l-4 -105v-27l-1 -14v-107c0 -172.667 3.66699 -270.5 11 -293.5s20.666 -40.833 39.999 -53.5
c38.667 -25.333 58 -41.666 58 -48.999v-9c0 -24.667 -70.667 -37 -212 -37zM393.001 -25l-15.999 -0.00292969c-34.667 0 -52 7.33301 -52 22s12.667 44.334 38 89.001c195.333 344.667 438 738.334 728 1181c46.667 71.333 85.667 107 117 107h16c34 0 51 -7.66699 51 -23
v-14c0 -5.33301 -10.333 -25.333 -31 -60c-348.667 -581.333 -590.334 -974.666 -725.001 -1180c-53.333 -81.333 -95.333 -122 -126 -122zM1253 -17.0029c-68 0 -102.002 22.0029 -102.002 66.0029c0 9.33301 7.66699 23.666 23 42.999s23 38.666 23 57.999
s-8.16699 33.5 -24.5 42.5s-56.5 13.5 -120.5 13.5c-109.333 0 -164 18 -164 54c0 43.333 94.667 184.666 284 423.999c64.667 82 114.334 123 149.001 123h14c28.667 0 47 -11.333 55 -34c2.66699 -8 4 -70.833 4 -188.5s3.83301 -186.667 11.5 -207
s26.334 -39.166 56.001 -56.499s44.5 -35.333 44.5 -54c0 -2 -17 -20 -51 -54c-18.667 -18.667 -28 -45.334 -28 -80.001c0 -5.33301 5.5 -16.333 16.5 -33s16.5 -29 16.5 -37c0 -52 -50.333 -78 -151 -78l-28 -2h-28z" />
    <glyph glyph-name="onehalf" unicode="&#xbd;" horiz-adv-x="1738" 
d="M162 577c-30.667 0 -46 13.6689 -46 41.002c0 10 21 26 63 48c25.333 13.333 42.333 34.166 51 62.499s13 107.333 13 237s-4.5 204.167 -13.5 223.5s-31.167 33.666 -66.5 42.999s-53 21.333 -53 36s11 27.667 33 39c108 54 184.667 81 230 81h12
c25.333 0 38 -27.333 38 -82l-3 -65l-2 -27l-2 -53v-95l-1 -27v-147c0 -84 3.66699 -137.333 11 -160s25.833 -44.5 55.5 -65.5s44.5 -36.833 44.5 -47.5v-8c0 -22 -77.333 -33 -232 -33l-27 -1h-105zM388.5 -47.998c-39 0 -58.5 8 -58.5 24v13c0 10 24 52.667 72 128
s169 276.5 363 603.5s310 519.5 348 577.5s75.833 87 113.5 87s56.5 -8 56.5 -24v-13c0 -6 -10 -26.333 -30 -61l-738 -1227c-45.333 -72 -87.5 -108 -126.5 -108zM1120 -3.99805c-67.333 0 -101.001 14.668 -101.001 44.001c0 39.333 46 105 138 197s152 158.667 180 200
s42 82.333 42 123s-10 72 -30 94s-48 33 -84 33s-73 -21.833 -111 -65.5s-65.667 -65.5 -83 -65.5c-33.333 0 -50 24.5 -50 73.5s28.5 89.833 85.5 122.5s123.333 49 199 49s137.334 -19 185.001 -57s71.5 -96 71.5 -174c0 -49.333 -22.667 -102 -68 -158
c-23.333 -28.667 -75.333 -78 -156 -148s-121 -109.667 -121 -119c0 -16 32.5 -24 97.5 -24s108.333 3.16699 130 9.5s44.834 17.666 69.501 33.999s38.667 24.5 42 24.5c22.667 0 34 -15 34 -45v-19c0 -56 -13 -94.667 -39 -116c-15.333 -12.667 -51 -19 -107 -19h-61
l-164 4h-40c-26.667 1.33301 -46.334 2 -59.001 2z" />
    <glyph glyph-name="threequarters" unicode="&#xbe;" horiz-adv-x="1738" 
d="M1294 625c0 3.33301 -1.16602 5.00098 -3.49902 5.00098s-9.83301 -10.167 -22.5 -30.5s-49.334 -70.833 -110.001 -151.5s-91 -123.667 -91 -129s2.33301 -8 7 -8h17l5 1h82c74 0 111 9 111 27c1.33301 5.33301 2 9.66602 2 12.999l2 29v10l1 14l-1 5v14l-1 9v23l-1 9v9
l-1 14v59l4 61v17zM373.001 1391c68.667 0 125.831 -14.668 171.498 -44.001s68.5 -66.333 68.5 -111s-8.16699 -80 -24.5 -106s-38 -51.5 -65 -76.5s-40.5 -38.333 -40.5 -40s16.333 -10.667 49 -27s61.834 -39.333 87.501 -69s38.5 -66.167 38.5 -109.5v-20
c0 -72 -32.167 -130.167 -96.5 -174.5s-135.833 -66.5 -214.5 -66.5h-41c-66 0 -117.5 13.5 -154.5 40.5s-55.5 57.167 -55.5 90.5s19 50 57 50c12 0 34.667 -13.833 68 -41.5s70.333 -41.5 111 -41.5s73.667 14.333 99 43s38 63.834 38 105.501s-11.5 73.5 -34.5 95.5
s-57.167 39.5 -102.5 52.5s-68 28 -68 45s17.333 33.167 52 48.5c76 33.333 114 81.333 114 144c0 28 -9.16699 51.5 -27.5 70.5s-42.166 28.5 -71.499 28.5s-61.5 -13.833 -96.5 -41.5s-61.833 -41.5 -80.5 -41.5c-22.667 0 -34 18.167 -34 54.5s22.5 69 67.5 98
s99.833 43.5 164.5 43.5h21zM1302.5 1373c37.667 0 56.498 -11.667 56.498 -35c0 -8.66699 -21.667 -49 -65 -121c-362 -603.333 -600 -986 -714 -1148c-45.333 -64 -86.166 -96 -122.499 -96s-54.5 12 -54.5 36c0 8 9.33301 27.667 28 59
c290.667 484.667 541.334 887.667 752.001 1209c42 64 81.833 96 119.5 96zM1537 52c0 -47.333 -64.334 -71.002 -193.001 -71.002h-14c-32.667 0 -58 6.33301 -76 19s-27 26.5 -27 41.5s7.5 32 22.5 51s22.5 38.333 22.5 58s-9 33.834 -27 42.501s-56.333 13 -115 13
c-110.667 0 -166 17.333 -166 52v13c0 45.333 101 190.333 303 435c55.333 67.333 101.5 101 138.5 101s58.833 -15 65.5 -45c1.33301 -6 2 -66 2 -180s3.33301 -182 10 -204s25.334 -40.667 56.001 -56s46 -33.666 46 -54.999c0 -7.33301 -13.333 -22.5 -40 -45.5
s-40 -50.167 -40 -81.5c0 -10.667 5.33301 -24 16 -40s16 -32 16 -48z" />
    <glyph glyph-name="questiondown" unicode="&#xbf;" horiz-adv-x="963" 
d="M394 1043v16c0 32.667 15 59.667 45 81s58.667 32 86 32h15c36.667 0 69.5 -12.5 98.5 -37.5s43.5 -56.5 43.5 -94.5v-15c0 -30 -14 -61.167 -42 -93.5s-60 -48.5 -96 -48.5h-5c-44 0 -79.167 18.333 -105.5 55s-39.5 71.667 -39.5 105zM118 63
c0 69.333 17.1689 131.328 51.502 185.995s86.166 111.834 155.499 171.501s111.166 100.834 125.499 123.501s21.5 59.834 21.5 111.501s19.333 77.5 58 77.5c23.333 0 41.666 -17.667 54.999 -53s20 -76 20 -122s-9.16699 -85.667 -27.5 -119s-51.333 -76 -99 -128
s-81 -96.333 -100 -133s-28.5 -85.667 -28.5 -147c0 -35.333 14.5 -66.833 43.5 -94.5s68.667 -41.5 119 -41.5s99.333 22.5 147 67.5s81.834 67.5 102.501 67.5c45.333 0 68 -28.333 68 -85v-17c0 -57.333 -22 -99.666 -66 -126.999c-65.333 -40.667 -152.333 -61 -261 -61
s-200.667 29.667 -276 89c-34 26.667 -60.667 59.334 -80 98.001s-29 77.667 -29 117v19z" />
    <glyph glyph-name="Agrave" unicode="&#xc0;" horiz-adv-x="1436" 
d="M587 574l196 0.000976562c40 0 60 5.33301 60 16c0 2.66699 -12.333 41 -37 115l-10 30l-3 8l-3 7l-10 30l-6 15l-5 15l-47 125c-25.333 64 -43 111.167 -53 141.5s-17.167 45.5 -21.5 45.5s-13.833 -20.667 -28.5 -62c-106 -296.667 -159 -451.334 -159 -464.001v-6
c0 -10.667 42.333 -16 127 -16zM776 1478h-17c-46 0 -131.667 48.667 -257 146c-72 56 -108 95.333 -108 118v6l1 5c0 10.667 9 23 27 37s40.667 21 68 21h17c6.66699 -1.33301 12 -2 16 -2c34.667 0 72.667 -23.333 114 -70c116 -130.667 174 -204 174 -220v-14
c0 -18 -11.667 -27 -35 -27zM13 48.001c0 12 25.332 35.3301 75.999 69.9971c30 20.667 54.833 51.834 74.5 93.501s41.834 97.334 66.501 167.001s70 186.334 136 350.001s113 292.834 141 387.501s48.667 154 62 178c26 48 61 72 105 72h28
c46.667 0 95.334 -48 146.001 -144c1.33301 -2.66699 66 -172.667 194 -510s195.333 -513 202 -527c16.667 -34.667 45 -62.834 85 -84.501s60 -43.834 60 -66.501c0 -26 -54 -39 -162 -39h-118l-30 1c-20 0.666992 -39.333 1 -58 1c-72 0 -108 13.333 -108 40
c0 8.66699 9 25.667 27 51s27 52.666 27 81.999s-11.167 75 -33.5 137s-42.333 103 -60 123s-90.834 30 -219.501 30s-202.667 -5.66699 -222 -17s-41.5 -46.5 -66.5 -105.5s-37.5 -115.167 -37.5 -168.5c0 -27.333 14.167 -54.666 42.5 -81.999s42.5 -47.666 42.5 -60.999
c0 -16.667 -43.333 -25 -130 -25l-29 1c-19.333 0.666992 -38.333 1 -57 1c-122.667 0 -184 15 -184 45z" />
    <glyph glyph-name="Aacute" unicode="&#xc1;" horiz-adv-x="1437" 
d="M475 566h22l8 1l151 5c122 0 183 2.33301 183 7v5c0 30 -52.333 191.667 -157 485c-13.333 38 -22.333 57 -27 57c-1.33301 0 -13.333 -25.667 -36 -77c-109.333 -250 -164 -407 -164 -471c0 -8 6.66699 -12 20 -12zM631 1469h-11.002c-25.333 0 -38 12.667 -38 38v5
c0 10 9 26.667 27 50c88.667 114 142 179 160 195c43.333 38.667 83.333 58 120 58h18c26.667 0 50.334 -8 71.001 -24s31 -30.333 31 -43v-11c0 -30 -18.667 -58 -56 -84c-175.333 -122.667 -282.666 -184 -321.999 -184zM27.998 66c0 13.333 20.334 34.001 61.001 62.001
s70.5 62.667 89.5 104s40.167 95.5 63.5 162.5s58.833 162 106.5 285s94.834 253.5 141.501 391.5s75 215.333 85 232c26.667 45.333 61.667 68 105 68h27c50.667 0 105.667 -65.667 165 -197c2.66699 -6 59.667 -162.5 171 -469.5s174.666 -475.833 189.999 -506.5
s42.5 -56.834 81.5 -78.501s58.5 -38.167 58.5 -49.5c0 -24 -10.667 -40.167 -32 -48.5s-94.333 -12.5 -219 -12.5h-88c-86.667 0 -130 13.333 -130 40c0 4.66699 9.33301 19 28 43s28 48.833 28 74.5s-11.167 70 -33.5 133s-42.833 104.5 -61.5 124.5
s-89.334 30 -212.001 30s-194.5 -6.33301 -215.5 -19s-42.667 -47.834 -65 -105.501s-33.5 -105.167 -33.5 -142.5s12.833 -70.666 38.5 -99.999s38.5 -47 38.5 -53c0 -14.667 -33 -22 -99 -22c-192.667 0 -289 18 -289 54z" />
    <glyph glyph-name="Acircumflex" unicode="&#xc2;" horiz-adv-x="1439" 
d="M527 579h198c78 0 117 5.33301 117 16c0 4 -31 92.833 -93 266.5s-94.667 260.5 -98 260.5c-6.66699 0 -17 -20.833 -31 -62.5s-45 -122.5 -93 -242.5s-72 -193 -72 -219v-6c0 -8.66699 24 -13 72 -13zM694 1806l17 0.000976562c34 0 66.667 -18.333 98 -55
c136 -160.667 204 -244.334 204 -251.001c0 -21.333 -14 -32 -42 -32h-8c-38 0 -89.667 27.667 -155 83s-101.5 83 -108.5 83s-43 -27.5 -108 -82.5s-120.5 -82.5 -166.5 -82.5c-24 0 -36 10 -36 30v6c0 28.667 72.667 115.667 218 261c26.667 26.667 55.667 40 87 40z
M19 54.001c0 10 26.3301 34.332 78.9971 72.999c34 25.333 64.667 70 92 134l51.5 141l116 308.5c45 117 89.333 239.5 133 367.5s67.5 196.667 71.5 206c28.667 62 68 93 118 93c32.667 0 60.334 -8.33301 83.001 -25s48.334 -52.5 77.001 -107.5s94.834 -228 198.501 -519
s165.5 -459 185.5 -504s41 -76.167 63 -93.5c5.33301 -4 22.333 -13.167 51 -27.5s43 -28.5 43 -42.5c0 -29.333 -16.167 -46.833 -48.5 -52.5s-100.833 -8.5 -205.5 -8.5h-60c-107.333 0 -161 14 -161 42c0 6 9.33301 20.833 28 44.5s28 49.834 28 78.501
s-11.5 75 -34.5 139s-43.5 105.333 -61.5 124s-89.5 28 -214.5 28s-197.5 -6.5 -217.5 -19.5s-41.333 -48.5 -64 -106.5s-34 -113 -34 -165c0 -26 10.333 -50 31 -72l50 -54c0 -24 -34.667 -36 -104 -36c-126 0 -206.5 4 -241.5 12s-52.5 22 -52.5 42z" />
    <glyph glyph-name="Atilde" unicode="&#xc3;" horiz-adv-x="1434" 
d="M528 578l126.999 0.000976562l8 1c120.667 0 181 5.33301 181 16c0 1.33301 -31.167 89.333 -93.5 264s-96.166 262 -101.499 262s-13.5 -16.667 -24.5 -50s-41.833 -113.333 -92.5 -240s-76 -204.334 -76 -233.001v-6c0 -9.33301 24 -14 72 -14zM561.999 1746
l24 0.000976562c36 0 82.333 -15 139 -45s100 -45 130 -45s60.5 13 91.5 39s51.5 39 61.5 39c24.667 0 37 -11 37 -33c0 -46.667 -22.667 -90.834 -68 -132.501s-89.333 -62.5 -132 -62.5h-16l-9 1c-29.333 0 -75.5 14.833 -138.5 44.5s-107.667 44.5 -134 44.5
s-56.5 -13 -90.5 -39s-54.333 -39 -61 -39c-24 0 -36 11 -36 33v8c0 39.333 23.167 80.333 69.5 123s90.5 64 132.5 64zM11.999 50.002c0 18.667 18.5029 38.001 55.5029 58.001s64.5 46.5 82.5 79.5s44.167 96.5 78.5 190.5s79.166 209.667 134.499 347
s100.5 260.166 135.5 368.499s55.167 167.833 60.5 178.5c29.333 64 68.333 96 117 96h28c56 0 112.667 -65 170 -195c8.66699 -19.333 38.667 -102.333 90 -249l97 -260c115.333 -309.333 180.666 -476 195.999 -500s41.166 -45.333 77.499 -64s54.5 -33.667 54.5 -45v-20
c0 -25.333 -64 -38 -192 -38h-88l-30 1c-20 0.666992 -39.667 1 -59 1c-71.333 0 -107 13.333 -107 40c0 6.66699 9 23.334 27 50.001s27 54.667 27 84s-11 74.833 -33 136.5s-41.833 102.5 -59.5 122.5s-91 30 -220 30s-203.167 -5.66699 -222.5 -17
s-41.5 -46.5 -66.5 -105.5s-37.5 -108.833 -37.5 -149.5s10.667 -71.334 32 -92.001c35.333 -34 53 -57.333 53 -70c0 -16.667 -43.333 -25 -130 -25l-28 1c-18.667 0.666992 -38 1 -58 1c-123.333 0 -185 15 -185 45z" />
    <glyph glyph-name="Adieresis" unicode="&#xc4;" horiz-adv-x="1436" 
d="M576 574h61.9971l8 1h8c121.333 0 182 4.33301 182 13v6c0 6 -16 57 -48 153c-9.33301 25.333 -16.666 46.166 -21.999 62.499l-14 41.5l-23 63l-35 96l-2 7c-8 20.667 -16.167 43.834 -24.5 69.501s-14.166 38.5 -17.499 38.5s-12.666 -19.333 -27.999 -58
c-110.667 -276.667 -166 -434.667 -166 -474c0 -12.667 40 -19 120 -19zM516.997 1515l-27.999 0.000976562c-5.33301 1.33301 -9 2 -11 2c-20.667 0 -41.167 10.167 -61.5 30.5s-30.5 44.833 -30.5 73.5v24c0 27.333 11.167 52.166 33.5 74.499s50.166 33.5 83.499 33.5h8
c29.333 0 55.833 -9.5 79.5 -28.5s35.5 -43.833 35.5 -74.5v-28c-2 -8 -3 -17.5 -3 -28.5s-10.333 -26.833 -31 -47.5s-45.667 -31 -75 -31zM779.998 1633l2.00195 19c0 18.667 10.167 38.167 30.5 58.5s40.166 30.5 59.499 30.5l20 3h19l23 -4
c11.333 0 27.5 -8.66699 48.5 -26s31.5 -38 31.5 -62l3 -24v-12c0 -30 -10.833 -55.833 -32.5 -77.5s-46.834 -32.5 -75.501 -32.5h-24c-32 0 -57.667 11.5 -77 34.5s-29 48.5 -29 76.5v12zM14 50.001c0 12.667 25.3359 36.001 76.0029 70.001
c31.333 21.333 57.666 56 78.999 104s41.666 100.167 60.999 156.5s64.166 171.666 134.499 345.999s118.666 306.5 144.999 396.5s46.166 147.667 59.499 173c25.333 48 60.333 72 105 72h28c56.667 0 114 -65 172 -195c10.667 -24 38.167 -98.833 82.5 -224.5
s87 -240.334 128 -344.001s75.833 -196.5 104.5 -278.5s50.834 -135.5 66.501 -160.5s41.834 -47 78.501 -66s55 -33.833 55 -44.5v-20c0 -25.333 -54 -38 -162 -38h-118l-30 1c-20 0.666992 -39.333 1 -58 1c-72 0 -108 13.333 -108 40c0 6.66699 9.16699 23.5 27.5 50.5
s27.5 54.5 27.5 82.5s-11.333 73.833 -34 137.5s-42.5 105 -59.5 124s-90.333 28.5 -220 28.5s-204.167 -6 -223.5 -18s-41.333 -47.667 -66 -107s-37 -114.666 -37 -165.999c0 -26.667 14.167 -53.667 42.5 -81s42.5 -48.5 42.5 -63.5s-53 -22.5 -159 -22.5
c-160 0 -240 15.333 -240 46z" />
    <glyph glyph-name="Aring" unicode="&#xc5;" horiz-adv-x="1439" 
d="M579 1633v-25c0 -24.667 9.66699 -46.667 29 -66s38.666 -29 57.999 -29l7 -2h30c8 2 16.167 3 24.5 3s22 9.5 41 28.5s28.5 42.167 28.5 69.5v15l-1 3v7c-1.33301 5.33301 -2 12 -2 20s-9.66699 21.667 -29 41s-40.333 29 -63 29h-30
c-5.33301 -1.33301 -12.666 -2 -21.999 -2s-23.5 -9.5 -42.5 -28.5s-28.5 -40.167 -28.5 -63.5zM498 549h15.002l8 1l123 3c124 0 186 2.33301 186 7c0 10 -25.333 91 -76 243l-42 126c-28.667 72 -46.167 119.167 -52.5 141.5s-11.5 33.5 -15.5 33.5
s-9.5 -12.5 -16.5 -37.5s-14.5 -48.167 -22.5 -69.5l-21 -63c-6.66699 -20 -12.334 -35.833 -17.001 -47.5s-13.334 -36.5 -26.001 -74.5l-82 -246v-6c0 -7.33301 13 -11 39 -11zM481.002 1603v25.999c0 50 20.333 93 61 129s88.667 54 144 54h7
c60.667 0 109.5 -18.5 146.5 -55.5s55.5 -79.833 55.5 -128.5v-13c0 -53.333 -20.5 -98.166 -61.5 -134.499s-86.833 -54.5 -137.5 -54.5h-27c-9.33301 1.33301 -16 2 -20 2c-44 0 -83 19.167 -117 57.5s-51 77.5 -51 117.5zM693.002 1353
c30.667 0 59.668 -15.6641 87.001 -46.9971s50.666 -66.333 69.999 -105s48.5 -113.667 87.5 -225l163 -455c69.667 -192 107.5 -295 113.5 -309c24 -53.333 51 -88.666 81 -105.999c50 -28.667 75 -52.667 75 -72c0 -30.667 -83 -46 -249 -46h-29l-28 1
c-112 0 -168 12.333 -168 37c0 8 9.66699 24.167 29 48.5s29 50.166 29 77.499s-11 73.166 -33 137.499s-39.333 104.5 -52 120.5c-18 24 -89.667 36 -215 36s-198 -5.66699 -218 -17s-42.5 -47 -67.5 -107s-37.5 -122 -37.5 -186c0 -18.667 12.833 -39.5 38.5 -62.5
s38.5 -42.333 38.5 -58s-31 -23.5 -93 -23.5c-153.333 0 -241.166 6 -263.499 18s-33.5 24.5 -33.5 37.5s20.667 34.5 62 64.5s74.666 74.333 99.999 133c10 23.333 28.5 73.666 55.5 150.999s68.167 186.166 123.5 326.499s98.5 260.333 129.5 360s50.833 158.5 59.5 176.5
c30 62.667 78.333 94 145 94z" />
    <glyph glyph-name="AE" unicode="&#xc6;" horiz-adv-x="1934" 
d="M852 613c29.333 0 46.668 5.5 52.001 16.5s8 52.167 8 123.5l1 16v69l-2 24l-1 8v52l2 33v16l5 97v16l1 23v16l1 15c0 34 -3 51 -9 51h-5c-16.667 0 -46.667 -40.333 -90 -121l-64.5 -115.5c-27 -47 -50.333 -91.667 -70 -134s-45.834 -88.833 -78.501 -139.5
c-20 -35.333 -30 -53.333 -30 -54c0 -6.66699 19.667 -10 59 -10l80 2l30 -1c5.33301 -0.666992 11 -1 17 -1l57 -2h37zM1509 861c42 0 62.999 -61.333 62.999 -184c0 -86.667 -18 -130 -54 -130c-13.333 0 -41.333 12.5 -84 37.5s-85.334 37.5 -128.001 37.5
s-77.5 -12.833 -104.5 -38.5s-40.5 -65.167 -40.5 -118.5c0 -108.667 20.667 -196.667 62 -264c26 -42.667 73.667 -64 143 -64c134 0 255.333 36.667 364 110c20 13.333 33 20 39 20c25.333 0 38 -26.5 38 -79.5s-22.833 -97.167 -68.5 -132.5s-121.834 -53 -228.501 -53
h-108l-55 1h-54c-191.333 0 -312.5 4.83301 -363.5 14.5s-76.5 31.167 -76.5 64.5c0 3.33301 12 28.666 36 75.999s36 104.833 36 172.5s-12.667 115.5 -38 143.5s-65.666 42 -120.999 42c-136.667 0 -228 -24 -274 -72c-34 -35.333 -64.333 -84.333 -91 -147
s-40 -105.5 -40 -128.5s6.83301 -46.167 20.5 -69.5s20.5 -42 20.5 -56c0 -25.333 -60.667 -38 -182 -38s-182 15.667 -182 47c0 20 23 48.167 69 84.5s88 86.833 126 151.5c130.667 220 279 484 445 792c26.667 49.333 41.5 83 44.5 101s5.33301 43.667 7 77
s5.16699 54.333 10.5 63c14 22 43.667 36 89 42s117.833 9 217.5 9s167.167 0.333008 202.5 1l164 2c114.667 0 193.667 -12 237 -36c56.667 -31.333 85 -84 85 -158c0 -29.333 -8.66699 -44 -26 -44c-7.33301 0 -29.666 8.66699 -66.999 26
c-120 55.333 -216.667 83 -290 83s-122 -17 -146 -51c-34.667 -49.333 -52 -131.666 -52 -246.999c0 -53.333 13.667 -93.333 41 -120s62.833 -40 106.5 -40s85.334 12.167 125.001 36.5s67.167 36.5 82.5 36.5z" />
    <glyph glyph-name="Ccedilla" unicode="&#xc7;" horiz-adv-x="1380" 
d="M922 -271l-0.00488281 -16.0029c0 -40 -26.167 -77.5 -78.5 -112.5s-113.5 -52.5 -183.5 -52.5l-9 1c-58.667 0 -88 13 -88 39v7c0 29.333 5.5 47.166 16.5 53.499s31.333 9.5 61 9.5s54 8.5 73 25.5s28.5 41.5 28.5 73.5s-15 58.833 -45 80.5s-45 39.167 -45 52.5
c0 3.33301 9.33301 26 28 68c-67.333 4.66699 -134.333 19.334 -201 44.001c-82 30.667 -152.333 77.334 -211 140.001c-118.667 127.333 -178 290 -178 488v35c0 94 18.333 185 55 273c110.667 264 310.334 396 599.001 396c52.667 0 107 -7.33301 163 -22l164 -43
c112.667 0 169 -59.667 169 -179c0 -64.667 -21.667 -97 -65 -97c-1.33301 0 -37 18.667 -107 56l-24 13l-48 32c-23.333 14 -62.166 32.167 -116.499 54.5s-108.833 33.5 -163.5 33.5c-122 0 -216 -54 -282 -162c-56.667 -91.333 -85 -219.666 -85 -384.999
c0.666992 -151.333 40.334 -279 119.001 -383c34.667 -45.333 77.834 -79.333 129.501 -102s105.667 -34 162 -34s117.5 11.667 183.5 35s123.833 50 173.5 80s78.5 45 86.5 45c26 0 39 -13.333 39 -40v-23c0 -14.667 -9.33301 -39.667 -28 -75s-44 -62.666 -76 -81.999
c-32 -18.667 -88 -40 -168 -64c-65.333 -19.333 -131.666 -31 -198.999 -35c0 -1.33301 -0.333008 -2.66602 -1 -3.99902c0 -8.66699 14.333 -22.834 43 -42.501s54 -46.167 76 -79.5s33 -67.333 33 -102z" />
    <glyph glyph-name="Egrave" unicode="&#xc8;" 
d="M351 1756v9.99902c0 12.667 10.333 25.834 31 39.501s44 20.5 70 20.5h11c28.667 0 63 -15.5 103 -46.5s98 -95.5 174 -193.5c20.667 -26.667 31 -45.667 31 -57l-1 -5v-4c0 -19.333 -11.333 -29 -34 -29h-11c-50.667 0 -142 51.333 -274 154
c-66.667 52 -100 89 -100 111zM105 42.999c0 13.333 19.168 33.499 57.501 60.499s61.333 63 69 108s11.5 208.833 11.5 491.5s-5.66699 442 -17 478s-35.333 64.333 -72 85s-55 38.334 -55 53.001c0 24.667 23 39.334 69 44.001c18.667 2 174 3 466 3l301 3
c61.333 0 106.666 -14.667 135.999 -44s44 -79.333 44 -150c0 -38 -7.66699 -57 -23 -57s-38 11 -68 33s-79 43.333 -147 64s-145.333 31 -232 31c-55.333 0 -97 -27.5 -125 -82.5s-42 -119.833 -42 -194.5s14 -125.334 42 -152.001s65.5 -40 112.5 -40s79 4.33301 96 13
s38.5 24.5 64.5 47.5s43.333 34.5 52 34.5c32 0 53.667 -16.333 65 -49c7.33301 -22 11 -65 11 -129c0 -111.333 -21.667 -167 -65 -167h-1c-12 0 -36.833 17 -74.5 51s-86.334 51 -146.001 51s-104.5 -18.667 -134.5 -56c-16 -20 -24 -68.667 -24 -146
c0 -124.667 23 -216.334 69 -275.001c20 -25.333 66.167 -38 138.5 -38s170.5 21 294.5 63c26.667 8.66699 58.834 25.834 96.501 51.501s57.5 38.5 59.5 38.5c21.333 0 32 -12.333 32 -37c0 -74 -13.167 -132 -39.5 -174s-75.5 -63 -147.5 -63l-42 1l-477 3l-212 -3
c-95.333 0 -143 16.333 -143 49z" />
    <glyph glyph-name="Eacute" unicode="&#xc9;" 
d="M526 1509l0.000976562 14c0 16.667 55 88 165 214c49.333 56 93 84 131 84h24c18.667 0 39.167 -6.16699 61.5 -18.5s33.5 -23.5 33.5 -33.5v-10c0 -16 -48.333 -67 -145 -153s-167.334 -129 -212.001 -129h-16c-28 0 -42 10.667 -42 32zM854.001 879
c48.667 0 72.999 -46.9971 72.999 -140.997s-5.66699 -150.5 -17 -169.5s-28.666 -28.5 -51.999 -28.5c-8 0 -31.333 17 -70 51s-88.834 51 -150.501 51s-105.167 -19.333 -130.5 -58c-13.333 -20 -20 -75.833 -20 -167.5s17 -166.5 51 -224.5c22 -38 57.667 -57 107 -57
c96 0 179.167 10.5 249.5 31.5s119.833 40.5 148.5 58.5c0.666992 0 13.834 10 39.501 30s43.167 30 52.5 30c16.667 0 25 -14.667 25 -44c0 -78 -14.5 -136.833 -43.5 -176.5s-80.167 -59.5 -153.5 -59.5h-389c-255.333 0 -398.5 3.16699 -429.5 9.5
s-46.5 20.833 -46.5 43.5c0 15.333 20 35.833 60 61.5s63.333 60.5 70 104.5s10 202.167 10 474.5s-3.83301 428.666 -11.5 468.999s-23.167 68.5 -46.5 84.5c-56 38.667 -84 63.667 -84 75c0 23.333 23.667 38 71 44c22 2.66699 162.333 4 421 4l86 1h258
c58.667 0 102.834 -15.5 132.501 -46.5s44.5 -81.5 44.5 -151.5c0 -33.333 -7.66699 -50 -23 -50c-8.66699 0 -27.5 8.66699 -56.5 26s-58.167 30.666 -87.5 39.999c-101.333 32.667 -185 49 -251 49s-113.333 -20 -142 -60c-38 -52.667 -57 -129.334 -57 -230.001
c0 -110.667 53.667 -166 161 -166c40 0 68.167 4.5 84.5 13.5s36.666 24.333 60.999 46s42.833 32.5 55.5 32.5z" />
    <glyph glyph-name="Ecircumflex" unicode="&#xca;" 
d="M647 1817l9.00098 -0.000976562c35.333 0 94.166 -48.667 176.499 -146s123.5 -146.666 123.5 -147.999v-6c0 -18 -15.667 -27 -47 -27h-7c-30 0 -77.167 27.167 -141.5 81.5s-100.166 81.5 -107.499 81.5c-7.33301 -0.666992 -24 -11 -50 -31l-66 -50
c-5.33301 -4 -10 -7.66699 -14 -11c-66 -47.333 -113.333 -71 -142 -71s-43 10.667 -43 32c0 34.667 72.667 118.667 218 252c31.333 28.667 61.666 43 90.999 43zM643.001 119.999c100 0 186.331 10.6699 258.998 32.0029s116.334 36.833 131.001 46.5s34 24.834 58 45.501
s40.333 31 49 31c17.333 0 26 -15 26 -45c0 -76.667 -14.167 -136 -42.5 -178s-79.833 -63 -154.5 -63h-393c-257.333 0 -401.666 3.16699 -432.999 9.5s-47 21.166 -47 44.499c0 13.333 19.833 33.5 59.5 60.5s63 61.667 70 104s10.5 201.5 10.5 477.5s-4 434.667 -12 476
s-23.667 70.333 -47 87c-56 40.667 -84 65.667 -84 75c0 24.667 23.333 40 70 46c20 2.66699 161.667 4 425 4l261 1c100 0 164 -8.33301 192 -25c48 -28.667 72 -87 72 -175c0 -33.333 -7.66699 -50 -23 -50c-10.667 0 -33.834 9.16699 -69.501 27.5
s-61.167 30.166 -76.5 35.499c-101.333 35.333 -185.333 53 -252 53s-117.167 -23.167 -151.5 -69.5s-51.5 -121.166 -51.5 -224.499c0 -62 15 -105.667 45 -131s67.5 -38 112.5 -38s74.667 4 89 12s34.5 23.667 60.5 47s47.5 35 64.5 35s32.5 -9.66699 46.5 -29
s21 -66.833 21 -142.5s-5.66699 -122.834 -17 -141.501s-28.333 -28 -51 -28c-4.66699 0 -28.5 17 -71.5 51s-94.167 51 -153.5 51s-102.666 -19.333 -129.999 -58c-13.333 -18.667 -20 -73.334 -20 -164.001s17 -168.334 51 -233.001c20 -38 55.667 -57 107 -57z" />
    <glyph glyph-name="Edieresis" unicode="&#xcb;" 
d="M430 1517c-30 0 -55.501 10.5 -76.501 31.5s-31.5 46.167 -31.5 75.5v20c0 30 10.333 55.333 31 76s40.334 31 59.001 31l27 4h17c6 -2 15.333 -3 28 -3s28.5 -9.5 47.5 -28.5s28.5 -38.833 28.5 -59.5l3 -20v-16c0 -30 -10.5 -55.5 -31.5 -76.5
s-41.833 -31.5 -62.5 -31.5l-19 -3h-20zM802.999 1520c-8 0 -23.167 9.33301 -45.5 28s-33.5 43 -33.5 73v28c0 26.667 11 51 33 73s47.667 33 77 33h24c29.333 0 54.5 -10.5 75.5 -31.5s31.5 -46.167 31.5 -75.5v-20c0 -30 -10.333 -55.333 -31 -76s-40.667 -31 -60 -31
l-27 -4h-12l-4 1h-8c-5.33301 1.33301 -12 2 -20 2zM101.999 42c0 14 19.168 34.335 57.501 61.002s61.333 62.5 69 107.5s11.5 208.333 11.5 490s-5.83301 441.167 -17.5 478.5s-35.667 66.166 -72 86.499s-54.5 37.833 -54.5 52.5c0 24.667 23 39.334 69 44.001
c18.667 2 174 3 466 3l301 3c61.333 0 106.666 -14.667 135.999 -44s44 -79.333 44 -150c0 -38 -7.66699 -57 -23 -57s-38 11 -68 33s-79 43.333 -147 64s-145.333 31 -232 31c-55.333 0 -97 -27.5 -125 -82.5s-42 -119.833 -42 -194.5s14 -125.334 42 -152.001
s65.5 -40 112.5 -40s79 4.33301 96 13s38.5 24.5 64.5 47.5s43.333 34.5 52 34.5c32 0 52.667 -14 62 -42c9.33301 -28.667 14 -74.334 14 -137.001c0 -110.667 -22 -166 -66 -166c-12 0 -36.833 17 -74.5 51s-86.334 51 -146.001 51s-104.5 -18.667 -134.5 -56
c-16 -20 -24 -68.667 -24 -146c0 -124.667 23 -216.334 69 -275.001c20 -25.333 66.167 -38 138.5 -38s170.5 21 294.5 63c26.667 8.66699 58.834 25.834 96.501 51.501s57.5 38.5 59.5 38.5c21.333 0 32 -12.333 32 -37c0 -74 -13.167 -132 -39.5 -174
s-75.5 -63 -147.5 -63l-42 1l-477 3l-212 -3c-95.333 0 -143 16.333 -143 49z" />
    <glyph glyph-name="Igrave" unicode="&#xcc;" horiz-adv-x="767" 
d="M87 1757v15c0 8.66699 9.16699 20.167 27.5 34.5s40.5 21.5 66.5 21.5h23c31.333 0 69.333 -20 114 -60c126.667 -112.667 190 -191.667 190 -237v-9c0 -19.333 -11.333 -29 -34 -29h-17c-48.667 0 -141.667 53.333 -279 160c-60.667 47.333 -91 82 -91 104zM499 679
c0 -288 5.00098 -453.332 15.001 -495.999s29 -71.667 57 -87c54.667 -30 82 -53.333 82 -70c0 -24.667 -29.667 -37 -89 -37h-22l-22 1l-66 1h-87l-109 -2h-66c-56 0 -84 14 -84 42c0 13.333 24.333 34 73 62c33.333 19.333 55.166 50.5 65.499 93.5s15.5 210.667 15.5 503
s-5.5 458.333 -16.5 498s-36.5 69.667 -76.5 90s-60 40.166 -60 59.499c0 24 95.333 36 286 36l152 2h22c55.333 0 83 -14.333 83 -43c0 -14.667 -24.333 -35.667 -73 -63c-32.667 -18.667 -54.167 -49.667 -64.5 -93s-15.5 -209 -15.5 -497z" />
    <glyph glyph-name="Iacute" unicode="&#xcd;" horiz-adv-x="767" 
d="M256 1509v10.001c0 7.33301 20.167 39.833 60.5 97.5s83.5 107 129.5 148s86 61.5 120 61.5s59.833 -7.83301 77.5 -23.5s26.5 -29.5 26.5 -41.5v-10c0 -28.667 -39 -70.334 -117 -125.001c-142 -99.333 -224 -149 -246 -149h-21c-20 0 -30 10.667 -30 32zM655 1336
c0 -14.667 -20 -33.6699 -60 -57.0029s-65.667 -59.166 -77 -107.499s-17 -209.666 -17 -483.999s5 -434.833 15 -481.5s29.667 -78.334 59 -95.001c54 -30.667 81 -54 81 -70c0 -24 -23.667 -36 -71 -36h-67l-22 1h-45l-44 1h-45l-111 -2h-66c-58 0 -87 13.667 -87 41
c0 12.667 24 33.334 72 62.001c33.333 20 55.5 53.5 66.5 100.5s16.5 211.833 16.5 494.5s-7.33301 450.334 -22 503.001c-8.66699 30 -32.667 55 -72 75s-59 41 -59 63s97.667 33 293 33l110 1h67c56.667 0 85 -14 85 -42z" />
    <glyph glyph-name="Icircumflex" unicode="&#xce;" horiz-adv-x="769" 
d="M376 1819l16 0.000976562c33.333 0 83.333 -39.333 150 -118c98 -116 147 -175.333 147 -178c0 -20.667 -15.167 -31 -45.5 -31s-81 27.333 -152 82s-108 82 -111 82s-39.833 -27.167 -110.5 -81.5s-121.167 -81.5 -151.5 -81.5s-45.5 9 -45.5 27v6
c0 23.333 72.667 107.666 218 252.999c26.667 26.667 55 40 85 40zM504 678.001c0 -280 5.66699 -442.999 17 -488.999s30.666 -77 57.999 -93c54.667 -32 82 -50.667 82 -56v-13c0 -24.667 -23.667 -37 -71 -37h-90l-22 1h-112l-89 -1h-112c-43.333 0 -65 14 -65 42
c0 13.333 24.333 34 73 62c31.333 18 53 48.667 65 92s18 206 18 488s-5.16699 447.333 -15.5 496s-30.166 81 -59.499 97c-54 29.333 -81 53 -81 71c0 24.667 31 37 93 37h23l22 -1l269 1h88c42.667 0 64 -14.333 64 -43c0 -14.667 -24 -35.667 -72 -63
c-32.667 -18.667 -54.667 -51.834 -66 -99.501s-17 -211.5 -17 -491.5z" />
    <glyph glyph-name="Idieresis" unicode="&#xcf;" horiz-adv-x="766" 
d="M169 1519c-30.667 0 -56 9.99902 -76 29.999s-30 39.667 -30 59l-3 20v20c2 8 3 14.333 3 19c0 20.667 11.667 40.667 35 60s48 29 74 29h16c36.667 0 64.667 -11.667 84 -35s29 -49.666 29 -78.999v-8c0 -32.667 -10.667 -59.667 -32 -81s-43 -32 -65 -32
c-5.33301 -1.33301 -9 -2 -11 -2l-12 -1h-4l-4 1h-4zM463 1646l2 19c0 22 11.667 42.667 35 62s47.333 29 72 29h24c26 0 50.333 -9.5 73 -28.5s34 -45.167 34 -78.5v-20c0 -30 -10.833 -55.833 -32.5 -77.5s-46.167 -32.5 -73.5 -32.5h-32c-22 0 -44.167 9.33301 -66.5 28
s-33.5 39.667 -33.5 63l-3 24v8zM651 1331c0 -13.333 -20.5 -32.168 -61.5 -56.501s-66.5 -57.833 -76.5 -100.5s-15 -207.834 -15 -495.501s5 -452.667 15 -495s29 -71.5 57 -87.5c54.667 -32 82 -55.333 82 -70c0 -24.667 -22.333 -37 -67 -37h-87l-22 1h-109l-88 -1h-109
c-42 0 -63 13.667 -63 41c0 14.667 24.667 35.667 74 63c32.667 18 54.167 48.833 64.5 92.5s15.5 208.334 15.5 494.001s-4.5 450.667 -13.5 495s-28.167 74.833 -57.5 91.5c-54.667 30.667 -82 54.334 -82 71.001c0 24 95.333 36 286 36l108 1h88
c40.667 0 61 -14.333 61 -43z" />
    <glyph glyph-name="Eth" unicode="&#xd0;" horiz-adv-x="1519" 
d="M609 93l55.0029 -0.000976562c59.333 0 118.166 12.333 176.499 37s107.833 61.667 148.5 111c86.667 105.333 130 233.333 130 384v85c0 95.333 -10.833 176.333 -32.5 243s-56.334 126.667 -104.001 180s-101 90.5 -160 111.5s-126.167 31.5 -201.5 31.5l-18 1
c-54.667 0 -87.834 -10.333 -99.501 -31s-17.5 -95.667 -17.5 -225s5.33301 -203.666 16 -222.999c16 -28.667 73 -43 171 -43c40 0 67.5 -4.66699 82.5 -14s22.5 -28 22.5 -56s-40.333 -45.167 -121 -51.5s-130 -20 -148 -41s-27 -110.167 -27 -267.5l-1 -38v-38
c0 -68 8 -111 24 -129s50.667 -27 104 -27zM278.003 523.999c0 58.667 -8.33301 94.333 -25 107c-7.33301 5.33301 -26 10 -56 14s-47 7 -51 9c-17.333 8.66699 -26 25.667 -26 51c0 30.667 18 49.667 54 57c54 10.667 82.333 17.334 85 20.001c12 9.33301 18 38 18 86
l-2 53l-1 79c0 116 -7.5 188 -22.5 216s-41 49.5 -78 64.5s-55.5 32.5 -55.5 52.5c0 28 106.667 42 320 42l81 3l109 1h55h6c108 0 206.333 -16.333 295 -49c177.333 -65.333 298 -180.666 362 -345.999c32 -82.667 48 -173.334 48 -272.001v-29
c0 -104.667 -19.333 -202 -58 -292c-75.333 -174.667 -201.666 -291.667 -378.999 -351c-90 -30 -189 -45 -297 -45h-139l-28 1l-107 2l-25 1h-51l-50 2c-16.667 0.666992 -33.334 1 -50.001 1c-62.667 0 -94 11 -94 33c0 25.333 15.333 45.333 46 60
c47.333 23.333 76 45.666 86 66.999c20 44 30 164.667 30 362z" />
    <glyph glyph-name="Ntilde" unicode="&#xd1;" horiz-adv-x="1572" 
d="M649 1759l16.999 0.000976562c28 0 75.333 -14.833 142 -44.5s112.834 -44.5 138.501 -44.5s55.5 13 89.5 39s53.333 39 58 39c26.667 0 40 -12.667 40 -38c0 -42.667 -22.5 -84.834 -67.5 -126.501s-88.833 -62.5 -131.5 -62.5h-25c-36 0 -84 15 -144 45
s-103.5 45 -130.5 45s-58.833 -13.167 -95.5 -39.5s-59 -39.5 -67 -39.5c-22 0 -33 12.333 -33 37c0 46 23.833 89.167 71.5 129.5s93.5 60.5 137.5 60.5zM1252 12.001c-52 0 -120.665 52.001 -205.998 156.001c-31.333 38.667 -88.333 115.334 -171 230.001l-83 118
l-85 119c-204 274 -312.667 411 -326 411c-8.66699 0 -13 -99.333 -13 -298c0 -326.667 24 -534.667 72 -624c31.333 -58 47 -87.667 47 -89c0 -26.667 -73 -40 -219 -40h-46c-94 0 -141 13.333 -141 40c0 20 22.167 41.333 66.5 64s71.166 56.167 80.499 100.5
s14 203.166 14 476.499s-4.83301 430.166 -14.5 470.499s-35.5 76.166 -77.5 107.499s-63 52 -63 62c0 32 42.167 48 126.5 48s142.833 -6.16699 175.5 -18.5s60.667 -30.166 84 -53.499s92.166 -109.666 206.499 -258.999l244.5 -323l88 -118
c102.667 -137.333 157 -206 163 -206c15.333 0 23 115.5 23 346.5s-10 379.833 -30 446.5c-8.66699 29.333 -27.667 58.666 -57 87.999s-44 50.333 -44 63c0 23.333 43 35 129 35h94c116.667 0 175 -14 175 -42c0 -17.333 -18.167 -42 -54.5 -74s-59.333 -62.833 -69 -92.5
s-14.5 -90.5 -14.5 -182.5l-3 -145c-0.666992 -32 -1 -80 -1 -144l-2 -193v-97l-1 -325c-7.33301 -38.667 -30 -58 -68 -58z" />
    <glyph glyph-name="Ograve" unicode="&#xd2;" horiz-adv-x="1529" 
d="M345 763v-35.002c0 -175.333 37.333 -320.166 112 -434.499s174 -171.5 298 -171.5c181.333 0 302 101 362 303c20 67.333 30 140 30 218v70c-0.666992 80.667 -11.667 158.334 -33 233.001c-43.333 148.667 -110.666 249.667 -201.999 303
c-56.667 32.667 -112.334 49 -167.001 49h-34c-47.333 0 -95 -11.333 -143 -34c-92.667 -44 -157 -134.333 -193 -271c-20 -75.333 -30 -152 -30 -230zM438 1727v17.001c0 13.333 11 27.666 33 42.999s45 23 69 23h24c42 0 82 -21.333 120 -64
c120.667 -136 181 -221.333 181 -256v-11c0 -20.667 -12.667 -31 -38 -31h-11l-5 1c-37.333 0 -108.833 37 -214.5 111s-158.5 129.667 -158.5 167zM1410 693.999v-23.001c0 -95.333 -16 -187 -48 -275c-64.667 -176.667 -173.334 -300 -326.001 -370
c-89.333 -41.333 -182 -62 -278 -62h-23c-87.333 0 -170.333 15.333 -249 46c-158.667 60.667 -269.667 177.667 -333 351c-36.667 100 -55 202.333 -55 307v23c0 96.667 16.667 190.334 50 281.001c68 185.333 187 311 357 377c76 29.333 154.333 44 235 44h47
c84.667 0 166.334 -16.667 245.001 -50c164.667 -70 276.667 -197.667 336 -383c28 -88 42 -176.667 42 -266z" />
    <glyph glyph-name="Oacute" unicode="&#xd3;" horiz-adv-x="1527" 
d="M344 735l0.000976562 -35.999c0 -177.333 37.667 -320.666 113 -429.999c31.333 -46 72.333 -82.167 123 -108.5s102.667 -39.5 156 -39.5h17c122 0 218.333 52.333 289 157c71.333 104.667 107 247.334 107 428.001v18c0 82 -9.66699 160.333 -29 235
c-36.667 141.333 -102 239.666 -196 294.999c-52 30 -107.333 45 -166 45h-34h-3c-48.667 0 -97.334 -13.667 -146.001 -41c-94 -52.667 -161 -149.334 -201 -290.001c-20 -68.667 -30 -146.334 -30 -233.001zM617.001 1485v16c0 42 60.667 123.667 182 245
c44 44 88 66 132 66h6l6 -1c29.333 0 53 -7.83301 71 -23.5s27 -31.5 27 -47.5l-1 -5c0 -44 -52.5 -102.833 -157.5 -176.5s-175.5 -110.5 -211.5 -110.5s-54 12.333 -54 37zM1408 713.001l0.000976562 -47.0029c0 -87.333 -15.333 -176.166 -46 -266.499
s-76.667 -168.166 -138 -233.499s-132 -115 -212 -149s-158.333 -51 -235 -51h-70c-78.667 0 -158.334 17.333 -239.001 52c-153.333 66.667 -260.666 189.334 -321.999 368.001c-30.667 90 -46 177.333 -46 262v47c0 86.667 14.667 174.667 44 264s73.333 166.333 132 231
c121.333 134.667 277.666 202 468.999 202h23c185.333 0 336 -60 452 -180c54.667 -56 99.667 -129.5 135 -220.5s53 -183.833 53 -278.5z" />
    <glyph glyph-name="Ocircumflex" unicode="&#xd4;" horiz-adv-x="1530" 
d="M335 756l-0.000976562 -33.999c0 -172 37.833 -313.333 113.5 -424s174.5 -166 296.5 -166c189.333 0 315.666 104.667 378.999 314c22 73.333 33 145.666 33 216.999v69v6c0 66 -11 136.667 -33 212c-43.333 148.667 -115.666 251 -216.999 307
c-51.333 28.667 -102.666 43 -153.999 43h-17c-116.667 0 -212 -49 -286 -147c-32 -42.667 -59.167 -101 -81.5 -175s-33.5 -148 -33.5 -222zM1002 1459h-15c-22 0 -67.667 24 -137 72s-105.166 72 -107.499 72s-19.5 -11 -51.5 -33
c-106.667 -73.333 -176.834 -110 -210.501 -110s-50.5 9.33301 -50.5 28v7c0 20 69 104.667 207 254c34.667 37.333 67.667 56 99 56h17c30.667 0 60.667 -16 90 -48c136 -148.667 204 -235.5 204 -260.5s-15 -37.5 -45 -37.5zM1410 713.001l-0.000976562 -46.999
c0 -93.333 -17.167 -185.833 -51.5 -277.5s-81.833 -169 -142.5 -232s-131.334 -110.5 -212.001 -142.5s-164.334 -48 -251.001 -48h-24c-83.333 0 -164.166 15 -242.499 45s-146.166 75.667 -203.499 137s-102.5 137.166 -135.5 227.499s-49.5 181.833 -49.5 274.5v47
c0 88.667 15.667 179 47 271s76.833 170 136.5 234s129.5 112.333 209.5 145s163.667 49 251 49h24c182 0 333.667 -60.667 455 -182c58.667 -58.667 104.834 -134 138.501 -226s50.5 -183.667 50.5 -275z" />
    <glyph glyph-name="Otilde" unicode="&#xd5;" horiz-adv-x="1529" 
d="M336 759v-51c0 -80.667 11.333 -158 34 -232c44.667 -148 112 -247.333 202 -298c57.333 -32 113.333 -48 168 -48h17c121.333 0 218.333 50.333 291 151s109 235.334 109 404.001v17c0 90 -10.667 171.667 -32 245c-43.333 149.333 -111.333 249.666 -204 300.999
c-57.333 32 -113.333 48 -168 48h-35c-110.667 0 -203 -51.333 -277 -154c-28 -39.333 -52.5 -95 -73.5 -167s-31.5 -144 -31.5 -216zM908 1656c20.667 0 48.667 10.834 84 32.501s53.666 32.5 54.999 32.5c26.667 0 40 -13.333 40 -40
c0 -50.667 -28.667 -102.334 -86 -155.001c-36.667 -34 -77.334 -51 -122.001 -51h-8c-33.333 0 -83.833 15 -151.5 45s-113.667 45 -138 45s-53.666 -11 -87.999 -33s-56.166 -33 -65.499 -33c-22 0 -33 13 -33 39v9c0 42 24.333 85.5 73 130.5s99.667 67.5 153 67.5l9 -1
c32.667 0 82 -14.667 148 -44s109.333 -44 130 -44zM1410 697.001l0.00195312 -23.001c0 -95.333 -16.833 -189.166 -50.5 -281.499s-83.167 -172.166 -148.5 -239.499c-120 -124 -277.333 -186 -472 -186s-350.334 65 -467.001 195
c-50.667 56 -92.334 128.667 -125.001 218s-49 186.333 -49 291v23c0 96.667 16.333 189.667 49 279c64.667 176 177.667 299.667 339 371c79.333 34.667 156.333 52 231 52h70c81.333 0 161.333 -15.667 240 -47c156.667 -62.667 268 -184.334 334 -365.001
c32.667 -89.333 49 -185 49 -287z" />
    <glyph glyph-name="Odieresis" unicode="&#xd6;" horiz-adv-x="1529" 
d="M1132 665l-0.00195312 53.001c0 80 -10 158.667 -30 236c-38 147.333 -102.667 247.333 -194 300c-55.333 32.667 -110 49 -164 49h-17c-115.333 0 -207.666 -48 -276.999 -144c-33.333 -46 -59.5 -106 -78.5 -180s-28.5 -152.667 -28.5 -236v-17
c0 -186.667 38.667 -336.667 116 -450c30 -44 68.833 -80.667 116.5 -110s99.834 -44 156.501 -44h16c175.333 0 293 104.667 353 314c20.667 71.333 31 147.666 31 228.999zM571.998 1520l-19.999 0.000976562c-26.667 0 -51.5 9.66699 -74.5 29s-34.5 44.666 -34.5 75.999
v24c0 24 9.66699 47.5 29 70.5s40.333 34.5 63 34.5l20 3h24c8 -2 17.5 -3 28.5 -3s26 -9.5 45 -28.5s28.5 -39.5 28.5 -61.5c1.33301 -5.33301 2 -9.33301 2 -12v-20c0 -31.333 -10.833 -57.833 -32.5 -79.5s-47.834 -32.5 -78.501 -32.5zM1057 1575
c0 -23.333 -11.166 -46.166 -33.499 -68.499s-45.5 -33.5 -69.5 -33.5h-27c-31.333 0 -58.833 11.833 -82.5 35.5s-35.5 47.834 -35.5 72.501c-1.33301 5.33301 -2 9.66602 -2 12.999l-1 18l1 5v9c1.33301 5.33301 2 9.66602 2 12.999c0 30.667 14.167 56.167 42.5 76.5
s56.166 30.5 83.499 30.5h18c30 0 55.333 -12.333 76 -37s31 -53 31 -85v-27c-2 -8 -3 -15.333 -3 -22zM1409 721.002l-0.00195312 -70.999c0 -86.667 -17.667 -175.334 -53 -266.001c-69.333 -177.333 -182.666 -298.333 -339.999 -363c-88 -36 -174 -54 -258 -54h-24
c-190 0 -344.333 65 -463 195c-50 55.333 -91.333 127.5 -124 216.5s-49 178.5 -49 268.5v47c0 84.667 14 171 42 259c58.667 185.333 173.667 315.666 345 390.999c79.333 34.667 164.333 52 255 52h47c84.667 0 166.334 -16.667 245.001 -50
c154.667 -66 264 -187 328 -363c32.667 -89.333 49 -176.666 49 -261.999z" />
    <glyph glyph-name="multiply" unicode="&#xd7;" horiz-adv-x="1093" 
d="M935 282c0 -4.66699 -10.0029 -16.999 -30.0029 -36.999s-36.5 -30 -49.5 -30s-67.667 46.5 -164 139.5s-148.166 139.5 -155.499 139.5c-0.666992 0 -49 -46.333 -145 -139s-152.333 -139 -169 -139c-7.33301 0 -20.666 9.66699 -39.999 29s-29 35.5 -29 48.5
s46.833 64.667 140.5 155s140.5 143.5 140.5 159.5c0 0.666992 -47.167 48.167 -141.5 142.5s-141.5 145.833 -141.5 154.5v15c0 4 9.83301 15.833 29.5 35.5s36.834 29.5 51.501 29.5s68.167 -46.167 160.5 -138.5s144.5 -138.5 156.5 -138.5
c3.33301 0 51.5 46.5 144.5 139.5s145.667 139.5 158 139.5s28.5 -9.33301 48.5 -28s30 -36.334 30 -53.001c0 -10 -46.667 -61.667 -140 -155s-140 -145.666 -140 -156.999c0 -4.66699 47.5 -52.834 142.5 -144.501s142.5 -142.5 142.5 -152.5v-15z" />
    <glyph glyph-name="Oslash" unicode="&#xd8;" horiz-adv-x="1545" 
d="M350 704v-29c0 -90.667 8.66699 -167 26 -229c30 -108 57.667 -162 83 -162h9c7.33301 0 18 8 32 24c64 72.667 131.667 172 203 298c186.667 330 280 507.667 280 533v22c0 33.333 -21.5 63.333 -64.5 90s-95.833 40 -158.5 40h-27c-112 0 -203.667 -54 -275 -162
c-32 -47.333 -58 -108.5 -78 -183.5s-30 -155.5 -30 -241.5zM552 178l-0.000976562 -20.001c0 -16 11.833 -33.333 35.5 -52s54.167 -28 91.5 -28h11c114 0 210.667 67 290 201c34.667 58.667 65.834 141.334 93.501 248.001s41.5 216 41.5 328v73
c0 111.333 -11.667 167 -35 167c-8 0 -54.5 -85.167 -139.5 -255.5s-171 -319.5 -258 -447.5s-130.5 -199.333 -130.5 -214zM831.999 1386l212.002 -17.999c19.333 0 47 9 83 27s58.333 27 67 27h16c36.667 0 55 -20 55 -60c-5.33301 -45.333 -8 -80.333 -8 -105
s21.5 -88 64.5 -190s64.5 -207.333 64.5 -316v-54c0 -96.667 -19.333 -193 -58 -289c-76.667 -190 -205 -318 -385 -384c-77.333 -28.667 -160.333 -43 -249 -43l-209 14c-30.667 0 -64.834 -10 -102.501 -30s-61.167 -30 -70.5 -30c-43.333 0 -65 21.333 -65 64
c7.33301 44 11 76.333 11 97s-22.5 87.167 -67.5 199.5s-67.5 216.833 -67.5 313.5v54c0 96.667 18.667 193.667 56 291c71.333 187.333 197.666 316.666 378.999 387.999c74.667 29.333 166 44 274 44z" />
    <glyph glyph-name="Ugrave" unicode="&#xd9;" horiz-adv-x="1524" 
d="M470 1749l0.000976562 21c0 8.66699 9 20 27 34s40.333 21 67 21h22c31.333 0 66.666 -17.333 105.999 -52c132 -117.333 198 -198.666 198 -243.999v-5c0 -22 -11.667 -33 -35 -33h-16c-34 0 -122 49.667 -264 149c-70 49.333 -105 85.666 -105 108.999zM1033 1331
c0 26 55.333 39.002 166 39.002h78c77.333 0 123.833 -4.16699 139.5 -12.5s23.5 -24.5 23.5 -48.5c0 -14.667 -20.5 -33.5 -61.5 -56.5s-66.167 -47.833 -75.5 -74.5s-14 -146.834 -14 -360.501s-3.5 -356.5 -10.5 -428.5s-27.5 -137 -61.5 -195
c-44.667 -76.667 -105.167 -132.667 -181.5 -168s-156.5 -53 -240.5 -53h-43c-211.333 0 -362 62 -452 186c-38 52 -63.167 109.333 -75.5 172s-18.5 207.667 -18.5 435s-3.83301 360 -11.5 398s-25.5 65.333 -53.5 82c-55.333 33.333 -83 58.666 -83 75.999
c0 32 47 48 141 48h230c80.667 0 121 -10.333 121 -31c0 -6.66699 -12.833 -24.667 -38.5 -54s-43.167 -76.5 -52.5 -141.5s-14 -188.667 -14 -371s1.66699 -288.5 5 -318.5c10.667 -98.667 30.667 -170.667 60 -216c62 -93.333 165.667 -140 311 -140
c53.333 0 102.666 11.667 147.999 35s82 57 110 101c46.667 73.333 70 189 70 347l2 81l1 121c0 166 -6.16699 277.167 -18.5 333.5s-32.166 104.333 -59.499 144s-41 63.167 -41 70.5z" />
    <glyph glyph-name="Uacute" unicode="&#xda;" horiz-adv-x="1524" 
d="M659 1520v8.99805c0 14.667 44.833 66.834 134.5 156.501s150.5 134.5 182.5 134.5h16l6 -1c55.333 0 83 -20.333 83 -61v-11c0 -37.333 -39 -80.666 -117 -129.999c-134 -85.333 -220 -128 -258 -128h-11c-24 0 -36 10.333 -36 31zM1147 795.998
c0 169.333 -6.83691 282.504 -20.5039 339.504s-27.167 95.833 -40.5 116.5l-33 42c-14.667 19.333 -22 31.333 -22 36c0 29.333 49.333 44 148 44h38c144 0 216 -16.667 216 -50c0 -26.667 -20.167 -52.667 -60.5 -78s-64.166 -54 -71.499 -86s-11 -150.833 -11 -356.5
s-4.66699 -344.834 -14 -417.501s-33.833 -139.5 -73.5 -200.5s-95.667 -109.5 -168 -145.5s-158.833 -54 -259.5 -54c-205.333 0 -352.666 46.667 -441.999 140c-53.333 55.333 -88.166 117.166 -104.499 185.499s-24.5 166.166 -24.5 293.499l-1 40
c-0.666992 26.667 -1 56.667 -1 90v110c0 196.667 -5.16699 310 -15.5 340s-33.833 55.5 -70.5 76.5s-55 38.167 -55 51.5c0 30.667 17 48.667 51 54c24.667 4 100 6 226 6l79 1h39c66.667 0 100 -12 100 -36c0 -8.66699 -10.833 -24.834 -32.5 -48.501
s-38.167 -54.167 -49.5 -91.5s-17 -114.333 -17 -231l-1 -39c-0.666992 -26 -1 -52 -1 -78l-3 -117v-119c0 -180 27.333 -307.667 82 -383s144 -113 268 -113c60 0 111.667 10.333 155 31c103.333 50 163 148.667 179 296c6.66699 64.667 10.334 181.667 11.001 351z" />
    <glyph glyph-name="Ucircumflex" unicode="&#xdb;" horiz-adv-x="1524" 
d="M524 1491l-14 -0.000976562c-26.667 0 -40 10.667 -40 32c0 8.66699 42.833 59.834 128.5 153.501s143.167 140.5 172.5 140.5h17c34.667 0 93 -48.5 175 -145.5s123 -146.5 123 -148.5v-7c0 -16.667 -13.333 -25 -40 -25h-15c-29.333 0 -76 27 -140 81
s-100.5 81 -109.5 81s-25.5 -10.167 -49.5 -30.5s-59.5 -47.333 -106.5 -81s-80.833 -50.5 -101.5 -50.5zM1148 690.999c0 210.667 -6.16699 349.667 -18.5 417s-26.5 114.333 -42.5 141l-34 42c-15.333 19.333 -23 31.333 -23 36c0 29.333 67.833 44 203.5 44
s203.5 -16.667 203.5 -50c0 -28 -16.333 -51.667 -49 -71c-48.667 -28.667 -76.5 -59.5 -83.5 -92.5s-10.5 -104.833 -10.5 -215.5v-228l-2 -82c-0.666992 -28 -1 -74 -1 -138c0 -162 -44.333 -289.667 -133 -383c-89.333 -94 -218 -141 -386 -141
c-236.667 0 -397.334 62.667 -482.001 188c-44 65.333 -70.167 134.833 -78.5 208.5s-12.5 221 -12.5 442s-5.16699 346 -15.5 375s-34.333 54.167 -72 75.5s-56.5 38.666 -56.5 51.999c0 30.667 16.667 49 50 55c22.667 4 99 6 229 6l79 1h39c68 0 102 -12 102 -36
c0 -8.66699 -12.167 -26.334 -36.5 -53.001s-41 -63 -50 -109s-13.5 -131.667 -13.5 -257l-2 -79c-0.666992 -38 -1.33398 -67.167 -2.00098 -87.5s-1 -80.833 -1 -181.5c0 -159.333 27.5 -277.333 82.5 -354s145.833 -115 272.5 -115c58.667 0 113.334 11.833 164.001 35.5
s93.334 69.334 128.001 137.001s52 206.834 52 417.501z" />
    <glyph glyph-name="Udieresis" unicode="&#xdc;" horiz-adv-x="1524" 
d="M691 1628l-2 -18.999c0 -19.333 -10.5 -39.5 -31.5 -60.5s-48.5 -31.5 -82.5 -31.5h-12l-27 4c-16.667 0 -34.5 9.5 -53.5 28.5s-28.5 38.5 -28.5 58.5l-3 24v8c0 32.667 10.5 59.5 31.5 80.5s41.833 31.5 62.5 31.5l23 3h16c8 -2 18 -3 30 -3s27.333 -9.33301 46 -28
s28 -37.334 28 -56.001c1.33301 -5.33301 2 -9.33301 2 -12l2 -20v-4zM1093 1648v-20c0 -30 -11 -56 -33 -78s-51.333 -33 -88 -33h-4c-28.667 0 -55 9.5 -79 28.5s-36 44.167 -36 75.5v28c0 27.333 10.833 51.833 32.5 73.5s47.167 32.5 76.5 32.5h24
c26 0 50.333 -9.5 73 -28.5s34 -45.167 34 -78.5zM1026 1331c0 25.333 68.6699 38 206.003 38h39c76 0 122.167 -4.33301 138.5 -13s24.5 -25.334 24.5 -50.001c0 -14 -20.5 -32.167 -61.5 -54.5s-66.333 -48.166 -76 -77.499s-14.5 -149.833 -14.5 -361.5
s-3 -352.5 -9 -422.5s-27.167 -136.833 -63.5 -200.5s-90.833 -115.834 -163.5 -156.501s-158.334 -61 -257.001 -61h-43c-212 0 -363 61.333 -453 184c-44 60.667 -70.667 127.334 -80 200.001s-14 215.667 -14 429s-3.5 338.833 -10.5 376.5s-25.167 65.167 -54.5 82.5
c-56 33.333 -84 59.333 -84 78c0 31.333 59.333 47 178 47h115c132 0 198 -10.333 198 -31c0 -14 -11.5 -31.833 -34.5 -53.5s-40.167 -58.667 -51.5 -111s-17 -180.833 -17 -385.5s4.66699 -338 14 -400c29.333 -194.667 151 -292 365 -292
c53.333 0 105.166 13.5 155.499 40.5s91.666 73.667 123.999 140s48.5 210.5 48.5 432.5s-6 359.167 -18 411.5s-31.833 98.5 -59.5 138.5s-41.5 64 -41.5 72z" />
    <glyph glyph-name="Yacute" unicode="&#xdd;" horiz-adv-x="1341" 
d="M578 1503l-0.00195312 8.99902c0 22.667 58 99.334 174 230.001c48.667 54.667 92.667 82 132 82h11l5 -1c24.667 0 46.834 -7.66699 66.501 -23s29.5 -30.333 29.5 -45l-1 -5c0 -22 -38.667 -60 -116 -114c-151.333 -106 -237.666 -159 -258.999 -159h-5
c-24.667 0 -37 8.66699 -37 26zM388.998 36.999c0 16.667 17.499 37.0039 52.499 61.0039s59.167 53.833 72.5 89.5s20 98.667 20 189s-7 157.166 -21 200.499s-66.5 143.833 -157.5 301.5s-148.833 253.334 -173.5 287.001s-58.667 63 -102 88s-65 48 -65 69
s12.5 35 37.5 42s123.167 10.5 294.5 10.5c95.333 0 143 -18 143 -54c0 -4.66699 -5.5 -15.334 -16.5 -32.001s-16.5 -28 -16.5 -34c0 -74.667 60.333 -213 181 -415c34.667 -58.667 57.667 -88 69 -88c22.667 0 69.334 62.167 140.001 186.5s106 209.166 106 254.499
c0 28 -2 46.333 -6 55s-11.667 22.167 -23 40.5s-17 30.166 -17 35.499c0 34.667 69.333 52 208 52h100c58.667 0 88 -12.5 88 -37.5s-23.167 -50.333 -69.5 -76s-82.833 -57.834 -109.5 -96.501c-62 -88.667 -152.333 -246 -271 -472c-40 -76 -60 -173.833 -60 -293.5
s7.5 -196.167 22.5 -229.5s39 -59.333 72 -78s49.5 -38.667 49.5 -60s-33.667 -32 -101 -32h-33l-100 3l-131 -1c-122 0 -183 11.333 -183 34z" />
    <glyph glyph-name="Thorn" unicode="&#xde;" horiz-adv-x="1309" 
d="M927 708l0.000976562 45.002c0 89.333 -24.833 160.833 -74.5 214.5s-112.834 80.5 -189.501 80.5h-26l-9 -1h-17c-16 -2 -26.667 -3 -32 -3c-36.667 0 -58.667 -14.667 -66 -44c-2 -8 -3 -56 -3 -144v-143l-1 -10v-20l-1 -10v-20l-2 -29v-20l-1 -10v-20l-1 -9v-19
l-1 -39v-9c0 -34.667 9 -58.834 27 -72.501s46.333 -20.5 85 -20.5h25c85.333 0 154.5 28.667 207.5 86s79.5 129.666 79.5 216.999zM530.001 236.002c0 -44 14.668 -78.0029 44.001 -102.003c56.667 -46.667 85 -74.334 85 -83.001c0 -24.667 -54.667 -37 -164 -37l-27 1
h-105c-148.667 0 -223 10.667 -223 32c0 24.667 18.667 49 56 73s60 55.333 68 94c13.333 62.667 20 229.334 20 500.001s-6.66699 433.334 -20 488.001c-8 33.333 -31.333 59.5 -70 78.5s-58 38.5 -58 58.5c0 28.667 89.333 43 268 43l53 1h52c58 0 94.167 -4 108.5 -12
s21.5 -22.333 21.5 -43c0 -3.33301 -20 -23.666 -60 -60.999c-22 -20.667 -33 -44 -33 -70s15.667 -44 47 -54c19.333 -6.66699 61 -11 125 -13c225.333 -7.33301 371.666 -73.333 438.999 -198c31.333 -57.333 47 -119.333 47 -186c0 -136.667 -53 -243 -159 -319
c-72 -51.333 -173.333 -82.666 -304 -93.999l-28 -2l-58 -2c-35.333 -2 -60 -5.33301 -74 -10c-34 -11.333 -51 -39 -51 -83z" />
    <glyph glyph-name="germandbls" unicode="&#xdf;" horiz-adv-x="1271" 
d="M291 -9l-87 0.00390625c-72 0 -108 14.667 -108 44c0 8 14.167 27.667 42.5 59s46.666 67.166 54.999 107.499s12.5 116.166 12.5 227.499s-2.16699 189 -6.5 233s-13 84.167 -26 120.5s-19.5 64 -19.5 83s5.16699 43.167 15.5 72.5s26.833 86.666 49.5 171.999
c62 233.333 211.333 350 448 350c112 0 200.5 -30.333 265.5 -91s97.5 -135.334 97.5 -224.001c0 -47.333 -29.833 -104.833 -89.5 -172.5s-89.5 -118.5 -89.5 -152.5s8.83301 -62.167 26.5 -84.5s58 -58.166 121 -107.499s106.5 -89.333 130.5 -120
c44.667 -58 67 -127.833 67 -209.5s-32.5 -152.334 -97.5 -212.001s-155.833 -89.5 -272.5 -89.5c-62.667 0 -113.167 11.833 -151.5 35.5s-57.5 50.5 -57.5 80.5c0 57.333 15.333 86 46 86c18.667 0 43.834 -9.83301 75.501 -29.5s63.167 -29.5 94.5 -29.5
s62.833 13 94.5 39s47.5 60.833 47.5 104.5s-10.833 82.5 -32.5 116.5s-63.334 72.667 -125.001 116s-106.5 82.5 -134.5 117.5s-42 71.5 -42 109.5c0 62.667 31 136 93 220s93 150.5 93 199.5s-16 89.5 -48 121.5s-71.5 48 -118.5 48s-88.333 -14.333 -124 -43
s-62.167 -73.5 -79.5 -134.5s-26 -222.167 -26 -483.5v-177l-2 -87l-1 -86l7 -230c0 -36 -11.667 -61.667 -35 -77s-59.666 -23 -108.999 -23z" />
    <glyph glyph-name="agrave" unicode="&#xe0;" horiz-adv-x="1064" 
d="M569 467c-74.667 0 -145.001 -22 -211.001 -66c-43.333 -28.667 -65 -71.667 -65 -129v-33c0 -39.333 13.833 -71.333 41.5 -96s58.5 -37 92.5 -37h25c44.667 0 88 14.667 130 44s63 60 63 92l2 12l3 49v75c0 60.667 -12.667 91 -38 91h-24
c-9.33301 -1.33301 -15.666 -2 -18.999 -2zM235.999 1385l-0.000976562 9.99902c0 8.66699 7.83301 19.834 23.5 33.501s41.167 20.5 76.5 20.5l6 -1c40.667 0 77.834 -19 111.501 -57s71.5 -92 113.5 -162s63 -108.333 63 -115v-9c0 -16.667 -13.333 -25 -40 -25h-16
c-23.333 0 -85.5 44.833 -186.5 134.5s-151.5 146.5 -151.5 170.5zM491.998 961.999l51 0.000976562c132.667 0 225.667 -48.667 279 -146c24.667 -45.333 37 -158.166 37 -338.499s4 -282.833 12 -307.5s30.167 -43.834 66.5 -57.501s54.5 -26.5 54.5 -38.5
c0 -23.333 -12 -41.333 -36 -54c-45.333 -24 -91.666 -36 -138.999 -36s-82.333 10.667 -105 32c-40 37.333 -60.667 56 -62 56c-10 0 -48.333 -16.667 -115 -50s-134.834 -50 -204.501 -50s-128 22.167 -175 66.5s-70.5 99.166 -70.5 164.499v25
c0 75.333 32 137.833 96 187.5s168.333 88.167 313 115.5c52.667 10 88 20.333 106 31c30 18 45 52.5 45 103.5s-12.667 94.667 -38 131s-65.5 54.5 -120.5 54.5s-106.667 -29.333 -155 -88s-91.166 -88 -128.499 -88c-47.333 0 -71 27.667 -71 83s28.667 99.333 86 132
c83.333 48 174.666 72 273.999 72z" />
    <glyph glyph-name="aacute" unicode="&#xe1;" horiz-adv-x="1064" 
d="M292 231c0 -38.667 13.001 -69.333 39.001 -92s57.333 -34 94 -34h7c51.333 0 99.166 15.5 143.499 46.5s66.5 65.833 66.5 104.5c1.33301 8 2 14 2 18l3 38v24l1 19v67c0 32 -15 48 -45 48l-6 -1l-25 -2c-4.66699 -0.666992 -9 -1 -13 -1
c-66 0 -126.667 -18.5 -182 -55.5s-83 -81.833 -83 -134.5l-2 -13v-32zM391.001 1106v10.001c0 8 31 58.333 93 151s93.333 139.667 94 141c27.333 31.333 61.333 47 102 47h18c62 0 93 -17.667 93 -53v-11c0 -20.667 -46.833 -77.834 -140.5 -171.501
s-159.5 -140.5 -197.5 -140.5h-22c-26.667 0 -40 9 -40 27zM478.001 959.002h50c134.667 0 230 -47.333 286 -142c29.333 -50 44 -164.167 44 -342.5s5.33301 -280.666 16 -306.999s33.5 -45.5 68.5 -57.5s52.5 -26.333 52.5 -43c0 -21.333 -14.333 -38.333 -43 -51
c-46 -20 -92.667 -30 -140 -30s-85.333 14.833 -114 44.5s-45.167 44.5 -49.5 44.5s-41 -16.833 -110 -50.5s-129.5 -50.5 -181.5 -50.5h-24c-79.333 0 -142.166 23.167 -188.499 69.5s-69.5 106.666 -69.5 180.999s31.333 137.5 94 189.5c48.667 40.667 118 71.667 208 93
c145.333 34.667 219 52.667 221 54c25.333 17.333 38 52.333 38 105s-13 95.5 -39 128.5s-63.667 49.5 -113 49.5s-99.833 -29 -151.5 -87s-90.834 -87 -117.501 -87c-54 0 -81 28 -81 84s31.667 101.667 95 137c80.667 45.333 163.667 68 249 68z" />
    <glyph glyph-name="acircumflex" unicode="&#xe2;" horiz-adv-x="1064" 
d="M292 219c0 -29.333 13.8311 -54.667 41.498 -76s55.167 -32 82.5 -32h24l6 1c72.667 0 130.334 27.333 173.001 82c20 26 30 75.667 30 149l1 24v36c0 40.667 -12.667 61 -38 61h-18l-62 -7c-63.333 0 -119.166 -18.833 -167.499 -56.5s-72.5 -77.167 -72.5 -118.5
l-2 -12v-32c1.33301 -8 2 -14.333 2 -19zM760.998 1082l-13.998 -0.000976562c-24.667 0 -70.334 30.667 -137.001 92s-102.5 92 -107.5 92s-39.667 -29.667 -104 -89s-110.5 -89 -138.5 -89s-42 9 -42 27c0 34 67 130.333 201 289c25.333 30 53.666 45 84.999 45h9
c28.667 0 58.667 -17 90 -51c133.333 -145.333 200 -239.666 200 -282.999c0 -22 -14 -33 -42 -33zM478 965.998h50.9971c135.333 0 231.333 -46.667 288 -140c30 -49.333 45 -164.166 45 -344.499s5.5 -284.166 16.5 -311.499s34.167 -46.833 69.5 -58.5s53 -25.5 53 -41.5
c0 -22 -14.667 -39.667 -44 -53c-46 -20.667 -92.5 -31 -139.5 -31s-85.5 15 -115.5 45s-49 45 -57 45s-24.333 -7 -49 -21s-57.667 -30.833 -99 -50.5s-87.666 -29.5 -138.999 -29.5h-24c-79.333 0 -142.166 23.167 -188.499 69.5s-69.5 107.166 -69.5 182.499
s28.167 136.333 84.5 183s129.833 80.667 220.5 102c144.667 34 219 52.333 223 55c25.333 17.333 38 54.833 38 112.5s-15.667 100.667 -47 129s-70.5 42.5 -117.5 42.5s-94.667 -29.167 -143 -87.5s-95.166 -87.5 -140.499 -87.5c-40.667 0 -61 28.167 -61 84.5
s31.667 102.166 95 137.499c80.667 45.333 164 68 250 68z" />
    <glyph glyph-name="atilde" unicode="&#xe3;" horiz-adv-x="1065" 
d="M611 468h-10.999l-6 -1h-7c-84 0 -160 -22.667 -228 -68c-46.667 -31.333 -70 -73 -70 -125v-25c0 -42 14 -75.333 42 -100s60.667 -37 98 -37h6c55.333 0 104.166 16.5 146.499 49.5s63.5 66.833 63.5 101.5c1.33301 8 2 14 2 18l1 6v12l1 5v12l1 24v48
c0 53.333 -13 80 -39 80zM369.001 1363h32.0029c23.333 0 66.166 -14.667 128.499 -44s106.333 -44 132 -44s55.167 12.833 88.5 38.5s53 38.5 59 38.5c24.667 0 37 -10 37 -30v-8c0 -42.667 -22.333 -84.5 -67 -125.5s-89.667 -61.5 -135 -61.5h-8
c-38 0 -86.667 14.833 -146 44.5s-101.833 44.5 -127.5 44.5s-57.334 -13 -95.001 -39s-56.834 -39 -57.501 -39c-25.333 0 -38 10 -38 30v8c0 40.667 28 86.667 84 138c35.333 32.667 73 49 113 49zM491.004 973l25.998 0.00195312c148 0 249 -47.333 303 -142
c26.667 -47.333 40 -164.166 40 -350.499s5.33301 -290.666 16 -312.999s33.167 -40 67.5 -53s51.5 -25.167 51.5 -36.5c0 -24 -11.667 -42.333 -35 -55c-44.667 -24.667 -91 -37 -139 -37s-83.667 11 -107 33c-40 37.333 -62.167 56 -66.5 56s-41.666 -16.667 -111.999 -50
s-140.166 -50 -209.499 -50s-127.333 22.667 -174 68s-70 100.333 -70 165v25c0 134.667 98 228 294 280c12.667 3.33301 50.5 11.666 113.5 24.999s100.167 23.666 111.5 30.999c30.667 19.333 46 54.666 46 105.999s-13.333 95.166 -40 131.499
s-66.834 54.5 -120.501 54.5s-105.167 -29.667 -154.5 -89s-93.666 -89 -132.999 -89c-47.333 0 -71 28 -71 84s29 100.333 87 133c86.667 48.667 178.667 73 276 73z" />
    <glyph glyph-name="adieresis" unicode="&#xe4;" horiz-adv-x="1065" 
d="M648 420c0 32.667 -12 48.999 -36 48.999h-6l-6 -1c-88 0 -161.167 -19.5 -219.5 -58.5s-87.5 -85.167 -87.5 -138.5v-32c1.33301 -9.33301 2 -15.666 2 -18.999c0 -30 13.5 -55.5 40.5 -76.5s53.833 -31.5 80.5 -31.5h31c51.333 0 96.833 17.5 136.5 52.5
s59.5 70.5 59.5 106.5c1.33301 8 2 14 2 18l1 12v12l1 12v24l1 18v53zM202 1292.5c0 9 9.33203 24.668 27.999 47.001s40.334 33.5 65.001 33.5l23 3h8c8 -2 18.667 -3 32 -3s30 -10 50 -30s30 -44 30 -72v-24c0 -28.667 -10.833 -53.834 -32.5 -75.501
s-50.167 -32.5 -85.5 -32.5h-8l-27 3c-17.333 0 -35.5 9.5 -54.5 28.5s-28.5 39.5 -28.5 61.5l-2 8v31c1.33301 5.33301 2 12.5 2 21.5zM821.999 1259l0.00195312 -20.002c0 -25.333 -9.83301 -49.833 -29.5 -73.5s-45.834 -35.5 -78.501 -35.5h-23
c-28.667 0 -52.834 9.83301 -72.501 29.5s-29.5 38.834 -29.5 57.501l-3 19v23c2 8 3 16.333 3 25s8.83301 23.667 26.5 45s37.5 32 59.5 32c4 1.33301 7.66699 2 11 2l15 2h12l27 -4c16 0 33.667 -9.66699 53 -29s29 -43.666 29 -72.999zM132.001 782.998
c0 50 38.498 94.168 115.498 132.501s158.167 57.5 243.5 57.5c160 0 267 -41 321 -123c27.333 -42 44 -92.667 50 -152c1.33301 -12.667 2 -96.5 2 -251.5s4.16699 -245.333 12.5 -271s30.833 -45.5 67.5 -59.5s55 -26.667 55 -38c0 -24 -12 -42.333 -36 -55
c-46.667 -24.667 -93.667 -37 -141 -37s-82.333 10.667 -105 32c-40.667 38 -61.334 57 -62.001 57c-8.66699 0 -47.167 -16.667 -115.5 -50s-132.166 -50 -191.499 -50h-24c-66.667 0 -123.167 22.5 -169.5 67.5s-69.5 100.167 -69.5 165.5v25c0 78 35 143.333 105 196
c46.667 35.333 98.834 60.5 156.501 75.5s111.167 27.167 160.5 36.5s82 18.666 98 27.999c30 18 45 53 45 105s-13.167 96 -39.5 132s-66.333 54 -120 54s-105.667 -29.5 -156 -88.5s-94.166 -88.5 -131.499 -88.5c-47.333 0 -71 33.333 -71 100z" />
    <glyph glyph-name="aring" unicode="&#xe5;" horiz-adv-x="1064" 
d="M520 1180c26 0 49 10.001 69 30.001s30 41.667 30 65v26c0 23.333 -9.83301 44.833 -29.5 64.5s-37.5 29.5 -53.5 29.5l-18 3h-15l-25 -4c-15.333 0 -31 -10 -47 -30s-24 -35.667 -24 -47l-3 -21v-15l4 -24c0 -13.333 8.83301 -28.833 26.5 -46.5
s31.667 -26.834 42 -27.501s16.5 -1 18.5 -1l14 -2h11zM302 285.001v-39c0 -40 12.667 -74.333 38 -103s56 -43 92 -43h29c6.66699 1.33301 12 2 16 2c57.333 0 105 28.333 143 85c16.667 25.333 25 78 25 158v19l2 30v24c0 30.667 -11 46 -33 46h-24l-38 -4
c-63.333 0 -120.833 -16.167 -172.5 -48.5s-77.5 -74.5 -77.5 -126.5zM503 1485l20 -0.000976562c56 0 102.667 -18.667 140 -56s56 -83 56 -137v-6c0 -54.667 -20.5 -100.5 -61.5 -137.5s-86.833 -55.5 -137.5 -55.5h-20c-50.667 0 -95.834 17.667 -135.501 53
s-59.5 77.333 -59.5 126v33c0 46.667 20.333 88.334 61 125.001s86.334 55 137.001 55zM490.5 971c87 0 155.833 -10.835 206.5 -32.502s91.5 -57.5 122.5 -107.5s46.5 -187 46.5 -411c0 -137.333 5 -219.166 15 -245.499s33 -45.666 69 -57.999s54 -26.5 54 -42.5
c0 -22 -17.667 -41.333 -53 -58s-77.5 -25 -126.5 -25s-88.333 14.833 -118 44.5s-49 44.5 -58 44.5s-30.167 -9.16699 -63.5 -27.5s-54.666 -29.833 -63.999 -34.5c-54.667 -26 -107.667 -39 -159 -39h-25c-78.667 0 -141.334 23.333 -188.001 70
c-46.667 46 -70 107 -70 183c0 132.667 94.333 225.667 283 279c10 2.66699 46.833 10.167 110.5 22.5s103.167 21.833 118.5 28.5c36.667 16 55 52.167 55 108.5s-13.667 101.333 -41 135s-65.833 50.5 -115.5 50.5s-100.667 -29.333 -153 -88s-91.833 -88 -118.5 -88
c-54.667 0 -82 28.5 -82 85.5s31.667 102.5 95 136.5c86 46 172.5 69 259.5 69z" />
    <glyph glyph-name="ae" unicode="&#xe6;" horiz-adv-x="1573" 
d="M302 296v-36.001c0 -40 12.333 -70.667 37 -92s56 -32 94 -32h33c49.333 0 95.5 15 138.5 45s64.5 58.333 64.5 85v34l-1 6l-2 29v18c0 80 -10.333 120 -31 120h-31c-20 -3.33301 -37.333 -5 -52 -5l-51 -7c-49.333 0 -99.333 -19.667 -150 -59
c-32.667 -25.333 -49 -60.666 -49 -105.999zM845 590.999c0 -24.667 19 -37 57 -37h52l6 1l170 11l34 4c48 0 72 17.333 72 52v36c-1.33301 8 -2 14 -2 18c0 38.667 -15.667 78.167 -47 118.5s-69 60.5 -113 60.5h-36c-53.333 0 -98.5 -23.833 -135.5 -71.5
s-55.5 -101.5 -55.5 -161.5l-2 -13v-18zM872 386.999c0 -40.667 9.16992 -79.668 27.5029 -117.001s38.166 -65.333 59.499 -84c46 -40 104.333 -60 175 -60c38.667 0 70.5 4.16699 95.5 12.5s58.5 20.833 100.5 37.5s63.333 25 64 25c30 0 45 -11 45 -33
c0 -41.333 -38 -81.333 -114 -120s-150.333 -58 -223 -58s-131.667 8 -177 24s-89.333 39.167 -132 69.5s-69.334 45.5 -80.001 45.5s-36.5 -14.333 -77.5 -43s-83.333 -51.5 -127 -68.5s-100 -25.5 -169 -25.5s-129.167 21 -180.5 63s-77 101.667 -77 179
c0 144 98 239.667 294 287c144 34.667 217.333 53 220 55c28.667 18 43 54.833 43 110.5s-14.833 98.667 -44.5 129s-69.667 45.5 -120 45.5s-97.5 -28.167 -141.5 -84.5s-81.333 -84.5 -112 -84.5c-19.333 0 -37.666 6 -54.999 18s-26 30 -26 54
c0 64.667 36.5 115.5 109.5 152.5s149.167 55.5 228.5 55.5s149.5 -13.667 210.5 -41s97.5 -41 109.5 -41s31.333 7 58 21c81.333 43.333 154.666 65 219.999 65h35c93.333 0 174.666 -31.667 243.999 -95c32 -29.333 58.5 -66.833 79.5 -112.5s31.5 -86.167 31.5 -121.5
v-31c0 -48 -14.5 -78.667 -43.5 -92s-111.333 -24.166 -247 -32.499s-209.167 -13.5 -220.5 -15.5c-55.333 -10 -83 -39.667 -83 -89z" />
    <glyph glyph-name="ccedilla" unicode="&#xe7;" horiz-adv-x="1011" 
d="M732 -242v-15.9971c0 -42 -28.833 -82.167 -86.5 -120.5s-116.5 -57.5 -176.5 -57.5l-10 1c-63.333 0 -95 18.333 -95 55v13c0 25.333 14.333 41.666 43 48.999c84 21.333 126 58 126 110c0 26.667 -11.167 51 -33.5 73s-33.5 36.333 -33.5 43
c0 13.333 2.66699 28.333 8 45c-105.333 8 -195 52 -269 132c-36 38 -64.833 86.833 -86.5 146.5s-32.5 117.167 -32.5 172.5v24c0 64 11.333 126.333 34 187c44 118 121 201.333 231 250c53.333 23.333 109.666 35 168.999 35h22c111.333 0 201 -18 269 -54
c43.333 -23.333 65 -59.833 65 -109.5s-6.83301 -81.667 -20.5 -96s-29.5 -21.5 -47.5 -21.5s-48.667 19.833 -92 59.5s-76.666 65.5 -99.999 77.5s-57 18 -101 18c-60 0 -108.833 -28.833 -146.5 -86.5s-56.5 -138.334 -56.5 -242.001s23.333 -185.334 70 -245.001
s116 -89.5 208 -89.5c30.667 0 66.5 5.16699 107.5 15.5s71.167 19.5 90.5 27.5s36 12 50 12c23.333 0 35 -12 35 -36c0 -36.667 -33.5 -75.5 -100.5 -116.5s-139.167 -61.5 -216.5 -61.5h-2c12 -10 40.667 -32.667 86 -68c61.333 -47.333 92 -89.333 92 -126z" />
    <glyph glyph-name="egrave" unicode="&#xe8;" horiz-adv-x="1036" 
d="M312 634v-25.001c0 -28 25.333 -42 76 -42h79l6 1l189 10c10 2 16.667 3 20 3c30 0 45 14.333 45 43v12l-1 7v13c0 61.333 -16.833 113.5 -50.5 156.5s-79.167 64.5 -136.5 64.5h-13c-56.667 0 -106.5 -24.167 -149.5 -72.5s-64.5 -105.166 -64.5 -170.499zM261 1385v16
c0 35.333 29 53 87 53h28c34 0 67.833 -19 101.5 -57s71.667 -92.333 114 -163s63.5 -110 63.5 -118c0 -20 -13.333 -30 -40 -30h-17c-23.333 0 -85.333 44.833 -186 134.5s-151 144.5 -151 164.5zM315 400.999c0 -80 27.166 -148.168 81.499 -204.501
s128.833 -84.5 223.5 -84.5c38 0 90.833 13.167 158.5 39.5s104.834 39.5 111.501 39.5c17.333 0 26 -14 26 -42c0 -11.333 -12.333 -29.666 -37 -54.999s-65.667 -50.5 -123 -75.5s-121.666 -37.5 -192.999 -37.5h-22c-126.667 0 -231 37 -313 111
c-41.333 36.667 -75.5 86.167 -102.5 148.5s-40.5 126.833 -40.5 193.5v45c0 63.333 11.667 125 35 185c47.333 122.667 126.333 208.667 237 258c64 28.667 133.333 43 208 43c111.333 0 200.333 -32.333 267 -97c34 -32.667 60 -71.834 78 -117.501s27 -86.5 27 -122.5
v-20c0 -47.333 -23.333 -79.166 -70 -95.499s-127.334 -24.5 -242.001 -24.5l-128 -5c-61.333 0 -107 -5.66699 -137 -17s-45 -33 -45 -65z" />
    <glyph glyph-name="eacute" unicode="&#xe9;" horiz-adv-x="1035" 
d="M311 621v-12c0 -24 16 -36 48 -36l12 -2h50l7 1l205 11l39 4c36.667 0 55 16 55 48v13l-1 6v13c0 56.667 -16 105.5 -48 146.5s-70.667 61.5 -116 61.5h-33c-50 0 -98.833 -23.833 -146.5 -71.5s-71.5 -108.5 -71.5 -182.5zM483 1079l-22 0.00292969
c-24.667 0 -37 10 -37 30l1 5v4c0 12.667 8.5 31.167 25.5 55.5s29.5 44.166 37.5 59.499l40 63l27 41c22 32 35 50 39 54c37.333 42 74.333 63 111 63h29c18.667 0 37.667 -6.33301 57 -19s29 -23.334 29 -32.001v-15c0 -14.667 -47.833 -69.834 -143.5 -165.501
s-160.167 -143.5 -193.5 -143.5zM317 403.003c0 -80.667 26.8311 -148.831 80.498 -204.498s128.167 -83.5 223.5 -83.5c41.333 0 93.5 12.833 156.5 38.5s100.5 38.5 112.5 38.5c17.333 0 26 -14.333 26 -43c0 -34 -40.167 -71 -120.5 -111s-159.5 -60 -237.5 -60h-22
c-132.667 0 -241.5 43.833 -326.5 131.5s-127.5 204.167 -127.5 349.5v46c0 57.333 12.333 116 37 176c50.667 123.333 134.334 207.666 251.001 252.999c57.333 22 113.333 33 168 33h23c108.667 0 199 -33.667 271 -101c32.667 -30.667 58.834 -70 78.501 -118
s29.5 -89.333 29.5 -124v-20c0 -48.667 -23 -80.834 -69 -96.501s-126.667 -23.5 -242 -23.5l-42 -2l-64 -1c-76.667 0 -130.167 -5 -160.5 -15s-45.5 -31 -45.5 -63z" />
    <glyph glyph-name="ecircumflex" unicode="&#xea;" horiz-adv-x="1036" 
d="M313 633v-18c0 -21.333 12.667 -32 38 -32c8 -1.33301 13.667 -2 17 -2l23 -2h13l6 1l239 10l22 2c42 0 63 20.333 63 61l-1 6v13c-1.33301 8 -2 14 -2 18c0 52 -20.167 96 -60.5 132s-82.833 54 -127.5 54h-13c-50.667 0 -99.5 -23.5 -146.5 -70.5
s-70.5 -104.5 -70.5 -172.5zM307 1084h-23.001c-25.333 0 -38 9.66699 -38 29v7c0 4.66699 28.667 47.167 86 127.5s98.666 134.166 123.999 161.499s54 41 86 41h8c28.667 0 58.334 -18 89.001 -54c126.667 -150 190 -243.333 190 -280c0 -20.667 -19.667 -31 -59 -31
c-22 0 -63.667 30.667 -125 92s-95 92 -101 92s-23.167 -14.167 -51.5 -42.5s-63.666 -59.166 -105.999 -92.499s-68.833 -50 -79.5 -50zM313.999 400c0 -81.333 27.6641 -149.667 82.9971 -205s124 -83 206 -83c46.667 0 85.334 5.66699 116.001 17s64 24.666 100 39.999
s56.667 23 62 23c26.667 0 40 -15 40 -45c0 -34.667 -40.167 -72 -120.5 -112s-160.166 -60 -239.499 -60h-22c-135.333 0 -244.666 43 -327.999 129c-39.333 40.667 -70.833 91.834 -94.5 153.501s-35.5 128.5 -35.5 200.5v23v6c0 72 12.333 137.333 37 196
c48.667 118 126 200 232 246c62.667 27.333 125.667 41 189 41h23c110 0 201 -33.667 273 -101c33.333 -31.333 59.666 -70.5 78.999 -117.5s29 -89.167 29 -126.5v-21c0 -48.667 -23.667 -81.167 -71 -97.5s-135.333 -24.5 -264 -24.5l-43 -2l-44 -1
c-79.333 0 -133.666 -5.16699 -162.999 -15.5s-44 -31.5 -44 -63.5z" />
    <glyph glyph-name="edieresis" unicode="&#xeb;" horiz-adv-x="1036" 
d="M678 596c36 0 54 14.333 54 43v32c0 51.333 -16.5 98.333 -49.5 141s-77.5 64 -133.5 64h-19c-56.667 0 -106.834 -25 -150.501 -75s-65.5 -107.667 -65.5 -173v-6c0 -24 11 -36 33 -36c8 -1.33301 13.667 -2 17 -2l11 -2h55l7 1l224 11
c6.66699 1.33301 12.334 2 17.001 2zM363 1139l-27 0.000976562c-8 2 -17.333 3 -28 3s-26 10 -46 30s-30 43.667 -30 71v24c2 8 3 14.333 3 19c0 21.333 11.333 41.5 34 60.5s46 28.5 70 28.5h27c8 -2 18.333 -3 31 -3s27.5 -10.333 44.5 -31s25.5 -39 25.5 -55l3 -20v-19
c0 -24.667 -10 -48.834 -30 -72.501s-45.667 -35.5 -77 -35.5zM854 1239c0 -27.333 -10.667 -51.667 -32 -73s-46.333 -32 -75 -32h-24c-28.667 0 -53.334 10.333 -74.001 31s-31 47 -31 79v15c2 8 3 14.333 3 19c0 22 11.333 42.5 34 61.5s46.334 28.5 71.001 28.5h24
c28 0 51.667 -9.66699 71 -29s29 -37.333 29 -54l4 -19v-27zM456 480c-96 0 -144.002 -26.335 -144.002 -79.002c0 -88 34 -162.667 102 -224c50.667 -45.333 121.334 -68 212.001 -68c39.333 0 92.333 13.167 159 39.5s100.334 39.5 101.001 39.5
c27.333 0 41 -14.667 41 -44c0 -39.333 -50 -81.333 -150 -126c-64 -28.667 -133.667 -43 -209 -43h-22c-136.667 0 -248 43 -334 129s-129 203.667 -129 353v23v5c0 60.667 11.667 122 35 184c45.333 121.333 125.333 208.333 240 261c62 28.667 125 43 189 43h22
c164.667 0 278.667 -66.333 342 -199c23.333 -49.333 35 -101.166 35 -155.499s-22.667 -89.166 -68 -104.499c-60 -20.667 -172 -31 -336 -31l-43 -2c-14 -0.666992 -28.333 -1 -43 -1z" />
    <glyph glyph-name="igrave" unicode="&#xec;" horiz-adv-x="647" 
d="M40 1400v9.00195c0 30 24 45 72 45h22c8 -1.33301 14 -2 18 -2c35.333 0 68.666 -20.333 99.999 -61c118.667 -152.667 178 -249.334 178 -290.001v-4c0 -16 -12.667 -24 -38 -24h-10c-31.333 0 -96.166 49.167 -194.499 147.5s-147.5 158.166 -147.5 179.499z
M159 12.002c-38.667 0 -58 14.667 -58 44c0 14.667 15.5 30.834 46.5 48.501s49.833 37.167 56.5 58.5c12.667 39.333 19 145.166 19 317.499s-4.66699 273.166 -14 302.499s-31.5 52.333 -66.5 69s-52.5 31.334 -52.5 44.001c0 22 14 36.667 42 44
c76.667 20.667 151 31 223 31h15c35.333 0 55.833 -15 61.5 -45s8.5 -150.167 8.5 -360.5s5.33301 -335.333 16 -375s33 -70 67 -91s51 -38.833 51 -53.5c0 -22.667 -27.667 -34 -83 -34h-120l-15 1h-45l-30 -1h-122z" />
    <glyph glyph-name="iacute" unicode="&#xed;" horiz-adv-x="647" 
d="M491 1462h6.00098c26 0 47.833 -7 65.5 -21s26.5 -27.333 26.5 -40l-1 -5v-5c0 -24 -51.333 -81.667 -154 -173s-166.334 -137 -191.001 -137l-5 1c-26 0 -39 8.33301 -39 25v4c0 13.333 13.333 40 40 80s52.5 80.667 77.5 122s46.167 72 63.5 92c34 38 71 57 111 57z
M142.001 1c-33.333 0 -50 12.999 -50 38.999c0 16 15.833 33.333 47.5 52s53.167 45.667 64.5 81s17 139 17 311s-5.33301 270.333 -16 295s-32.834 46.167 -66.501 64.5s-50.5 32.5 -50.5 42.5v10c0 12 9 22.333 27 31c54.667 26 140 39 256 39h14
c32 0 50.667 -18.333 56 -55c3.33301 -22.667 5 -141 5 -355s5.33301 -340.167 16 -378.5s28.334 -64.166 53.001 -77.499c42.667 -23.333 64 -43 64 -59c0 -26 -88.667 -39 -266 -39h-31l-46 -1h-94z" />
    <glyph glyph-name="icircumflex" unicode="&#xee;" horiz-adv-x="648" 
d="M565 1096l-15 -0.000976562c-26.667 0 -86 46 -178 138c-33.333 33.333 -51.5 50 -54.5 50s-38.333 -31.167 -106 -93.5s-116 -93.5 -145 -93.5s-43.5 9 -43.5 27c0 30.667 67.333 125.667 202 285c27.333 32 57.333 48 90 48h8c28 0 53.167 -12.167 75.5 -36.5
s62.833 -77.666 121.5 -159.999s88 -126.833 88 -133.5c0 -20.667 -14.333 -31 -43 -31zM220 345.999v90l1 32v31c0 148.667 -4.83301 238 -14.5 268s-32.334 54.333 -68.001 73s-53.5 32.667 -53.5 42v10c0 13.333 9.33301 24.333 28 33
c52.667 25.333 133.334 38 242.001 38h29c32.667 0 51.667 -18.333 57 -55c2.66699 -18.667 4 -136.5 4 -353.5s5.5 -344.833 16.5 -383.5s29.167 -65.667 54.5 -81c43.333 -25.333 65 -45 65 -59c0 -24.667 -21.667 -37 -65 -37c-21.333 -1.33301 -36.666 -2 -45.999 -2
h-172l-62 -1h-94c-33.333 0 -50 13.333 -50 40c0 18 14.167 34.667 42.5 50s47.166 31 56.499 47c18 31.333 27 87 27 167c1.33301 20.667 2 37.667 2 51z" />
    <glyph glyph-name="idieresis" unicode="&#xef;" horiz-adv-x="649" 
d="M12 1296c0 11.333 9.83301 26.833 29.5 46.5s39.5 29.5 59.5 29.5l19 3h24c8 -2 17.333 -3 28 -3s26 -10 46 -30s30 -46.333 30 -79v-8c0 -29.333 -9.66699 -55.5 -29 -78.5s-40.333 -34.5 -63 -34.5l-19 -3h-24l-23 4c-18 0 -35.5 10.167 -52.5 30.5
s-25.5 38.5 -25.5 54.5l-3 20v19c2 8 3 17.667 3 29zM636 1267l-0.000976562 -16c0 -26.667 -10 -52 -30 -76s-47 -36 -81 -36h-20c-29.333 0 -54.166 10.167 -74.499 30.5s-30.5 39.833 -30.5 58.5l-3 20v20c2 6 3 15 3 27s10 28 30 48s40.667 30 62 30l24 3h8
c8 -2 18.5 -3 31.5 -3s29.667 -10.167 50 -30.5s30.5 -45.5 30.5 -75.5zM159.999 -8c-39.333 0 -59 11.1699 -59 33.5029s16 42.333 48 60s51.667 37.5 59 59.5c14 44 21 152.5 21 325.5s-4.5 273.667 -13.5 302s-31.667 51.166 -68 68.499s-54.5 32.666 -54.5 45.999v10
c0 8 6 16.333 18 25c40 28 123.333 42 250 42h14c36 0 56.667 -14.333 62 -43s8 -151.834 8 -369.501s5 -345 15 -382s25.667 -62.167 47 -75.5c48 -30 72 -48.667 72 -56v-11c0 -22.667 -83.333 -34 -250 -34h-30l-62 -1h-77z" />
    <glyph glyph-name="eth" unicode="&#xf0;" horiz-adv-x="1175" 
d="M337 487v-58.001c0 -102 18.333 -184 55 -246c46 -78.667 102 -118 168 -118h20c68 0 123.5 36.5 166.5 109.5s64.5 167.833 64.5 284.5v46c-1.33301 16 -2 27.333 -2 34c0 88.667 -22.667 161.334 -68 218.001s-102.333 85 -171 85h-18c-56.667 0 -106 -29.333 -148 -88
s-63 -129 -63 -211l-2 -22c-1.33301 -14.667 -2 -26 -2 -34zM380 1124c0 15.333 10.168 33.498 30.501 54.498s30.5 42.5 30.5 64.5c0 10.667 -20.833 34.834 -62.5 72.501s-62.5 65.667 -62.5 84s16.667 27.5 50 27.5s79.333 -10.167 138 -30.5s101.167 -30.5 127.5 -30.5
s56.166 4.83301 89.499 14.5s58.333 14.5 75 14.5c36.667 0 55 -20 55 -60c0 -14.667 -6.5 -33.667 -19.5 -57s-19.5 -41 -19.5 -53s23.333 -56.667 70 -134c112 -187.333 168 -369.833 168 -547.5s-37.333 -312.5 -112 -404.5c-91.333 -112.667 -211 -169 -359 -169
c-147.333 0 -260.666 41 -339.999 123c-42.667 44 -74.334 95.833 -95.001 155.5s-31 117.5 -31 173.5v29c0 62.667 11.833 124.834 35.5 186.501s59 114.167 106 157.5s97.333 72.833 151 88.5s125.834 23.5 216.501 23.5c62 0 93 14.667 93 44c0 51.333 -28 95 -84 131
c-20.667 13.333 -60.334 20 -119.001 20l-97 -10c-23.333 0 -35 10.667 -35 32z" />
    <glyph glyph-name="ntilde" unicode="&#xf1;" horiz-adv-x="1256" 
d="M483 1374h24c30 0 75.833 -14.5 137.5 -43.5s106 -43.5 133 -43.5s57 12.667 90 38s55.5 38 67.5 38c20 0 30 -10 30 -30v-8c0 -42 -27.333 -88.333 -82 -139c-34 -31.333 -72 -47 -114 -47h-24c-34.667 0 -81 14.5 -139 43.5s-101.333 43.5 -130 43.5
s-59.667 -12.833 -93 -38.5s-53.333 -38.5 -60 -38.5c-25.333 0 -38 10.333 -38 31v8c0 40 28 86 84 138c34.667 32 72.667 48 114 48zM503 31c0 -21.333 -63.6689 -32 -191.002 -32s-195.666 1 -204.999 3c-24 5.33301 -36 21 -36 47c0 11.333 18.167 26.5 54.5 45.5
s57.833 43.333 64.5 73s10 132.167 10 307.5s-7 278.666 -21 309.999c-6.66699 14.667 -24.5 29.834 -53.5 45.501s-43.5 31.5 -43.5 47.5s13 29.667 39 41c48.667 21.333 117.667 32 207 32c24.667 0 45 -10.667 61 -32l12 -21l9 -23c8 -16 16.5 -24 25.5 -24
s30.167 10.167 63.5 30.5s59 34.833 77 43.5c57.333 26.667 116 40 176 40c122 0 207 -46.667 255 -140c32.667 -64 49 -221.333 49 -472c0 -120.667 5 -190.167 15 -208.5s31.833 -35.5 65.5 -51.5s50.5 -31.333 50.5 -46c0 -19.333 -12.5 -32.5 -37.5 -39.5
s-94.5 -10.5 -208.5 -10.5h-64c-68 0 -102 12.333 -102 37c0 8.66699 7.83301 24.167 23.5 46.5s26.334 46.666 32.001 72.999s8.5 122.5 8.5 288.5s-13.167 273 -39.5 321s-75.5 72 -147.5 72c-36.667 0 -75 -12 -115 -36s-69.333 -52.5 -88 -85.5s-28 -102.167 -28 -207.5
l2 -63l-1 -94c0 -96 4.33301 -159 13 -189s22.167 -56.667 40.5 -80s27.5 -39.666 27.5 -48.999z" />
    <glyph glyph-name="ograve" unicode="&#xf2;" horiz-adv-x="1135" 
d="M307 554v-60c0 -118.667 25.5 -214.167 76.5 -286.5s115.167 -108.5 192.5 -108.5h11c70.667 0 126.5 29.833 167.5 89.5s61.5 137.167 61.5 232.5v59c0 118 -24.5 215 -73.5 291s-110.5 114 -184.5 114h-33c-67.333 0 -120.5 -31.333 -159.5 -94
s-58.5 -141.667 -58.5 -237zM632 1059l-9.99902 -0.000976562l-6 1c-36.667 0 -102.5 47.5 -197.5 142.5s-142.5 153.5 -142.5 175.5v5l1 6c0 11.333 10.167 23.833 30.5 37.5s42.166 20.5 65.499 20.5h18c44 0 84 -23.333 120 -70c110 -141.333 165 -234.666 165 -279.999
v-9c0 -19.333 -14.667 -29 -44 -29zM535.001 965.999l65.998 0.00195312c62 0 122.333 -14 181 -42c172 -83.333 258 -230.333 258 -441v-33c0 -66.667 -12.667 -131 -38 -193c-50.667 -121.333 -132 -204 -244 -248c-62.667 -24.667 -123.667 -37 -183 -37h-34
c-62 0 -121 11.333 -177 34c-109.333 44.667 -187.666 126.667 -234.999 246c-24 61.333 -36 123 -36 185v51c0 61.333 11.667 122.666 35 183.999c42.667 113.333 118.667 196.666 228 249.999c60.667 29.333 120.334 44 179.001 44z" />
    <glyph glyph-name="oacute" unicode="&#xf3;" horiz-adv-x="1135" 
d="M310 473c0 -117.333 22.499 -208.666 67.499 -273.999s103.167 -98 174.5 -98h11c75.333 0 135.833 32.167 181.5 96.5s68.5 157.5 68.5 279.5v35c0 116.667 -22.5 207.667 -67.5 273s-102.833 98 -173.5 98h-22c-69.333 0 -126.166 -32.333 -170.499 -97
s-66.5 -141.334 -66.5 -230.001l-2 -23l-1 -36v-24zM499.999 1060h-17c-28 0 -42 10.667 -42 32v5c0 45.333 57 141.333 171 288c32.667 42 73 63 121 63h18c18.667 0 37.667 -6.5 57 -19.5s29 -25.5 29 -37.5v-10c0 -36 -50 -98.5 -150 -187.5s-162.333 -133.5 -187 -133.5
zM534.999 968h66.001c59.333 0 117.666 -13.333 174.999 -40c112 -51.333 188.667 -132 230 -242c24.667 -65.333 37 -133 37 -203v-34c-0.666992 -62 -13 -123.667 -37 -185c-48 -121.333 -125.667 -205 -233 -251c-66.667 -28.667 -132.667 -43 -198 -43h-34
c-127.333 0 -233.666 42.667 -318.999 128c-40 40 -72 91.833 -96 155.5s-36 130.5 -36 200.5v34c0 60 12 121.333 36 184c45.333 120 126.333 206 243 258c57.333 25.333 112.666 38 165.999 38z" />
    <glyph glyph-name="ocircumflex" unicode="&#xf4;" horiz-adv-x="1135" 
d="M303 546l0.000976562 -58.002c0 -109.333 24.167 -199.166 72.5 -269.499s109.166 -105.5 182.499 -105.5h22c70 0 127.5 30.667 172.5 92s67.5 146 67.5 254v57c0 94 -27.333 183.333 -82 268c-42 65.333 -96 98 -162 98h-33c-68 0 -125 -32.667 -171 -98
s-69 -144.666 -69 -237.999zM554.001 1440l17.001 -0.000976562c30.667 0 59.667 -17.667 87 -53c127.333 -165.333 191 -260.666 191 -285.999c0 -22 -16.667 -33 -50 -33h-8c-24 0 -67.333 29 -130 87s-95.834 87 -99.501 87s-39.167 -28.5 -106.5 -85.5
s-115.833 -85.5 -145.5 -85.5s-44.5 10.333 -44.5 31c0 44 66.333 138.333 199 283c33.333 36.667 63.333 55 90 55zM1044 501.997l0.000976562 -50.999c0 -62 -12 -123.667 -36 -185c-45.333 -116 -123.333 -200 -234 -252c-62 -28.667 -128.333 -43 -199 -43h-51
c-60.667 0 -119 13 -175 39s-101.833 58.667 -137.5 98s-65.167 89.666 -88.5 150.999s-35 127.333 -35 198v33c0 66.667 13.333 131.667 40 195c49.333 118 129.666 201 240.999 249c59.333 25.333 120 38 182 38h34c66 0 128.667 -12.667 188 -38
c112 -48.667 190 -130.334 234 -245.001c24.667 -65.333 37 -127.666 37 -186.999z" />
    <glyph glyph-name="otilde" unicode="&#xf5;" horiz-adv-x="1135" 
d="M565 881l-23 0.000976562c-69.333 0 -126.833 -31.167 -172.5 -93.5s-68.5 -152.833 -68.5 -271.5v-11c0 -114 24 -208 72 -282c22 -34 49.833 -60.833 83.5 -80.5s67.5 -29.5 101.5 -29.5h33c65.333 0 120 32 164 96s66 146 66 246v45
c0 111.333 -24.5 202.666 -73.5 273.999s-109.833 107 -182.5 107zM426 1360h24.002c27.333 0 73.166 -14.333 137.499 -43s108.5 -43 132.5 -43s51.333 11.5 82 34.5s50 34.5 58 34.5c24 0 36 -11 36 -33v-9c0 -38 -21.167 -80 -63.5 -126s-84.833 -69 -127.5 -69h-32
c-26.667 0 -72.5 14.5 -137.5 43.5s-109.333 43.5 -133 43.5s-52.334 -11.667 -86.001 -35s-53.5 -35 -59.5 -35c-24.667 0 -37 10.667 -37 32v9c0 43.333 23.667 86.833 71 130.5s92.333 65.5 135 65.5zM551.002 975.001h34.001c63.333 -0.666992 124.333 -13 183 -37
c114.667 -47.333 194.334 -129.333 239.001 -246c24.667 -65.333 37 -133.333 37 -204v-34c0 -58.667 -12 -119.334 -36 -182.001c-48.667 -127.333 -131.667 -214.333 -249 -261c-62.667 -24.667 -124.334 -37 -185.001 -37h-50c-62.667 0 -123.334 14 -182.001 42
c-106.667 51.333 -180.667 136 -222 254c-21.333 62 -32 125 -32 189v34c0 60.667 12 122.334 36 185.001c48 127.333 134 215.333 258 264c56 22 112.333 33 169 33z" />
    <glyph glyph-name="odieresis" unicode="&#xf6;" horiz-adv-x="1135" 
d="M313 549v-72.001c0 -107.333 22.833 -196.333 68.5 -267s104.167 -106 175.5 -106h11l11 1c64 0 116.833 30.333 158.5 91s62.5 139.334 62.5 236.001v82c0 109.333 -22.667 199 -68 269s-104 105 -176 105h-10l-11 -1c-64 0 -117 -30.667 -159 -92
s-63 -143.333 -63 -246zM342.5 1142c-9 0 -23.833 8.66699 -44.5 26s-31 37.333 -31 60l-3 19v20c2 8 3 17.667 3 29s10.333 27.333 31 48s45 31 73 31h27c8 -2 17.5 -3 28.5 -3s26.5 -10 46.5 -30s30 -46.333 30 -79v-8c0 -29.333 -9.66699 -55.5 -29 -78.5
s-40.333 -34.5 -63 -34.5l-19 -3h-24c-8 2 -16.5 3 -25.5 3zM768 1106h-29.001c-6.66699 1.33301 -11 2 -13 2c-26 0 -49.167 12.333 -69.5 37s-30.5 50.667 -30.5 78v21c0 28 10.833 55 32.5 81s50.834 39 87.501 39h22c30 0 55 -12 75 -36s30 -54 30 -90v-4l-4 -34
c0 -16 -9.83301 -35.667 -29.5 -59s-43.5 -35 -71.5 -35zM1047 503.999l0.000976562 -50.0029c0 -61.333 -11.667 -122.666 -35 -183.999c-46.667 -124 -129.667 -210.333 -249 -259c-61.333 -25.333 -123 -38 -185 -38h-34h-5c-58 0 -115 11 -171 33
c-118.667 46.667 -200.334 134.667 -245.001 264c-21.333 62 -32 125 -32 189v34c0 66.667 12.667 130.5 38 191.5s58.166 112.833 98.499 155.5s90.333 75.667 150 99s118.834 35 177.501 35h33c130.667 0 239 -43 325 -129c41.333 -41.333 74 -93.666 98 -156.999
s36 -124.666 36 -183.999z" />
    <glyph glyph-name="divide" unicode="&#xf7;" horiz-adv-x="1128" 
d="M578 815l-28.998 0.000976562c-24 0 -48.167 10.167 -72.5 30.5s-36.5 46.5 -36.5 78.5v24c0 27.333 11.167 52.166 33.5 74.499s45.166 33.5 68.499 33.5l25 3h4l4 -1c29.333 0 56.166 -10.167 80.499 -30.5s36.5 -46.5 36.5 -78.5v-24
c0 -27.333 -11.5 -52.5 -34.5 -75.5s-49.5 -34.5 -79.5 -34.5zM163.002 524.001c-34.667 0 -52.001 11.667 -52.001 35v31c0 38 11.167 58.833 33.5 62.5s139.833 5.5 352.5 5.5h478c34.667 0 52 -11.667 52 -35v-31c0 -36.667 -8.16699 -57 -24.5 -61
s-165.166 -6 -446.499 -6l-41 -1h-352zM581.001 134.001l-30.002 -0.000976562c-25.333 0 -49.666 9.83301 -72.999 29.5s-35 39.834 -35 60.501c-1.33301 5.33301 -2 9 -2 11l-2 20l1 4v7c1.33301 5.33301 2 9.33301 2 12c0 20.667 12 41 36 61s45.333 30 64 30l24 3h9
c8 -2 20 -3 36 -3s34 -12 54 -36s30 -47.667 30 -71v-16c0 -32.667 -12.667 -59.5 -38 -80.5s-50.666 -31.5 -75.999 -31.5z" />
    <glyph glyph-name="oslash" unicode="&#xf8;" horiz-adv-x="1161" 
d="M320 410c0 -49.333 12 -100 36 -152c6 -12.667 11 -19 15 -19h5c17.333 0 58.333 50.333 123 151c141.333 220 212 355.333 212 406c0 18 -11.333 36.5 -34 55.5s-54.667 28.5 -96 28.5h-25c-63.333 0 -118.5 -30.667 -165.5 -92s-70.5 -136 -70.5 -224l-2 -18l-1 -28
v-64c2 -18 3 -32.667 3 -44zM805 666c0 38.667 -2.99805 58 -8.99805 58s-16.333 -18.167 -31 -54.5s-43.667 -95.333 -87 -177s-70 -129.834 -80 -144.501c-97.333 -146 -146 -220.667 -146 -224v-12c0 -26.667 21.333 -40 64 -40h13c31.333 0 62.666 11.833 93.999 35.5
s57.666 56.834 78.999 99.501c66 132 99 260.667 99 386c1.33301 9.33301 2 17 2 23l2 29v21zM910.002 1039l14.002 0.000976562c27.333 0 41 -15.333 41 -46c0 -4 -4.5 -22.333 -13.5 -55s-13.5 -57.167 -13.5 -73.5s8 -41.5 24 -75.5s30.833 -70.5 44.5 -109.5
s20.5 -90.833 20.5 -155.5v-20c0 -72.667 -12.833 -143.667 -38.5 -213s-64.834 -128.333 -117.501 -177s-109.167 -82.5 -169.5 -101.5s-135.5 -28.5 -225.5 -28.5l-67 2c-27.333 0 -60 -12.167 -98 -36.5s-63.333 -36.5 -76 -36.5c-32.667 0 -49 17 -49 51
c0 2.66699 4.16699 19 12.5 49s12.5 51.167 12.5 63.5s-15.5 56.166 -46.5 131.499s-46.5 143.333 -46.5 204v60c0 72 14.667 141.333 44 208c86.667 196 249.667 294 489 294l100 -4c19.333 0 48.166 11.5 86.499 34.5s62.5 34.5 72.5 34.5z" />
    <glyph glyph-name="ugrave" unicode="&#xf9;" horiz-adv-x="1222" 
d="M303 1385v11.001c0 11.333 8.66699 23.833 26 37.5s36.333 20.5 57 20.5h10c38.667 0 73.667 -17.667 105 -53c135.333 -152 203 -249.667 203 -293v-4c0 -14.667 -11.667 -22 -35 -22h-11c-38 0 -134.333 68.667 -289 206c-44 39.333 -66 71.666 -66 96.999z
M1013 377.001c0 -96 4.33301 -157 13 -183s22.334 -45.667 41.001 -59c38 -26.667 57 -43.334 57 -50.001c0 -23.333 -20 -41.333 -60 -54s-93.333 -19 -160 -19c-34.667 0 -61.334 14 -80.001 42c-2.66699 3.33301 -8.5 14.833 -17.5 34.5s-17.5 29.5 -25.5 29.5
c-7.33301 0 -26.333 -10.667 -57 -32c-81.333 -57.333 -162 -86 -242 -86h-29c-49.333 -0 -95 11.833 -137 35.5s-73.333 55.5 -94 95.5c-32.667 62.667 -49 186.167 -49 370.5s-6 286.333 -18 306s-34.333 35.334 -67 47.001s-49 23.5 -49 35.5v23c0 28.667 69 43 207 43
h54c30.667 0 52.5 -18.833 65.5 -56.5s19.5 -117.5 19.5 -239.5l1 -57l1 -29l1 -87c0 -130.667 8.66699 -215.667 26 -255c28.667 -66.667 78.667 -100 150 -100c37.333 0 74.333 9.5 111 28.5s65.667 44.167 87 75.5s32 118 32 260s-4.5 232.5 -13.5 271.5
s-24.333 69.333 -46 91s-32.5 36.5 -32.5 44.5s6.33301 15.667 19 23c35.333 20 106 30 212 30c34.667 0 57.167 -6.16699 67.5 -18.5s15.5 -55.5 15.5 -129.5l-2 -142v-87l-1 -29v-173z" />
    <glyph glyph-name="uacute" unicode="&#xfa;" horiz-adv-x="1218" 
d="M859 1404l-0.000976562 -11c0 -23.333 -51 -80.333 -153 -171s-168.333 -136 -199 -136h-6l-5 1c-23.333 0 -35 8.66699 -35 26l1 5v4c0 6 31.167 53.5 93.5 142.5s96.166 136.5 101.499 142.5c30.667 34.667 65.334 52 104.001 52h17
c18.667 0 36.834 -6.83301 54.501 -20.5s26.5 -25.167 26.5 -34.5zM792.999 607c0 67.333 -5.16504 121.167 -15.498 161.5s-25.833 71.166 -46.5 92.499s-31 36.5 -31 45.5s7 17.167 21 24.5c36 18.667 108 28 216 28c34 0 56.5 -6.83301 67.5 -20.5
s16.5 -39.167 16.5 -76.5l-1 -29c-0.666992 -19.333 -1 -39 -1 -59l-2 -58l-1 -59v-119c0 -188 4.5 -301.167 13.5 -339.5s28.5 -68.166 58.5 -89.499s45 -35.666 45 -42.999c0 -16.667 -14.5 -32.667 -43.5 -48s-70.833 -23 -125.5 -23s-90 4.33301 -106 13
c-15.333 8.66699 -30 26.5 -44 53.5s-24.833 40.5 -32.5 40.5s-27.5 -11 -59.5 -33c-84 -57.333 -163 -86 -237 -86c-134.667 0 -224.667 44.333 -270 133c-30.667 60 -46 206 -46 438c0 134.667 -3.5 212.5 -10.5 233.5s-22.833 37.167 -47.5 48.5
c-49.333 23.333 -74 40.666 -74 51.999c0 26 13 42 39 48c54.667 12.667 122.334 19 203.001 19c49.333 0 79.666 -18.333 90.999 -55c16 -51.333 24 -168.166 24 -350.499s7.16699 -290.5 21.5 -324.5s33.166 -60 56.499 -78s54.666 -27 93.999 -27
s77.5 9.83301 114.5 29.5s65.333 46 85 79s29.5 106.167 29.5 219.5l-1 29c-0.666992 19.333 -1 62.666 -1 129.999z" />
    <glyph glyph-name="ucircumflex" unicode="&#xfb;" horiz-adv-x="1218" 
d="M832 1094h-14c-24.667 0 -68.334 31.333 -131.001 94s-96 94 -100 94s-39.833 -31.167 -107.5 -93.5s-116 -93.5 -145 -93.5s-43.5 9.66699 -43.5 29c0 41.333 69.667 138 209 290c25.333 27.333 51 41 77 41h16c26.667 0 52.334 -13.333 77.001 -40
c138 -150.667 207 -247.667 207 -291c0 -20 -15 -30 -45 -30zM1138 56c0 -47.333 -76.6699 -71 -230.003 -71c-32.667 0 -61.167 18.167 -85.5 54.5s-37.166 54.5 -38.499 54.5c-8.66699 0 -28.334 -10.667 -59.001 -32c-85.333 -59.333 -165.333 -89 -240 -89
c-135.333 0 -226 44.667 -272 134c-30.667 58.667 -46 206 -46 442c0 136.667 -3.66699 215.5 -11 236.5s-23 37.167 -47 48.5c-50 23.333 -75 40.666 -75 51.999c0 26.667 13 43 39 49c54.667 12.667 122.667 19 204 19c48.667 0 79.334 -18.667 92.001 -56
c15.333 -46 23 -162.667 23 -350s7 -297.666 21 -330.999s32.5 -59.5 55.5 -78.5s56.167 -28.5 99.5 -28.5c72.667 0 132.334 27.333 179.001 82c33.333 38.667 50 111.667 50 219l-1 29c-0.666992 19.333 -1 65.833 -1 139.5s-7 141.167 -21 202.5
c-6.66699 28 -20.667 52.667 -42 74c-21.333 22.667 -32.333 38.667 -33 48c0 35.333 77 53 231 53h9c34.667 0 57.334 -7.16699 68.001 -21.5s16 -49.833 16 -106.5l-2 -59c-1.33301 -38.667 -2 -70.667 -2 -96v-83l-1 -30v-59c0 -167.333 4.5 -270.833 13.5 -310.5
s29 -70.5 60 -92.5s46.5 -36.333 46.5 -43z" />
    <glyph glyph-name="udieresis" unicode="&#xfc;" horiz-adv-x="1221" 
d="M341 1141c-10.667 0 -25.833 9.83496 -45.5 29.502s-29.5 42.5 -29.5 68.5v31c1.33301 5.33301 2 9.33301 2 12c0 23.333 11.667 44.666 35 63.999s50.333 29 81 29h4c34.667 0 62 -10 82 -30s30 -38.667 30 -56c1.33301 -5.33301 2 -9.33301 2 -12l2 -16v-12
c0 -30.667 -10.333 -56.334 -31 -77.001s-41 -31 -61 -31l-19 -3h-24c-8 2 -17.333 3 -28 3zM897.001 1246l-2.00098 -29.999c0 -10.667 -10.333 -26.334 -31 -47.001s-45 -31 -73 -31h-27c-31.333 0 -56.666 11.667 -75.999 35s-29 50.666 -29 81.999v4
c0 29.333 10 56 30 80s47 36 81 36h16c28.667 0 54 -9.16699 76 -27.5s33 -39.166 33 -62.499l3 -23v-12zM1129 66.0029c0 -48.667 -74.665 -73.002 -223.998 -73.002c-34.667 0 -63.334 17.5 -86.001 52.5s-35.334 52.5 -38.001 52.5c-7.33301 0 -27 -11 -59 -33
c-82.667 -57.333 -164.667 -86 -246 -86h-30c-47.333 0 -92.666 12.167 -135.999 36.5s-75.333 57.166 -96 98.499c-31.333 62.667 -47 209.334 -47 440.001c0 130.667 -4 207.834 -12 231.501s-24 40.834 -48 51.501c-50.667 22.667 -76 38.667 -76 48
c0 26.667 12.667 43 38 49c48 11.333 115.667 17 203 17c49.333 0 79.666 -19 90.999 -57c14.667 -48 22 -164 22 -348s7.66699 -294 23 -330s34.5 -63.167 57.5 -81.5s54.667 -27.5 95 -27.5s79.166 10.167 116.499 30.5s66.5 46.333 87.5 78s31.5 120.167 31.5 265.5
s-4.83301 237.333 -14.5 276s-25.667 69.167 -48 91.5s-33.5 38.5 -33.5 48.5c0 36.667 78.667 55 236 55c34.667 0 57.334 -6.66699 68.001 -20s16 -47.333 16 -102l-2 -58c-1.33301 -38.667 -2 -70 -2 -94v-80l-1 -89c0 -176 3.66699 -281.167 11 -315.5
s22.333 -59.833 45 -76.5c38.667 -28.667 58 -45.667 58 -51z" />
    <glyph glyph-name="yacute" unicode="&#xfd;" horiz-adv-x="1116" 
d="M477 1108l0.00195312 15.001c0 8.66699 14.167 31.167 42.5 67.5s54.666 76.666 78.999 120.999s48.666 80.333 72.999 108s52.833 41.5 85.5 41.5h17c6.66699 -1.33301 15.167 -2 25.5 -2s24.5 -7 42.5 -21s27 -25.333 27 -34v-5l-1 -5
c0 -10.667 -49.5 -65.5 -148.5 -164.5s-163.833 -148.5 -194.5 -148.5h-5c-28.667 0 -43 9 -43 27zM616.002 276.001c6.66699 0 19.668 21.3311 39.001 63.998c92.667 204 139 359 139 465c0 23.333 -7.16699 48.5 -21.5 75.5s-21.5 42.167 -21.5 45.5c0 22 46 33 138 33h33
c92.667 0 139 -17 139 -51c0 -15.333 -16.667 -41 -50 -77s-59.833 -75.667 -79.5 -119s-74.5 -182.166 -164.5 -416.499s-160 -395.666 -210 -483.999s-97.667 -150.5 -143 -186.5s-90.333 -54 -135 -54s-81 8.83301 -109 26.5s-42 41.834 -42 72.501
c0 43.333 25.667 65 77 65l22 -1l43 -4c50 0 96.167 26.167 138.5 78.5s63.5 108.166 63.5 167.499c0 66.667 -29 158.167 -87 274.5s-107 221.5 -147 315.5s-70.333 156.667 -91 188c-62 92 -93 140.667 -93 146c0 20 13.5 34.5 40.5 43.5s86.167 13.5 177.5 13.5
s137 -14.333 137 -43l-10 -84c0 -81.333 54 -242.333 162 -483c21.333 -47.333 39.666 -71 54.999 -71z" />
    <glyph glyph-name="thorn" unicode="&#xfe;" horiz-adv-x="1210" 
d="M856 457v49c0 110.667 -20.667 199.667 -62 267s-93 101 -155 101h-9c-42 0 -81 -11.667 -117 -35s-61 -49 -75 -77s-21 -136.667 -21 -326v-22l-1 -44v-109c0 -122.667 65 -184 195 -184h9c73.333 0 131 35.833 173 107.5s63 162.5 63 272.5zM427 -151
c0 -63.333 5.83203 -106.504 17.499 -129.504s29.5 -43.667 53.5 -62s36 -37.166 36 -56.499c0 -28.667 -51 -43 -153 -43h-29l-30 1h-59c-76.667 0 -123.667 3 -141 9s-26 20 -26 42c0 4.66699 11.5 18.5 34.5 41.5s39.833 58.667 50.5 107s16 137.5 16 267.5l4 122v62
l1 32v373c0 332 -3.33301 521.667 -10 569s-20.667 81.333 -42 102c-5.33301 5.33301 -19.333 16.5 -42 33.5s-34 30.833 -34 41.5s5 19.334 15 26.001c44 28.667 117 43 219 43c46.667 0 76.5 -17.667 89.5 -53s19.5 -106.833 19.5 -214.5s3.5 -176.667 10.5 -207
s22.5 -45.5 46.5 -45.5c1.33301 0 31 9.66699 89 29s111 29 159 29c49.333 0 97.333 -9.33301 144 -28c100.667 -40.667 169.667 -118.667 207 -234c20.667 -62 31 -124 31 -186v-32c0 -69.333 -13.333 -136.666 -40 -201.999c-79.333 -192 -222.666 -288 -429.999 -288
l-113 4c-35.333 0 -59.833 -9.66699 -73.5 -29s-20.5 -60.666 -20.5 -123.999z" />
    <glyph glyph-name="ydieresis" unicode="&#xff;" horiz-adv-x="1139" 
d="M375 1366l20.001 -0.000976562c29.333 0 54.166 -10.167 74.499 -30.5s30.5 -41.166 30.5 -62.499l2 -8v-32c-1.33301 -5.33301 -2 -9 -2 -11c0 -20 -10.333 -40.333 -31 -61s-49 -31 -85 -31h-8l-27 3c-16.667 0 -35 10 -55 30s-30 47.667 -30 83l1 4v8l2 15
c0 20 10.5 40.5 31.5 61.5s46.5 31.5 76.5 31.5zM741.001 1133c-10.667 0 -25.333 9.33398 -44 28.001s-28 36.667 -28 54l-4 27v16c2 8 3 16.667 3 26s9 24.833 27 46.5s38.333 32.5 61 32.5l19 3h24c8 -2 17.333 -3 28 -3s26 -10 46 -30s30 -43.667 30 -71v-24
c0 -28.667 -10.333 -53.334 -31 -74.001s-40.667 -31 -60 -31l-19 -3h-24c-8 2 -17.333 3 -28 3zM646.002 283c5.33301 0 17.9971 21.334 37.9971 64.001c90.667 196 136 347.333 136 454c0 18 -7.5 42 -22.5 72s-22.5 45.667 -22.5 47c0 21.333 45.667 32 137 32h31
c86 0 129 -17 129 -51c0 -14 -16 -38.167 -48 -72.5s-55.5 -68.833 -70.5 -103.5s-66.833 -170.667 -155.5 -408s-158.167 -400.333 -208.5 -489s-98.666 -150.334 -144.999 -185.001s-90.5 -52 -132.5 -52s-75.833 8.66699 -101.5 26s-38.5 41 -38.5 71
c0 39.333 27.333 59 82 59l22 -1l43 -4c48.667 0 92.834 27 132.501 81s59.5 111.667 59.5 173c0 36.667 -63.333 194 -190 472l-45.5 109c-26.333 63.333 -45 106 -56 128s-32.5 53.833 -64.5 95.5s-48 72.167 -48 91.5s14 34 42 44s84.5 15 169.5 15
s127.5 -14.333 127.5 -43l-13 -83c0 -70 53.333 -228.667 160 -476c18.667 -44 36.334 -66 53.001 -66z" />
    <glyph glyph-name="dotlessi" unicode="&#x131;" horiz-adv-x="691" 
d="M242 352v89.9951l1 32v31c0 158.667 -5.66699 251.5 -17 278.5s-34.333 47.833 -69 62.5s-52 32.334 -52 53.001c0 8.66699 6.33301 17.334 19 26.001c46 30.667 136 46 270 46h15c30 0 48.333 -18.667 55 -56c3.33301 -18 5 -135.667 5 -353
s5.16699 -345.166 15.5 -383.499s28.833 -65.166 55.5 -80.499c44 -25.333 66 -45.666 66 -60.999c0 -24.667 -89.667 -37 -269 -37l-93 -2h-64c-44 0 -66 13 -66 39c0 16 15.333 33.5 46 52.5s49.667 37.5 57 55.5c15.333 36.667 23 88.334 23 155.001
c1.33301 21.333 2 38.666 2 51.999z" />
    <glyph glyph-name="Lslash" unicode="&#x141;" horiz-adv-x="1254" 
d="M769 895c19.333 0 28.998 -11.332 28.998 -33.999c0 -32 -37.667 -74.333 -113 -127s-125 -101.667 -149 -147s-36 -118.333 -36 -219s17 -168.5 51 -203.5s92.333 -52.5 175 -52.5s152.334 15.333 209.001 46c31.333 16.667 72.333 53 123 109s84.834 84 102.501 84
s26.5 -18 26.5 -54c0 -92.667 -12 -167.334 -36 -224.001c-8 -19.333 -19.667 -33.666 -35 -42.999c-30.667 -19.333 -198 -29 -502 -29l-315 -1l-35 -1h-36c-68 0 -102 8.66699 -102 26c0 12.667 15.333 31 46 55c64 50 96 132.667 96 248c0 74.667 -6.66699 120 -20 136
c-2 2 -22.5 7.16699 -61.5 15.5s-58.5 23 -58.5 44s19.167 53.5 57.5 97.5s61.666 81.333 69.999 112s12.5 106.5 12.5 227.5s-8.33301 200.833 -25 239.5c-8 19.333 -29 42.166 -63 68.499s-51 42.833 -51 49.5c0 27.333 37 41 111 41h209c116 0 174 -16.333 174 -49
c0 -14 -13 -34 -39 -60c-52 -52.667 -78 -146.667 -78 -282c0 -93.333 18 -140 54 -140c7.33301 0 35.833 11.167 85.5 33.5s90.834 33.5 123.501 33.5z" />
    <glyph glyph-name="lslash" unicode="&#x142;" horiz-adv-x="724" 
d="M643 884c0 -26 -17.0049 -53.0029 -51.0049 -81.0029c-57.333 -47.333 -88.666 -76.666 -93.999 -87.999c-20 -46 -30 -141.667 -30 -287s10 -241.333 30 -288c8.66699 -19.333 28.167 -38.666 58.5 -57.999s45.5 -35.333 45.5 -48c0 -21.333 -92.667 -32 -278 -32
l-49 -1h-23c-79.333 0 -119 11 -119 33c0 16.667 13.5 35.834 40.5 57.501s46.333 48.167 58 79.5s17.5 88.666 17.5 171.999s-5 139.5 -15 168.5s-35.5 43.5 -76.5 43.5s-61.5 13.167 -61.5 39.5s20.833 56.666 62.5 90.999s68.834 67 81.501 98s19 110.167 19 237.5
s-5.16699 205.333 -15.5 234s-26.166 50 -47.499 64c-44 28.667 -66 45.334 -66 50.001c0 17.333 8 30 24 38c58 30 135.667 45 233 45h21c26 0 44.667 -15 56 -45c6 -15.333 9 -44.666 9 -87.999l1 -24c0.666992 -16 1 -36.333 1 -61v-86c0 -102 1.66699 -163 5 -183
c6.66699 -40 22 -60 46 -60c6.66699 0 18.334 3 35.001 9s33.334 9 50.001 9c21.333 0 32 -13 32 -39z" />
    <glyph glyph-name="Nacute" unicode="&#x143;" horiz-adv-x="1577" 
d="M670 1466v25.999c0 44 25.333 88.667 76 134c135.333 120 221 180 257 180h12l19 -3c40.667 0 61 -18.667 61 -56l-1 -6v-6c0 -33.333 -18.333 -62.666 -55 -87.999c-186 -130 -301.667 -195 -347 -195h-9c-8.66699 0 -13 4.66699 -13 14zM1265 30.999
c-36.667 0 -71.1689 12.335 -103.502 37.002s-75.333 67.834 -129 129.501s-170.334 216 -350.001 463s-278.5 370.5 -296.5 370.5s-27 -87.333 -27 -262c0 -328 27.333 -540.333 82 -637l16 -25c14 -20.667 21 -33.334 21 -38.001l-7 -18
c-22 -22.667 -112.333 -34 -271 -34c-86.667 0 -130 13.667 -130 41c0 12.667 27 33.667 81 63c38 20.667 62.167 52 72.5 94s15.5 164.667 15.5 368l3 144c0.666992 32 1 97.5 1 196.5s-5.83301 169.167 -17.5 210.5s-38.5 76.666 -80.5 105.999s-63 51.666 -63 66.999
c0 28 38.667 42 116 42s140.5 -8.83301 189.5 -26.5s93.5 -48.167 133.5 -91.5c18 -19.333 129.667 -163 335 -431s312 -402 320 -402c12.667 0 19 99.833 19 299.5s-9.33301 350.5 -28 452.5c-7.33301 41.333 -21.666 75 -42.999 101l-22 22c-24.667 23.333 -37 36 -37 38
c0 34 47 51 141 51h92c109.333 0 164 -13.333 164 -40c0 -17.333 -21.167 -42.833 -63.5 -76.5s-67.166 -72.667 -74.499 -117s-11 -212.833 -11 -505.5s-1.66699 -464.5 -5 -515.5s-17.666 -76.5 -42.999 -76.5z" />
    </font>
</defs>
</svg>
